999
FreeCAD v1.0 39285 (Git)
  0
SECTION
  2
HEADER
  9
$ACADVER
  1
AC1014
  9
$ACADMAINTVER
 70
     9
  9
$DWGCODEPAGE
  3
ANSI_1252
  9
$TEXTSTYLE
  7
STANDARD
  9
$DIMSTYLE
  2
STANDARD
  9
$DIMTXSTY
  7
STANDARD
  9
$CMLSTYLE
  2
STANDARD
  9
$LUNITS
 70
2
  9
$INSUNITS
 70
4
  9
$PEXTMAX
 10
50
 20
50
 30
50
  9
$PEXTMIN
 10
0
 20
0
 30
0
  9
$HANDSEED
  5
FFFF
  0
ENDSEC
  0
SECTION
  2
CLASSES
  0
CLASS
  1
ACDBDICTIONARYWDFLT
  2
AcDbDictionaryWithDefault
  3
ObjectDBX Classes
 90
        0
280
     0
281
     0
  0
CLASS
  1
XRECORD
  2
AcDbXrecord
  3
ObjectDBX Classes
 90
        0
280
     0
281
     0
  0
CLASS
  1
LWPOLYLINE
  2
AcDbPolyline
  3
ObjectDBX Classes
 90
        0
280
     0
281
     1
  0
ENDSEC
  0
SECTION
  2
TABLES
  0
TABLE
  2
VPORT
  5
20
330
0
100
AcDbSymbolTable
 70
     1
  0
VPORT
  5
21
330
20
100
AcDbSymbolTableRecord
100
AcDbViewportTableRecord
  2
*ACTIVE
 70
     0
  0
ENDTAB
  0
TABLE
  2
LTYPE
  5
22
330
0
100
AcDbSymbolTable
 70
     1
  0
LTYPE
  5
23
330
21
100
AcDbSymbolTableRecord
100
AcDbLinetypeTableRecord
  2
BYBLOCK
 70
     0
  3

 72
    65
 73
     0
 40
0.0
  0
LTYPE
  5
24
330
21
100
AcDbSymbolTableRecord
100
AcDbLinetypeTableRecord
  2
BYLAYER
 70
     0
  3

 72
    65
 73
     0
 40
0.0
  0
LTYPE
  5
25
330
21
100
AcDbSymbolTableRecord
100
AcDbLinetypeTableRecord
  2
CONTINUOUS
 70
     0
  3
Solid line
 72
    65
 73
     0
 40
0.0
  0
ENDTAB
  0
TABLE
  2
LAYER
  5
A32
330
0
100
AcDbSymbolTable
 70
2
  0
LAYER
  5
A33
330
A32
100
AcDbSymbolTableRecord
100
AcDbLayerTableRecord
  2
0
 70
   0
 62
   7
  6
CONTINUOUS
  0
LAYER
  5
A34
330
A32
100
AcDbSymbolTableRecord
100
AcDbLayerTableRecord
  2
View001
 70
    0
 62
    7
  6
CONTINUOUS
  0
ENDTAB
  0
TABLE
  2
STYLE
  5
70
330
0
100
AcDbSymbolTable
 70
     2
  0
STYLE
  5
71
330
70
100
AcDbSymbolTableRecord
100
AcDbTextStyleTableRecord
  2
STANDARD
 70
     0
 40
0.0
 41
1.0
 50
0.0
 71
     0
 42
2.5
  3
arial.ttf
  4

  0
STYLE
  5
72
330
70
100
AcDbSymbolTableRecord
100
AcDbTextStyleTableRecord
  2
ANNOTATIVE
 70
     0
 40
0.0
 41
1.0
 50
0.0
 71
     0
 42
2.5
  3
arial.ttf
  4

  0
ENDTAB
  0
TABLE
  2
VIEW
  5
73
330
0
100
AcDbSymbolTable
 70
     0
  0
ENDTAB
  0
TABLE
  2
UCS
  5
74
330
0
100
AcDbSymbolTable
 70
     0
  0
ENDTAB
  0
TABLE
  2
APPID
  5
75
330
0
100
AcDbSymbolTable
 70
     2
  0
APPID
  5
76
330
75
100
AcDbSymbolTableRecord
100
AcDbRegAppTableRecord
  2
ACAD
 70
     0
  0
APPID
  5
77
330
75
100
AcDbSymbolTableRecord
100
AcDbRegAppTableRecord
  2
ACADANNOTATIVE
 70
     0
  0
ENDTAB
  0
TABLE
  2
DIMSTYLE
  5
78
330
0
100
AcDbSymbolTable
 70
     2
  0
DIMSTYLE
105
79
330
78
100
AcDbSymbolTableRecord
100
AcDbDimStyleTableRecord
  2
STANDARD
 70
     0
  3

  4

  5

  6

  7

 40
0.0
 41
2.5
 42
0.625
 43
3.75
 44
1.25
 45
0.0
 46
0.0
 47
0.0
 48
0.0
140
2.5
141
2.5
142
0.0
143
0.03937007874016
144
1.0
145
0.0
146
1.0
147
0.625
 71
     0
 72
     0
 73
     0
 74
     0
 75
     0
 76
     0
 77
     1
 78
     8
170
     0
171
     3
172
     1
173
     0
174
     0
175
     0
176
     0
177
     0
178
     0
270
     2
271
     2
272
     2
273
     2
274
     3
340
71
275
     0
280
     0
281
     0
282
     0
283
     0
284
     8
285
     0
286
     0
287
     3
288
     0
  0
ENDTAB
  0
TABLE
  2
BLOCK_RECORD
  5
A01
330
0
100
AcDbSymbolTable
  70
5
  0
BLOCK_RECORD
  5
A02
330
A01
100
AcDbSymbolTableRecord
100
AcDbBlockTableRecord
  2
*MODEL_SPACE
  0
BLOCK_RECORD
  5
A03
330
A01
100
AcDbSymbolTableRecord
100
AcDbBlockTableRecord
  2
*PAPER_SPACE
  0
ENDTAB
  0
ENDSEC
  0
SECTION
  2
BLOCKS
  0
BLOCK
  5
A04
330
A02
100
AcDbEntity
  8
0
100
AcDbBlockBegin
  2
*MODEL_SPACE
 70
   0
 10
0
 20
0
 30
0
  3
*MODEL_SPACE
  1
 
  0
ENDBLK
  5
A05
330
A02
100
AcDbEntity
  8
0
100
AcDbBlockEnd
  0
BLOCK
  5
A06
330
A03
100
AcDbEntity
 67
1
  8
0
100
AcDbBlockBegin
  2
*PAPER_SPACE
 70
   0
 10
0
 20
0
 30
0
  3
*PAPER_SPACE
  1
 
  0
ENDBLK
  5
A07
330
A03
100
AcDbEntity
 67
    1
  8
0
100
AcDbBlockEnd
  0
ENDSEC
  0
SECTION
  2
ENTITIES
  0
SPLINE
  5
A08
330
A02
100
AcDbEntity
  8
View001
100
AcDbSpline
210
0
220
0
230
1
 70
8
 71
2
 72
20
 73
17
 74
0
 40
8.145286792
 40
8.145286792
 40
8.145286792
 40
8.172257506
 40
8.172257506
 40
8.226198933
 40
8.226198933
 40
8.280140361
 40
8.280140361
 40
8.334081788
 40
8.334081788
 40
8.388023216
 40
8.388023216
 40
8.414993930
 40
8.414993930
 40
8.468935357
 40
8.468935357
 40
8.522876785
 40
8.522876785
 40
8.522876785
 10
150.981642928
 20
134.031703138
 30
0.000000000
 10
151.023729058
 20
134.165482755
 30
0.000000000
 10
151.065815189
 20
134.299262373
 30
0.000000000
 10
151.155176114
 20
134.565172292
 30
0.000000000
 10
151.255647588
 20
134.827086291
 30
0.000000000
 10
151.359215144
 20
135.087791530
 30
0.000000000
 10
151.473661649
 20
135.343907632
 30
0.000000000
 10
151.591134562
 20
135.598649805
 30
0.000000000
 10
151.719223175
 20
135.848222975
 30
0.000000000
 10
151.850259719
 20
136.096261046
 30
0.000000000
 10
151.991617834
 20
136.338565283
 30
0.000000000
 10
152.064625395
 20
136.458307190
 30
0.000000000
 10
152.137632955
 20
136.578049098
 30
0.000000000
 10
152.288288200
 20
136.814684804
 30
0.000000000
 10
152.448767818
 20
137.044771206
 30
0.000000000
 10
152.611962216
 20
137.272940110
 30
0.000000000
 10
152.784613589
 20
137.494039552
 30
0.000000000
  0
SPLINE
  5
A09
330
A02
100
AcDbEntity
  8
View001
100
AcDbSpline
210
0
220
0
230
1
 70
8
 71
2
 72
30
 73
27
 74
0
 40
3.141592654
 40
3.141592654
 40
3.141592654
 40
3.253792391
 40
3.253792391
 40
3.365992129
 40
3.365992129
 40
3.478191866
 40
3.478191866
 40
3.590391604
 40
3.590391604
 40
3.702591342
 40
3.702591342
 40
3.814791079
 40
3.814791079
 40
3.926990817
 40
3.926990817
 40
4.039190555
 40
4.039190555
 40
4.151390292
 40
4.151390292
 40
4.263590030
 40
4.263590030
 40
4.375789768
 40
4.375789768
 40
4.487989505
 40
4.487989505
 40
4.712388980
 40
4.712388980
 40
4.712388980
 10
21.394812333
 20
153.575053674
 30
0.000000000
 10
21.405815966
 20
153.575053674
 30
0.000000000
 10
21.416819599
 20
153.575053674
 30
0.000000000
 10
21.449692120
 20
153.575053674
 30
0.000000000
 10
21.482564641
 20
153.575053674
 30
0.000000000
 10
21.536892659
 20
153.575053674
 30
0.000000000
 10
21.591220677
 20
153.575053674
 30
0.000000000
 10
21.666320987
 20
153.575053674
 30
0.000000000
 10
21.741421296
 20
153.575053674
 30
0.000000000
 10
21.836349466
 20
153.575053674
 30
0.000000000
 10
21.931277636
 20
153.575053674
 30
0.000000000
 10
22.044839891
 20
153.575053674
 30
0.000000000
 10
22.158402145
 20
153.575053674
 30
0.000000000
 10
22.289170372
 20
153.575053674
 30
0.000000000
 10
22.419938599
 20
153.575053674
 30
0.000000000
 10
22.566268313
 20
153.575053674
 30
0.000000000
 10
22.712598027
 20
153.575053674
 30
0.000000000
 10
22.872649046
 20
153.575053674
 30
0.000000000
 10
23.032700066
 20
153.575053674
 30
0.000000000
 10
23.204459656
 20
153.575053674
 30
0.000000000
 10
23.376219247
 20
153.575053674
 30
0.000000000
 10
23.557527432
 20
153.575053674
 30
0.000000000
 10
23.738835617
 20
153.575053674
 30
0.000000000
 10
23.927412341
 20
153.575053674
 30
0.000000000
 10
24.115989065
 20
153.575053674
 30
0.000000000
 10
24.501554745
 20
153.575053674
 30
0.000000000
 10
24.894812333
 20
153.575053674
 30
0.000000000
  0
LINE
  5
A0A
330
A02
100
AcDbEntity
  8
View001
100
AcDbLine
 10
24.894812333
 20
153.575053674
 30
0.000000000
 11
272.994812333
 21
153.575053674
 31
0.000000000
  0
SPLINE
  5
A0B
330
A02
100
AcDbEntity
  8
View001
100
AcDbSpline
210
0
220
0
230
1
 70
8
 71
2
 72
30
 73
27
 74
0
 40
4.712388980
 40
4.712388980
 40
4.712388980
 40
4.936788456
 40
4.936788456
 40
5.048988193
 40
5.048988193
 40
5.161187931
 40
5.161187931
 40
5.273387669
 40
5.273387669
 40
5.385587406
 40
5.385587406
 40
5.497787144
 40
5.497787144
 40
5.609986881
 40
5.609986881
 40
5.722186619
 40
5.722186619
 40
5.834386357
 40
5.834386357
 40
5.946586094
 40
5.946586094
 40
6.058785832
 40
6.058785832
 40
6.170985570
 40
6.170985570
 40
6.283185307
 40
6.283185307
 40
6.283185307
 10
272.994812333
 20
153.575053674
 30
0.000000000
 10
273.388069921
 20
153.575053674
 30
0.000000000
 10
273.773635602
 20
153.575053674
 30
0.000000000
 10
273.962212326
 20
153.575053674
 30
0.000000000
 10
274.150789050
 20
153.575053674
 30
0.000000000
 10
274.332097235
 20
153.575053674
 30
0.000000000
 10
274.513405420
 20
153.575053674
 30
0.000000000
 10
274.685165011
 20
153.575053674
 30
0.000000000
 10
274.856924601
 20
153.575053674
 30
0.000000000
 10
275.016975621
 20
153.575053674
 30
0.000000000
 10
275.177026640
 20
153.575053674
 30
0.000000000
 10
275.323356354
 20
153.575053674
 30
0.000000000
 10
275.469686068
 20
153.575053674
 30
0.000000000
 10
275.600454295
 20
153.575053674
 30
0.000000000
 10
275.731222522
 20
153.575053674
 30
0.000000000
 10
275.844784776
 20
153.575053674
 30
0.000000000
 10
275.958347031
 20
153.575053674
 30
0.000000000
 10
276.053275201
 20
153.575053674
 30
0.000000000
 10
276.148203371
 20
153.575053674
 30
0.000000000
 10
276.223303680
 20
153.575053674
 30
0.000000000
 10
276.298403990
 20
153.575053674
 30
0.000000000
 10
276.352732008
 20
153.575053674
 30
0.000000000
 10
276.407060026
 20
153.575053674
 30
0.000000000
 10
276.439932547
 20
153.575053674
 30
0.000000000
 10
276.472805068
 20
153.575053674
 30
0.000000000
 10
276.483808701
 20
153.575053674
 30
0.000000000
 10
276.494812333
 20
153.575053674
 30
0.000000000
  0
SPLINE
  5
A0C
330
A02
100
AcDbEntity
  8
View001
100
AcDbSpline
210
0
220
0
230
1
 70
9
 71
1
 72
17
 73
15
 74
0
 40
3.141592654
 40
3.141592654
 40
3.590391604
 40
4.039190555
 40
4.487989505
 40
4.936788456
 40
5.385587406
 40
5.834386357
 40
6.283185307
 40
6.731984258
 40
7.180783208
 40
7.629582159
 40
8.078381109
 40
8.527180060
 40
8.975979010
 40
9.424777961
 40
9.424777961
 10
149.578276333
 20
140.213095674
 30
0.000000000
 10
148.168154181
 20
139.891244495
 30
0.000000000
 10
147.037324015
 20
138.989437530
 30
0.000000000
 10
146.409760619
 20
137.686288710
 30
0.000000000
 10
146.409760619
 20
136.239902639
 30
0.000000000
 10
147.037324015
 20
134.936753818
 30
0.000000000
 10
148.168154181
 20
134.034946854
 30
0.000000000
 10
149.578276333
 20
133.713095674
 30
0.000000000
 10
150.988398486
 20
134.034946854
 30
0.000000000
 10
152.119228651
 20
134.936753818
 30
0.000000000
 10
152.746792048
 20
136.239902639
 30
0.000000000
 10
152.746792048
 20
137.686288710
 30
0.000000000
 10
152.119228651
 20
138.989437530
 30
0.000000000
 10
150.988398486
 20
139.891244495
 30
0.000000000
 10
149.578276333
 20
140.213095674
 30
0.000000000
  0
SPLINE
  5
A0D
330
A02
100
AcDbEntity
  8
View001
100
AcDbSpline
210
0
220
0
230
1
 70
9
 71
1
 72
17
 73
15
 74
0
 40
3.141592654
 40
3.141592654
 40
3.590391604
 40
4.039190555
 40
4.487989505
 40
4.936788456
 40
5.385587406
 40
5.834386357
 40
6.283185307
 40
6.731984258
 40
7.180783208
 40
7.629582159
 40
8.078381109
 40
8.527180060
 40
8.975979010
 40
9.424777961
 40
9.424777961
 10
124.578276333
 20
140.213095674
 30
0.000000000
 10
123.168154181
 20
139.891244495
 30
0.000000000
 10
122.037324015
 20
138.989437530
 30
0.000000000
 10
121.409760619
 20
137.686288710
 30
0.000000000
 10
121.409760619
 20
136.239902639
 30
0.000000000
 10
122.037324015
 20
134.936753818
 30
0.000000000
 10
123.168154181
 20
134.034946854
 30
0.000000000
 10
124.578276333
 20
133.713095674
 30
0.000000000
 10
125.988398486
 20
134.034946854
 30
0.000000000
 10
127.119228651
 20
134.936753818
 30
0.000000000
 10
127.746792048
 20
136.239902639
 30
0.000000000
 10
127.746792048
 20
137.686288710
 30
0.000000000
 10
127.119228651
 20
138.989437530
 30
0.000000000
 10
125.988398486
 20
139.891244495
 30
0.000000000
 10
124.578276333
 20
140.213095674
 30
0.000000000
  0
SPLINE
  5
A0E
330
A02
100
AcDbEntity
  8
View001
100
AcDbSpline
210
0
220
0
230
1
 70
9
 71
1
 72
17
 73
15
 74
0
 40
3.141592654
 40
3.141592654
 40
3.590391604
 40
4.039190555
 40
4.487989505
 40
4.936788456
 40
5.385587406
 40
5.834386357
 40
6.283185307
 40
6.731984258
 40
7.180783208
 40
7.629582159
 40
8.078381109
 40
8.527180060
 40
8.975979010
 40
9.424777961
 40
9.424777961
 10
108.912276333
 20
140.213095674
 30
0.000000000
 10
107.502154181
 20
139.891244495
 30
0.000000000
 10
106.371324015
 20
138.989437530
 30
0.000000000
 10
105.743760619
 20
137.686288710
 30
0.000000000
 10
105.743760619
 20
136.239902639
 30
0.000000000
 10
106.371324015
 20
134.936753818
 30
0.000000000
 10
107.502154181
 20
134.034946854
 30
0.000000000
 10
108.912276333
 20
133.713095674
 30
0.000000000
 10
110.322398486
 20
134.034946854
 30
0.000000000
 10
111.453228651
 20
134.936753818
 30
0.000000000
 10
112.080792048
 20
136.239902639
 30
0.000000000
 10
112.080792048
 20
137.686288710
 30
0.000000000
 10
111.453228651
 20
138.989437530
 30
0.000000000
 10
110.322398486
 20
139.891244495
 30
0.000000000
 10
108.912276333
 20
140.213095674
 30
0.000000000
  0
SPLINE
  5
A0F
330
A02
100
AcDbEntity
  8
View001
100
AcDbSpline
210
0
220
0
230
1
 70
9
 71
1
 72
17
 73
15
 74
0
 40
3.141592654
 40
3.141592654
 40
3.590391604
 40
4.039190555
 40
4.487989505
 40
4.936788456
 40
5.385587406
 40
5.834386357
 40
6.283185307
 40
6.731984258
 40
7.180783208
 40
7.629582159
 40
8.078381109
 40
8.527180060
 40
8.975979010
 40
9.424777961
 40
9.424777961
 10
93.252276333
 20
140.213095674
 30
0.000000000
 10
91.842154181
 20
139.891244495
 30
0.000000000
 10
90.711324015
 20
138.989437530
 30
0.000000000
 10
90.083760619
 20
137.686288710
 30
0.000000000
 10
90.083760619
 20
136.239902639
 30
0.000000000
 10
90.711324015
 20
134.936753818
 30
0.000000000
 10
91.842154181
 20
134.034946854
 30
0.000000000
 10
93.252276333
 20
133.713095674
 30
0.000000000
 10
94.662398486
 20
134.034946854
 30
0.000000000
 10
95.793228651
 20
134.936753818
 30
0.000000000
 10
96.420792048
 20
136.239902639
 30
0.000000000
 10
96.420792048
 20
137.686288710
 30
0.000000000
 10
95.793228651
 20
138.989437530
 30
0.000000000
 10
94.662398486
 20
139.891244495
 30
0.000000000
 10
93.252276333
 20
140.213095674
 30
0.000000000
  0
SPLINE
  5
A10
330
A02
100
AcDbEntity
  8
View001
100
AcDbSpline
210
0
220
0
230
1
 70
9
 71
1
 72
17
 73
15
 74
0
 40
3.141592654
 40
3.141592654
 40
3.590391604
 40
4.039190555
 40
4.487989505
 40
4.936788456
 40
5.385587406
 40
5.834386357
 40
6.283185307
 40
6.731984258
 40
7.180783208
 40
7.629582159
 40
8.078381109
 40
8.527180060
 40
8.975979010
 40
9.424777961
 40
9.424777961
 10
77.586276333
 20
140.213095674
 30
0.000000000
 10
76.176154181
 20
139.891244495
 30
0.000000000
 10
75.045324015
 20
138.989437530
 30
0.000000000
 10
74.417760619
 20
137.686288710
 30
0.000000000
 10
74.417760619
 20
136.239902639
 30
0.000000000
 10
75.045324015
 20
134.936753818
 30
0.000000000
 10
76.176154181
 20
134.034946854
 30
0.000000000
 10
77.586276333
 20
133.713095674
 30
0.000000000
 10
78.996398486
 20
134.034946854
 30
0.000000000
 10
80.127228651
 20
134.936753818
 30
0.000000000
 10
80.754792048
 20
136.239902639
 30
0.000000000
 10
80.754792048
 20
137.686288710
 30
0.000000000
 10
80.127228651
 20
138.989437530
 30
0.000000000
 10
78.996398486
 20
139.891244495
 30
0.000000000
 10
77.586276333
 20
140.213095674
 30
0.000000000
  0
SPLINE
  5
A11
330
A02
100
AcDbEntity
  8
View001
100
AcDbSpline
210
0
220
0
230
1
 70
9
 71
1
 72
17
 73
15
 74
0
 40
3.141592654
 40
3.141592654
 40
3.590391604
 40
4.039190555
 40
4.487989505
 40
4.936788456
 40
5.385587406
 40
5.834386357
 40
6.283185307
 40
6.731984258
 40
7.180783208
 40
7.629582159
 40
8.078381109
 40
8.527180060
 40
8.975979010
 40
9.424777961
 40
9.424777961
 10
52.586276333
 20
140.213095674
 30
0.000000000
 10
51.176154181
 20
139.891244495
 30
0.000000000
 10
50.045324015
 20
138.989437530
 30
0.000000000
 10
49.417760619
 20
137.686288710
 30
0.000000000
 10
49.417760619
 20
136.239902639
 30
0.000000000
 10
50.045324015
 20
134.936753818
 30
0.000000000
 10
51.176154181
 20
134.034946854
 30
0.000000000
 10
52.586276333
 20
133.713095674
 30
0.000000000
 10
53.996398486
 20
134.034946854
 30
0.000000000
 10
55.127228651
 20
134.936753818
 30
0.000000000
 10
55.754792048
 20
136.239902639
 30
0.000000000
 10
55.754792048
 20
137.686288710
 30
0.000000000
 10
55.127228651
 20
138.989437530
 30
0.000000000
 10
53.996398486
 20
139.891244495
 30
0.000000000
 10
52.586276333
 20
140.213095674
 30
0.000000000
  0
LINE
  5
A12
330
A02
100
AcDbEntity
  8
View001
100
AcDbLine
 10
21.447021230
 20
147.592506745
 30
0.000000000
 11
21.822428855
 21
104.575053674
 31
0.000000000
  0
SPLINE
  5
A13
330
A02
100
AcDbEntity
  8
View001
100
AcDbSpline
210
0
220
0
230
1
 70
8
 71
3
 72
14
 73
10
 74
0
 40
1.579522973
 40
1.579522973
 40
1.579522973
 40
1.579522973
 40
2.360557813
 40
2.360557813
 40
2.360557813
 40
2.751075233
 40
2.751075233
 40
2.751075233
 40
3.141592654
 40
3.141592654
 40
3.141592654
 40
3.141592654
 10
21.447021230
 20
147.592506745
 30
0.000000000
 10
21.442945517
 20
148.059537200
 30
0.000000000
 10
21.438153212
 20
148.608680941
 30
0.000000000
 10
21.434778152
 20
148.995424426
 30
0.000000000
 10
21.433070099
 20
149.191147944
 30
0.000000000
 10
21.431788380
 20
149.338018462
 30
0.000000000
 10
21.430932994
 20
149.436035981
 30
0.000000000
 10
21.430105095
 20
149.530903766
 30
0.000000000
 10
21.429700699
 20
149.577242998
 30
0.000000000
 10
21.429719805
 20
149.575053674
 30
0.000000000
  0
LINE
  5
A14
330
A02
100
AcDbEntity
  8
View001
100
AcDbLine
 10
21.429719805
 20
149.575053674
 30
0.000000000
 11
21.394812333
 21
153.575053674
 31
0.000000000
  0
SPLINE
  5
A15
330
A02
100
AcDbEntity
  8
View001
100
AcDbSpline
210
0
220
0
230
1
 70
8
 71
2
 72
30
 73
27
 74
0
 40
4.712388980
 40
4.712388980
 40
4.712388980
 40
4.936788456
 40
4.936788456
 40
5.048988193
 40
5.048988193
 40
5.161187931
 40
5.161187931
 40
5.273387669
 40
5.273387669
 40
5.385587406
 40
5.385587406
 40
5.497787144
 40
5.497787144
 40
5.609986881
 40
5.609986881
 40
5.722186619
 40
5.722186619
 40
5.834386357
 40
5.834386357
 40
5.946586094
 40
5.946586094
 40
6.058785832
 40
6.058785832
 40
6.170985570
 40
6.170985570
 40
6.283185307
 40
6.283185307
 40
6.283185307
 10
24.894812333
 20
149.575053674
 30
0.000000000
 10
24.505476925
 20
149.575053674
 30
0.000000000
 10
24.123756708
 20
149.575053674
 30
0.000000000
 10
23.937060766
 20
149.575053674
 30
0.000000000
 10
23.750364823
 20
149.575053674
 30
0.000000000
 10
23.570864927
 20
149.575053674
 30
0.000000000
 10
23.391365031
 20
149.575053674
 30
0.000000000
 10
23.221318495
 20
149.575053674
 30
0.000000000
 10
23.051271960
 20
149.575053674
 30
0.000000000
 10
22.892817220
 20
149.575053674
 30
0.000000000
 10
22.734362479
 20
149.575053674
 30
0.000000000
 10
22.589492194
 20
149.575053674
 30
0.000000000
 10
22.444621909
 20
149.575053674
 30
0.000000000
 10
22.315157907
 20
149.575053674
 30
0.000000000
 10
22.185693905
 20
149.575053674
 30
0.000000000
 10
22.073264271
 20
149.575053674
 30
0.000000000
 10
21.960834637
 20
149.575053674
 30
0.000000000
 10
21.866853239
 20
149.575053674
 30
0.000000000
 10
21.772871841
 20
149.575053674
 30
0.000000000
 10
21.698520549
 20
149.575053674
 30
0.000000000
 10
21.624169258
 20
149.575053674
 30
0.000000000
 10
21.570383083
 20
149.575053674
 30
0.000000000
 10
21.516596909
 20
149.575053674
 30
0.000000000
 10
21.484052244
 20
149.575053674
 30
0.000000000
 10
21.451507579
 20
149.575053674
 30
0.000000000
 10
21.440613692
 20
149.575053674
 30
0.000000000
 10
21.429719805
 20
149.575053674
 30
0.000000000
  0
LINE
  5
A16
330
A02
100
AcDbEntity
  8
View001
100
AcDbLine
 10
36.287521384
 20
104.575053674
 30
0.000000000
 11
35.912113758
 21
147.592506745
 31
0.000000000
  0
LINE
  5
A17
330
A02
100
AcDbEntity
  8
View001
100
AcDbLine
 10
36.287521384
 20
104.575053674
 30
0.000000000
 11
261.602103283
 21
104.575053674
 31
0.000000000
  0
SPLINE
  5
A18
330
A02
100
AcDbEntity
  8
View001
100
AcDbSpline
210
0
220
0
230
1
 70
8
 71
3
 72
17
 73
13
 74
0
 40
0.000000000
 40
0.000000000
 40
0.000000000
 40
0.000000000
 40
0.390517420
 40
0.390517420
 40
0.390517420
 40
0.781034840
 40
0.781034840
 40
0.781034840
 40
1.171552260
 40
1.171552260
 40
1.171552260
 40
1.562069681
 40
1.562069681
 40
1.562069681
 40
1.562069681
 10
33.912189912
 20
149.575053674
 30
0.000000000
 10
34.146584792
 20
149.575333714
 30
0.000000000
 10
34.399590016
 20
149.532813050
 30
0.000000000
 10
34.644818641
 20
149.436035981
 30
0.000000000
 10
34.889896920
 20
149.340068055
 30
0.000000000
 10
35.125486107
 20
149.189098351
 30
0.000000000
 10
35.320219361
 20
148.995424426
 30
0.000000000
 10
35.515585258
 20
148.802388688
 30
0.000000000
 10
35.668605092
 20
148.568125915
 30
0.000000000
 10
35.766708048
 20
148.323894435
 30
0.000000000
 10
35.865621428
 20
148.079519676
 30
0.000000000
 10
35.910348332
 20
147.826895144
 30
0.000000000
 10
35.912113758
 20
147.592506745
 30
0.000000000
  0
LINE
  5
A19
330
A02
100
AcDbEntity
  8
View001
100
AcDbLine
 10
261.977510909
 20
147.592506745
 30
0.000000000
 11
261.602103283
 21
104.575053674
 31
0.000000000
  0
LINE
  5
A1A
330
A02
100
AcDbEntity
  8
View001
100
AcDbLine
 10
33.912189912
 20
149.575053674
 30
0.000000000
 11
24.894812333
 21
149.575053674
 31
0.000000000
  0
SPLINE
  5
A1B
330
A02
100
AcDbEntity
  8
View001
100
AcDbSpline
210
0
220
0
230
1
 70
8
 71
3
 72
17
 73
13
 74
0
 40
1.579522973
 40
1.579522973
 40
1.579522973
 40
1.579522973
 40
1.970040393
 40
1.970040393
 40
1.970040393
 40
2.360557813
 40
2.360557813
 40
2.360557813
 40
2.751075233
 40
2.751075233
 40
2.751075233
 40
3.141592654
 40
3.141592654
 40
3.141592654
 40
3.141592654
 10
261.977510909
 20
147.592506745
 30
0.000000000
 10
261.979276335
 20
147.826895144
 30
0.000000000
 10
262.024003238
 20
148.079519676
 30
0.000000000
 10
262.122916619
 20
148.323894435
 30
0.000000000
 10
262.221019575
 20
148.568125915
 30
0.000000000
 10
262.374039409
 20
148.802388688
 30
0.000000000
 10
262.569405306
 20
148.995424426
 30
0.000000000
 10
262.764138560
 20
149.189098351
 30
0.000000000
 10
262.999727747
 20
149.340068055
 30
0.000000000
 10
263.244806026
 20
149.436035981
 30
0.000000000
 10
263.490034651
 20
149.532813050
 30
0.000000000
 10
263.743039875
 20
149.575333714
 30
0.000000000
 10
263.977434755
 20
149.575053674
 30
0.000000000
  0
LINE
  5
A1C
330
A02
100
AcDbEntity
  8
View001
100
AcDbLine
 10
272.994812333
 20
149.575053674
 30
0.000000000
 11
263.977434755
 21
149.575053674
 31
0.000000000
  0
SPLINE
  5
A1D
330
A02
100
AcDbEntity
  8
View001
100
AcDbSpline
210
0
220
0
230
1
 70
8
 71
2
 72
30
 73
27
 74
0
 40
3.141592654
 40
3.141592654
 40
3.141592654
 40
3.253792391
 40
3.253792391
 40
3.365992129
 40
3.365992129
 40
3.478191866
 40
3.478191866
 40
3.590391604
 40
3.590391604
 40
3.702591342
 40
3.702591342
 40
3.814791079
 40
3.814791079
 40
3.926990817
 40
3.926990817
 40
4.039190555
 40
4.039190555
 40
4.151390292
 40
4.151390292
 40
4.263590030
 40
4.263590030
 40
4.375789768
 40
4.375789768
 40
4.487989505
 40
4.487989505
 40
4.712388980
 40
4.712388980
 40
4.712388980
 10
276.459904862
 20
149.575053674
 30
0.000000000
 10
276.449010975
 20
149.575053674
 30
0.000000000
 10
276.438117088
 20
149.575053674
 30
0.000000000
 10
276.405572423
 20
149.575053674
 30
0.000000000
 10
276.373027758
 20
149.575053674
 30
0.000000000
 10
276.319241584
 20
149.575053674
 30
0.000000000
 10
276.265455409
 20
149.575053674
 30
0.000000000
 10
276.191104118
 20
149.575053674
 30
0.000000000
 10
276.116752826
 20
149.575053674
 30
0.000000000
 10
276.022771428
 20
149.575053674
 30
0.000000000
 10
275.928790030
 20
149.575053674
 30
0.000000000
 10
275.816360396
 20
149.575053674
 30
0.000000000
 10
275.703930762
 20
149.575053674
 30
0.000000000
 10
275.574466760
 20
149.575053674
 30
0.000000000
 10
275.445002758
 20
149.575053674
 30
0.000000000
 10
275.300132473
 20
149.575053674
 30
0.000000000
 10
275.155262188
 20
149.575053674
 30
0.000000000
 10
274.996807447
 20
149.575053674
 30
0.000000000
 10
274.838352707
 20
149.575053674
 30
0.000000000
 10
274.668306172
 20
149.575053674
 30
0.000000000
 10
274.498259636
 20
149.575053674
 30
0.000000000
 10
274.318759740
 20
149.575053674
 30
0.000000000
 10
274.139259843
 20
149.575053674
 30
0.000000000
 10
273.952563901
 20
149.575053674
 30
0.000000000
 10
273.765867959
 20
149.575053674
 30
0.000000000
 10
273.384147742
 20
149.575053674
 30
0.000000000
 10
272.994812333
 20
149.575053674
 30
0.000000000
  0
LINE
  5
A1E
330
A02
100
AcDbEntity
  8
View001
100
AcDbLine
 10
276.459904862
 20
149.575053674
 30
0.000000000
 11
276.494812333
 21
153.575053674
 31
0.000000000
  0
LINE
  5
A1F
330
A02
100
AcDbEntity
  8
View001
100
AcDbLine
 10
276.067195812
 20
104.575053674
 30
0.000000000
 11
276.442603437
 21
147.592506745
 31
0.000000000
  0
SPLINE
  5
A20
330
A02
100
AcDbEntity
  8
View001
100
AcDbSpline
210
0
220
0
230
1
 70
8
 71
3
 72
14
 73
10
 74
0
 40
0.000000000
 40
0.000000000
 40
0.000000000
 40
0.000000000
 40
0.390517420
 40
0.390517420
 40
0.390517420
 40
0.781034840
 40
0.781034840
 40
0.781034840
 40
1.562069681
 40
1.562069681
 40
1.562069681
 40
1.562069681
 10
276.459904862
 20
149.575053674
 30
0.000000000
 10
276.459923968
 20
149.577242998
 30
0.000000000
 10
276.459519572
 20
149.530903766
 30
0.000000000
 10
276.458691673
 20
149.436035981
 30
0.000000000
 10
276.457836287
 20
149.338018462
 30
0.000000000
 10
276.456554568
 20
149.191147944
 30
0.000000000
 10
276.454846514
 20
148.995424426
 30
0.000000000
 10
276.451471455
 20
148.608680941
 30
0.000000000
 10
276.446679150
 20
148.059537200
 30
0.000000000
 10
276.442603437
 20
147.592506745
 30
0.000000000
  0
LINE
  5
A21
330
A02
100
AcDbEntity
  8
View001
100
AcDbLine
 10
22.487521384
 20
104.575053674
 30
0.000000000
 11
21.822428855
 21
104.575053674
 31
0.000000000
  0
LINE
  5
A22
330
A02
100
AcDbEntity
  8
View001
100
AcDbLine
 10
275.402103283
 20
104.575053674
 30
0.000000000
 11
276.067195812
 21
104.575053674
 31
0.000000000
  0
LINE
  5
A23
330
A02
100
AcDbEntity
  8
View001
100
AcDbLine
 10
261.410830151
 20
103.575053674
 30
0.000000000
 11
261.402103283
 21
104.575053674
 31
0.000000000
  0
LINE
  5
A24
330
A02
100
AcDbEntity
  8
View001
100
AcDbLine
 10
272.994812333
 20
103.575053674
 30
0.000000000
 11
261.410830151
 21
103.575053674
 31
0.000000000
  0
LINE
  5
A25
330
A02
100
AcDbEntity
  8
View001
100
AcDbLine
 10
36.478794516
 20
103.575053674
 30
0.000000000
 11
24.894812333
 21
103.575053674
 31
0.000000000
  0
LINE
  5
A26
330
A02
100
AcDbEntity
  8
View001
100
AcDbLine
 10
36.478794516
 20
103.575053674
 30
0.000000000
 11
36.487521384
 21
104.575053674
 31
0.000000000
  0
LINE
  5
A27
330
A02
100
AcDbEntity
  8
View001
100
AcDbLine
 10
22.496248252
 20
103.575053674
 30
0.000000000
 11
22.094812333
 21
149.575053674
 31
0.000000000
  0
LINE
  5
A28
330
A02
100
AcDbEntity
  8
View001
100
AcDbLine
 10
275.393376415
 20
103.575053674
 30
0.000000000
 11
275.794812333
 21
149.575053674
 31
0.000000000
  0
SPLINE
  5
A29
330
A02
100
AcDbEntity
  8
View001
100
AcDbSpline
210
0
220
0
230
1
 70
8
 71
2
 72
30
 73
27
 74
0
 40
1.570796327
 40
1.570796327
 40
1.570796327
 40
1.682996064
 40
1.682996064
 40
1.907395540
 40
1.907395540
 40
2.019595277
 40
2.019595277
 40
2.131795015
 40
2.131795015
 40
2.243994753
 40
2.243994753
 40
2.356194490
 40
2.356194490
 40
2.468394228
 40
2.468394228
 40
2.580593965
 40
2.580593965
 40
2.692793703
 40
2.692793703
 40
2.804993441
 40
2.804993441
 40
2.917193178
 40
2.917193178
 40
3.029392916
 40
3.029392916
 40
3.141592654
 40
3.141592654
 40
3.141592654
 10
24.894812333
 20
103.575053674
 30
0.000000000
 10
24.760535348
 20
103.575053674
 30
0.000000000
 10
24.626258363
 20
103.575053674
 30
0.000000000
 10
24.359199451
 20
103.575053674
 30
0.000000000
 10
24.102616839
 20
103.575053674
 30
0.000000000
 10
23.978365610
 20
103.575053674
 30
0.000000000
 10
23.854114381
 20
103.575053674
 30
0.000000000
 10
23.736406843
 20
103.575053674
 30
0.000000000
 10
23.618699304
 20
103.575053674
 30
0.000000000
 10
23.509015697
 20
103.575053674
 30
0.000000000
 10
23.399332089
 20
103.575053674
 30
0.000000000
 10
23.299051748
 20
103.575053674
 30
0.000000000
 10
23.198771406
 20
103.575053674
 30
0.000000000
 10
23.109155414
 20
103.575053674
 30
0.000000000
 10
23.019539422
 20
103.575053674
 30
0.000000000
 10
22.941714752
 20
103.575053674
 30
0.000000000
 10
22.863890082
 20
103.575053674
 30
0.000000000
 10
22.798835425
 20
103.575053674
 30
0.000000000
 10
22.733780768
 20
103.575053674
 30
0.000000000
 10
22.682314224
 20
103.575053674
 30
0.000000000
 10
22.630847680
 20
103.575053674
 30
0.000000000
 10
22.593616471
 20
103.575053674
 30
0.000000000
 10
22.556385261
 20
103.575053674
 30
0.000000000
 10
22.533857590
 20
103.575053674
 30
0.000000000
 10
22.511329919
 20
103.575053674
 30
0.000000000
 10
22.503789086
 20
103.575053674
 30
0.000000000
 10
22.496248252
 20
103.575053674
 30
0.000000000
  0
SPLINE
  5
A2A
330
A02
100
AcDbEntity
  8
View001
100
AcDbSpline
210
0
220
0
230
1
 70
8
 71
2
 72
30
 73
27
 74
0
 40
3.141592654
 40
3.141592654
 40
3.141592654
 40
3.253792391
 40
3.253792391
 40
3.365992129
 40
3.365992129
 40
3.478191866
 40
3.478191866
 40
3.590391604
 40
3.590391604
 40
3.702591342
 40
3.702591342
 40
3.814791079
 40
3.814791079
 40
3.926990817
 40
3.926990817
 40
4.039190555
 40
4.039190555
 40
4.151390292
 40
4.151390292
 40
4.263590030
 40
4.263590030
 40
4.375789768
 40
4.375789768
 40
4.487989505
 40
4.487989505
 40
4.712388980
 40
4.712388980
 40
4.712388980
 10
275.393376415
 20
103.575053674
 30
0.000000000
 10
275.385835581
 20
103.575053674
 30
0.000000000
 10
275.378294748
 20
103.575053674
 30
0.000000000
 10
275.355767077
 20
103.575053674
 30
0.000000000
 10
275.333239406
 20
103.575053674
 30
0.000000000
 10
275.296008196
 20
103.575053674
 30
0.000000000
 10
275.258776987
 20
103.575053674
 30
0.000000000
 10
275.207310443
 20
103.575053674
 30
0.000000000
 10
275.155843899
 20
103.575053674
 30
0.000000000
 10
275.090789242
 20
103.575053674
 30
0.000000000
 10
275.025734585
 20
103.575053674
 30
0.000000000
 10
274.947909915
 20
103.575053674
 30
0.000000000
 10
274.870085245
 20
103.575053674
 30
0.000000000
 10
274.780469253
 20
103.575053674
 30
0.000000000
 10
274.690853261
 20
103.575053674
 30
0.000000000
 10
274.590572919
 20
103.575053674
 30
0.000000000
 10
274.490292577
 20
103.575053674
 30
0.000000000
 10
274.380608970
 20
103.575053674
 30
0.000000000
 10
274.270925362
 20
103.575053674
 30
0.000000000
 10
274.153217824
 20
103.575053674
 30
0.000000000
 10
274.035510286
 20
103.575053674
 30
0.000000000
 10
273.911259057
 20
103.575053674
 30
0.000000000
 10
273.787007828
 20
103.575053674
 30
0.000000000
 10
273.657775441
 20
103.575053674
 30
0.000000000
 10
273.528543053
 20
103.575053674
 30
0.000000000
 10
273.264313341
 20
103.575053674
 30
0.000000000
 10
272.994812333
 20
103.575053674
 30
0.000000000
  0
LINE
  5
A2B
330
A02
100
AcDbEntity
  8
View001
100
AcDbLine
 10
24.894812333
 20
149.575053674
 30
0.000000000
 11
24.894812333
 21
153.575053674
 31
0.000000000
  0
LINE
  5
A2C
330
A02
100
AcDbEntity
  8
View001
100
AcDbLine
 10
272.994812333
 20
149.575053674
 30
0.000000000
 11
272.994812333
 21
153.575053674
 31
0.000000000
  0
LINE
  5
A2D
330
A02
100
AcDbEntity
  8
View001
100
AcDbLine
 10
22.112113758
 20
147.592506745
 30
0.000000000
 11
21.447021230
 21
147.592506745
 31
0.000000000
  0
LINE
  5
A2E
330
A02
100
AcDbEntity
  8
View001
100
AcDbLine
 10
276.442603437
 20
147.592506745
 30
0.000000000
 11
275.777510909
 21
147.592506745
 31
0.000000000
  0
LINE
  5
A2F
330
A02
100
AcDbEntity
  8
View001
100
AcDbLine
 10
272.994812333
 20
103.575053674
 30
0.000000000
 11
272.994812333
 21
149.575053674
 31
0.000000000
  0
LINE
  5
A30
330
A02
100
AcDbEntity
  8
View001
100
AcDbLine
 10
24.894812333
 20
103.575053674
 30
0.000000000
 11
24.894812333
 21
149.575053674
 31
0.000000000
  0
LINE
  5
A31
330
A02
100
AcDbEntity
  8
View001
100
AcDbLine
 10
52.574812333
 20
120.225053674
 30
0.000000000
 11
149.624812333
 21
120.115053674
 31
0.000000000
  0
ENDSEC
  0
SECTION
  2
OBJECTS
  0
DICTIONARY
  5
F000
330
0
100
AcDbDictionary
  3
ACAD_GROUP
350
F001
  0
DICTIONARY
  5
F001
330
F000
100
AcDbDictionary
  0
ENDSEC
  0
EOF