  0
SECTION
  2
HEADER
  9
$ACADVER
  1
AC1009
  9
$INSBASE
 10
0.0
 20
0.0
 30
0.0
  9
$EXTMIN
 10
-66.891150193362392
 20
1.2463997870692649
 30
0.0
  9
$EXTMAX
 10
640.62209517998213
 20
332.84214527125772
 30
0.0
  9
$LIMMIN
 10
0.0
 20
0.0
  9
$LIMMAX
 10
571.84598788675544
 20
282.45921431323222
  9
$ORTHOMODE
 70
     1
  9
$REGENMODE
 70
     1
  9
$FILLMODE
 70
     1
  9
$QTEXTMODE
 70
     0
  9
$MIRRTEXT
 70
     1
  9
$DRAGMODE
 70
     2
  9
$LTSCALE
 40
15.0
  9
$OSMODE
 70
     5
  9
$ATTMODE
 70
     1
  9
$TEXTSIZE
 40
3.5
  9
$TRACEWID
 40
1.0
  9
$TEXTSTYLE
  7
SIMPLEX
  9
$CLAYER
  8
L1
  9
$CELTYPE
  6
BYLAYER
  9
$CECOLOR
 62
   256
  9
$DIMSCALE
 40
1.0
  9
$DIMASZ
 40
3.5
  9
$DIMEXO
 40
0.0625
  9
$DIMDLI
 40
0.38
  9
$DIMRND
 40
0.0
  9
$DIMDLE
 40
0.0
  9
$DIMEXE
 40
0.18
  9
$DIMTP
 40
0.0
  9
$DIMTM
 40
0.0
  9
$DIMTXT
 40
3.5
  9
$DIMCEN
 40
1.0
  9
$DIMTSZ
 40
0.0
  9
$DIMTOL
 70
     0
  9
$DIMLIM
 70
     0
  9
$DIMTIH
 70
     0
  9
$DIMTOH
 70
     0
  9
$DIMSE1
 70
     0
  9
$DIMSE2
 70
     0
  9
$DIMTAD
 70
     1
  9
$DIMZIN
 70
     8
  9
$DIMBLK
  1

  9
$DIMASO
 70
     1
  9
$DIMSHO
 70
     1
  9
$DIMPOST
  1

  9
$DIMAPOST
  1

  9
$DIMALT
 70
     0
  9
$DIMALTD
 70
     2
  9
$DIMALTF
 40
25.399999999999999
  9
$DIMLFAC
 40
1.0
  9
$DIMTOFL
 70
     0
  9
$DIMTVP
 40
0.0
  9
$DIMTIX
 70
     0
  9
$DIMSOXD
 70
     0
  9
$DIMSAH
 70
     0
  9
$DIMBLK1
  1

  9
$DIMBLK2
  1

  9
$DIMSTYLE
  2
FIBOX
  9
$DIMCLRD
 70
     1
  9
$DIMCLRE
 70
     1
  9
$DIMCLRT
 70
     3
  9
$DIMTFAC
 40
1.0
  9
$DIMGAP
 40
0.8
  9
$LUNITS
 70
     2
  9
$LUPREC
 70
     4
  9
$SKETCHINC
 40
1.0
  9
$FILLETRAD
 40
3.5
  9
$AUNITS
 70
     0
  9
$AUPREC
 70
     0
  9
$MENU
  1
.
  9
$ELEVATION
 40
0.0
  9
$PELEVATION
 40
0.0
  9
$THICKNESS
 40
0.0
  9
$LIMCHECK
 70
     0
  9
$BLIPMODE
 70
     0
  9
$CHAMFERA
 40
10.0
  9
$CHAMFERB
 40
10.0
  9
$SKPOLY
 70
     0
  9
$TDCREATE
 40
2450458.5830949759
  9
$TDUPDATE
 40
2452502.5308760419
  9
$TDINDWG
 40
0.717621169
  9
$TDUSRTIMER
 40
0.717621169
  9
$USRTIMER
 70
     1
  9
$ANGBASE
 50
0.0
  9
$ANGDIR
 70
     0
  9
$PDMODE
 70
     0
  9
$PDSIZE
 40
0.0
  9
$PLINEWID
 40
0.0
  9
$COORDS
 70
     2
  9
$SPLFRAME
 70
     0
  9
$SPLINETYPE
 70
     6
  9
$SPLINESEGS
 70
     8
  9
$ATTDIA
 70
     0
  9
$ATTREQ
 70
     1
  9
$HANDLING
 70
 22529
  9
$HANDSEED
  5
184D
  9
$SURFTAB1
 70
     6
  9
$SURFTAB2
 70
     6
  9
$SURFTYPE
 70
     6
  9
$SURFU
 70
     6
  9
$SURFV
 70
     6
  9
$UCSNAME
  2

  9
$UCSORG
 10
0.0
 20
0.0
 30
0.0
  9
$UCSXDIR
 10
1.0
 20
0.0
 30
0.0
  9
$UCSYDIR
 10
0.0
 20
1.0
 30
0.0
  9
$PUCSNAME
  2

  9
$PUCSORG
 10
0.0
 20
0.0
 30
0.0
  9
$PUCSXDIR
 10
1.0
 20
0.0
 30
0.0
  9
$PUCSYDIR
 10
0.0
 20
1.0
 30
0.0
  9
$USERI1
 70
     0
  9
$USERI2
 70
     0
  9
$USERI3
 70
     0
  9
$USERI4
 70
     0
  9
$USERI5
 70
     0
  9
$USERR1
 40
0.0
  9
$USERR2
 40
0.0
  9
$USERR3
 40
0.0
  9
$USERR4
 40
0.0
  9
$USERR5
 40
0.0
  9
$WORLDVIEW
 70
     1
  9
$SHADEDGE
 70
     3
  9
$SHADEDIF
 70
    70
  9
$TILEMODE
 70
     1
  9
$MAXACTVP
 70
    16
  9
$PLIMCHECK
 70
     0
  9
$PEXTMIN
 10
-563.59530269305765
 20
-0.2105770487715972
 30
0.0
  9
$PEXTMAX
 10
30.404697306942349
 20
419.7894229512284
 30
0.0
  9
$PLIMMIN
 10
0.0
 20
0.0
  9
$PLIMMAX
 10
420.0
 20
297.0
  9
$UNITMODE
 70
     0
  9
$VISRETAIN
 70
     0
  9
$PLINEGEN
 70
     0
  9
$PSLTSCALE
 70
     1
  0
ENDSEC
  0
SECTION
  2
TABLES
  0
TABLE
  2
VPORT
 70
     2
  0
VPORT
  2
*ACTIVE
 70
     0
 10
0.0
 20
0.0
 11
1.0
 21
1.0
 12
528.07866699216652
 22
-4.4609849595286164
 13
0.0
 23
0.0
 14
10.0
 24
10.0
 15
10.0
 25
10.0
 16
0.0
 26
0.0
 36
1.0
 17
-241.20173189795719
 27
171.50037569982149
 37
-221.07012254811389
 40
467.61872578817429
 41
1.5205479452054791
 42
50.0
 43
0.0
 44
0.0
 50
0.0
 51
0.0
 71
     0
 72
   500
 73
     1
 74
     1
 75
     0
 76
     0
 77
     0
 78
     0
  0
ENDTAB
  0
TABLE
  2
LTYPE
 70
     3
  0
LTYPE
  2
CONTINUOUS
 70
     0
  3
Solid line
 72
    65
 73
     0
 40
0.0
  0
LTYPE
  2
HIDDEN
 70
     0
  3
__ __ __ __ __ __ __ __ __ __ __ __ __ __ __ __
 72
    65
 73
     2
 40
0.375
 49
0.25
 49
-0.125
  0
LTYPE
  2
CENTER
 70
     0
  3
____ _ ____ _ ____ _ ____ _ ____ _ ____ _ ____ 
 72
    65
 73
     4
 40
2.0
 49
1.25
 49
-0.25
 49
0.25
 49
-0.25
  0
ENDTAB
  0
TABLE
  2
LAYER
 70
     4
  0
LAYER
  2
0
 70
     0
 62
     7
  6
CONTINUOUS
  0
LAYER
  2
L2
 70
     0
 62
     1
  6
HIDDEN
  0
LAYER
  2
L1
 70
     0
 62
     7
  6
CONTINUOUS
  0
LAYER
  2
L6
 70
     0
 62
     1
  6
CENTER
  0
ENDTAB
  0
TABLE
  2
STYLE
 70
     2
  0
STYLE
  2
STANDARD
 70
     0
 40
0.0
 41
1.0
 50
0.0
 71
     0
 42
2.5
  3
ISOCP
  4

  0
STYLE
  2
SIMPLEX
 70
     0
 40
0.0
 41
0.8
 50
0.0
 71
     0
 42
3.5
  3
simplex.shx
  4

  0
ENDTAB
  0
TABLE
  2
VIEW
 70
     0
  0
ENDTAB
  0
TABLE
  2
UCS
 70
     0
  0
ENDTAB
  0
TABLE
  2
APPID
 70
     1
  0
APPID
  2
ACAD
 70
     0
  0
ENDTAB
  0
TABLE
  2
DIMSTYLE
 70
     1
  0
DIMSTYLE
  2
FIBOX
 70
     0
  3

  4

  5

  6

  7

 40
1.0
 41
3.5
 42
0.0625
 43
0.38
 44
0.18
 45
0.0
 46
0.0
 47
0.0
 48
0.0
140
3.5
141
1.0
142
0.0
143
25.399999999999999
144
1.0
145
0.0
146
1.0
147
0.8
 71
     0
 72
     0
 73
     0
 74
     0
 75
     0
 76
     0
 77
     1
 78
     8
170
     0
171
     2
172
     0
173
     0
174
     0
175
     0
176
     1
177
     1
178
     3
  0
ENDTAB
  0
ENDSEC
  0
SECTION
  2
BLOCKS
  0
BLOCK
  8
0
  2
$MODEL_SPACE
 70
     0
 10
0.0
 20
0.0
 30
0.0
  3
$MODEL_SPACE
  1

  0
ENDBLK
  5
6
  8
0
  0
BLOCK
 67
     1
  8
0
  2
$PAPER_SPACE
 70
     0
 10
0.0
 20
0.0
 30
0.0
  3
$PAPER_SPACE
  1

  0
ENDBLK
  5
9
 67
     1
  8
0
  0
ENDSEC
  0
SECTION
  2
ENTITIES
  0
LINE
  5
1F
  8
L6
 10
302.44983039099287
 20
167.04427252916349
 30
0.0
 11
571.74140923421305
 21
167.04427252916349
 31
0.0
  0
LINE
  5
27
  8
L1
 10
326.33790408862649
 20
93.044272529163464
 30
0.0
 11
435.83790408862649
 21
93.044272529163464
 31
0.0
  0
LINE
  5
29
  8
L1
 10
313.1839510175555
 20
77.044272529163464
 30
0.0
 11
435.83790408862649
 21
77.044759806126422
 31
0.0
  0
LINE
  5
2D
  8
L1
 10
310.42774247090728
 20
297.0728143438173
 30
0.0
 11
373.3379040886266
 21
297.07281434381707
 31
0.0
  0
LINE
  5
2E
  8
L1
 10
373.3379040886266
 20
298.2421452712577
 30
0.0
 11
309.0879040886266
 21
298.2421452712577
 31
0.0
  0
LINE
  5
2F
  8
L1
 10
308.32983031205288
 20
299.04214527125771
 30
0.0
 11
373.3379040886266
 21
299.04214527125771
 31
0.0
  0
LINE
  5
31
  8
L2
 10
324.33790408862649
 20
324.34214527125772
 30
0.0
 11
373.3379040886266
 21
324.34214527125772
 31
0.0
  0
LINE
  5
34
  8
L2
 10
312.25375739265638
 20
322.14214527125768
 30
0.0
 11
435.8379040886266
 21
322.14214527125768
 31
0.0
  0
LINE
  5
35
  8
L1
 10
310.28195101755551
 20
324.84214527125772
 30
0.0
 11
373.3379040886266
 21
324.84214527125772
 31
0.0
  0
LINE
  5
36
  8
L6
 10
-66.891150193362392
 20
167.04427252916349
 30
0.0
 11
206.04401342216411
 21
167.04427252916349
 31
0.0
  0
LINE
  5
37
  8
L1
 10
72.862702537669023
 20
78.544272529163791
 30
0.0
 11
183.0127025376689
 21
78.544272529163635
 31
0.0
  0
LINE
  5
38
  8
L1
 10
72.862702537668994
 20
79.84427252916359
 30
0.0
 11
182.31321655020571
 21
79.844272529163703
 31
0.0
  0
LINE
  5
39
  8
L1
 10
72.862702537668994
 20
77.044272529163663
 30
0.0
 11
197.3659731032499
 21
77.044272529163635
 31
0.0
  0
LINE
  5
3A
  8
L1
 10
197.41070253766901
 20
77.844272529163646
 30
0.0
 11
72.862702537668994
 21
77.844272529163717
 31
0.0
  0
LINE
  5
3F
  8
L6
 10
72.862702537668994
 20
272.01627291270978
 30
0.0
 11
72.862702537668994
 21
70.393902078758003
 31
0.0
  0
LINE
  5
92
  8
L6
 10
435.8379040886266
 20
262.94891674438509
 30
0.0
 11
435.8379040886266
 21
60.87376688042621
 31
0.0
  0
CIRCLE
  5
97
  8
L1
 10
316.5879040886266
 20
85.294272529163464
 30
0.0
 40
5.7982698575061704
  0
CIRCLE
  5
98
  8
L1
 10
316.5879040886266
 20
85.294272529163464
 30
0.0
 40
5.9982622421189946
  0
ARC
  5
99
  8
L1
 10
316.5879040886266
 20
85.294272529163464
 30
0.0
 40
5.0
 50
177.2685844295726
 51
272.73141557042828
  0
LINE
  5
9A
  8
L1
 10
321.58222356913558
 20
85.05600182889205
 30
0.0
 11
316.82617478889802
 21
80.299953048654416
 31
0.0
  0
LINE
  5
9B
  8
L1
 10
310.2819510175554
 20
80.546272529163517
 30
0.0
 11
310.2819510175554
 21
167.04427252916349
 31
0.0
  0
LINE
  5
9C
  8
L1
 10
308.32774247090742
 20
80.546272529163488
 30
0.0
 11
308.32774247090731
 21
167.04427252916341
 31
0.0
  0
LINE
  5
9D
  8
L1
 10
199.0728641553882
 20
81.444272529163669
 30
0.0
 11
199.0728641553882
 21
92.513109301824301
 31
0.0
  0
LINE
  5
9E
  8
L1
 10
192.3630754602022
 20
80.274284461489771
 30
0.0
 11
187.592714469995
 21
85.044645451696866
 31
0.0
  0
ARC
  5
9F
  8
L1
 10
192.61270253766901
 20
85.294272529163635
 30
0.0
 40
5.0261806033722758
 50
267.2685844295724
 51
2.73141557042806
  0
LINE
  5
A0
  8
L1
 10
186.312702537669
 20
82.794272529163635
 30
0.0
 11
186.312702537669
 21
85.294272529163578
 31
0.0
  0
LINE
  5
A1
  8
L1
 10
183.812702537669
 20
81.343758516626991
 30
0.0
 11
183.812702537669
 21
85.294272529163635
 31
0.0
  0
LINE
  5
A2
  8
L1
 10
200.87286415538821
 20
167.04427252916349
 30
0.0
 11
200.87286415538821
 21
80.546272529163517
 31
0.0
  0
LINE
  5
A3
  8
L1
 10
200.11270253766889
 20
80.546272529163517
 30
0.0
 11
200.11270253766889
 21
167.04427252916349
 31
0.0
  0
ARC
  5
A4
  8
L1
 10
196.47286415538821
 20
81.444272529163669
 30
0.0
 40
2.6000000000000001
 50
270.0
 51
0.0
  0
LINE
  5
A5
  8
L1
 10
185.3938657650084
 20
78.844272529163646
 30
0.0
 11
196.47286415538821
 21
78.844272529163646
 31
0.0
  0
POLYLINE
  5
A6
  8
L1
 66
     1
 10
0.0
 20
0.0
 30
0.0
  0
VERTEX
  5
13A9
  8
L1
 10
185.19545924286831
 20
79.369283000719719
 30
0.0
  0
VERTEX
  5
13AA
  8
L1
 10
185.17561055560881
 20
79.350083520271227
 30
0.0
  0
VERTEX
  5
13AB
  8
L1
 10
185.15764605505751
 20
79.329185213388456
 30
0.0
  0
VERTEX
  5
13AC
  8
L1
 10
185.1416741404133
 20
79.306726114771905
 30
0.0
  0
VERTEX
  5
13AD
  8
L1
 10
185.12780321087419
 20
79.282844259122015
 30
0.0
  0
VERTEX
  5
13AE
  8
L1
 10
185.1158683024149
 20
79.257005301428961
 30
0.0
  0
VERTEX
  5
13AF
  8
L1
 10
185.106453585357
 20
79.230212224596499
 30
0.0
  0
VERTEX
  5
13B0
  8
L1
 10
185.09961415443729
 20
79.202649078584074
 30
0.0
  0
VERTEX
  5
13B1
  8
L1
 10
185.0954051043926
 20
79.174499913351241
 30
0.0
  0
VERTEX
  5
13B2
  8
L1
 10
185.09387832045959
 20
79.145134902880642
 30
0.0
  0
VERTEX
  5
13B3
  8
L1
 10
185.0952269743496
 20
79.115830796758615
 30
0.0
  0
VERTEX
  5
13B4
  8
L1
 10
185.09943105572449
 20
79.086798505718349
 30
0.0
  0
VERTEX
  5
13B5
  8
L1
 10
185.1064705542461
 20
79.058248940493016
 30
0.0
  0
VERTEX
  5
13B6
  8
L1
 10
185.11638299310201
 20
79.030253727434371
 30
0.0
  0
VERTEX
  5
13B7
  8
L1
 10
185.12898132328419
 20
79.003439188868839
 30
0.0
  0
VERTEX
  5
13B8
  8
L1
 10
185.1441631094344
 20
78.97799807778145
 30
0.0
  0
VERTEX
  5
13B9
  8
L1
 10
185.16182591619429
 20
78.954123147157162
 30
0.0
  0
VERTEX
  5
13BA
  8
L1
 10
185.1812554340878
 20
78.93262051672454
 30
0.0
  0
VERTEX
  5
13BB
  8
L1
 10
185.20261783652089
 20
78.913135661836719
 30
0.0
  0
VERTEX
  5
13BC
  8
L1
 10
185.22575683716349
 20
78.895797875250111
 30
0.0
  0
VERTEX
  5
13BD
  8
L1
 10
185.25051614968609
 20
78.880736449720786
 30
0.0
  0
VERTEX
  5
13BE
  8
L1
 10
185.27199225812899
 20
78.870142617696189
 30
0.0
  0
VERTEX
  5
13BF
  8
L1
 10
185.29420928972101
 20
78.861308086246964
 30
0.0
  0
VERTEX
  5
13C0
  8
L1
 10
185.31705930026689
 20
78.854270837176131
 30
0.0
  0
VERTEX
  5
13C1
  8
L1
 10
185.34043434557171
 20
78.849068852286706
 30
0.0
  0
VERTEX
  5
13C2
  8
L1
 10
185.36705660327331
 20
78.845472753767595
 30
0.0
  0
VERTEX
  5
13C3
  8
L1
 10
185.3938657650084
 20
78.844272529163646
 30
0.0
  0
SEQEND
  5
13C4
  8
L1
  0
ARC
  5
A7
  8
L1
 10
183.0127025376689
 20
81.844272529163689
 30
0.0
 40
3.3000000000000149
 50
311.40989698076561
 51
359.99999999999937
  0
ARC
  5
A8
  8
L1
 10
183.0127025376689
 20
81.844272529163689
 30
0.0
 40
3.3000000000000149
 50
270.0
 51
311.40989698076561
  0
POLYLINE
  5
A9
  8
L1
 66
     1
 10
0.0
 20
0.0
 30
0.0
  0
VERTEX
  5
13C5
  8
L1
 10
182.31321655020571
 20
79.844272529163646
 30
0.0
  0
VERTEX
  5
13C6
  8
L1
 10
182.493997500544
 20
79.855203435563936
 30
0.0
  0
VERTEX
  5
13C7
  8
L1
 10
182.67212957380539
 20
79.887836896404366
 30
0.0
  0
VERTEX
  5
13C8
  8
L1
 10
182.84501746628109
 20
79.941697456925937
 30
0.0
  0
VERTEX
  5
13C9
  8
L1
 10
183.01014227960329
 20
80.016000393131918
 30
0.0
  0
VERTEX
  5
13CA
  8
L1
 10
183.16509821995501
 20
80.109663144861159
 30
0.0
  0
VERTEX
  5
13CB
  8
L1
 10
183.3076276493972
 20
80.221321088200085
 30
0.0
  0
VERTEX
  5
13CC
  8
L1
 10
183.43565397863259
 20
80.349347417435439
 30
0.0
  0
VERTEX
  5
13CD
  8
L1
 10
183.5473119219715
 20
80.491876846877716
 30
0.0
  0
VERTEX
  5
13CE
  8
L1
 10
183.6409746737007
 20
80.646832787229329
 30
0.0
  0
VERTEX
  5
13CF
  8
L1
 10
183.71527760990671
 20
80.811957600551551
 30
0.0
  0
VERTEX
  5
13D0
  8
L1
 10
183.76913817042839
 20
80.984845493027237
 30
0.0
  0
VERTEX
  5
13D1
  8
L1
 10
183.80177163126871
 20
81.162977566288674
 30
0.0
  0
VERTEX
  5
13D2
  8
L1
 10
183.812702537669
 20
81.343758516626991
 30
0.0
  0
SEQEND
  5
13D3
  8
L1
  0
LINE
  5
AA
  8
L1
 10
186.312702537669
 20
81.844272529163646
 30
0.0
 11
186.312702537669
 21
82.794272529163635
 31
0.0
  0
LINE
  5
AB
  8
L1
 10
192.37318422325779
 20
80.273802189167867
 30
0.0
 11
192.3630754602022
 21
80.274284461489771
 31
0.0
  0
POLYLINE
  5
AC
  8
L1
 66
     1
 10
0.0
 20
0.0
 30
0.0
  0
VERTEX
  5
13D4
  8
L1
 10
197.3659731032499
 20
77.044272529163635
 30
0.0
  0
VERTEX
  5
13D5
  8
L1
 10
197.38833454324401
 20
77.044343743878898
 30
0.0
  0
VERTEX
  5
13D6
  8
L1
 10
197.41070253766901
 20
77.044557385126751
 30
0.0
  0
SEQEND
  5
13D7
  8
L1
  0
ARC
  5
AD
  8
L1
 10
197.41070253766901
 20
80.546272529163645
 30
0.0
 40
2.7019999999999542
 50
269.99999999999869
 51
359.99999999999932
  0
POLYLINE
  5
AE
  8
L1
 66
     1
 10
0.0
 20
0.0
 30
0.0
  0
VERTEX
  5
13D8
  8
L1
 10
200.87286412662121
 20
80.544272529163635
 30
0.0
  0
VERTEX
  5
13D9
  8
L1
 10
200.87286415538821
 20
80.546272529163645
 30
0.0
  0
SEQEND
  5
13DA
  8
L1
  0
POLYLINE
  5
AF
  8
L1
 66
     1
 10
0.0
 20
0.0
 30
0.0
  0
VERTEX
  5
13DB
  8
L1
 10
197.41070253766901
 20
77.044557385126751
 30
0.0
  0
VERTEX
  5
13DC
  8
L1
 10
197.5761064954572
 20
77.050596165264807
 30
0.0
  0
VERTEX
  5
13DD
  8
L1
 10
197.74342204644441
 20
77.064664904771604
 30
0.0
  0
VERTEX
  5
13DE
  8
L1
 10
197.91183434186539
 20
77.08696363849802
 30
0.0
  0
VERTEX
  5
13DF
  8
L1
 10
198.08052853295561
 20
77.11769240129459
 30
0.0
  0
VERTEX
  5
13E0
  8
L1
 10
198.24870234717849
 20
77.156990645577849
 30
0.0
  0
VERTEX
  5
13E1
  8
L1
 10
198.4156009741497
 20
77.204769196854471
 30
0.0
  0
VERTEX
  5
13E2
  8
L1
 10
198.58048075833031
 20
77.260885149609891
 30
0.0
  0
VERTEX
  5
13E3
  8
L1
 10
198.74259804418179
 20
77.325195598329771
 30
0.0
  0
VERTEX
  5
13E4
  8
L1
 10
198.9012929301993
 20
77.397535999917551
 30
0.0
  0
VERTEX
  5
13E5
  8
L1
 10
199.05598816746979
 20
77.477547584417295
 30
0.0
  0
VERTEX
  5
13E6
  8
L1
 10
199.20606407934201
 20
77.564796106025113
 30
0.0
  0
VERTEX
  5
13E7
  8
L1
 10
199.3509009891651
 20
77.658847318937333
 30
0.0
  0
VERTEX
  5
13E8
  8
L1
 10
199.48991024155771
 20
77.759221695705179
 30
0.0
  0
VERTEX
  5
13E9
  8
L1
 10
199.62263537907799
 20
77.865246750790419
 30
0.0
  0
VERTEX
  5
13EA
  8
L1
 10
199.74865502198409
 20
77.976198801255151
 30
0.0
  0
VERTEX
  5
13EB
  8
L1
 10
199.86754779053319
 20
78.091354164161174
 30
0.0
  0
VERTEX
  5
13EC
  8
L1
 10
199.98005102917921
 20
78.211188165106279
 30
0.0
  0
VERTEX
  5
13ED
  8
L1
 10
200.0883188128943
 20
78.338012682973755
 30
0.0
  0
VERTEX
  5
13EE
  8
L1
 10
200.1916358626718
 20
78.471401503935198
 30
0.0
  0
VERTEX
  5
13EF
  8
L1
 10
200.2892868995051
 20
78.610928414162203
 30
0.0
  0
VERTEX
  5
13F0
  8
L1
 10
200.38060780345009
 20
78.756133228916127
 30
0.0
  0
VERTEX
  5
13F1
  8
L1
 10
200.46512783402011
 20
78.906427358588104
 30
0.0
  0
VERTEX
  5
13F2
  8
L1
 10
200.5424217813941
 20
79.061191982044448
 30
0.0
  0
VERTEX
  5
13F3
  8
L1
 10
200.61206443575111
 20
79.219808278151362
 30
0.0
  0
VERTEX
  5
13F4
  8
L1
 10
200.67370494206071
 20
79.381700441299714
 30
0.0
  0
VERTEX
  5
13F5
  8
L1
 10
200.7271868606214
 20
79.546212984720029
 30
0.0
  0
VERTEX
  5
13F6
  8
L1
 10
200.77237660460551
 20
79.712607565538548
 30
0.0
  0
VERTEX
  5
13F7
  8
L1
 10
200.809140587185
 20
79.88014584088117
 30
0.0
  0
VERTEX
  5
13F8
  8
L1
 10
200.83732539611961
 20
80.047564364537067
 30
0.0
  0
VERTEX
  5
13F9
  8
L1
 10
200.85720346975631
 20
80.214589816067502
 30
0.0
  0
VERTEX
  5
13FA
  8
L1
 10
200.86898098696651
 20
80.380424952075387
 30
0.0
  0
VERTEX
  5
13FB
  8
L1
 10
200.87286412662121
 20
80.544272529163635
 30
0.0
  0
SEQEND
  5
13FC
  8
L1
  0
LINE
  5
BF
  8
L1
 10
311.83463352304568
 20
77.044272529163464
 30
0.0
 11
313.15530342026591
 21
77.044272529163464
 31
0.0
  0
POLYLINE
  5
C1
  8
L1
 66
     1
 10
0.0
 20
0.0
 30
0.0
  0
VERTEX
  5
13FD
  8
L1
 10
311.78990408862649
 20
77.044557385126581
 30
0.0
  0
VERTEX
  5
13FE
  8
L1
 10
311.8122720830516
 20
77.044343743878784
 30
0.0
  0
VERTEX
  5
13FF
  8
L1
 10
311.83463352304568
 20
77.044272529163464
 30
0.0
  0
SEQEND
  5
1400
  8
L1
  0
POLYLINE
  5
C2
  8
L1
 66
     1
 10
0.0
 20
0.0
 30
0.0
  0
VERTEX
  5
1401
  8
L1
 10
308.32774247090742
 20
80.546272529163517
 30
0.0
  0
VERTEX
  5
1402
  8
L1
 10
308.3277424996744
 20
80.544272529163464
 30
0.0
  0
SEQEND
  5
1403
  8
L1
  0
POLYLINE
  5
C3
  8
L1
 66
     1
 10
0.0
 20
0.0
 30
0.0
  0
VERTEX
  5
1404
  8
L1
 10
308.3277424996744
 20
80.544272529163464
 30
0.0
  0
VERTEX
  5
1405
  8
L1
 10
308.33162563932899
 20
80.380424952075174
 30
0.0
  0
VERTEX
  5
1406
  8
L1
 10
308.34340315653918
 20
80.214589816067274
 30
0.0
  0
VERTEX
  5
1407
  8
L1
 10
308.36328123017591
 20
80.047564364536782
 30
0.0
  0
VERTEX
  5
1408
  8
L1
 10
308.3914660391107
 20
79.880145840880942
 30
0.0
  0
VERTEX
  5
1409
  8
L1
 10
308.42823002169013
 20
79.71260756553832
 30
0.0
  0
VERTEX
  5
140A
  8
L1
 10
308.47341976567418
 20
79.546212984719858
 30
0.0
  0
VERTEX
  5
140B
  8
L1
 10
308.52690168423487
 20
79.3817004412995
 30
0.0
  0
VERTEX
  5
140C
  8
L1
 10
308.5885421905445
 20
79.219808278151191
 30
0.0
  0
VERTEX
  5
140D
  8
L1
 10
308.65818484490143
 20
79.061191982044221
 30
0.0
  0
VERTEX
  5
140E
  8
L1
 10
308.73547879227539
 20
78.906427358587877
 30
0.0
  0
VERTEX
  5
140F
  8
L1
 10
308.81999882284549
 20
78.756133228916013
 30
0.0
  0
VERTEX
  5
1410
  8
L1
 10
308.91131972679051
 20
78.610928414162032
 30
0.0
  0
VERTEX
  5
1411
  8
L1
 10
309.00897076362372
 20
78.471401503935084
 30
0.0
  0
VERTEX
  5
1412
  8
L1
 10
309.11228781340122
 20
78.338012682973471
 30
0.0
  0
VERTEX
  5
1413
  8
L1
 10
309.2205555971164
 20
78.211188165106051
 30
0.0
  0
VERTEX
  5
1414
  8
L1
 10
309.33305883576247
 20
78.091354164160947
 30
0.0
  0
VERTEX
  5
1415
  8
L1
 10
309.45195160431172
 20
77.976198801254867
 30
0.0
  0
VERTEX
  5
1416
  8
L1
 10
309.57797124721742
 20
77.865246750790192
 30
0.0
  0
VERTEX
  5
1417
  8
L1
 10
309.71069638473779
 20
77.759221695704952
 30
0.0
  0
VERTEX
  5
1418
  8
L1
 10
309.8497056371304
 20
77.65884731893712
 30
0.0
  0
VERTEX
  5
1419
  8
L1
 10
309.99454254695348
 20
77.564796106024886
 30
0.0
  0
VERTEX
  5
141A
  8
L1
 10
310.14461845882579
 20
77.477547584417067
 30
0.0
  0
VERTEX
  5
141B
  8
L1
 10
310.29931369609619
 20
77.397535999917324
 30
0.0
  0
VERTEX
  5
141C
  8
L1
 10
310.45800858211379
 20
77.325195598329543
 30
0.0
  0
VERTEX
  5
141D
  8
L1
 10
310.62012586796533
 20
77.26088514960972
 30
0.0
  0
VERTEX
  5
141E
  8
L1
 10
310.78500565214603
 20
77.204769196854301
 30
0.0
  0
VERTEX
  5
141F
  8
L1
 10
310.951904279117
 20
77.156990645577622
 30
0.0
  0
VERTEX
  5
1420
  8
L1
 10
311.12007809334
 20
77.117692401294406
 30
0.0
  0
VERTEX
  5
1421
  8
L1
 10
311.28877228443008
 20
77.086963638497849
 30
0.0
  0
VERTEX
  5
1422
  8
L1
 10
311.45718457985112
 20
77.06466490477149
 30
0.0
  0
VERTEX
  5
1423
  8
L1
 10
311.62450013083833
 20
77.050596165264636
 30
0.0
  0
VERTEX
  5
1424
  8
L1
 10
311.78990408862649
 20
77.044557385126581
 30
0.0
  0
SEQEND
  5
1425
  8
L1
  0
POLYLINE
  5
C4
  8
L1
 66
     1
 10
0.0
 20
0.0
 30
0.0
  0
VERTEX
  5
1426
  8
L1
 10
313.18395101755539
 20
77.044272529163464
 30
0.0
  0
VERTEX
  5
1427
  8
L1
 10
313.15530342026591
 20
77.044272529163464
 30
0.0
  0
SEQEND
  5
1428
  8
L1
  0
LINE
  5
C8
  8
L1
 10
198.07286415538809
 20
167.04427252916349
 30
0.0
 11
198.07286415538809
 21
95.593758516626934
 31
0.0
  0
LINE
  5
C9
  8
L1
 10
199.3728641553881
 20
167.04427252916349
 30
0.0
 11
199.37286415538799
 21
94.894272529163473
 31
0.0
  0
LINE
  5
CA
  8
L1
 10
192.86232961513579
 20
90.314260596837514
 30
0.0
 11
197.6326906053429
 21
85.543899606630333
 31
0.0
  0
POLYLINE
  5
CB
  8
L1
 66
     1
 10
0.0
 20
0.0
 30
0.0
  0
VERTEX
  5
1429
  8
L1
 10
196.57337816792469
 20
94.094272529163646
 30
0.0
  0
VERTEX
  5
142A
  8
L1
 10
196.754159118263
 20
94.10520343556388
 30
0.0
  0
VERTEX
  5
142B
  8
L1
 10
196.93229119152451
 20
94.137836896404295
 30
0.0
  0
VERTEX
  5
142C
  8
L1
 10
197.1051790840003
 20
94.191697456925937
 30
0.0
  0
VERTEX
  5
142D
  8
L1
 10
197.27030389732241
 20
94.266000393131904
 30
0.0
  0
VERTEX
  5
142E
  8
L1
 10
197.4252598376741
 20
94.359663144861116
 30
0.0
  0
VERTEX
  5
142F
  8
L1
 10
197.5677892671163
 20
94.471321088200085
 30
0.0
  0
VERTEX
  5
1430
  8
L1
 10
197.69581559635171
 20
94.599347417435425
 30
0.0
  0
VERTEX
  5
1431
  8
L1
 10
197.80747353969051
 20
94.741876846877659
 30
0.0
  0
VERTEX
  5
1432
  8
L1
 10
197.9011362914199
 20
94.896832787229329
 30
0.0
  0
VERTEX
  5
1433
  8
L1
 10
197.9754392276258
 20
95.061957600551494
 30
0.0
  0
VERTEX
  5
1434
  8
L1
 10
198.0292997881474
 20
95.234845493027166
 30
0.0
  0
VERTEX
  5
1435
  8
L1
 10
198.06193324898791
 20
95.412977566288674
 30
0.0
  0
VERTEX
  5
1436
  8
L1
 10
198.0728641553882
 20
95.593758516626934
 30
0.0
  0
SEQEND
  5
1437
  8
L1
  0
ARC
  5
CC
  8
L1
 10
196.0728641553882
 20
94.894272529163601
 30
0.0
 40
3.2999999999999439
 50
270.0
 51
318.59010301923479
  0
LINE
  5
CD
  8
L1
 10
185.6022636847508
 20
90.999768606938716
 30
0.0
 11
184.68939770691071
 21
92.087679915586776
 31
0.0
  0
ARC
  5
CE
  8
L1
 10
192.61270253766901
 20
85.294272529163635
 30
0.0
 40
6.3000000000000487
 50
90.0
 51
180.0000000000002
  0
ARC
  5
CF
  8
L1
 10
192.61270253766901
 20
85.294272529163635
 30
0.0
 40
5.0261806033722758
 50
87.268584429571774
 51
182.7314155704274
  0
LINE
  5
D0
  8
L1
 10
187.592714469995
 20
85.044645451696866
 30
0.0
 11
187.59223219767321
 21
85.054754214752478
 31
0.0
  0
POLYLINE
  5
D1
  8
L1
 66
     1
 10
0.0
 20
0.0
 30
0.0
  0
VERTEX
  5
1438
  8
L1
 10
185.6111841414976
 20
90.625195540057035
 30
0.0
  0
VERTEX
  5
1439
  8
L1
 10
185.62412982550561
 20
90.643590621888421
 30
0.0
  0
VERTEX
  5
143A
  8
L1
 10
185.63568542054421
 20
90.662950148958856
 30
0.0
  0
VERTEX
  5
143B
  8
L1
 10
185.648120927994
 20
90.688487303628023
 30
0.0
  0
VERTEX
  5
143C
  8
L1
 10
185.65806543299129
 20
90.715026465890645
 30
0.0
  0
VERTEX
  5
143D
  8
L1
 10
185.6654605570215
 20
90.742385822939042
 30
0.0
  0
VERTEX
  5
143E
  8
L1
 10
185.67024792157011
 20
90.770383561965701
 30
0.0
  0
VERTEX
  5
143F
  8
L1
 10
185.67238949079439
 20
90.799646442784464
 30
0.0
  0
VERTEX
  5
1440
  8
L1
 10
185.6716670046653
 20
90.828909563871349
 30
0.0
  0
VERTEX
  5
1441
  8
L1
 10
185.6680961672734
 20
90.857963072235322
 30
0.0
  0
VERTEX
  5
1442
  8
L1
 10
185.661692682709
 20
90.886597114885504
 30
0.0
  0
VERTEX
  5
1443
  8
L1
 10
185.65238878081581
 20
90.914817734566753
 30
0.0
  0
VERTEX
  5
1444
  8
L1
 10
185.64037174906471
 20
90.941915858548185
 30
0.0
  0
VERTEX
  5
1445
  8
L1
 10
185.6257401604272
 20
90.967696454303365
 30
0.0
  0
VERTEX
  5
1446
  8
L1
 10
185.60859258787539
 20
90.991964489305843
 30
0.0
  0
VERTEX
  5
1447
  8
L1
 10
185.6022636847508
 20
90.999768606938716
 30
0.0
  0
SEQEND
  5
1448
  8
L1
  0
ARC
  5
D2
  8
L1
 10
192.61270253766901
 20
85.294272529163578
 30
0.0
 40
8.8000000000000114
 50
142.71452609940181
 51
179.9999999999998
  0
LINE
  5
D3
  8
L1
 10
192.85222085208031
 20
90.314742869159403
 30
0.0
 11
192.86232961513579
 21
90.314260596837514
 31
0.0
  0
LINE
  5
D4
  8
L1
 10
192.61270253766901
 20
91.594272529163646
 30
0.0
 11
195.11270253766901
 21
91.594272529163646
 31
0.0
  0
LINE
  5
D5
  8
L1
 10
195.11270253766901
 20
91.594272529163646
 30
0.0
 11
196.0728641553882
 21
91.594272529163646
 31
0.0
  0
ARC
  5
D6
  8
L1
 10
192.61270253766901
 20
85.294272529163578
 30
0.0
 40
8.8000000000000114
 50
89.999999999999645
 51
127.2854739005968
  0
POLYLINE
  5
D7
  8
L1
 66
     1
 10
0.0
 20
0.0
 30
0.0
  0
VERTEX
  5
1449
  8
L1
 10
184.70707833224071
 20
92.492632812896119
 30
0.0
  0
VERTEX
  5
144A
  8
L1
 10
184.65432707129861
 20
92.421344255220006
 30
0.0
  0
VERTEX
  5
144B
  8
L1
 10
184.6247239285959
 20
92.337749054448892
 30
0.0
  0
VERTEX
  5
144C
  8
L1
 10
184.62085569564229
 20
92.24915195379063
 30
0.0
  0
VERTEX
  5
144D
  8
L1
 10
184.6430603876361
 20
92.163294774106674
 30
0.0
  0
VERTEX
  5
144E
  8
L1
 10
184.68939770691071
 20
92.087679915586847
 30
0.0
  0
SEQEND
  5
144F
  8
L1
  0
LINE
  5
D8
  8
L1
 10
184.70707833224071
 20
92.492632812896119
 30
0.0
 11
185.4143422539365
 21
93.199896734592045
 31
0.0
  0
POLYLINE
  5
D9
  8
L1
 66
     1
 10
0.0
 20
0.0
 30
0.0
  0
VERTEX
  5
1450
  8
L1
 10
185.81929515124591
 20
93.217577359922103
 30
0.0
  0
VERTEX
  5
1451
  8
L1
 10
185.743680292726
 20
93.263914679196674
 30
0.0
  0
VERTEX
  5
1452
  8
L1
 10
185.65782311304221
 20
93.286119371190608
 30
0.0
  0
VERTEX
  5
1453
  8
L1
 10
185.56922601238389
 20
93.282251138236816
 30
0.0
  0
VERTEX
  5
1454
  8
L1
 10
185.48563081161279
 20
93.252647995534204
 30
0.0
  0
VERTEX
  5
1455
  8
L1
 10
185.41434225393661
 20
93.199896734592045
 30
0.0
  0
SEQEND
  5
1456
  8
L1
  0
LINE
  5
DA
  8
L1
 10
185.81929515124591
 20
93.217577359922046
 30
0.0
 11
186.9072064598939
 21
92.304711382081877
 31
0.0
  0
POLYLINE
  5
DB
  8
L1
 66
     1
 10
0.0
 20
0.0
 30
0.0
  0
VERTEX
  5
1457
  8
L1
 10
186.9072064598939
 20
92.304711382081919
 30
0.0
  0
VERTEX
  5
1458
  8
L1
 10
186.9386002678672
 20
92.281666746588741
 30
0.0
  0
VERTEX
  5
1459
  8
L1
 10
186.97277357142789
 20
92.262852712387058
 30
0.0
  0
VERTEX
  5
145A
  8
L1
 10
186.99426310753671
 20
92.253783416066895
 30
0.0
  0
VERTEX
  5
145B
  8
L1
 10
187.01635857851471
 20
92.246420334127748
 30
0.0
  0
VERTEX
  5
145C
  8
L1
 10
187.03895851993889
 20
92.240793101582341
 30
0.0
  0
VERTEX
  5
145D
  8
L1
 10
187.06196146738671
 20
92.236931353443566
 30
0.0
  0
VERTEX
  5
145E
  8
L1
 10
187.08368789151831
 20
92.23494705798376
 30
0.0
  0
VERTEX
  5
145F
  8
L1
 10
187.10547240687501
 20
92.23454649824933
 30
0.0
  0
VERTEX
  5
1460
  8
L1
 10
187.12722851005429
 20
92.235728221305763
 30
0.0
  0
VERTEX
  5
1461
  8
L1
 10
187.1488696976532
 20
92.238490774218604
 30
0.0
  0
VERTEX
  5
1462
  8
L1
 10
187.17212105733211
 20
92.243274945907984
 30
0.0
  0
VERTEX
  5
1463
  8
L1
 10
187.19488620054011
 20
92.249871342672094
 30
0.0
  0
VERTEX
  5
1464
  8
L1
 10
187.21705935405271
 20
92.258244793652722
 30
0.0
  0
VERTEX
  5
1465
  8
L1
 10
187.23853474464639
 20
92.268360127991713
 30
0.0
  0
VERTEX
  5
1466
  8
L1
 10
187.2607689613522
 20
92.281166765303894
 30
0.0
  0
VERTEX
  5
1467
  8
L1
 10
187.28177952677569
 20
92.295790925335169
 30
0.0
  0
SEQEND
  5
1468
  8
L1
  0
LINE
  5
DC
  8
L1
 10
192.61270253766901
 20
94.094272529163575
 30
0.0
 11
196.57337816792469
 21
94.094272529163575
 31
0.0
  0
LINE
  5
DD
  8
L1
 10
197.6326906053429
 20
85.54389960663039
 30
0.0
 11
197.6331728776648
 21
85.533790843574849
 31
0.0
  0
POLYLINE
  5
DE
  8
L1
 66
     1
 10
0.0
 20
0.0
 30
0.0
  0
VERTEX
  5
1469
  8
L1
 10
199.0728641553882
 20
92.513109301824244
 30
0.0
  0
VERTEX
  5
146A
  8
L1
 10
199.07279253319169
 20
92.519664504196413
 30
0.0
  0
VERTEX
  5
146B
  8
L1
 10
199.070669754796
 20
92.549328828246331
 30
0.0
  0
VERTEX
  5
146C
  8
L1
 10
199.06563606383079
 20
92.578566934195777
 30
0.0
  0
VERTEX
  5
146D
  8
L1
 10
199.0577392197024
 20
92.607164895383008
 30
0.0
  0
VERTEX
  5
146E
  8
L1
 10
199.04702698181589
 20
92.634908785145882
 30
0.0
  0
VERTEX
  5
146F
  8
L1
 10
199.03364888574521
 20
92.661405151074504
 30
0.0
  0
VERTEX
  5
1470
  8
L1
 10
199.0177591301717
 20
92.686391240751533
 30
0.0
  0
VERTEX
  5
1471
  8
L1
 10
198.9994835664983
 20
92.709689140882546
 30
0.0
  0
VERTEX
  5
1472
  8
L1
 10
198.9789480461281
 20
92.731120938172836
 30
0.0
  0
VERTEX
  5
1473
  8
L1
 10
198.9587939230625
 20
92.748543532257045
 30
0.0
  0
VERTEX
  5
1474
  8
L1
 10
198.93721694183949
 20
92.764080829125675
 30
0.0
  0
VERTEX
  5
1475
  8
L1
 10
198.9143489316167
 20
92.777646523176287
 30
0.0
  0
VERTEX
  5
1476
  8
L1
 10
198.8903217215512
 20
92.789154308806161
 30
0.0
  0
VERTEX
  5
1477
  8
L1
 10
198.86883913998179
 20
92.797336673117826
 30
0.0
  0
VERTEX
  5
1478
  8
L1
 10
198.8468254992238
 20
92.803841747789107
 30
0.0
  0
VERTEX
  5
1479
  8
L1
 10
198.82437891273119
 20
92.808644606969352
 30
0.0
  0
VERTEX
  5
147A
  8
L1
 10
198.8015974939573
 20
92.811720324807723
 30
0.0
  0
VERTEX
  5
147B
  8
L1
 10
198.78023857396931
 20
92.813007783024574
 30
0.0
  0
VERTEX
  5
147C
  8
L1
 10
198.75886918694181
 20
92.812770787929736
 30
0.0
  0
VERTEX
  5
147D
  8
L1
 10
198.7375708780863
 20
92.811013178835438
 30
0.0
  0
VERTEX
  5
147E
  8
L1
 10
198.71642519261511
 20
92.807738795053893
 30
0.0
  0
VERTEX
  5
147F
  8
L1
 10
198.69296942445101
 20
92.802260385125038
 30
0.0
  0
VERTEX
  5
1480
  8
L1
 10
198.6700648081088
 20
92.794931223510744
 30
0.0
  0
VERTEX
  5
1481
  8
L1
 10
198.647820724426
 20
92.785791244042031
 30
0.0
  0
VERTEX
  5
1482
  8
L1
 10
198.62634655424
 20
92.774880380549774
 30
0.0
  0
VERTEX
  5
1483
  8
L1
 10
198.60474438184289
 20
92.761559852141218
 30
0.0
  0
VERTEX
  5
1484
  8
L1
 10
198.58439273207651
 20
92.746499793885974
 30
0.0
  0
VERTEX
  5
1485
  8
L1
 10
198.56539477579
 20
92.729788889816263
 30
0.0
  0
VERTEX
  5
1486
  8
L1
 10
198.54785368383219
 20
92.711515823964319
 30
0.0
  0
SEQEND
  5
1487
  8
L1
  0
ARC
  5
DF
  8
L1
 10
196.0728641553882
 20
94.894272529163601
 30
0.0
 40
3.2999999999999439
 50
318.59010301923479
 51
0.0
  0
LINE
  5
131
  8
L1
 10
324.3379040886266
 20
167.04427252916349
 30
0.0
 11
324.3379040886266
 21
95.044272529163521
 31
0.0
  0
LINE
  5
132
  8
L1
 10
311.59358460811751
 20
85.532543229434864
 30
0.0
 11
316.34963338835507
 21
90.28859200967247
 31
0.0
  0
ARC
  5
133
  8
L1
 10
316.5879040886266
 20
85.294272529163464
 30
0.0
 40
5.0
 50
357.2685844295716
 51
92.731415570428325
  0
ARC
  5
134
  8
L1
 10
326.33790408862649
 20
95.044272529163464
 30
0.0
 40
1.9999999999999989
 50
180.0
 51
270.0
  0
LINE
  5
145
  8
L1
 10
309.6487672318176
 20
324.20896091977841
 30
0.0
 11
308.3277424996744
 21
299.00230743788359
 31
0.0
  0
LINE
  5
146
  8
L2
 10
325.38790408862661
 20
298.2421452712577
 30
0.0
 11
326.01409034788782
 21
321.65523374541169
 31
0.0
  0
LINE
  5
14C
  8
L1
 10
309.0879040886266
 20
298.2421452712577
 30
0.0
 11
308.32774247090742
 21
299.00230688897688
 31
0.0
  0
POLYLINE
  5
14D
  8
L1
 66
     1
 10
0.0
 20
0.0
 30
0.0
  0
VERTEX
  5
1488
  8
L1
 10
308.32774247090742
 20
299.00230688897688
 30
0.0
  0
VERTEX
  5
1489
  8
L1
 10
308.3277424996744
 20
299.0023074378837
 30
0.0
  0
SEQEND
  5
148A
  8
L1
  0
POLYLINE
  5
14E
  8
L1
 66
     1
 10
0.0
 20
0.0
 30
0.0
  0
VERTEX
  5
148B
  8
L1
 10
308.3277424996744
 20
299.0023074378837
 30
0.0
  0
VERTEX
  5
148C
  8
L1
 10
308.32774247090742
 20
299.00230688897688
 30
0.0
  0
SEQEND
  5
148D
  8
L1
  0
LINE
  5
14F
  8
L2
 10
311.02774247090741
 20
298.2421452712577
 30
0.0
 11
310.88994320697918
 21
297.460646810985
 31
0.0
  0
LINE
  5
150
  8
L1
 10
309.96554173483548
 20
297.46064681098488
 30
0.0
 11
309.82829897925552
 21
298.23898915557987
 31
0.0
  0
ARC
  5
151
  8
L2
 10
310.42774247090728
 20
297.54214527125771
 30
0.0
 40
0.4693309274404737
 50
270.0
 51
350.00000000000188
  0
ARC
  5
152
  8
L1
 10
310.42774247090728
 20
297.54214527125771
 30
0.0
 40
0.4693309274404737
 50
190.00000000000151
 51
270.0
  0
POLYLINE
  5
158
  8
L1
 66
     1
 10
0.0
 20
0.0
 30
0.0
  0
VERTEX
  5
148E
  8
L1
 10
313.1553034202658
 20
324.24202809948429
 30
0.0
  0
VERTEX
  5
148F
  8
L1
 10
312.9953186908013
 20
324.24070842669869
 30
0.0
  0
VERTEX
  5
1490
  8
L1
 10
312.8335376102217
 20
324.23935187155399
 30
0.0
  0
VERTEX
  5
1491
  8
L1
 10
312.67067923221339
 20
324.23796398875402
 30
0.0
  0
VERTEX
  5
1492
  8
L1
 10
312.50746261046288
 20
324.23655033300281
 30
0.0
  0
VERTEX
  5
1493
  8
L1
 10
312.33726193951622
 20
324.23505154094158
 30
0.0
  0
VERTEX
  5
1494
  8
L1
 10
312.16820946604292
 20
324.23353834392032
 30
0.0
  0
VERTEX
  5
1495
  8
L1
 10
312.00106061269082
 20
324.23201845369431
 30
0.0
  0
VERTEX
  5
1496
  8
L1
 10
311.83657080210781
 20
324.23049958201869
 30
0.0
  0
VERTEX
  5
1497
  8
L1
 10
311.67541053130873
 20
324.22898900304898
 30
0.0
  0
VERTEX
  5
1498
  8
L1
 10
311.51817018315069
 20
324.22749428455148
 30
0.0
  0
VERTEX
  5
1499
  8
L1
 10
311.36548500904502
 20
324.22602357869891
 30
0.0
  0
VERTEX
  5
149A
  8
L1
 10
311.21799026040247
 20
324.22458503766342
 30
0.0
  0
VERTEX
  5
149B
  8
L1
 10
311.07629056138842
 20
324.22318679067212
 30
0.0
  0
VERTEX
  5
149C
  8
L1
 10
310.94085979384982
 20
324.22183619034899
 30
0.0
  0
VERTEX
  5
149D
  8
L1
 10
310.81213709572188
 20
324.22054022396338
 30
0.0
  0
VERTEX
  5
149E
  8
L1
 10
310.69056160493932
 20
324.21930587878359
 30
0.0
  0
VERTEX
  5
149F
  8
L1
 10
310.57410548585727
 20
324.21811477948859
 30
0.0
  0
VERTEX
  5
14A0
  8
L1
 10
310.46201496025049
 20
324.21696130392792
 30
0.0
  0
VERTEX
  5
14A1
  8
L1
 10
310.35503072664602
 20
324.21585516453911
 30
0.0
  0
VERTEX
  5
14A2
  8
L1
 10
310.25389348357089
 20
324.21480607375992
 30
0.0
  0
VERTEX
  5
14A3
  8
L1
 10
310.15929126282469
 20
324.21382339299441
 30
0.0
  0
VERTEX
  5
14A4
  8
L1
 10
310.07171369383559
 20
324.21291451990629
 30
0.0
  0
VERTEX
  5
14A5
  8
L1
 10
309.9916038715736
 20
324.21208622132377
 30
0.0
  0
VERTEX
  5
14A6
  8
L1
 10
309.91940489100909
 20
324.21134526407508
 30
0.0
  0
VERTEX
  5
14A7
  8
L1
 10
309.85548240552919
 20
324.2106975761364
 30
0.0
  0
VERTEX
  5
14A8
  8
L1
 10
309.80000262707148
 20
324.21014637672022
 30
0.0
  0
VERTEX
  5
14A9
  8
L1
 10
309.75310948843179
 20
324.20969436950833
 30
0.0
  0
VERTEX
  5
14AA
  8
L1
 10
309.71494692240611
 20
324.20934425818302
 30
0.0
  0
VERTEX
  5
14AB
  8
L1
 10
309.68567846329478
 20
324.20909852989638
 30
0.0
  0
VERTEX
  5
14AC
  8
L1
 10
309.66503056314798
 20
324.20895440335352
 30
0.0
  0
VERTEX
  5
14AD
  8
L1
 10
309.65279591998308
 20
324.20890936962422
 30
0.0
  0
VERTEX
  5
14AE
  8
L1
 10
309.6487672318176
 20
324.20896091977852
 30
0.0
  0
SEQEND
  5
14AF
  8
L1
  0
LINE
  5
161
  8
L1
 10
310.28195101755551
 20
324.84214527125772
 30
0.0
 11
309.64876726310661
 21
324.20896151680893
 31
0.0
  0
ARC
  5
173
  8
L2
 10
326.51391901037562
 20
321.64214527125768
 30
0.0
 40
0.5
 50
90.0
 51
178.49999999999889
  0
LINE
  5
174
  8
L2
 10
324.33790408862649
 20
324.84214527125772
 30
0.0
 11
324.33790408862649
 21
324.8387575162148
 31
0.0
  0
LINE
  5
175
  8
L2
 10
324.33790408862649
 20
324.8387575162148
 30
0.0
 11
324.33790408862649
 21
324.54214527125771
 31
0.0
  0
LINE
  5
179
  8
L6
 10
435.8379040886266
 20
332.84214527125772
 30
0.0
 11
435.8379040886266
 21
289.07281434381719
 31
0.0
  0
LINE
  5
78D
  8
L1
 10
373.3379040886266
 20
324.24204506240488
 30
0.0
 11
313.18395101755539
 21
324.2421452712577
 31
0.0
  0
LINE
  5
7B2
  8
L1
 10
311.86120302987968
 20
78.997456281889072
 30
0.0
 11
435.83790408862649
 21
78.997456281889072
 31
0.0
  0
POLYLINE
  5
7B3
  8
L1
 66
     1
 10
0.0
 20
0.0
 30
0.0
  0
VERTEX
  5
14B0
  8
L1
 10
310.28139391700489
 20
80.590573496348455
 30
0.0
  0
VERTEX
  5
14B1
  8
L1
 10
310.28418403235531
 20
80.472845657378869
 30
0.0
  0
VERTEX
  5
14B2
  8
L1
 10
310.28940116734822
 20
80.399384988574425
 30
0.0
  0
VERTEX
  5
14B3
  8
L1
 10
310.29820507811212
 20
80.325410155929674
 30
0.0
  0
VERTEX
  5
14B4
  8
L1
 10
310.3105617882631
 20
80.252010965056655
 30
0.0
  0
VERTEX
  5
14B5
  8
L1
 10
310.32671384825102
 20
80.178403915881574
 30
0.0
  0
VERTEX
  5
14B6
  8
L1
 10
310.34672427714878
 20
80.104722884857537
 30
0.0
  0
VERTEX
  5
14B7
  8
L1
 10
310.37040931431051
 20
80.031866753115665
 30
0.0
  0
VERTEX
  5
14B8
  8
L1
 10
310.39748106205423
 20
79.960765718019744
 30
0.0
  0
VERTEX
  5
14B9
  8
L1
 10
310.4280746177788
 20
79.891086632140912
 30
0.0
  0
VERTEX
  5
14BA
  8
L1
 10
310.46232941877662
 20
79.822498708272079
 30
0.0
  0
VERTEX
  5
14BB
  8
L1
 10
310.49979978097849
 20
79.755868639191164
 30
0.0
  0
VERTEX
  5
14BC
  8
L1
 10
310.53994794406458
 20
79.692031047448296
 30
0.0
  0
VERTEX
  5
14BD
  8
L1
 10
310.58289227385302
 20
79.630670821879107
 30
0.0
  0
VERTEX
  5
14BE
  8
L1
 10
310.62876627007307
 20
79.571444602375422
 30
0.0
  0
VERTEX
  5
14BF
  8
L1
 10
310.67686599792188
 20
79.515100742875845
 30
0.0
  0
VERTEX
  5
14C0
  8
L1
 10
310.72599859726961
 20
79.462766640964432
 30
0.0
  0
VERTEX
  5
14C1
  8
L1
 10
310.77817411298611
 20
79.412231267615354
 30
0.0
  0
VERTEX
  5
14C2
  8
L1
 10
310.83421550322822
 20
79.362890490139065
 30
0.0
  0
VERTEX
  5
14C3
  8
L1
 10
310.89324477519142
 20
79.315736032976943
 30
0.0
  0
VERTEX
  5
14C4
  8
L1
 10
310.95452365637021
 20
79.271488406279559
 30
0.0
  0
VERTEX
  5
14C5
  8
L1
 10
311.01839389989942
 20
79.230013661476832
 30
0.0
  0
VERTEX
  5
14C6
  8
L1
 10
311.08516700235731
 20
79.191194277340301
 30
0.0
  0
VERTEX
  5
14C7
  8
L1
 10
311.15401257206992
 20
79.15558592109295
 30
0.0
  0
VERTEX
  5
14C8
  8
L1
 10
311.22406650197217
 20
79.123652129468582
 30
0.0
  0
VERTEX
  5
14C9
  8
L1
 10
311.29565162299622
 20
79.095254964844614
 30
0.0
  0
VERTEX
  5
14CA
  8
L1
 10
311.36909151392939
 20
79.070260090728027
 30
0.0
  0
VERTEX
  5
14CB
  8
L1
 10
311.44345307049929
 20
79.048972393470862
 30
0.0
  0
VERTEX
  5
14CC
  8
L1
 10
311.51775987276829
 20
79.031608650601854
 30
0.0
  0
VERTEX
  5
14CD
  8
L1
 10
311.59230910658277
 20
79.018029014529333
 30
0.0
  0
VERTEX
  5
14CE
  8
L1
 10
311.6674291998591
 20
79.008082692301031
 30
0.0
  0
VERTEX
  5
14CF
  8
L1
 10
311.74208622620853
 20
79.001805151152766
 30
0.0
  0
VERTEX
  5
14D0
  8
L1
 10
311.86120302987968
 20
78.997456281889072
 30
0.0
  0
SEQEND
  5
14D1
  8
L1
  0
LINE
  5
809
  8
L2
 10
241.75371299727109
 20
82.781700075345213
 30
0.0
 11
241.75371299727101
 21
167.04427252916349
 31
0.0
  0
LINE
  5
80A
  8
L1
 10
266.82304392471161
 20
79.144272500396326
 30
0.0
 11
266.82304392471161
 21
167.04427252916349
 31
0.0
  0
LINE
  5
80B
  8
L1
 10
265.65371299727099
 20
167.04427252916349
 30
0.0
 11
265.65371299727099
 21
77.804434118115594
 31
0.0
  0
LINE
  5
80C
  8
L1
 10
264.85371299727097
 20
77.046360341542041
 30
0.0
 11
264.85371299727109
 21
167.04427252916349
 31
0.0
  0
LINE
  5
80D
  8
L1
 10
239.65371299727099
 20
167.04427252916349
 30
0.0
 11
239.6537129972711
 21
78.398481047044541
 31
0.0
  0
LINE
  5
80E
  8
L1
 10
239.05371299727111
 20
78.99848104704445
 30
0.0
 11
239.05371299727099
 21
167.04427252916349
 31
0.0
  0
LINE
  5
80F
  8
L2
 10
265.65371299727099
 20
94.104434118115606
 30
0.0
 11
242.24062452311711
 21
94.730620377376965
 31
0.0
  0
LINE
  5
810
  8
L1
 10
239.68689734875039
 20
78.365297261306651
 30
0.0
 11
264.89355083064521
 21
77.04427252916345
 31
0.0
  0
LINE
  5
811
  8
L1
 10
266.43521145754391
 20
78.682071764324647
 30
0.0
 11
265.65686911294893
 21
78.544829008744614
 31
0.0
  0
LINE
  5
812
  8
L1
 10
265.65371299727099
 20
77.804434118115651
 30
0.0
 11
264.89355137955192
 21
77.044272500396474
 31
0.0
  0
ARC
  5
813
  8
L1
 10
266.35371299727109
 20
79.144272500396326
 30
0.0
 40
0.4693309274404737
 50
280.00000000000148
 51
0.000000000000007
  0
LINE
  5
814
  8
L1
 10
239.05371299727099
 20
78.998481047044507
 30
0.0
 11
239.6868967517199
 21
78.36529729259577
 31
0.0
  0
ARC
  5
815
  8
L2
 10
242.25371299727109
 20
95.230449039864709
 30
0.0
 40
0.5
 50
180.0
 51
268.49999999999881
  0
LINE
  5
816
  8
L6
 10
231.05371299727099
 20
167.04427252916349
 30
0.0
 11
274.8230439247115
 21
167.04427252916349
 31
0.0
  0
LINE
  5
828
  8
L1
 10
398.3379040886266
 20
297.07281434381707
 30
0.0
 11
373.33790408862649
 21
297.07281434381707
 31
0.0
  0
LINE
  5
829
  8
L1
 10
373.33790408862649
 20
298.2421452712577
 30
0.0
 11
398.3379040886266
 21
298.2421452712577
 31
0.0
  0
LINE
  5
82A
  8
L1
 10
398.3379040886266
 20
299.04214527125771
 30
0.0
 11
373.3379040886266
 21
299.04214527125771
 31
0.0
  0
LINE
  5
834
  8
L2
 10
398.3379040886266
 20
324.54214527125771
 30
0.0
 11
373.3379040886266
 21
324.54214527125771
 31
0.0
  0
LINE
  5
835
  8
L1
 10
398.3379040886266
 20
324.84214527125772
 30
0.0
 11
373.33790408862649
 21
324.84214527125772
 31
0.0
  0
LINE
  5
836
  8
L1
 10
373.3379040886266
 20
324.24204506240488
 30
0.0
 11
398.3379040886266
 21
324.24208670923258
 31
0.0
  0
LINE
  5
83B
  8
L1
 10
547.3379040886266
 20
167.04427252916349
 30
0.0
 11
547.3379040886266
 21
95.044272529163521
 31
0.0
  0
LINE
  5
83C
  8
L1
 10
563.34806570634566
 20
80.546272529163502
 30
0.0
 11
563.34806570634566
 21
167.04427252916349
 31
0.0
  0
LINE
  5
83D
  8
L1
 10
561.39385715969775
 20
80.546272529163502
 30
0.0
 11
561.39385715969775
 21
167.04427252916349
 31
0.0
  0
LINE
  5
83E
  8
L1
 10
545.33790408862649
 20
93.044272529163464
 30
0.0
 11
435.83790408862649
 21
93.044272529163464
 31
0.0
  0
LINE
  5
83F
  8
L1
 10
558.49185715969759
 20
77.044272529163464
 30
0.0
 11
435.83790408862649
 21
77.044759806126436
 31
0.0
  0
LINE
  5
840
  8
L1
 10
559.81460514737341
 20
78.997456281889072
 30
0.0
 11
435.83790408862649
 21
78.997456281889072
 31
0.0
  0
POLYLINE
  5
841
  8
L1
 66
     1
 10
0.0
 20
0.0
 30
0.0
  0
VERTEX
  5
14D2
  8
L1
 10
563.3480656775788
 20
80.544272529163464
 30
0.0
  0
VERTEX
  5
14D3
  8
L1
 10
563.34418253792398
 20
80.380424952075174
 30
0.0
  0
VERTEX
  5
14D4
  8
L1
 10
563.33240502071396
 20
80.214589816067274
 30
0.0
  0
VERTEX
  5
14D5
  8
L1
 10
563.31252694707723
 20
80.047564364536782
 30
0.0
  0
VERTEX
  5
14D6
  8
L1
 10
563.28434213814251
 20
79.880145840880942
 30
0.0
  0
VERTEX
  5
14D7
  8
L1
 10
563.24757815556302
 20
79.71260756553832
 30
0.0
  0
VERTEX
  5
14D8
  8
L1
 10
563.20238841157902
 20
79.546212984719858
 30
0.0
  0
VERTEX
  5
14D9
  8
L1
 10
563.14890649301833
 20
79.3817004412995
 30
0.0
  0
VERTEX
  5
14DA
  8
L1
 10
563.08726598670864
 20
79.219808278151191
 30
0.0
  0
VERTEX
  5
14DB
  8
L1
 10
563.01762333235183
 20
79.061191982044221
 30
0.0
  0
VERTEX
  5
14DC
  8
L1
 10
562.94032938497764
 20
78.906427358587877
 30
0.0
  0
VERTEX
  5
14DD
  8
L1
 10
562.85580935440771
 20
78.756133228916013
 30
0.0
  0
VERTEX
  5
14DE
  8
L1
 10
562.76448845046264
 20
78.610928414162032
 30
0.0
  0
VERTEX
  5
14DF
  8
L1
 10
562.66683741362931
 20
78.471401503935084
 30
0.0
  0
VERTEX
  5
14E0
  8
L1
 10
562.56352036385192
 20
78.338012682973471
 30
0.0
  0
VERTEX
  5
14E1
  8
L1
 10
562.45525258013686
 20
78.211188165106051
 30
0.0
  0
VERTEX
  5
14E2
  8
L1
 10
562.34274934149062
 20
78.091354164160947
 30
0.0
  0
VERTEX
  5
14E3
  8
L1
 10
562.22385657294137
 20
77.976198801254867
 30
0.0
  0
VERTEX
  5
14E4
  8
L1
 10
562.09783693003578
 20
77.865246750790192
 30
0.0
  0
VERTEX
  5
14E5
  8
L1
 10
561.96511179251547
 20
77.759221695704952
 30
0.0
  0
VERTEX
  5
14E6
  8
L1
 10
561.82610254012275
 20
77.65884731893712
 30
0.0
  0
VERTEX
  5
14E7
  8
L1
 10
561.68126563029978
 20
77.564796106024886
 30
0.0
  0
VERTEX
  5
14E8
  8
L1
 10
561.53118971842741
 20
77.477547584417067
 30
0.0
  0
VERTEX
  5
14E9
  8
L1
 10
561.3764944811569
 20
77.397535999917324
 30
0.0
  0
VERTEX
  5
14EA
  8
L1
 10
561.21779959513924
 20
77.325195598329543
 30
0.0
  0
VERTEX
  5
14EB
  8
L1
 10
561.05568230928793
 20
77.26088514960972
 30
0.0
  0
VERTEX
  5
14EC
  8
L1
 10
560.89080252510712
 20
77.204769196854301
 30
0.0
  0
VERTEX
  5
14ED
  8
L1
 10
560.7239038981362
 20
77.156990645577622
 30
0.0
  0
VERTEX
  5
14EE
  8
L1
 10
560.5557300839132
 20
77.117692401294406
 30
0.0
  0
VERTEX
  5
14EF
  8
L1
 10
560.38703589282306
 20
77.086963638497849
 30
0.0
  0
VERTEX
  5
14F0
  8
L1
 10
560.21862359740203
 20
77.06466490477149
 30
0.0
  0
VERTEX
  5
14F1
  8
L1
 10
560.05130804641476
 20
77.050596165264636
 30
0.0
  0
VERTEX
  5
14F2
  8
L1
 10
559.88590408862649
 20
77.044557385126581
 30
0.0
  0
SEQEND
  5
14F3
  8
L1
  0
POLYLINE
  5
842
  8
L1
 66
     1
 10
0.0
 20
0.0
 30
0.0
  0
VERTEX
  5
14F4
  8
L1
 10
563.34806570634566
 20
80.546272529163517
 30
0.0
  0
VERTEX
  5
14F5
  8
L1
 10
563.3480656775788
 20
80.544272529163464
 30
0.0
  0
SEQEND
  5
14F6
  8
L1
  0
ARC
  5
843
  8
L1
 10
555.0879040886266
 20
85.294272529163464
 30
0.0
 40
5.0
 50
87.268584429571703
 51
182.73141557042831
  0
LINE
  5
844
  8
L1
 10
560.08222356913564
 20
85.532543229434864
 30
0.0
 11
555.32617478889802
 21
90.28859200967247
 31
0.0
  0
CIRCLE
  5
845
  8
L1
 10
555.0879040886266
 20
85.294272529163464
 30
0.0
 40
5.9982622421189946
  0
CIRCLE
  5
846
  8
L1
 10
555.0879040886266
 20
85.294272529163464
 30
0.0
 40
5.7982698575061704
  0
LINE
  5
847
  8
L1
 10
550.09358460811745
 20
85.05600182889205
 30
0.0
 11
554.84963338835519
 21
80.299953048654416
 31
0.0
  0
ARC
  5
848
  8
L1
 10
555.0879040886266
 20
85.294272529163464
 30
0.0
 40
5.0
 50
267.26858442957172
 51
2.7314155704273539
  0
POLYLINE
  5
849
  8
L1
 66
     1
 10
0.0
 20
0.0
 30
0.0
  0
VERTEX
  5
14F7
  8
L1
 10
561.39441426024825
 20
80.590573496348455
 30
0.0
  0
VERTEX
  5
14F8
  8
L1
 10
561.39162414489783
 20
80.472845657378869
 30
0.0
  0
VERTEX
  5
14F9
  8
L1
 10
561.38640700990504
 20
80.399384988574425
 30
0.0
  0
VERTEX
  5
14FA
  8
L1
 10
561.37760309914097
 20
80.325410155929674
 30
0.0
  0
VERTEX
  5
14FB
  8
L1
 10
561.36524638899004
 20
80.252010965056655
 30
0.0
  0
VERTEX
  5
14FC
  8
L1
 10
561.34909432900213
 20
80.178403915881574
 30
0.0
  0
VERTEX
  5
14FD
  8
L1
 10
561.32908390010425
 20
80.104722884857537
 30
0.0
  0
VERTEX
  5
14FE
  8
L1
 10
561.30539886294264
 20
80.031866753115665
 30
0.0
  0
VERTEX
  5
14FF
  8
L1
 10
561.27832711519886
 20
79.960765718019744
 30
0.0
  0
VERTEX
  5
1500
  8
L1
 10
561.24773355947445
 20
79.891086632140912
 30
0.0
  0
VERTEX
  5
1501
  8
L1
 10
561.21347875847653
 20
79.822498708272079
 30
0.0
  0
VERTEX
  5
1502
  8
L1
 10
561.17600839627471
 20
79.755868639191164
 30
0.0
  0
VERTEX
  5
1503
  8
L1
 10
561.13586023318862
 20
79.692031047448296
 30
0.0
  0
VERTEX
  5
1504
  8
L1
 10
561.09291590340013
 20
79.630670821879107
 30
0.0
  0
VERTEX
  5
1505
  8
L1
 10
561.04704190717996
 20
79.571444602375422
 30
0.0
  0
VERTEX
  5
1506
  8
L1
 10
560.99894217933115
 20
79.515100742875845
 30
0.0
  0
VERTEX
  5
1507
  8
L1
 10
560.94980957998348
 20
79.462766640964432
 30
0.0
  0
VERTEX
  5
1508
  8
L1
 10
560.89763406426698
 20
79.412231267615354
 30
0.0
  0
VERTEX
  5
1509
  8
L1
 10
560.84159267402481
 20
79.362890490139065
 30
0.0
  0
VERTEX
  5
150A
  8
L1
 10
560.78256340206178
 20
79.315736032976943
 30
0.0
  0
VERTEX
  5
150B
  8
L1
 10
560.72128452088305
 20
79.271488406279559
 30
0.0
  0
VERTEX
  5
150C
  8
L1
 10
560.65741427735372
 20
79.230013661476832
 30
0.0
  0
VERTEX
  5
150D
  8
L1
 10
560.59064117489584
 20
79.191194277340301
 30
0.0
  0
VERTEX
  5
150E
  8
L1
 10
560.52179560518334
 20
79.15558592109295
 30
0.0
  0
VERTEX
  5
150F
  8
L1
 10
560.45174167528091
 20
79.123652129468582
 30
0.0
  0
VERTEX
  5
1510
  8
L1
 10
560.38015655425693
 20
79.095254964844614
 30
0.0
  0
VERTEX
  5
1511
  8
L1
 10
560.30671666332387
 20
79.070260090728027
 30
0.0
  0
VERTEX
  5
1512
  8
L1
 10
560.23235510675374
 20
79.048972393470862
 30
0.0
  0
VERTEX
  5
1513
  8
L1
 10
560.15804830448485
 20
79.031608650601854
 30
0.0
  0
VERTEX
  5
1514
  8
L1
 10
560.08349907067031
 20
79.018029014529333
 30
0.0
  0
VERTEX
  5
1515
  8
L1
 10
560.00837897739405
 20
79.008082692301031
 30
0.0
  0
VERTEX
  5
1516
  8
L1
 10
559.93372195104462
 20
79.001805151152766
 30
0.0
  0
VERTEX
  5
1517
  8
L1
 10
559.81460514737341
 20
78.997456281889072
 30
0.0
  0
SEQEND
  5
1518
  8
L1
  0
POLYLINE
  5
84A
  8
L1
 66
     1
 10
0.0
 20
0.0
 30
0.0
  0
VERTEX
  5
1519
  8
L1
 10
558.49185715969759
 20
77.044272529163464
 30
0.0
  0
VERTEX
  5
151A
  8
L1
 10
558.52050475698718
 20
77.044272529163464
 30
0.0
  0
SEQEND
  5
151B
  8
L1
  0
POLYLINE
  5
84B
  8
L1
 66
     1
 10
0.0
 20
0.0
 30
0.0
  0
VERTEX
  5
151C
  8
L1
 10
559.88590408862649
 20
77.044557385126581
 30
0.0
  0
VERTEX
  5
151D
  8
L1
 10
559.86353609420155
 20
77.044343743878784
 30
0.0
  0
VERTEX
  5
151E
  8
L1
 10
559.84117465420729
 20
77.044272529163464
 30
0.0
  0
SEQEND
  5
151F
  8
L1
  0
LINE
  5
84C
  8
L1
 10
559.84117465420729
 20
77.044272529163464
 30
0.0
 11
558.52050475698718
 21
77.044272529163464
 31
0.0
  0
ARC
  5
84D
  8
L1
 10
545.33790408862649
 20
95.044272529163464
 30
0.0
 40
1.9999999999999989
 50
270.0
 51
0.000000000000007
  0
LINE
  5
873
  8
L1
 10
-52.677381291856562
 20
167.04427252916349
 30
0.0
 11
-52.67738129185647
 21
94.894272529163473
 31
0.0
  0
LINE
  5
874
  8
L1
 10
-51.377381291856523
 20
167.04427252916349
 30
0.0
 11
-51.377381291856523
 21
95.593758516626934
 31
0.0
  0
LINE
  5
875
  8
L1
 10
-53.417219674137399
 20
80.546272529163517
 30
0.0
 11
-53.417219674137392
 21
167.04427252916349
 31
0.0
  0
LINE
  5
876
  8
L1
 10
-54.177381291856577
 20
167.04427252916349
 30
0.0
 11
-54.177381291856577
 21
80.546272529163517
 31
0.0
  0
LINE
  5
877
  8
L1
 10
-50.715219674137401
 20
77.844272529163646
 30
0.0
 11
72.862702537668994
 21
77.844272529163732
 31
0.0
  0
POLYLINE
  5
878
  8
L1
 66
     1
 10
0.0
 20
0.0
 30
0.0
  0
VERTEX
  5
1520
  8
L1
 10
-50.670490239718333
 20
77.044272529163635
 30
0.0
  0
VERTEX
  5
1521
  8
L1
 10
-50.692851679712469
 20
77.044343743878898
 30
0.0
  0
VERTEX
  5
1522
  8
L1
 10
-50.715219674137401
 20
77.044557385126751
 30
0.0
  0
SEQEND
  5
1523
  8
L1
  0
LINE
  5
879
  8
L1
 10
-46.166846751604218
 20
90.314260596837514
 30
0.0
 11
-50.937207741811321
 21
85.543899606630333
 31
0.0
  0
ARC
  5
87A
  8
L1
 10
-49.777381291856599
 20
81.444272529163669
 30
0.0
 40
2.6000000000000001
 50
180.0
 51
270.0
  0
ARC
  5
87B
  8
L1
 10
-45.917219674137399
 20
85.294272529163635
 30
0.0
 40
5.0261806033722758
 50
177.26858442957189
 51
272.73141557042749
  0
ARC
  5
87C
  8
L1
 10
-49.377381291856629
 20
94.894272529163601
 30
0.0
 40
3.2999999999999439
 50
221.40989698076501
 51
270.0
  0
POLYLINE
  5
87D
  8
L1
 66
     1
 10
0.0
 20
0.0
 30
0.0
  0
VERTEX
  5
1524
  8
L1
 10
-49.877895304393171
 20
94.094272529163646
 30
0.0
  0
VERTEX
  5
1525
  8
L1
 10
-50.058676254731488
 20
94.10520343556388
 30
0.0
  0
VERTEX
  5
1526
  8
L1
 10
-50.236808327993003
 20
94.137836896404295
 30
0.0
  0
VERTEX
  5
1527
  8
L1
 10
-50.409696220468732
 20
94.191697456925937
 30
0.0
  0
VERTEX
  5
1528
  8
L1
 10
-50.574821033790833
 20
94.266000393131904
 30
0.0
  0
VERTEX
  5
1529
  8
L1
 10
-50.729776974142503
 20
94.359663144861116
 30
0.0
  0
VERTEX
  5
152A
  8
L1
 10
-50.872306403584723
 20
94.471321088200085
 30
0.0
  0
VERTEX
  5
152B
  8
L1
 10
-51.000332732820191
 20
94.599347417435425
 30
0.0
  0
VERTEX
  5
152C
  8
L1
 10
-51.111990676158932
 20
94.741876846877659
 30
0.0
  0
VERTEX
  5
152D
  8
L1
 10
-51.205653427888357
 20
94.896832787229329
 30
0.0
  0
VERTEX
  5
152E
  8
L1
 10
-51.279956364094232
 20
95.061957600551494
 30
0.0
  0
VERTEX
  5
152F
  8
L1
 10
-51.333816924615789
 20
95.234845493027166
 30
0.0
  0
VERTEX
  5
1530
  8
L1
 10
-51.366450385456332
 20
95.412977566288674
 30
0.0
  0
VERTEX
  5
1531
  8
L1
 10
-51.377381291856629
 20
95.593758516626934
 30
0.0
  0
SEQEND
  5
1532
  8
L1
  0
LINE
  5
87E
  8
L1
 10
72.862702537668994
 20
79.844272529163575
 30
0.0
 11
-35.6177336866741
 21
79.844272529163703
 31
0.0
  0
LINE
  5
87F
  8
L1
 10
72.862702537668994
 20
78.544272529163763
 30
0.0
 11
-36.317219674137377
 21
78.544272529163635
 31
0.0
  0
LINE
  5
880
  8
L1
 10
72.862702537668994
 20
77.044272529163663
 30
0.0
 11
-50.670490239718333
 21
77.044272529163635
 31
0.0
  0
ARC
  5
881
  8
L1
 10
-45.917219674137399
 20
85.294272529163635
 30
0.0
 40
5.0261806033722758
 50
357.26858442957263
 51
92.731415570428211
  0
ARC
  5
882
  8
L1
 10
-45.917219674137399
 20
85.294272529163635
 30
0.0
 40
6.3000000000000487
 50
359.99999999999972
 51
90.0
  0
ARC
  5
883
  8
L1
 10
-45.917219674137399
 20
85.294272529163578
 30
0.0
 40
8.8000000000000114
 50
0.0000000000001342
 51
37.285473900598191
  0
ARC
  5
884
  8
L1
 10
-36.317219674137377
 20
81.844272529163689
 30
0.0
 40
3.3000000000000149
 50
180.00000000000051
 51
228.59010301923431
  0
LINE
  5
885
  8
L1
 10
-38.698382901476847
 20
78.844272529163646
 30
0.0
 11
-49.777381291856599
 21
78.844272529163646
 31
0.0
  0
POLYLINE
  5
886
  8
L1
 66
     1
 10
0.0
 20
0.0
 30
0.0
  0
VERTEX
  5
1533
  8
L1
 10
-35.6177336866741
 20
79.844272529163646
 30
0.0
  0
VERTEX
  5
1534
  8
L1
 10
-35.798514637012417
 20
79.855203435563936
 30
0.0
  0
VERTEX
  5
1535
  8
L1
 10
-35.976646710273819
 20
79.887836896404366
 30
0.0
  0
VERTEX
  5
1536
  8
L1
 10
-36.14953460274954
 20
79.941697456925937
 30
0.0
  0
VERTEX
  5
1537
  8
L1
 10
-36.31465941607177
 20
80.016000393131918
 30
0.0
  0
VERTEX
  5
1538
  8
L1
 10
-36.469615356423432
 20
80.109663144861159
 30
0.0
  0
VERTEX
  5
1539
  8
L1
 10
-36.612144785865659
 20
80.221321088200085
 30
0.0
  0
VERTEX
  5
153A
  8
L1
 10
-36.740171115101013
 20
80.349347417435439
 30
0.0
  0
VERTEX
  5
153B
  8
L1
 10
-36.851829058439982
 20
80.491876846877716
 30
0.0
  0
VERTEX
  5
153C
  8
L1
 10
-36.94549181016918
 20
80.646832787229329
 30
0.0
  0
VERTEX
  5
153D
  8
L1
 10
-37.019794746375162
 20
80.811957600551551
 30
0.0
  0
VERTEX
  5
153E
  8
L1
 10
-37.073655306896839
 20
80.984845493027237
 30
0.0
  0
VERTEX
  5
153F
  8
L1
 10
-37.106288767737162
 20
81.162977566288674
 30
0.0
  0
VERTEX
  5
1540
  8
L1
 10
-37.117219674137452
 20
81.343758516626991
 30
0.0
  0
SEQEND
  5
1541
  8
L1
  0
ARC
  5
887
  8
L1
 10
-36.317219674137377
 20
81.844272529163689
 30
0.0
 40
3.3000000000000149
 50
228.59010301923431
 51
270.0
  0
POLYLINE
  5
888
  8
L1
 66
     1
 10
0.0
 20
0.0
 30
0.0
  0
VERTEX
  5
1542
  8
L1
 10
-38.499976379336758
 20
79.369283000719719
 30
0.0
  0
VERTEX
  5
1543
  8
L1
 10
-38.480127692077289
 20
79.350083520271227
 30
0.0
  0
VERTEX
  5
1544
  8
L1
 10
-38.46216319152596
 20
79.329185213388456
 30
0.0
  0
VERTEX
  5
1545
  8
L1
 10
-38.446191276881777
 20
79.306726114771905
 30
0.0
  0
VERTEX
  5
1546
  8
L1
 10
-38.432320347342618
 20
79.282844259122015
 30
0.0
  0
VERTEX
  5
1547
  8
L1
 10
-38.420385438883372
 20
79.257005301428961
 30
0.0
  0
VERTEX
  5
1548
  8
L1
 10
-38.410970721825478
 20
79.230212224596499
 30
0.0
  0
VERTEX
  5
1549
  8
L1
 10
-38.404131290905738
 20
79.202649078584074
 30
0.0
  0
VERTEX
  5
154A
  8
L1
 10
-38.399922240861081
 20
79.174499913351241
 30
0.0
  0
VERTEX
  5
154B
  8
L1
 10
-38.398395456928021
 20
79.145134902880642
 30
0.0
  0
VERTEX
  5
154C
  8
L1
 10
-38.399744110817991
 20
79.115830796758615
 30
0.0
  0
VERTEX
  5
154D
  8
L1
 10
-38.403948192192942
 20
79.086798505718349
 30
0.0
  0
VERTEX
  5
154E
  8
L1
 10
-38.410987690714578
 20
79.058248940493016
 30
0.0
  0
VERTEX
  5
154F
  8
L1
 10
-38.420900129570427
 20
79.030253727434371
 30
0.0
  0
VERTEX
  5
1550
  8
L1
 10
-38.43349845975262
 20
79.003439188868839
 30
0.0
  0
VERTEX
  5
1551
  8
L1
 10
-38.448680245902878
 20
78.97799807778145
 30
0.0
  0
VERTEX
  5
1552
  8
L1
 10
-38.466343052662737
 20
78.954123147157162
 30
0.0
  0
VERTEX
  5
1553
  8
L1
 10
-38.48577257055625
 20
78.93262051672454
 30
0.0
  0
VERTEX
  5
1554
  8
L1
 10
-38.507134972989313
 20
78.913135661836719
 30
0.0
  0
VERTEX
  5
1555
  8
L1
 10
-38.530273973631999
 20
78.895797875250111
 30
0.0
  0
VERTEX
  5
1556
  8
L1
 10
-38.555033286154512
 20
78.880736449720786
 30
0.0
  0
VERTEX
  5
1557
  8
L1
 10
-38.576509394597437
 20
78.870142617696189
 30
0.0
  0
VERTEX
  5
1558
  8
L1
 10
-38.598726426189486
 20
78.861308086246964
 30
0.0
  0
VERTEX
  5
1559
  8
L1
 10
-38.621576436735367
 20
78.854270837176131
 30
0.0
  0
VERTEX
  5
155A
  8
L1
 10
-38.644951482040128
 20
78.849068852286706
 30
0.0
  0
VERTEX
  5
155B
  8
L1
 10
-38.671573739741788
 20
78.845472753767595
 30
0.0
  0
VERTEX
  5
155C
  8
L1
 10
-38.698382901476847
 20
78.844272529163646
 30
0.0
  0
SEQEND
  5
155D
  8
L1
  0
LINE
  5
889
  8
L1
 10
-37.117219674137452
 20
81.343758516626991
 30
0.0
 11
-37.117219674137452
 21
85.294272529163635
 31
0.0
  0
LINE
  5
88A
  8
L1
 10
-45.667592596670708
 20
80.274284461489771
 30
0.0
 11
-40.897231606463478
 21
85.044645451696866
 31
0.0
  0
LINE
  5
88B
  8
L1
 10
-45.67770135972625
 20
80.273802189167867
 30
0.0
 11
-45.667592596670708
 21
80.274284461489771
 31
0.0
  0
LINE
  5
88C
  8
L1
 10
-39.617219674137452
 20
81.844272529163646
 30
0.0
 11
-39.617219674137452
 21
82.794272529163635
 31
0.0
  0
LINE
  5
88D
  8
L1
 10
-39.617219674137452
 20
82.794272529163635
 30
0.0
 11
-39.617219674137452
 21
85.294272529163578
 31
0.0
  0
LINE
  5
88E
  8
L1
 10
-40.897231606463478
 20
85.044645451696866
 30
0.0
 11
-40.896749334141639
 21
85.054754214752478
 31
0.0
  0
LINE
  5
88F
  8
L1
 10
-39.123812287714358
 20
93.217577359922046
 30
0.0
 11
-40.211723596362383
 21
92.304711382081877
 31
0.0
  0
LINE
  5
890
  8
L1
 10
-38.906780821219279
 20
90.999768606938716
 30
0.0
 11
-37.993914843379109
 21
92.087679915586776
 31
0.0
  0
POLYLINE
  5
891
  8
L1
 66
     1
 10
0.0
 20
0.0
 30
0.0
  0
VERTEX
  5
155E
  8
L1
 10
-38.915701277966029
 20
90.625195540057035
 30
0.0
  0
VERTEX
  5
155F
  8
L1
 10
-38.928646961974081
 20
90.643590621888421
 30
0.0
  0
VERTEX
  5
1560
  8
L1
 10
-38.940202557012633
 20
90.662950148958856
 30
0.0
  0
VERTEX
  5
1561
  8
L1
 10
-38.952638064462448
 20
90.688487303628023
 30
0.0
  0
VERTEX
  5
1562
  8
L1
 10
-38.962582569459748
 20
90.715026465890645
 30
0.0
  0
VERTEX
  5
1563
  8
L1
 10
-38.969977693489902
 20
90.742385822939042
 30
0.0
  0
VERTEX
  5
1564
  8
L1
 10
-38.974765058038528
 20
90.770383561965701
 30
0.0
  0
VERTEX
  5
1565
  8
L1
 10
-38.976906627262899
 20
90.799646442784464
 30
0.0
  0
VERTEX
  5
1566
  8
L1
 10
-38.976184141133771
 20
90.828909563871349
 30
0.0
  0
VERTEX
  5
1567
  8
L1
 10
-38.972613303741802
 20
90.857963072235322
 30
0.0
  0
VERTEX
  5
1568
  8
L1
 10
-38.966209819177479
 20
90.886597114885504
 30
0.0
  0
VERTEX
  5
1569
  8
L1
 10
-38.956905917284288
 20
90.914817734566753
 30
0.0
  0
VERTEX
  5
156A
  8
L1
 10
-38.944888885533132
 20
90.941915858548185
 30
0.0
  0
VERTEX
  5
156B
  8
L1
 10
-38.930257296895647
 20
90.967696454303365
 30
0.0
  0
VERTEX
  5
156C
  8
L1
 10
-38.913109724343819
 20
90.991964489305843
 30
0.0
  0
VERTEX
  5
156D
  8
L1
 10
-38.906780821219279
 20
90.999768606938716
 30
0.0
  0
SEQEND
  5
156E
  8
L1
  0
LINE
  5
892
  8
L1
 10
-38.01159546870916
 20
92.492632812896119
 30
0.0
 11
-38.718859390404972
 21
93.199896734592045
 31
0.0
  0
POLYLINE
  5
893
  8
L1
 66
     1
 10
0.0
 20
0.0
 30
0.0
  0
VERTEX
  5
156F
  8
L1
 10
-38.01159546870916
 20
92.492632812896119
 30
0.0
  0
VERTEX
  5
1570
  8
L1
 10
-37.958844207767008
 20
92.421344255220006
 30
0.0
  0
VERTEX
  5
1571
  8
L1
 10
-37.929241065064382
 20
92.337749054448892
 30
0.0
  0
VERTEX
  5
1572
  8
L1
 10
-37.92537283211071
 20
92.24915195379063
 30
0.0
  0
VERTEX
  5
1573
  8
L1
 10
-37.947577524104517
 20
92.163294774106674
 30
0.0
  0
VERTEX
  5
1574
  8
L1
 10
-37.993914843379109
 20
92.087679915586847
 30
0.0
  0
SEQEND
  5
1575
  8
L1
  0
POLYLINE
  5
894
  8
L1
 66
     1
 10
0.0
 20
0.0
 30
0.0
  0
VERTEX
  5
1576
  8
L1
 10
-39.123812287714358
 20
93.217577359922103
 30
0.0
  0
VERTEX
  5
1577
  8
L1
 10
-39.048197429194481
 20
93.263914679196674
 30
0.0
  0
VERTEX
  5
1578
  8
L1
 10
-38.962340249510582
 20
93.286119371190608
 30
0.0
  0
VERTEX
  5
1579
  8
L1
 10
-38.873743148852313
 20
93.282251138236816
 30
0.0
  0
VERTEX
  5
157A
  8
L1
 10
-38.790147948081191
 20
93.252647995534204
 30
0.0
  0
VERTEX
  5
157B
  8
L1
 10
-38.718859390405093
 20
93.199896734592045
 30
0.0
  0
SEQEND
  5
157C
  8
L1
  0
LINE
  5
895
  8
L1
 10
-48.417219674137399
 20
91.594272529163646
 30
0.0
 11
-49.377381291856629
 21
91.594272529163646
 31
0.0
  0
LINE
  5
896
  8
L1
 10
-45.917219674137399
 20
91.594272529163646
 30
0.0
 11
-48.417219674137399
 21
91.594272529163646
 31
0.0
  0
LINE
  5
897
  8
L1
 10
-46.15673798854867
 20
90.314742869159403
 30
0.0
 11
-46.166846751604218
 21
90.314260596837514
 31
0.0
  0
ARC
  5
898
  8
L1
 10
-45.917219674137399
 20
85.294272529163578
 30
0.0
 40
8.8000000000000114
 50
52.714526099403137
 51
90.000000000000355
  0
POLYLINE
  5
899
  8
L1
 66
     1
 10
0.0
 20
0.0
 30
0.0
  0
VERTEX
  5
157D
  8
L1
 10
-40.211723596362383
 20
92.304711382081919
 30
0.0
  0
VERTEX
  5
157E
  8
L1
 10
-40.243117404335628
 20
92.281666746588741
 30
0.0
  0
VERTEX
  5
157F
  8
L1
 10
-40.277290707896313
 20
92.262852712387058
 30
0.0
  0
VERTEX
  5
1580
  8
L1
 10
-40.298780244005108
 20
92.253783416066895
 30
0.0
  0
VERTEX
  5
1581
  8
L1
 10
-40.32087571498311
 20
92.246420334127748
 30
0.0
  0
VERTEX
  5
1582
  8
L1
 10
-40.343475656407342
 20
92.240793101582341
 30
0.0
  0
VERTEX
  5
1583
  8
L1
 10
-40.366478603855157
 20
92.236931353443566
 30
0.0
  0
VERTEX
  5
1584
  8
L1
 10
-40.3882050279867
 20
92.23494705798376
 30
0.0
  0
VERTEX
  5
1585
  8
L1
 10
-40.409989543343492
 20
92.23454649824933
 30
0.0
  0
VERTEX
  5
1586
  8
L1
 10
-40.431745646522693
 20
92.235728221305763
 30
0.0
  0
VERTEX
  5
1587
  8
L1
 10
-40.453386834121588
 20
92.238490774218604
 30
0.0
  0
VERTEX
  5
1588
  8
L1
 10
-40.476638193800561
 20
92.243274945907984
 30
0.0
  0
VERTEX
  5
1589
  8
L1
 10
-40.499403337008509
 20
92.249871342672094
 30
0.0
  0
VERTEX
  5
158A
  8
L1
 10
-40.521576490521163
 20
92.258244793652722
 30
0.0
  0
VERTEX
  5
158B
  8
L1
 10
-40.543051881114813
 20
92.268360127991713
 30
0.0
  0
VERTEX
  5
158C
  8
L1
 10
-40.565286097820589
 20
92.281166765303894
 30
0.0
  0
VERTEX
  5
158D
  8
L1
 10
-40.58629666324417
 20
92.295790925335169
 30
0.0
  0
SEQEND
  5
158E
  8
L1
  0
LINE
  5
89A
  8
L1
 10
-45.917219674137399
 20
94.094272529163575
 30
0.0
 11
-49.877895304393171
 21
94.094272529163575
 31
0.0
  0
LINE
  5
89B
  8
L1
 10
-52.377381291856629
 20
81.444272529163669
 30
0.0
 11
-52.377381291856629
 21
92.513109301824301
 31
0.0
  0
POLYLINE
  5
89C
  8
L1
 66
     1
 10
0.0
 20
0.0
 30
0.0
  0
VERTEX
  5
158F
  8
L1
 10
-50.715219674137401
 20
77.044557385126751
 30
0.0
  0
VERTEX
  5
1590
  8
L1
 10
-50.88062363192568
 20
77.050596165264807
 30
0.0
  0
VERTEX
  5
1591
  8
L1
 10
-51.047939182912828
 20
77.064664904771604
 30
0.0
  0
VERTEX
  5
1592
  8
L1
 10
-51.21635147833387
 20
77.08696363849802
 30
0.0
  0
VERTEX
  5
1593
  8
L1
 10
-51.385045669424009
 20
77.11769240129459
 30
0.0
  0
VERTEX
  5
1594
  8
L1
 10
-51.553219483646892
 20
77.156990645577849
 30
0.0
  0
VERTEX
  5
1595
  8
L1
 10
-51.720118110618152
 20
77.204769196854471
 30
0.0
  0
VERTEX
  5
1596
  8
L1
 10
-51.88499789479873
 20
77.260885149609891
 30
0.0
  0
VERTEX
  5
1597
  8
L1
 10
-52.047115180650273
 20
77.325195598329771
 30
0.0
  0
VERTEX
  5
1598
  8
L1
 10
-52.205810066667702
 20
77.397535999917551
 30
0.0
  0
VERTEX
  5
1599
  8
L1
 10
-52.360505303938211
 20
77.477547584417295
 30
0.0
  0
VERTEX
  5
159A
  8
L1
 10
-52.510581215810468
 20
77.564796106025113
 30
0.0
  0
VERTEX
  5
159B
  8
L1
 10
-52.655418125633553
 20
77.658847318937333
 30
0.0
  0
VERTEX
  5
159C
  8
L1
 10
-52.794427378026157
 20
77.759221695705179
 30
0.0
  0
VERTEX
  5
159D
  8
L1
 10
-52.927152515546467
 20
77.865246750790419
 30
0.0
  0
VERTEX
  5
159E
  8
L1
 10
-53.053172158452519
 20
77.976198801255151
 30
0.0
  0
VERTEX
  5
159F
  8
L1
 10
-53.172064927001649
 20
78.091354164161174
 30
0.0
  0
VERTEX
  5
15A0
  8
L1
 10
-53.284568165647663
 20
78.211188165106279
 30
0.0
  0
VERTEX
  5
15A1
  8
L1
 10
-53.39283594936272
 20
78.338012682973755
 30
0.0
  0
VERTEX
  5
15A2
  8
L1
 10
-53.496152999140229
 20
78.471401503935198
 30
0.0
  0
VERTEX
  5
15A3
  8
L1
 10
-53.593804035973562
 20
78.610928414162203
 30
0.0
  0
VERTEX
  5
15A4
  8
L1
 10
-53.685124939918509
 20
78.756133228916127
 30
0.0
  0
VERTEX
  5
15A5
  8
L1
 10
-53.769644970488557
 20
78.906427358588104
 30
0.0
  0
VERTEX
  5
15A6
  8
L1
 10
-53.846938917862524
 20
79.061191982044448
 30
0.0
  0
VERTEX
  5
15A7
  8
L1
 10
-53.916581572219563
 20
79.219808278151362
 30
0.0
  0
VERTEX
  5
15A8
  8
L1
 10
-53.978222078529143
 20
79.381700441299714
 30
0.0
  0
VERTEX
  5
15A9
  8
L1
 10
-54.031703997089828
 20
79.546212984720029
 30
0.0
  0
VERTEX
  5
15AA
  8
L1
 10
-54.076893741073938
 20
79.712607565538548
 30
0.0
  0
VERTEX
  5
15AB
  8
L1
 10
-54.113657723653432
 20
79.88014584088117
 30
0.0
  0
VERTEX
  5
15AC
  8
L1
 10
-54.141842532588029
 20
80.047564364537067
 30
0.0
  0
VERTEX
  5
15AD
  8
L1
 10
-54.161720606224769
 20
80.214589816067502
 30
0.0
  0
VERTEX
  5
15AE
  8
L1
 10
-54.173498123434896
 20
80.380424952075387
 30
0.0
  0
VERTEX
  5
15AF
  8
L1
 10
-54.177381263089607
 20
80.544272529163635
 30
0.0
  0
SEQEND
  5
15B0
  8
L1
  0
ARC
  5
89D
  8
L1
 10
-50.715219674137401
 20
80.546272529163645
 30
0.0
 40
2.7019999999999542
 50
180.0000000000006
 51
270.00000000000119
  0
POLYLINE
  5
89E
  8
L1
 66
     1
 10
0.0
 20
0.0
 30
0.0
  0
VERTEX
  5
15B1
  8
L1
 10
-54.177381263089607
 20
80.544272529163635
 30
0.0
  0
VERTEX
  5
15B2
  8
L1
 10
-54.177381291856577
 20
80.546272529163645
 30
0.0
  0
SEQEND
  5
15B3
  8
L1
  0
LINE
  5
89F
  8
L1
 10
-50.937207741811321
 20
85.54389960663039
 30
0.0
 11
-50.937690014133288
 21
85.533790843574849
 31
0.0
  0
ARC
  5
8A0
  8
L1
 10
-49.377381291856629
 20
94.894272529163601
 30
0.0
 40
3.2999999999999439
 50
180.0
 51
221.40989698076501
  0
POLYLINE
  5
8A1
  8
L1
 66
     1
 10
0.0
 20
0.0
 30
0.0
  0
VERTEX
  5
15B4
  8
L1
 10
-52.377381291856629
 20
92.513109301824244
 30
0.0
  0
VERTEX
  5
15B5
  8
L1
 10
-52.377309669660121
 20
92.519664504196413
 30
0.0
  0
VERTEX
  5
15B6
  8
L1
 10
-52.37518689126442
 20
92.549328828246331
 30
0.0
  0
VERTEX
  5
15B7
  8
L1
 10
-52.370153200299221
 20
92.578566934195777
 30
0.0
  0
VERTEX
  5
15B8
  8
L1
 10
-52.362256356170853
 20
92.607164895383008
 30
0.0
  0
VERTEX
  5
15B9
  8
L1
 10
-52.351544118284323
 20
92.634908785145882
 30
0.0
  0
VERTEX
  5
15BA
  8
L1
 10
-52.338166022213599
 20
92.661405151074504
 30
0.0
  0
VERTEX
  5
15BB
  8
L1
 10
-52.322276266640181
 20
92.686391240751533
 30
0.0
  0
VERTEX
  5
15BC
  8
L1
 10
-52.304000702966718
 20
92.709689140882546
 30
0.0
  0
VERTEX
  5
15BD
  8
L1
 10
-52.283465182596487
 20
92.731120938172836
 30
0.0
  0
VERTEX
  5
15BE
  8
L1
 10
-52.263311059530892
 20
92.748543532257045
 30
0.0
  0
VERTEX
  5
15BF
  8
L1
 10
-52.241734078307893
 20
92.764080829125675
 30
0.0
  0
VERTEX
  5
15C0
  8
L1
 10
-52.218866068085148
 20
92.777646523176287
 30
0.0
  0
VERTEX
  5
15C1
  8
L1
 10
-52.194838858019679
 20
92.789154308806161
 30
0.0
  0
VERTEX
  5
15C2
  8
L1
 10
-52.173356276450242
 20
92.797336673117826
 30
0.0
  0
VERTEX
  5
15C3
  8
L1
 10
-52.151342635692217
 20
92.803841747789107
 30
0.0
  0
VERTEX
  5
15C4
  8
L1
 10
-52.128896049199611
 20
92.808644606969352
 30
0.0
  0
VERTEX
  5
15C5
  8
L1
 10
-52.106114630425729
 20
92.811720324807723
 30
0.0
  0
VERTEX
  5
15C6
  8
L1
 10
-52.084755710437769
 20
92.813007783024574
 30
0.0
  0
VERTEX
  5
15C7
  8
L1
 10
-52.063386323410207
 20
92.812770787929736
 30
0.0
  0
VERTEX
  5
15C8
  8
L1
 10
-52.042088014554793
 20
92.811013178835438
 30
0.0
  0
VERTEX
  5
15C9
  8
L1
 10
-52.020942329083589
 20
92.807738795053893
 30
0.0
  0
VERTEX
  5
15CA
  8
L1
 10
-51.997486560919462
 20
92.802260385125038
 30
0.0
  0
VERTEX
  5
15CB
  8
L1
 10
-51.97458194457726
 20
92.794931223510744
 30
0.0
  0
VERTEX
  5
15CC
  8
L1
 10
-51.952337860894417
 20
92.785791244042031
 30
0.0
  0
VERTEX
  5
15CD
  8
L1
 10
-51.930863690708399
 20
92.774880380549774
 30
0.0
  0
VERTEX
  5
15CE
  8
L1
 10
-51.909261518311382
 20
92.761559852141218
 30
0.0
  0
VERTEX
  5
15CF
  8
L1
 10
-51.888909868544928
 20
92.746499793885974
 30
0.0
  0
VERTEX
  5
15D0
  8
L1
 10
-51.869911912258431
 20
92.729788889816263
 30
0.0
  0
VERTEX
  5
15D1
  8
L1
 10
-51.852370820300607
 20
92.711515823964319
 30
0.0
  0
SEQEND
  5
15D2
  8
L1
  0
LINE
  5
8CF
  8
L2
 10
546.28790408862665
 20
298.2421452712577
 30
0.0
 11
545.66171782936522
 21
321.65523374541169
 31
0.0
  0
LINE
  5
8D0
  8
L1
 10
562.0270409454356
 20
324.20896091977841
 30
0.0
 11
563.3480656775788
 21
299.00230743788359
 31
0.0
  0
LINE
  5
8D1
  8
L1
 10
398.3379040886266
 20
299.04214527125771
 30
0.0
 11
435.83790408862671
 21
299.04214527125771
 31
0.0
  0
LINE
  5
8D2
  8
L1
 10
435.83790408862671
 20
298.24214527125781
 30
0.0
 11
398.3379040886266
 21
298.2421452712577
 31
0.0
  0
LINE
  5
8D3
  8
L1
 10
398.3379040886266
 20
297.07281434381707
 30
0.0
 11
435.83790408862671
 21
297.07281434381707
 31
0.0
  0
LINE
  5
8D4
  8
L1
 10
563.34597786520021
 20
299.04214527125771
 30
0.0
 11
435.8379040886266
 21
299.04214527125771
 31
0.0
  0
LINE
  5
8D5
  8
L1
 10
435.8379040886266
 20
298.2421452712577
 30
0.0
 11
562.5879040886266
 21
298.2421452712577
 31
0.0
  0
LINE
  5
8D6
  8
L1
 10
561.24806570634576
 20
297.0728143438173
 30
0.0
 11
435.8379040886266
 21
297.07281434381702
 31
0.0
  0
LINE
  5
8D7
  8
L1
 10
562.5879040886266
 20
298.2421452712577
 30
0.0
 11
563.34806570634566
 21
299.00230688897688
 31
0.0
  0
POLYLINE
  5
8D8
  8
L1
 66
     1
 10
0.0
 20
0.0
 30
0.0
  0
VERTEX
  5
15D3
  8
L1
 10
563.34806570634566
 20
299.00230688897688
 30
0.0
  0
VERTEX
  5
15D4
  8
L1
 10
563.34806567757869
 20
299.0023074378837
 30
0.0
  0
SEQEND
  5
15D5
  8
L1
  0
POLYLINE
  5
8D9
  8
L1
 66
     1
 10
0.0
 20
0.0
 30
0.0
  0
VERTEX
  5
15D6
  8
L1
 10
563.34806567757869
 20
299.0023074378837
 30
0.0
  0
VERTEX
  5
15D7
  8
L1
 10
563.34806570634566
 20
299.00230688897688
 30
0.0
  0
SEQEND
  5
15D8
  8
L1
  0
LINE
  5
8DA
  8
L2
 10
560.64806570634573
 20
298.2421452712577
 30
0.0
 11
560.78586497027379
 21
297.460646810985
 31
0.0
  0
LINE
  5
8DB
  8
L1
 10
561.71026644241761
 20
297.46064681098488
 30
0.0
 11
561.84750919799762
 21
298.23898915557987
 31
0.0
  0
ARC
  5
8DC
  8
L2
 10
561.24806570634576
 20
297.54214527125771
 30
0.0
 40
0.4693309274404737
 50
189.99999999999801
 51
270.0
  0
ARC
  5
8DD
  8
L1
 10
561.24806570634576
 20
297.54214527125771
 30
0.0
 40
0.4693309274404737
 50
270.0
 51
349.99999999999841
  0
LINE
  5
8DE
  8
L1
 10
435.83790408862671
 20
324.24202423899101
 30
0.0
 11
398.33790408862649
 21
324.24208670923258
 31
0.0
  0
LINE
  5
8DF
  8
L1
 10
398.3379040886266
 20
324.84214527125772
 30
0.0
 11
435.83790408862671
 21
324.84214527125772
 31
0.0
  0
LINE
  5
8E0
  8
L2
 10
398.33790408862649
 20
324.54214527125771
 30
0.0
 11
435.83790408862671
 21
324.54214527125771
 31
0.0
  0
LINE
  5
8E2
  8
L1
 10
435.83790408862671
 20
324.24194094533561
 30
0.0
 11
558.49185715969759
 21
324.2421452712577
 31
0.0
  0
LINE
  5
8E3
  8
L1
 10
561.39385715969775
 20
324.84214527125772
 30
0.0
 11
435.83790408862649
 21
324.84214527125772
 31
0.0
  0
LINE
  5
8E4
  8
L2
 10
547.3379040886266
 20
324.54214527125771
 30
0.0
 11
435.83790408862671
 21
324.54214527125771
 31
0.0
  0
LINE
  5
8E5
  8
L2
 10
559.42205078459665
 20
322.14214527125768
 30
0.0
 11
435.8379040886266
 21
322.1421452712579
 31
0.0
  0
POLYLINE
  5
8E6
  8
L1
 66
     1
 10
0.0
 20
0.0
 30
0.0
  0
VERTEX
  5
15D9
  8
L1
 10
558.52050475698718
 20
324.24202809948429
 30
0.0
  0
VERTEX
  5
15DA
  8
L1
 10
558.68048948645196
 20
324.24070842669869
 30
0.0
  0
VERTEX
  5
15DB
  8
L1
 10
558.84227056703128
 20
324.23935187155399
 30
0.0
  0
VERTEX
  5
15DC
  8
L1
 10
559.00512894503959
 20
324.23796398875402
 30
0.0
  0
VERTEX
  5
15DD
  8
L1
 10
559.16834556679032
 20
324.23655033300281
 30
0.0
  0
VERTEX
  5
15DE
  8
L1
 10
559.33854623773675
 20
324.23505154094158
 30
0.0
  0
VERTEX
  5
15DF
  8
L1
 10
559.50759871121022
 20
324.23353834392032
 30
0.0
  0
VERTEX
  5
15E0
  8
L1
 10
559.67474756456227
 20
324.23201845369431
 30
0.0
  0
VERTEX
  5
15E1
  8
L1
 10
559.83923737514533
 20
324.23049958201869
 30
0.0
  0
VERTEX
  5
15E2
  8
L1
 10
560.00039764594453
 20
324.22898900304898
 30
0.0
  0
VERTEX
  5
15E3
  8
L1
 10
560.1576379941024
 20
324.22749428455148
 30
0.0
  0
VERTEX
  5
15E4
  8
L1
 10
560.31032316820824
 20
324.22602357869891
 30
0.0
  0
VERTEX
  5
15E5
  8
L1
 10
560.45781791685056
 20
324.22458503766342
 30
0.0
  0
VERTEX
  5
15E6
  8
L1
 10
560.59951761586467
 20
324.22318679067212
 30
0.0
  0
VERTEX
  5
15E7
  8
L1
 10
560.73494838340332
 20
324.22183619034899
 30
0.0
  0
VERTEX
  5
15E8
  8
L1
 10
560.86367108153127
 20
324.22054022396338
 30
0.0
  0
VERTEX
  5
15E9
  8
L1
 10
560.98524657231383
 20
324.21930587878359
 30
0.0
  0
VERTEX
  5
15EA
  8
L1
 10
561.10170269139564
 20
324.21811477948859
 30
0.0
  0
VERTEX
  5
15EB
  8
L1
 10
561.2137932170026
 20
324.21696130392792
 30
0.0
  0
VERTEX
  5
15EC
  8
L1
 10
561.32077745060724
 20
324.21585516453911
 30
0.0
  0
VERTEX
  5
15ED
  8
L1
 10
561.42191469368231
 20
324.21480607375992
 30
0.0
  0
VERTEX
  5
15EE
  8
L1
 10
561.51651691442828
 20
324.21382339299441
 30
0.0
  0
VERTEX
  5
15EF
  8
L1
 10
561.60409448341761
 20
324.21291451990629
 30
0.0
  0
VERTEX
  5
15F0
  8
L1
 10
561.6842043056796
 20
324.21208622132377
 30
0.0
  0
VERTEX
  5
15F1
  8
L1
 10
561.75640328624388
 20
324.21134526407508
 30
0.0
  0
VERTEX
  5
15F2
  8
L1
 10
561.82032577172379
 20
324.2106975761364
 30
0.0
  0
VERTEX
  5
15F3
  8
L1
 10
561.87580555018167
 20
324.21014637672022
 30
0.0
  0
VERTEX
  5
15F4
  8
L1
 10
561.92269868882136
 20
324.20969436950833
 30
0.0
  0
VERTEX
  5
15F5
  8
L1
 10
561.96086125484703
 20
324.20934425818302
 30
0.0
  0
VERTEX
  5
15F6
  8
L1
 10
561.99012971395825
 20
324.20909852989638
 30
0.0
  0
VERTEX
  5
15F7
  8
L1
 10
562.010777614105
 20
324.20895440335352
 30
0.0
  0
VERTEX
  5
15F8
  8
L1
 10
562.0230122572699
 20
324.20890936962422
 30
0.0
  0
VERTEX
  5
15F9
  8
L1
 10
562.0270409454356
 20
324.20896091977852
 30
0.0
  0
SEQEND
  5
15FA
  8
L1
  0
LINE
  5
8E7
  8
L1
 10
561.39385715969775
 20
324.84214527125772
 30
0.0
 11
562.02704091414648
 21
324.20896151680893
 31
0.0
  0
ARC
  5
8E8
  8
L2
 10
545.16188916687747
 20
321.64214527125768
 30
0.0
 40
0.5
 50
1.5000000000011089
 51
90.0
  0
LINE
  5
8E9
  8
L2
 10
547.3379040886266
 20
324.84214527125772
 30
0.0
 11
547.3379040886266
 21
324.8387575162148
 31
0.0
  0
LINE
  5
8EA
  8
L2
 10
547.3379040886266
 20
324.8387575162148
 30
0.0
 11
547.3379040886266
 21
324.54214527125771
 31
0.0
  0
LINE
  5
907
  8
L1
 10
200.11270253766889
 20
253.54227252916351
 30
0.0
 11
200.11270253766889
 21
167.04427252916349
 31
0.0
  0
LINE
  5
908
  8
L1
 10
198.07286415538809
 20
167.04427252916349
 30
0.0
 11
198.07286415538809
 21
238.49478654170011
 31
0.0
  0
LINE
  5
909
  8
L1
 10
199.3728641553881
 20
167.04427252916349
 30
0.0
 11
199.37286415538799
 21
239.19427252916361
 31
0.0
  0
LINE
  5
90A
  8
L1
 10
200.87286415538821
 20
167.04427252916349
 30
0.0
 11
200.87286415538821
 21
253.54227252916351
 31
0.0
  0
LINE
  5
90B
  8
L1
 10
-54.177381291856577
 20
167.04427252916349
 30
0.0
 11
-54.177381291856577
 21
253.54227252916351
 31
0.0
  0
LINE
  5
90C
  8
L1
 10
-53.417219674137399
 20
253.54227252916351
 30
0.0
 11
-53.417219674137392
 21
167.04427252916349
 31
0.0
  0
LINE
  5
90D
  8
L1
 10
-51.377381291856523
 20
167.04427252916349
 30
0.0
 11
-51.377381291856523
 21
238.49478654170011
 31
0.0
  0
LINE
  5
90E
  8
L1
 10
-52.677381291856562
 20
167.04427252916349
 30
0.0
 11
-52.67738129185647
 21
239.19427252916361
 31
0.0
  0
LINE
  5
90F
  8
L1
 10
72.862702537668994
 20
254.24427252916351
 30
0.0
 11
-35.6177336866741
 21
254.2442725291634
 31
0.0
  0
LINE
  5
910
  8
L1
 10
72.862702537668994
 20
255.54427252916329
 30
0.0
 11
-36.317219674137377
 21
255.54427252916341
 31
0.0
  0
LINE
  5
911
  8
L1
 10
-50.715219674137401
 20
256.24427252916348
 30
0.0
 11
72.862702537668994
 21
256.2442725291632
 31
0.0
  0
LINE
  5
912
  8
L1
 10
72.862702537668994
 20
257.04427252916338
 30
0.0
 11
-50.670490239718333
 21
257.04427252916338
 31
0.0
  0
ARC
  5
913
  8
L1
 10
-45.917219674137399
 20
248.79427252916349
 30
0.0
 40
8.8000000000000114
 50
322.71452609940178
 51
359.99999999999977
  0
LINE
  5
914
  8
L1
 10
-46.166846751604218
 20
243.77428446148949
 30
0.0
 11
-50.937207741811321
 21
248.54464545169671
 31
0.0
  0
LINE
  5
915
  8
L1
 10
-52.377381291856629
 20
252.6442725291634
 30
0.0
 11
-52.377381291856629
 21
241.57543575650271
 31
0.0
  0
ARC
  5
916
  8
L1
 10
-45.917219674137399
 20
248.79427252916341
 30
0.0
 40
5.0261806033722758
 50
267.26858442957172
 51
2.731415570427413
  0
ARC
  5
917
  8
L1
 10
-45.917219674137399
 20
248.79427252916341
 30
0.0
 40
6.3000000000000487
 50
270.0
 51
0.0000000000002176
  0
ARC
  5
918
  8
L1
 10
-45.917219674137399
 20
248.79427252916341
 30
0.0
 40
5.0261806033722758
 50
87.268584429572456
 51
182.731415570428
  0
LINE
  5
919
  8
L1
 10
-38.698382901476847
 20
255.2442725291634
 30
0.0
 11
-49.777381291856599
 21
255.2442725291634
 31
0.0
  0
ARC
  5
91A
  8
L1
 10
-49.777381291856599
 20
252.6442725291634
 30
0.0
 40
2.6000000000000001
 50
90.000000000000028
 51
180.0
  0
POLYLINE
  5
91B
  8
L1
 66
     1
 10
0.0
 20
0.0
 30
0.0
  0
VERTEX
  5
15FB
  8
L1
 10
-50.715219674137401
 20
257.04398767320032
 30
0.0
  0
VERTEX
  5
15FC
  8
L1
 10
-50.88062363192568
 20
257.03794889306232
 30
0.0
  0
VERTEX
  5
15FD
  8
L1
 10
-51.047939182912828
 20
257.02388015355552
 30
0.0
  0
VERTEX
  5
15FE
  8
L1
 10
-51.21635147833387
 20
257.00158141982911
 30
0.0
  0
VERTEX
  5
15FF
  8
L1
 10
-51.385045669424009
 20
256.97085265703248
 30
0.0
  0
VERTEX
  5
1600
  8
L1
 10
-51.553219483646892
 20
256.93155441274922
 30
0.0
  0
VERTEX
  5
1601
  8
L1
 10
-51.720118110618152
 20
256.88377586147249
 30
0.0
  0
VERTEX
  5
1602
  8
L1
 10
-51.88499789479873
 20
256.82765990871718
 30
0.0
  0
VERTEX
  5
1603
  8
L1
 10
-52.047115180650273
 20
256.7633494599973
 30
0.0
  0
VERTEX
  5
1604
  8
L1
 10
-52.205810066667702
 20
256.69100905840952
 30
0.0
  0
VERTEX
  5
1605
  8
L1
 10
-52.360505303938211
 20
256.61099747390978
 30
0.0
  0
VERTEX
  5
1606
  8
L1
 10
-52.510581215810468
 20
256.5237489523019
 30
0.0
  0
VERTEX
  5
1607
  8
L1
 10
-52.655418125633553
 20
256.42969773938972
 30
0.0
  0
VERTEX
  5
1608
  8
L1
 10
-52.794427378026157
 20
256.32932336262189
 30
0.0
  0
VERTEX
  5
1609
  8
L1
 10
-52.927152515546467
 20
256.2232983075366
 30
0.0
  0
VERTEX
  5
160A
  8
L1
 10
-53.053172158452519
 20
256.11234625707192
 30
0.0
  0
VERTEX
  5
160B
  8
L1
 10
-53.172064927001649
 20
255.9971908941659
 30
0.0
  0
VERTEX
  5
160C
  8
L1
 10
-53.284568165647663
 20
255.87735689322079
 30
0.0
  0
VERTEX
  5
160D
  8
L1
 10
-53.39283594936272
 20
255.75053237535329
 30
0.0
  0
VERTEX
  5
160E
  8
L1
 10
-53.496152999140229
 20
255.6171435543919
 30
0.0
  0
VERTEX
  5
160F
  8
L1
 10
-53.593804035973562
 20
255.47761664416481
 30
0.0
  0
VERTEX
  5
1610
  8
L1
 10
-53.685124939918509
 20
255.33241182941089
 30
0.0
  0
VERTEX
  5
1611
  8
L1
 10
-53.769644970488557
 20
255.18211769973891
 30
0.0
  0
VERTEX
  5
1612
  8
L1
 10
-53.846938917862524
 20
255.02735307628259
 30
0.0
  0
VERTEX
  5
1613
  8
L1
 10
-53.916581572219563
 20
254.86873678017571
 30
0.0
  0
VERTEX
  5
1614
  8
L1
 10
-53.978222078529143
 20
254.70684461702729
 30
0.0
  0
VERTEX
  5
1615
  8
L1
 10
-54.031703997089828
 20
254.54233207360701
 30
0.0
  0
VERTEX
  5
1616
  8
L1
 10
-54.076893741073938
 20
254.37593749278849
 30
0.0
  0
VERTEX
  5
1617
  8
L1
 10
-54.113657723653432
 20
254.2083992174459
 30
0.0
  0
VERTEX
  5
1618
  8
L1
 10
-54.141842532588029
 20
254.04098069379
 30
0.0
  0
VERTEX
  5
1619
  8
L1
 10
-54.161720606224769
 20
253.8739552422596
 30
0.0
  0
VERTEX
  5
161A
  8
L1
 10
-54.173498123434896
 20
253.70812010625161
 30
0.0
  0
VERTEX
  5
161B
  8
L1
 10
-54.177381263089607
 20
253.54427252916341
 30
0.0
  0
SEQEND
  5
161C
  8
L1
  0
ARC
  5
91C
  8
L1
 10
-50.715219674137401
 20
253.5422725291634
 30
0.0
 40
2.7019999999999542
 50
89.999999999998792
 51
179.99999999999929
  0
POLYLINE
  5
91D
  8
L1
 66
     1
 10
0.0
 20
0.0
 30
0.0
  0
VERTEX
  5
161D
  8
L1
 10
-54.177381263089607
 20
253.54427252916341
 30
0.0
  0
VERTEX
  5
161E
  8
L1
 10
-54.177381291856577
 20
253.5422725291634
 30
0.0
  0
SEQEND
  5
161F
  8
L1
  0
POLYLINE
  5
91E
  8
L1
 66
     1
 10
0.0
 20
0.0
 30
0.0
  0
VERTEX
  5
1620
  8
L1
 10
-50.670490239718333
 20
257.04427252916338
 30
0.0
  0
VERTEX
  5
1621
  8
L1
 10
-50.692851679712469
 20
257.04420131444812
 30
0.0
  0
VERTEX
  5
1622
  8
L1
 10
-50.715219674137401
 20
257.04398767320032
 30
0.0
  0
SEQEND
  5
1623
  8
L1
  0
LINE
  5
91F
  8
L1
 10
-50.937207741811321
 20
248.54464545169671
 30
0.0
 11
-50.937690014133288
 21
248.55475421475219
 31
0.0
  0
ARC
  5
920
  8
L1
 10
-36.317219674137377
 20
252.2442725291634
 30
0.0
 40
3.3000000000000149
 50
131.40989698076561
 51
179.9999999999994
  0
POLYLINE
  5
921
  8
L1
 66
     1
 10
0.0
 20
0.0
 30
0.0
  0
VERTEX
  5
1624
  8
L1
 10
-35.6177336866741
 20
254.2442725291634
 30
0.0
  0
VERTEX
  5
1625
  8
L1
 10
-35.798514637012417
 20
254.23334162276311
 30
0.0
  0
VERTEX
  5
1626
  8
L1
 10
-35.976646710273819
 20
254.20070816192271
 30
0.0
  0
VERTEX
  5
1627
  8
L1
 10
-36.14953460274954
 20
254.14684760140111
 30
0.0
  0
VERTEX
  5
1628
  8
L1
 10
-36.31465941607177
 20
254.0725446651951
 30
0.0
  0
VERTEX
  5
1629
  8
L1
 10
-36.469615356423432
 20
253.9788819134659
 30
0.0
  0
VERTEX
  5
162A
  8
L1
 10
-36.612144785865659
 20
253.8672239701269
 30
0.0
  0
VERTEX
  5
162B
  8
L1
 10
-36.740171115101013
 20
253.7391976408916
 30
0.0
  0
VERTEX
  5
162C
  8
L1
 10
-36.851829058439982
 20
253.5966682114493
 30
0.0
  0
VERTEX
  5
162D
  8
L1
 10
-36.94549181016918
 20
253.44171227109771
 30
0.0
  0
VERTEX
  5
162E
  8
L1
 10
-37.019794746375162
 20
253.27658745777549
 30
0.0
  0
VERTEX
  5
162F
  8
L1
 10
-37.073655306896839
 20
253.10369956529979
 30
0.0
  0
VERTEX
  5
1630
  8
L1
 10
-37.106288767737162
 20
252.9255674920384
 30
0.0
  0
VERTEX
  5
1631
  8
L1
 10
-37.117219674137452
 20
252.74478654170011
 30
0.0
  0
SEQEND
  5
1632
  8
L1
  0
LINE
  5
922
  8
L1
 10
-45.667592596670708
 20
253.8142605968373
 30
0.0
 11
-40.897231606463478
 21
249.04389960663019
 31
0.0
  0
LINE
  5
923
  8
L1
 10
-45.67770135972625
 20
253.8147428691592
 30
0.0
 11
-45.667592596670708
 21
253.8142605968373
 31
0.0
  0
ARC
  5
924
  8
L1
 10
-36.317219674137377
 20
252.2442725291634
 30
0.0
 40
3.3000000000000149
 50
90.000000000000028
 51
131.40989698076561
  0
POLYLINE
  5
925
  8
L1
 66
     1
 10
0.0
 20
0.0
 30
0.0
  0
VERTEX
  5
1633
  8
L1
 10
-38.499976379336758
 20
254.7192620576073
 30
0.0
  0
VERTEX
  5
1634
  8
L1
 10
-38.480127692077289
 20
254.73846153805579
 30
0.0
  0
VERTEX
  5
1635
  8
L1
 10
-38.46216319152596
 20
254.75935984493859
 30
0.0
  0
VERTEX
  5
1636
  8
L1
 10
-38.446191276881777
 20
254.78181894355521
 30
0.0
  0
VERTEX
  5
1637
  8
L1
 10
-38.432320347342618
 20
254.80570079920511
 30
0.0
  0
VERTEX
  5
1638
  8
L1
 10
-38.420385438883372
 20
254.83153975689811
 30
0.0
  0
VERTEX
  5
1639
  8
L1
 10
-38.410970721825478
 20
254.8583328337306
 30
0.0
  0
VERTEX
  5
163A
  8
L1
 10
-38.404131290905738
 20
254.885895979743
 30
0.0
  0
VERTEX
  5
163B
  8
L1
 10
-38.399922240861081
 20
254.9140451449758
 30
0.0
  0
VERTEX
  5
163C
  8
L1
 10
-38.398395456928021
 20
254.9434101554464
 30
0.0
  0
VERTEX
  5
163D
  8
L1
 10
-38.399744110817991
 20
254.9727142615684
 30
0.0
  0
VERTEX
  5
163E
  8
L1
 10
-38.403948192192942
 20
255.00174655260869
 30
0.0
  0
VERTEX
  5
163F
  8
L1
 10
-38.410987690714578
 20
255.03029611783401
 30
0.0
  0
VERTEX
  5
1640
  8
L1
 10
-38.420900129570427
 20
255.0582913308927
 30
0.0
  0
VERTEX
  5
1641
  8
L1
 10
-38.43349845975262
 20
255.0851058694582
 30
0.0
  0
VERTEX
  5
1642
  8
L1
 10
-38.448680245902878
 20
255.11054698054559
 30
0.0
  0
VERTEX
  5
1643
  8
L1
 10
-38.466343052662737
 20
255.13442191116991
 30
0.0
  0
VERTEX
  5
1644
  8
L1
 10
-38.48577257055625
 20
255.1559245416025
 30
0.0
  0
VERTEX
  5
1645
  8
L1
 10
-38.507134972989313
 20
255.17540939649029
 30
0.0
  0
VERTEX
  5
1646
  8
L1
 10
-38.530273973631999
 20
255.19274718307699
 30
0.0
  0
VERTEX
  5
1647
  8
L1
 10
-38.555033286154512
 20
255.20780860860631
 30
0.0
  0
VERTEX
  5
1648
  8
L1
 10
-38.576509394597437
 20
255.2184024406308
 30
0.0
  0
VERTEX
  5
1649
  8
L1
 10
-38.598726426189486
 20
255.22723697208011
 30
0.0
  0
VERTEX
  5
164A
  8
L1
 10
-38.621576436735367
 20
255.23427422115091
 30
0.0
  0
VERTEX
  5
164B
  8
L1
 10
-38.644951482040128
 20
255.23947620604039
 30
0.0
  0
VERTEX
  5
164C
  8
L1
 10
-38.671573739741788
 20
255.24307230455949
 30
0.0
  0
VERTEX
  5
164D
  8
L1
 10
-38.698382901476847
 20
255.2442725291634
 30
0.0
  0
SEQEND
  5
164E
  8
L1
  0
LINE
  5
926
  8
L1
 10
-40.897231606463478
 20
249.04389960663019
 30
0.0
 11
-40.896749334141639
 21
249.03379084357459
 31
0.0
  0
LINE
  5
927
  8
L1
 10
-37.117219674137452
 20
252.74478654170011
 30
0.0
 11
-37.117219674137452
 21
248.79427252916341
 31
0.0
  0
LINE
  5
928
  8
L1
 10
-39.617219674137452
 20
252.2442725291634
 30
0.0
 11
-39.617219674137452
 21
251.29427252916341
 31
0.0
  0
LINE
  5
929
  8
L1
 10
-39.617219674137452
 20
251.29427252916341
 30
0.0
 11
-39.617219674137452
 21
248.79427252916349
 31
0.0
  0
ARC
  5
92A
  8
L1
 10
-45.917219674137399
 20
248.79427252916349
 30
0.0
 40
8.8000000000000114
 50
269.9999999999996
 51
307.2854739005968
  0
ARC
  5
92B
  8
L1
 10
-49.377381291856629
 20
239.19427252916341
 30
0.0
 40
3.2999999999999439
 50
90.000000000000028
 51
138.5901030192349
  0
LINE
  5
92C
  8
L1
 10
-48.417219674137399
 20
242.4942725291634
 30
0.0
 11
-49.377381291856629
 21
242.4942725291634
 31
0.0
  0
LINE
  5
92D
  8
L1
 10
-45.917219674137399
 20
242.4942725291634
 30
0.0
 11
-48.417219674137399
 21
242.4942725291634
 31
0.0
  0
LINE
  5
92E
  8
L1
 10
-46.15673798854867
 20
243.77380218916761
 30
0.0
 11
-46.166846751604218
 21
243.77428446148949
 31
0.0
  0
ARC
  5
92F
  8
L1
 10
-49.377381291856629
 20
239.19427252916341
 30
0.0
 40
3.2999999999999439
 50
138.5901030192349
 51
180.0
  0
POLYLINE
  5
930
  8
L1
 66
     1
 10
0.0
 20
0.0
 30
0.0
  0
VERTEX
  5
164F
  8
L1
 10
-52.377381291856629
 20
241.5754357565028
 30
0.0
  0
VERTEX
  5
1650
  8
L1
 10
-52.377309669660121
 20
241.5688805541306
 30
0.0
  0
VERTEX
  5
1651
  8
L1
 10
-52.37518689126442
 20
241.53921623008071
 30
0.0
  0
VERTEX
  5
1652
  8
L1
 10
-52.370153200299221
 20
241.50997812413129
 30
0.0
  0
VERTEX
  5
1653
  8
L1
 10
-52.362256356170853
 20
241.48138016294399
 30
0.0
  0
VERTEX
  5
1654
  8
L1
 10
-52.351544118284323
 20
241.45363627318119
 30
0.0
  0
VERTEX
  5
1655
  8
L1
 10
-52.338166022213599
 20
241.4271399072525
 30
0.0
  0
VERTEX
  5
1656
  8
L1
 10
-52.322276266640181
 20
241.40215381757551
 30
0.0
  0
VERTEX
  5
1657
  8
L1
 10
-52.304000702966718
 20
241.3788559174445
 30
0.0
  0
VERTEX
  5
1658
  8
L1
 10
-52.283465182596487
 20
241.35742412015421
 30
0.0
  0
VERTEX
  5
1659
  8
L1
 10
-52.263311059530892
 20
241.34000152607001
 30
0.0
  0
VERTEX
  5
165A
  8
L1
 10
-52.241734078307893
 20
241.3244642292014
 30
0.0
  0
VERTEX
  5
165B
  8
L1
 10
-52.218866068085148
 20
241.31089853515081
 30
0.0
  0
VERTEX
  5
165C
  8
L1
 10
-52.194838858019679
 20
241.29939074952091
 30
0.0
  0
VERTEX
  5
165D
  8
L1
 10
-52.173356276450242
 20
241.29120838520919
 30
0.0
  0
VERTEX
  5
165E
  8
L1
 10
-52.151342635692217
 20
241.28470331053791
 30
0.0
  0
VERTEX
  5
165F
  8
L1
 10
-52.128896049199611
 20
241.27990045135769
 30
0.0
  0
VERTEX
  5
1660
  8
L1
 10
-52.106114630425729
 20
241.27682473351931
 30
0.0
  0
VERTEX
  5
1661
  8
L1
 10
-52.084755710437769
 20
241.2755372753025
 30
0.0
  0
VERTEX
  5
1662
  8
L1
 10
-52.063386323410207
 20
241.27577427039731
 30
0.0
  0
VERTEX
  5
1663
  8
L1
 10
-52.042088014554793
 20
241.27753187949159
 30
0.0
  0
VERTEX
  5
1664
  8
L1
 10
-52.020942329083589
 20
241.28080626327309
 30
0.0
  0
VERTEX
  5
1665
  8
L1
 10
-51.997486560919462
 20
241.286284673202
 30
0.0
  0
VERTEX
  5
1666
  8
L1
 10
-51.97458194457726
 20
241.29361383481631
 30
0.0
  0
VERTEX
  5
1667
  8
L1
 10
-51.952337860894417
 20
241.30275381428501
 30
0.0
  0
VERTEX
  5
1668
  8
L1
 10
-51.930863690708399
 20
241.3136646777773
 30
0.0
  0
VERTEX
  5
1669
  8
L1
 10
-51.909261518311382
 20
241.32698520618581
 30
0.0
  0
VERTEX
  5
166A
  8
L1
 10
-51.888909868544928
 20
241.34204526444111
 30
0.0
  0
VERTEX
  5
166B
  8
L1
 10
-51.869911912258431
 20
241.35875616851081
 30
0.0
  0
VERTEX
  5
166C
  8
L1
 10
-51.852370820300607
 20
241.37702923436271
 30
0.0
  0
SEQEND
  5
166D
  8
L1
  0
LINE
  5
931
  8
L1
 10
-45.917219674137399
 20
239.9942725291634
 30
0.0
 11
-49.877895304393171
 21
239.9942725291634
 31
0.0
  0
POLYLINE
  5
932
  8
L1
 66
     1
 10
0.0
 20
0.0
 30
0.0
  0
VERTEX
  5
166E
  8
L1
 10
-49.877895304393171
 20
239.9942725291634
 30
0.0
  0
VERTEX
  5
166F
  8
L1
 10
-50.058676254731488
 20
239.98334162276319
 30
0.0
  0
VERTEX
  5
1670
  8
L1
 10
-50.236808327993003
 20
239.95070816192279
 30
0.0
  0
VERTEX
  5
1671
  8
L1
 10
-50.409696220468732
 20
239.89684760140111
 30
0.0
  0
VERTEX
  5
1672
  8
L1
 10
-50.574821033790833
 20
239.8225446651951
 30
0.0
  0
VERTEX
  5
1673
  8
L1
 10
-50.729776974142503
 20
239.7288819134659
 30
0.0
  0
VERTEX
  5
1674
  8
L1
 10
-50.872306403584723
 20
239.61722397012699
 30
0.0
  0
VERTEX
  5
1675
  8
L1
 10
-51.000332732820191
 20
239.4891976408916
 30
0.0
  0
VERTEX
  5
1676
  8
L1
 10
-51.111990676158932
 20
239.34666821144941
 30
0.0
  0
VERTEX
  5
1677
  8
L1
 10
-51.205653427888357
 20
239.19171227109771
 30
0.0
  0
VERTEX
  5
1678
  8
L1
 10
-51.279956364094232
 20
239.02658745777561
 30
0.0
  0
VERTEX
  5
1679
  8
L1
 10
-51.333816924615789
 20
238.85369956529991
 30
0.0
  0
VERTEX
  5
167A
  8
L1
 10
-51.366450385456332
 20
238.6755674920384
 30
0.0
  0
VERTEX
  5
167B
  8
L1
 10
-51.377381291856629
 20
238.49478654170011
 30
0.0
  0
SEQEND
  5
167C
  8
L1
  0
LINE
  5
933
  8
L1
 10
-38.906780821219279
 20
243.0887764513883
 30
0.0
 11
-37.993914843379109
 21
242.00086514274031
 31
0.0
  0
POLYLINE
  5
934
  8
L1
 66
     1
 10
0.0
 20
0.0
 30
0.0
  0
VERTEX
  5
167D
  8
L1
 10
-38.915701277966029
 20
243.46334951827001
 30
0.0
  0
VERTEX
  5
167E
  8
L1
 10
-38.928646961974081
 20
243.44495443643859
 30
0.0
  0
VERTEX
  5
167F
  8
L1
 10
-38.940202557012633
 20
243.42559490936819
 30
0.0
  0
VERTEX
  5
1680
  8
L1
 10
-38.952638064462448
 20
243.40005775469899
 30
0.0
  0
VERTEX
  5
1681
  8
L1
 10
-38.962582569459748
 20
243.3735185924364
 30
0.0
  0
VERTEX
  5
1682
  8
L1
 10
-38.969977693489902
 20
243.346159235388
 30
0.0
  0
VERTEX
  5
1683
  8
L1
 10
-38.974765058038528
 20
243.3181614963614
 30
0.0
  0
VERTEX
  5
1684
  8
L1
 10
-38.976906627262899
 20
243.28889861554259
 30
0.0
  0
VERTEX
  5
1685
  8
L1
 10
-38.976184141133771
 20
243.25963549445569
 30
0.0
  0
VERTEX
  5
1686
  8
L1
 10
-38.972613303741802
 20
243.23058198609169
 30
0.0
  0
VERTEX
  5
1687
  8
L1
 10
-38.966209819177479
 20
243.2019479434415
 30
0.0
  0
VERTEX
  5
1688
  8
L1
 10
-38.956905917284288
 20
243.17372732376029
 30
0.0
  0
VERTEX
  5
1689
  8
L1
 10
-38.944888885533132
 20
243.14662919977891
 30
0.0
  0
VERTEX
  5
168A
  8
L1
 10
-38.930257296895647
 20
243.12084860402371
 30
0.0
  0
VERTEX
  5
168B
  8
L1
 10
-38.913109724343819
 20
243.0965805690212
 30
0.0
  0
VERTEX
  5
168C
  8
L1
 10
-38.906780821219279
 20
243.0887764513883
 30
0.0
  0
SEQEND
  5
168D
  8
L1
  0
POLYLINE
  5
935
  8
L1
 66
     1
 10
0.0
 20
0.0
 30
0.0
  0
VERTEX
  5
168E
  8
L1
 10
-40.211723596362383
 20
241.78383367624511
 30
0.0
  0
VERTEX
  5
168F
  8
L1
 10
-40.243117404335628
 20
241.8068783117383
 30
0.0
  0
VERTEX
  5
1690
  8
L1
 10
-40.277290707896313
 20
241.82569234594001
 30
0.0
  0
VERTEX
  5
1691
  8
L1
 10
-40.298780244005108
 20
241.83476164226019
 30
0.0
  0
VERTEX
  5
1692
  8
L1
 10
-40.32087571498311
 20
241.84212472419929
 30
0.0
  0
VERTEX
  5
1693
  8
L1
 10
-40.343475656407342
 20
241.8477519567447
 30
0.0
  0
VERTEX
  5
1694
  8
L1
 10
-40.366478603855157
 20
241.8516137048835
 30
0.0
  0
VERTEX
  5
1695
  8
L1
 10
-40.3882050279867
 20
241.85359800034331
 30
0.0
  0
VERTEX
  5
1696
  8
L1
 10
-40.409989543343492
 20
241.85399856007771
 30
0.0
  0
VERTEX
  5
1697
  8
L1
 10
-40.431745646522693
 20
241.85281683702129
 30
0.0
  0
VERTEX
  5
1698
  8
L1
 10
-40.453386834121588
 20
241.85005428410841
 30
0.0
  0
VERTEX
  5
1699
  8
L1
 10
-40.476638193800561
 20
241.84527011241909
 30
0.0
  0
VERTEX
  5
169A
  8
L1
 10
-40.499403337008509
 20
241.83867371565489
 30
0.0
  0
VERTEX
  5
169B
  8
L1
 10
-40.521576490521163
 20
241.83030026467441
 30
0.0
  0
VERTEX
  5
169C
  8
L1
 10
-40.543051881114813
 20
241.82018493033539
 30
0.0
  0
VERTEX
  5
169D
  8
L1
 10
-40.565286097820589
 20
241.80737829302319
 30
0.0
  0
VERTEX
  5
169E
  8
L1
 10
-40.58629666324417
 20
241.79275413299189
 30
0.0
  0
SEQEND
  5
169F
  8
L1
  0
LINE
  5
936
  8
L1
 10
-38.01159546870916
 20
241.5959122454309
 30
0.0
 11
-38.718859390404972
 21
240.888648323735
 31
0.0
  0
POLYLINE
  5
937
  8
L1
 66
     1
 10
0.0
 20
0.0
 30
0.0
  0
VERTEX
  5
16A0
  8
L1
 10
-38.01159546870916
 20
241.5959122454309
 30
0.0
  0
VERTEX
  5
16A1
  8
L1
 10
-37.958844207767008
 20
241.66720080310699
 30
0.0
  0
VERTEX
  5
16A2
  8
L1
 10
-37.929241065064382
 20
241.75079600387821
 30
0.0
  0
VERTEX
  5
16A3
  8
L1
 10
-37.92537283211071
 20
241.83939310453641
 30
0.0
  0
VERTEX
  5
16A4
  8
L1
 10
-37.947577524104517
 20
241.9252502842204
 30
0.0
  0
VERTEX
  5
16A5
  8
L1
 10
-37.993914843379109
 20
242.0008651427402
 30
0.0
  0
SEQEND
  5
16A6
  8
L1
  0
POLYLINE
  5
938
  8
L1
 66
     1
 10
0.0
 20
0.0
 30
0.0
  0
VERTEX
  5
16A7
  8
L1
 10
-39.123812287714358
 20
240.870967698405
 30
0.0
  0
VERTEX
  5
16A8
  8
L1
 10
-39.048197429194481
 20
240.82463037913041
 30
0.0
  0
VERTEX
  5
16A9
  8
L1
 10
-38.962340249510582
 20
240.80242568713641
 30
0.0
  0
VERTEX
  5
16AA
  8
L1
 10
-38.873743148852313
 20
240.80629392009021
 30
0.0
  0
VERTEX
  5
16AB
  8
L1
 10
-38.790147948081191
 20
240.83589706279281
 30
0.0
  0
VERTEX
  5
16AC
  8
L1
 10
-38.718859390405093
 20
240.888648323735
 30
0.0
  0
SEQEND
  5
16AD
  8
L1
  0
LINE
  5
939
  8
L1
 10
-39.123812287714358
 20
240.870967698405
 30
0.0
 11
-40.211723596362383
 21
241.78383367624519
 31
0.0
  0
LINE
  5
93A
  8
L1
 10
197.41070253766901
 20
256.24427252916348
 30
0.0
 11
72.862702537668994
 21
256.24427252916331
 31
0.0
  0
POLYLINE
  5
93B
  8
L1
 66
     1
 10
0.0
 20
0.0
 30
0.0
  0
VERTEX
  5
16AE
  8
L1
 10
197.3659731032499
 20
257.04427252916338
 30
0.0
  0
VERTEX
  5
16AF
  8
L1
 10
197.38833454324401
 20
257.04420131444812
 30
0.0
  0
VERTEX
  5
16B0
  8
L1
 10
197.41070253766901
 20
257.04398767320032
 30
0.0
  0
SEQEND
  5
16B1
  8
L1
  0
LINE
  5
93C
  8
L1
 10
192.86232961513579
 20
243.77428446148949
 30
0.0
 11
197.6326906053429
 21
248.54464545169671
 31
0.0
  0
ARC
  5
93D
  8
L1
 10
196.47286415538821
 20
252.6442725291634
 30
0.0
 40
2.6000000000000001
 50
0.0
 51
90.000000000000028
  0
ARC
  5
93E
  8
L1
 10
192.61270253766901
 20
248.79427252916341
 30
0.0
 40
5.0261806033722758
 50
357.26858442957189
 51
92.731415570427544
  0
ARC
  5
93F
  8
L1
 10
196.0728641553882
 20
239.19427252916341
 30
0.0
 40
3.2999999999999439
 50
41.409896980765083
 51
90.000000000000028
  0
POLYLINE
  5
940
  8
L1
 66
     1
 10
0.0
 20
0.0
 30
0.0
  0
VERTEX
  5
16B2
  8
L1
 10
196.57337816792469
 20
239.9942725291634
 30
0.0
  0
VERTEX
  5
16B3
  8
L1
 10
196.754159118263
 20
239.98334162276319
 30
0.0
  0
VERTEX
  5
16B4
  8
L1
 10
196.93229119152451
 20
239.95070816192279
 30
0.0
  0
VERTEX
  5
16B5
  8
L1
 10
197.1051790840003
 20
239.89684760140111
 30
0.0
  0
VERTEX
  5
16B6
  8
L1
 10
197.27030389732241
 20
239.8225446651951
 30
0.0
  0
VERTEX
  5
16B7
  8
L1
 10
197.4252598376741
 20
239.7288819134659
 30
0.0
  0
VERTEX
  5
16B8
  8
L1
 10
197.5677892671163
 20
239.61722397012699
 30
0.0
  0
VERTEX
  5
16B9
  8
L1
 10
197.69581559635171
 20
239.4891976408916
 30
0.0
  0
VERTEX
  5
16BA
  8
L1
 10
197.80747353969051
 20
239.34666821144941
 30
0.0
  0
VERTEX
  5
16BB
  8
L1
 10
197.9011362914199
 20
239.19171227109771
 30
0.0
  0
VERTEX
  5
16BC
  8
L1
 10
197.9754392276258
 20
239.02658745777561
 30
0.0
  0
VERTEX
  5
16BD
  8
L1
 10
198.0292997881474
 20
238.85369956529991
 30
0.0
  0
VERTEX
  5
16BE
  8
L1
 10
198.06193324898791
 20
238.6755674920384
 30
0.0
  0
VERTEX
  5
16BF
  8
L1
 10
198.0728641553882
 20
238.49478654170011
 30
0.0
  0
SEQEND
  5
16C0
  8
L1
  0
LINE
  5
941
  8
L1
 10
72.862702537668994
 20
257.04427252916338
 30
0.0
 11
197.3659731032499
 21
257.04427252916338
 31
0.0
  0
LINE
  5
942
  8
L1
 10
72.862702537669023
 20
255.54427252916329
 30
0.0
 11
183.0127025376689
 21
255.54427252916341
 31
0.0
  0
LINE
  5
943
  8
L1
 10
72.862702537668994
 20
254.24427252916351
 30
0.0
 11
182.31321655020571
 21
254.2442725291634
 31
0.0
  0
ARC
  5
944
  8
L1
 10
192.61270253766901
 20
248.79427252916341
 30
0.0
 40
5.0261806033722758
 50
177.26858442957251
 51
272.73141557042823
  0
ARC
  5
945
  8
L1
 10
192.61270253766901
 20
248.79427252916341
 30
0.0
 40
6.3000000000000487
 50
179.99999999999969
 51
270.0
  0
ARC
  5
946
  8
L1
 10
192.61270253766901
 20
248.79427252916349
 30
0.0
 40
8.8000000000000114
 50
180.00000000000011
 51
217.28547390059811
  0
ARC
  5
947
  8
L1
 10
183.0127025376689
 20
252.2442725291634
 30
0.0
 40
3.3000000000000149
 50
0.0000000000005229
 51
48.590103019234341
  0
LINE
  5
948
  8
L1
 10
185.3938657650084
 20
255.2442725291634
 30
0.0
 11
196.47286415538821
 21
255.2442725291634
 31
0.0
  0
POLYLINE
  5
949
  8
L1
 66
     1
 10
0.0
 20
0.0
 30
0.0
  0
VERTEX
  5
16C1
  8
L1
 10
182.31321655020571
 20
254.2442725291634
 30
0.0
  0
VERTEX
  5
16C2
  8
L1
 10
182.493997500544
 20
254.23334162276311
 30
0.0
  0
VERTEX
  5
16C3
  8
L1
 10
182.67212957380539
 20
254.20070816192271
 30
0.0
  0
VERTEX
  5
16C4
  8
L1
 10
182.84501746628109
 20
254.14684760140111
 30
0.0
  0
VERTEX
  5
16C5
  8
L1
 10
183.01014227960329
 20
254.0725446651951
 30
0.0
  0
VERTEX
  5
16C6
  8
L1
 10
183.16509821995501
 20
253.9788819134659
 30
0.0
  0
VERTEX
  5
16C7
  8
L1
 10
183.3076276493972
 20
253.8672239701269
 30
0.0
  0
VERTEX
  5
16C8
  8
L1
 10
183.43565397863259
 20
253.7391976408916
 30
0.0
  0
VERTEX
  5
16C9
  8
L1
 10
183.5473119219715
 20
253.5966682114493
 30
0.0
  0
VERTEX
  5
16CA
  8
L1
 10
183.6409746737007
 20
253.44171227109771
 30
0.0
  0
VERTEX
  5
16CB
  8
L1
 10
183.71527760990671
 20
253.27658745777549
 30
0.0
  0
VERTEX
  5
16CC
  8
L1
 10
183.76913817042839
 20
253.10369956529979
 30
0.0
  0
VERTEX
  5
16CD
  8
L1
 10
183.80177163126871
 20
252.9255674920384
 30
0.0
  0
VERTEX
  5
16CE
  8
L1
 10
183.812702537669
 20
252.74478654170011
 30
0.0
  0
SEQEND
  5
16CF
  8
L1
  0
ARC
  5
94A
  8
L1
 10
183.0127025376689
 20
252.2442725291634
 30
0.0
 40
3.3000000000000149
 50
48.590103019234341
 51
90.000000000000028
  0
POLYLINE
  5
94B
  8
L1
 66
     1
 10
0.0
 20
0.0
 30
0.0
  0
VERTEX
  5
16D0
  8
L1
 10
185.19545924286831
 20
254.7192620576073
 30
0.0
  0
VERTEX
  5
16D1
  8
L1
 10
185.17561055560881
 20
254.73846153805579
 30
0.0
  0
VERTEX
  5
16D2
  8
L1
 10
185.15764605505751
 20
254.75935984493859
 30
0.0
  0
VERTEX
  5
16D3
  8
L1
 10
185.1416741404133
 20
254.78181894355521
 30
0.0
  0
VERTEX
  5
16D4
  8
L1
 10
185.12780321087419
 20
254.80570079920511
 30
0.0
  0
VERTEX
  5
16D5
  8
L1
 10
185.1158683024149
 20
254.83153975689811
 30
0.0
  0
VERTEX
  5
16D6
  8
L1
 10
185.106453585357
 20
254.8583328337306
 30
0.0
  0
VERTEX
  5
16D7
  8
L1
 10
185.09961415443729
 20
254.885895979743
 30
0.0
  0
VERTEX
  5
16D8
  8
L1
 10
185.0954051043926
 20
254.9140451449758
 30
0.0
  0
VERTEX
  5
16D9
  8
L1
 10
185.09387832045959
 20
254.9434101554464
 30
0.0
  0
VERTEX
  5
16DA
  8
L1
 10
185.0952269743496
 20
254.9727142615684
 30
0.0
  0
VERTEX
  5
16DB
  8
L1
 10
185.09943105572449
 20
255.00174655260869
 30
0.0
  0
VERTEX
  5
16DC
  8
L1
 10
185.1064705542461
 20
255.03029611783401
 30
0.0
  0
VERTEX
  5
16DD
  8
L1
 10
185.11638299310201
 20
255.0582913308927
 30
0.0
  0
VERTEX
  5
16DE
  8
L1
 10
185.12898132328419
 20
255.0851058694582
 30
0.0
  0
VERTEX
  5
16DF
  8
L1
 10
185.1441631094344
 20
255.11054698054559
 30
0.0
  0
VERTEX
  5
16E0
  8
L1
 10
185.16182591619429
 20
255.13442191116991
 30
0.0
  0
VERTEX
  5
16E1
  8
L1
 10
185.1812554340878
 20
255.1559245416025
 30
0.0
  0
VERTEX
  5
16E2
  8
L1
 10
185.20261783652089
 20
255.17540939649029
 30
0.0
  0
VERTEX
  5
16E3
  8
L1
 10
185.22575683716349
 20
255.19274718307699
 30
0.0
  0
VERTEX
  5
16E4
  8
L1
 10
185.25051614968609
 20
255.20780860860631
 30
0.0
  0
VERTEX
  5
16E5
  8
L1
 10
185.27199225812899
 20
255.2184024406308
 30
0.0
  0
VERTEX
  5
16E6
  8
L1
 10
185.29420928972101
 20
255.22723697208011
 30
0.0
  0
VERTEX
  5
16E7
  8
L1
 10
185.31705930026689
 20
255.23427422115091
 30
0.0
  0
VERTEX
  5
16E8
  8
L1
 10
185.34043434557171
 20
255.23947620604039
 30
0.0
  0
VERTEX
  5
16E9
  8
L1
 10
185.36705660327331
 20
255.24307230455949
 30
0.0
  0
VERTEX
  5
16EA
  8
L1
 10
185.3938657650084
 20
255.2442725291634
 30
0.0
  0
SEQEND
  5
16EB
  8
L1
  0
LINE
  5
94C
  8
L1
 10
183.812702537669
 20
252.74478654170011
 30
0.0
 11
183.812702537669
 21
248.79427252916341
 31
0.0
  0
LINE
  5
94D
  8
L1
 10
192.3630754602022
 20
253.8142605968373
 30
0.0
 11
187.592714469995
 21
249.04389960663019
 31
0.0
  0
LINE
  5
94E
  8
L1
 10
192.37318422325779
 20
253.8147428691592
 30
0.0
 11
192.3630754602022
 21
253.8142605968373
 31
0.0
  0
LINE
  5
94F
  8
L1
 10
186.312702537669
 20
252.2442725291634
 30
0.0
 11
186.312702537669
 21
251.29427252916341
 31
0.0
  0
LINE
  5
950
  8
L1
 10
186.312702537669
 20
251.29427252916341
 30
0.0
 11
186.312702537669
 21
248.79427252916349
 31
0.0
  0
LINE
  5
951
  8
L1
 10
187.592714469995
 20
249.04389960663019
 30
0.0
 11
187.59223219767321
 21
249.03379084357459
 31
0.0
  0
LINE
  5
952
  8
L1
 10
185.81929515124591
 20
240.870967698405
 30
0.0
 11
186.9072064598939
 21
241.78383367624519
 31
0.0
  0
LINE
  5
953
  8
L1
 10
185.6022636847508
 20
243.0887764513883
 30
0.0
 11
184.68939770691071
 21
242.00086514274031
 31
0.0
  0
POLYLINE
  5
954
  8
L1
 66
     1
 10
0.0
 20
0.0
 30
0.0
  0
VERTEX
  5
16EC
  8
L1
 10
185.6111841414976
 20
243.46334951827001
 30
0.0
  0
VERTEX
  5
16ED
  8
L1
 10
185.62412982550561
 20
243.44495443643859
 30
0.0
  0
VERTEX
  5
16EE
  8
L1
 10
185.63568542054421
 20
243.42559490936819
 30
0.0
  0
VERTEX
  5
16EF
  8
L1
 10
185.648120927994
 20
243.40005775469899
 30
0.0
  0
VERTEX
  5
16F0
  8
L1
 10
185.65806543299129
 20
243.3735185924364
 30
0.0
  0
VERTEX
  5
16F1
  8
L1
 10
185.6654605570215
 20
243.346159235388
 30
0.0
  0
VERTEX
  5
16F2
  8
L1
 10
185.67024792157011
 20
243.3181614963614
 30
0.0
  0
VERTEX
  5
16F3
  8
L1
 10
185.67238949079439
 20
243.28889861554259
 30
0.0
  0
VERTEX
  5
16F4
  8
L1
 10
185.6716670046653
 20
243.25963549445569
 30
0.0
  0
VERTEX
  5
16F5
  8
L1
 10
185.6680961672734
 20
243.23058198609169
 30
0.0
  0
VERTEX
  5
16F6
  8
L1
 10
185.661692682709
 20
243.2019479434415
 30
0.0
  0
VERTEX
  5
16F7
  8
L1
 10
185.65238878081581
 20
243.17372732376029
 30
0.0
  0
VERTEX
  5
16F8
  8
L1
 10
185.64037174906471
 20
243.14662919977891
 30
0.0
  0
VERTEX
  5
16F9
  8
L1
 10
185.6257401604272
 20
243.12084860402371
 30
0.0
  0
VERTEX
  5
16FA
  8
L1
 10
185.60859258787539
 20
243.0965805690212
 30
0.0
  0
VERTEX
  5
16FB
  8
L1
 10
185.6022636847508
 20
243.0887764513883
 30
0.0
  0
SEQEND
  5
16FC
  8
L1
  0
LINE
  5
955
  8
L1
 10
184.70707833224071
 20
241.5959122454309
 30
0.0
 11
185.4143422539365
 21
240.888648323735
 31
0.0
  0
POLYLINE
  5
956
  8
L1
 66
     1
 10
0.0
 20
0.0
 30
0.0
  0
VERTEX
  5
16FD
  8
L1
 10
184.70707833224071
 20
241.5959122454309
 30
0.0
  0
VERTEX
  5
16FE
  8
L1
 10
184.65432707129861
 20
241.66720080310699
 30
0.0
  0
VERTEX
  5
16FF
  8
L1
 10
184.6247239285959
 20
241.75079600387821
 30
0.0
  0
VERTEX
  5
1700
  8
L1
 10
184.62085569564229
 20
241.83939310453641
 30
0.0
  0
VERTEX
  5
1701
  8
L1
 10
184.6430603876361
 20
241.9252502842204
 30
0.0
  0
VERTEX
  5
1702
  8
L1
 10
184.68939770691071
 20
242.0008651427402
 30
0.0
  0
SEQEND
  5
1703
  8
L1
  0
POLYLINE
  5
957
  8
L1
 66
     1
 10
0.0
 20
0.0
 30
0.0
  0
VERTEX
  5
1704
  8
L1
 10
185.81929515124591
 20
240.870967698405
 30
0.0
  0
VERTEX
  5
1705
  8
L1
 10
185.743680292726
 20
240.82463037913041
 30
0.0
  0
VERTEX
  5
1706
  8
L1
 10
185.65782311304221
 20
240.80242568713641
 30
0.0
  0
VERTEX
  5
1707
  8
L1
 10
185.56922601238389
 20
240.80629392009021
 30
0.0
  0
VERTEX
  5
1708
  8
L1
 10
185.48563081161279
 20
240.83589706279281
 30
0.0
  0
VERTEX
  5
1709
  8
L1
 10
185.41434225393661
 20
240.888648323735
 30
0.0
  0
SEQEND
  5
170A
  8
L1
  0
LINE
  5
958
  8
L1
 10
195.11270253766901
 20
242.4942725291634
 30
0.0
 11
196.0728641553882
 21
242.4942725291634
 31
0.0
  0
LINE
  5
959
  8
L1
 10
192.61270253766901
 20
242.4942725291634
 30
0.0
 11
195.11270253766901
 21
242.4942725291634
 31
0.0
  0
LINE
  5
95A
  8
L1
 10
192.85222085208031
 20
243.77380218916761
 30
0.0
 11
192.86232961513579
 21
243.77428446148949
 31
0.0
  0
ARC
  5
95B
  8
L1
 10
192.61270253766901
 20
248.79427252916349
 30
0.0
 40
8.8000000000000114
 50
232.71452609940309
 51
270.00000000000028
  0
POLYLINE
  5
95C
  8
L1
 66
     1
 10
0.0
 20
0.0
 30
0.0
  0
VERTEX
  5
170B
  8
L1
 10
186.9072064598939
 20
241.78383367624511
 30
0.0
  0
VERTEX
  5
170C
  8
L1
 10
186.9386002678672
 20
241.8068783117383
 30
0.0
  0
VERTEX
  5
170D
  8
L1
 10
186.97277357142789
 20
241.82569234594001
 30
0.0
  0
VERTEX
  5
170E
  8
L1
 10
186.99426310753671
 20
241.83476164226019
 30
0.0
  0
VERTEX
  5
170F
  8
L1
 10
187.01635857851471
 20
241.84212472419929
 30
0.0
  0
VERTEX
  5
1710
  8
L1
 10
187.03895851993889
 20
241.8477519567447
 30
0.0
  0
VERTEX
  5
1711
  8
L1
 10
187.06196146738671
 20
241.8516137048835
 30
0.0
  0
VERTEX
  5
1712
  8
L1
 10
187.08368789151831
 20
241.85359800034331
 30
0.0
  0
VERTEX
  5
1713
  8
L1
 10
187.10547240687501
 20
241.85399856007771
 30
0.0
  0
VERTEX
  5
1714
  8
L1
 10
187.12722851005429
 20
241.85281683702129
 30
0.0
  0
VERTEX
  5
1715
  8
L1
 10
187.1488696976532
 20
241.85005428410841
 30
0.0
  0
VERTEX
  5
1716
  8
L1
 10
187.17212105733211
 20
241.84527011241909
 30
0.0
  0
VERTEX
  5
1717
  8
L1
 10
187.19488620054011
 20
241.83867371565489
 30
0.0
  0
VERTEX
  5
1718
  8
L1
 10
187.21705935405271
 20
241.83030026467441
 30
0.0
  0
VERTEX
  5
1719
  8
L1
 10
187.23853474464639
 20
241.82018493033539
 30
0.0
  0
VERTEX
  5
171A
  8
L1
 10
187.2607689613522
 20
241.80737829302319
 30
0.0
  0
VERTEX
  5
171B
  8
L1
 10
187.28177952677569
 20
241.79275413299189
 30
0.0
  0
SEQEND
  5
171C
  8
L1
  0
LINE
  5
95D
  8
L1
 10
192.61270253766901
 20
239.9942725291634
 30
0.0
 11
196.57337816792469
 21
239.9942725291634
 31
0.0
  0
LINE
  5
95E
  8
L1
 10
199.0728641553882
 20
252.6442725291634
 30
0.0
 11
199.0728641553882
 21
241.57543575650271
 31
0.0
  0
POLYLINE
  5
95F
  8
L1
 66
     1
 10
0.0
 20
0.0
 30
0.0
  0
VERTEX
  5
171D
  8
L1
 10
197.41070253766901
 20
257.04398767320032
 30
0.0
  0
VERTEX
  5
171E
  8
L1
 10
197.5761064954572
 20
257.03794889306232
 30
0.0
  0
VERTEX
  5
171F
  8
L1
 10
197.74342204644441
 20
257.02388015355552
 30
0.0
  0
VERTEX
  5
1720
  8
L1
 10
197.91183434186539
 20
257.00158141982911
 30
0.0
  0
VERTEX
  5
1721
  8
L1
 10
198.08052853295561
 20
256.97085265703248
 30
0.0
  0
VERTEX
  5
1722
  8
L1
 10
198.24870234717849
 20
256.93155441274922
 30
0.0
  0
VERTEX
  5
1723
  8
L1
 10
198.4156009741497
 20
256.88377586147249
 30
0.0
  0
VERTEX
  5
1724
  8
L1
 10
198.58048075833031
 20
256.82765990871718
 30
0.0
  0
VERTEX
  5
1725
  8
L1
 10
198.74259804418179
 20
256.7633494599973
 30
0.0
  0
VERTEX
  5
1726
  8
L1
 10
198.9012929301993
 20
256.69100905840952
 30
0.0
  0
VERTEX
  5
1727
  8
L1
 10
199.05598816746979
 20
256.61099747390978
 30
0.0
  0
VERTEX
  5
1728
  8
L1
 10
199.20606407934201
 20
256.5237489523019
 30
0.0
  0
VERTEX
  5
1729
  8
L1
 10
199.3509009891651
 20
256.42969773938972
 30
0.0
  0
VERTEX
  5
172A
  8
L1
 10
199.48991024155771
 20
256.32932336262189
 30
0.0
  0
VERTEX
  5
172B
  8
L1
 10
199.62263537907799
 20
256.2232983075366
 30
0.0
  0
VERTEX
  5
172C
  8
L1
 10
199.74865502198409
 20
256.11234625707192
 30
0.0
  0
VERTEX
  5
172D
  8
L1
 10
199.86754779053319
 20
255.9971908941659
 30
0.0
  0
VERTEX
  5
172E
  8
L1
 10
199.98005102917921
 20
255.87735689322079
 30
0.0
  0
VERTEX
  5
172F
  8
L1
 10
200.0883188128943
 20
255.75053237535329
 30
0.0
  0
VERTEX
  5
1730
  8
L1
 10
200.1916358626718
 20
255.6171435543919
 30
0.0
  0
VERTEX
  5
1731
  8
L1
 10
200.2892868995051
 20
255.47761664416481
 30
0.0
  0
VERTEX
  5
1732
  8
L1
 10
200.38060780345009
 20
255.33241182941089
 30
0.0
  0
VERTEX
  5
1733
  8
L1
 10
200.46512783402011
 20
255.18211769973891
 30
0.0
  0
VERTEX
  5
1734
  8
L1
 10
200.5424217813941
 20
255.02735307628259
 30
0.0
  0
VERTEX
  5
1735
  8
L1
 10
200.61206443575111
 20
254.86873678017571
 30
0.0
  0
VERTEX
  5
1736
  8
L1
 10
200.67370494206071
 20
254.70684461702729
 30
0.0
  0
VERTEX
  5
1737
  8
L1
 10
200.7271868606214
 20
254.54233207360701
 30
0.0
  0
VERTEX
  5
1738
  8
L1
 10
200.77237660460551
 20
254.37593749278849
 30
0.0
  0
VERTEX
  5
1739
  8
L1
 10
200.809140587185
 20
254.2083992174459
 30
0.0
  0
VERTEX
  5
173A
  8
L1
 10
200.83732539611961
 20
254.04098069379
 30
0.0
  0
VERTEX
  5
173B
  8
L1
 10
200.85720346975631
 20
253.8739552422596
 30
0.0
  0
VERTEX
  5
173C
  8
L1
 10
200.86898098696651
 20
253.70812010625161
 30
0.0
  0
VERTEX
  5
173D
  8
L1
 10
200.87286412662121
 20
253.54427252916341
 30
0.0
  0
SEQEND
  5
173E
  8
L1
  0
ARC
  5
960
  8
L1
 10
197.41070253766901
 20
253.5422725291634
 30
0.0
 40
2.7019999999999542
 50
0.0000000000006756
 51
90.000000000001236
  0
POLYLINE
  5
961
  8
L1
 66
     1
 10
0.0
 20
0.0
 30
0.0
  0
VERTEX
  5
173F
  8
L1
 10
200.87286412662121
 20
253.54427252916341
 30
0.0
  0
VERTEX
  5
1740
  8
L1
 10
200.87286415538821
 20
253.5422725291634
 30
0.0
  0
SEQEND
  5
1741
  8
L1
  0
LINE
  5
962
  8
L1
 10
197.6326906053429
 20
248.54464545169671
 30
0.0
 11
197.6331728776648
 21
248.55475421475219
 31
0.0
  0
ARC
  5
963
  8
L1
 10
196.0728641553882
 20
239.19427252916341
 30
0.0
 40
3.2999999999999439
 50
0.0
 51
41.409896980765083
  0
POLYLINE
  5
964
  8
L1
 66
     1
 10
0.0
 20
0.0
 30
0.0
  0
VERTEX
  5
1742
  8
L1
 10
199.0728641553882
 20
241.5754357565028
 30
0.0
  0
VERTEX
  5
1743
  8
L1
 10
199.07279253319169
 20
241.5688805541306
 30
0.0
  0
VERTEX
  5
1744
  8
L1
 10
199.070669754796
 20
241.53921623008071
 30
0.0
  0
VERTEX
  5
1745
  8
L1
 10
199.06563606383079
 20
241.50997812413129
 30
0.0
  0
VERTEX
  5
1746
  8
L1
 10
199.0577392197024
 20
241.48138016294399
 30
0.0
  0
VERTEX
  5
1747
  8
L1
 10
199.04702698181589
 20
241.45363627318119
 30
0.0
  0
VERTEX
  5
1748
  8
L1
 10
199.03364888574521
 20
241.4271399072525
 30
0.0
  0
VERTEX
  5
1749
  8
L1
 10
199.0177591301717
 20
241.40215381757551
 30
0.0
  0
VERTEX
  5
174A
  8
L1
 10
198.9994835664983
 20
241.3788559174445
 30
0.0
  0
VERTEX
  5
174B
  8
L1
 10
198.9789480461281
 20
241.35742412015421
 30
0.0
  0
VERTEX
  5
174C
  8
L1
 10
198.9587939230625
 20
241.34000152607001
 30
0.0
  0
VERTEX
  5
174D
  8
L1
 10
198.93721694183949
 20
241.3244642292014
 30
0.0
  0
VERTEX
  5
174E
  8
L1
 10
198.9143489316167
 20
241.31089853515081
 30
0.0
  0
VERTEX
  5
174F
  8
L1
 10
198.8903217215512
 20
241.29939074952091
 30
0.0
  0
VERTEX
  5
1750
  8
L1
 10
198.86883913998179
 20
241.29120838520919
 30
0.0
  0
VERTEX
  5
1751
  8
L1
 10
198.8468254992238
 20
241.28470331053791
 30
0.0
  0
VERTEX
  5
1752
  8
L1
 10
198.82437891273119
 20
241.27990045135769
 30
0.0
  0
VERTEX
  5
1753
  8
L1
 10
198.8015974939573
 20
241.27682473351931
 30
0.0
  0
VERTEX
  5
1754
  8
L1
 10
198.78023857396931
 20
241.2755372753025
 30
0.0
  0
VERTEX
  5
1755
  8
L1
 10
198.75886918694181
 20
241.27577427039731
 30
0.0
  0
VERTEX
  5
1756
  8
L1
 10
198.7375708780863
 20
241.27753187949159
 30
0.0
  0
VERTEX
  5
1757
  8
L1
 10
198.71642519261511
 20
241.28080626327309
 30
0.0
  0
VERTEX
  5
1758
  8
L1
 10
198.69296942445101
 20
241.286284673202
 30
0.0
  0
VERTEX
  5
1759
  8
L1
 10
198.6700648081088
 20
241.29361383481631
 30
0.0
  0
VERTEX
  5
175A
  8
L1
 10
198.647820724426
 20
241.30275381428501
 30
0.0
  0
VERTEX
  5
175B
  8
L1
 10
198.62634655424
 20
241.3136646777773
 30
0.0
  0
VERTEX
  5
175C
  8
L1
 10
198.60474438184289
 20
241.32698520618581
 30
0.0
  0
VERTEX
  5
175D
  8
L1
 10
198.58439273207651
 20
241.34204526444111
 30
0.0
  0
VERTEX
  5
175E
  8
L1
 10
198.56539477579
 20
241.35875616851081
 30
0.0
  0
VERTEX
  5
175F
  8
L1
 10
198.54785368383219
 20
241.37702923436271
 30
0.0
  0
SEQEND
  5
1760
  8
L1
  0
LINE
  5
965
  8
L1
 10
266.82304392471161
 20
254.9442725579307
 30
0.0
 11
266.82304392471161
 21
167.04427252916349
 31
0.0
  0
LINE
  5
966
  8
L1
 10
265.65371299727099
 20
167.04427252916349
 30
0.0
 11
265.65371299727099
 21
256.28411094021152
 31
0.0
  0
LINE
  5
967
  8
L1
 10
264.85371299727097
 20
257.04218471678502
 30
0.0
 11
264.85371299727109
 21
167.04427252916349
 31
0.0
  0
LINE
  5
968
  8
L1
 10
239.65371299727099
 20
167.04427252916349
 30
0.0
 11
239.6537129972711
 21
255.69006401128249
 31
0.0
  0
LINE
  5
969
  8
L2
 10
241.75371299727109
 20
251.3068449829818
 30
0.0
 11
241.75371299727101
 21
167.04427252916349
 31
0.0
  0
LINE
  5
96A
  8
L1
 10
239.05371299727111
 20
255.09006401128261
 30
0.0
 11
239.05371299727099
 21
167.04427252916349
 31
0.0
  0
ARC
  5
96B
  8
L2
 10
242.25371299727109
 20
238.85809601846231
 30
0.0
 40
0.5
 50
91.500000000001123
 51
180.0
  0
LINE
  5
96C
  8
L1
 10
239.68689734875039
 20
255.72324779702041
 30
0.0
 11
264.89355083064521
 21
257.04427252916361
 31
0.0
  0
LINE
  5
96D
  8
L1
 10
239.05371299727099
 20
255.09006401128261
 30
0.0
 11
239.6868967517199
 21
255.72324776573129
 31
0.0
  0
LINE
  5
96E
  8
L2
 10
265.65371299727099
 20
239.98411094021151
 30
0.0
 11
242.24062452311711
 21
239.35792468095011
 31
0.0
  0
ARC
  5
96F
  8
L1
 10
266.35371299727109
 20
254.9442725579307
 30
0.0
 40
0.4693309274404737
 50
0.0
 51
79.999999999998451
  0
LINE
  5
970
  8
L1
 10
265.65371299727099
 20
256.28411094021141
 30
0.0
 11
264.89355137955192
 21
257.04427255793058
 31
0.0
  0
LINE
  5
971
  8
L1
 10
266.43521145754391
 20
255.40647329400241
 30
0.0
 11
265.65686911294893
 21
255.54371604958251
 31
0.0
  0
LINE
  5
972
  8
L1
 10
563.34806570634566
 20
253.5422725291636
 30
0.0
 11
563.34806570634566
 21
167.04427252916349
 31
0.0
  0
LINE
  5
973
  8
L1
 10
561.39385715969775
 20
253.5422725291636
 30
0.0
 11
561.39385715969775
 21
167.04427252916349
 31
0.0
  0
LINE
  5
974
  8
L1
 10
547.3379040886266
 20
167.04427252916349
 30
0.0
 11
547.3379040886266
 21
239.04427252916349
 31
0.0
  0
LINE
  5
975
  8
L1
 10
310.2819510175554
 20
253.5422725291636
 30
0.0
 11
310.2819510175554
 21
167.04427252916349
 31
0.0
  0
LINE
  5
976
  8
L1
 10
308.32774247090742
 20
253.5422725291636
 30
0.0
 11
308.32774247090731
 21
167.04427252916361
 31
0.0
  0
LINE
  5
977
  8
L1
 10
324.3379040886266
 20
167.04427252916349
 30
0.0
 11
324.3379040886266
 21
239.04427252916349
 31
0.0
  0
LINE
  5
978
  8
L1
 10
545.33790408862649
 20
241.04427252916361
 30
0.0
 11
435.83790408862649
 21
241.04427252916361
 31
0.0
  0
LINE
  5
979
  8
L1
 10
559.81460514737341
 20
255.091088776438
 30
0.0
 11
435.83790408862649
 21
255.091088776438
 31
0.0
  0
LINE
  5
97A
  8
L1
 10
558.49185715969759
 20
257.04427252916361
 30
0.0
 11
435.83790408862649
 21
257.04378525220068
 31
0.0
  0
LINE
  5
97B
  8
L1
 10
313.1839510175555
 20
257.04427252916361
 30
0.0
 11
435.83790408862649
 21
257.04378525220062
 31
0.0
  0
LINE
  5
97C
  8
L1
 10
311.86120302987968
 20
255.091088776438
 30
0.0
 11
435.83790408862649
 21
255.09108877643791
 31
0.0
  0
LINE
  5
97D
  8
L1
 10
326.33790408862649
 20
241.04427252916361
 30
0.0
 11
435.83790408862649
 21
241.04427252916361
 31
0.0
  0
POLYLINE
  5
97E
  8
L1
 66
     1
 10
0.0
 20
0.0
 30
0.0
  0
VERTEX
  5
1761
  8
L1
 10
308.3277424996744
 20
253.54427252916361
 30
0.0
  0
VERTEX
  5
1762
  8
L1
 10
308.33162563932899
 20
253.7081201062519
 30
0.0
  0
VERTEX
  5
1763
  8
L1
 10
308.34340315653918
 20
253.8739552422598
 30
0.0
  0
VERTEX
  5
1764
  8
L1
 10
308.36328123017591
 20
254.04098069379029
 30
0.0
  0
VERTEX
  5
1765
  8
L1
 10
308.3914660391107
 20
254.2083992174461
 30
0.0
  0
VERTEX
  5
1766
  8
L1
 10
308.42823002169013
 20
254.37593749278869
 30
0.0
  0
VERTEX
  5
1767
  8
L1
 10
308.47341976567418
 20
254.54233207360721
 30
0.0
  0
VERTEX
  5
1768
  8
L1
 10
308.52690168423487
 20
254.7068446170276
 30
0.0
  0
VERTEX
  5
1769
  8
L1
 10
308.5885421905445
 20
254.86873678017579
 30
0.0
  0
VERTEX
  5
176A
  8
L1
 10
308.65818484490143
 20
255.02735307628291
 30
0.0
  0
VERTEX
  5
176B
  8
L1
 10
308.73547879227539
 20
255.18211769973919
 30
0.0
  0
VERTEX
  5
176C
  8
L1
 10
308.81999882284549
 20
255.332411829411
 30
0.0
  0
VERTEX
  5
176D
  8
L1
 10
308.91131972679051
 20
255.47761664416501
 30
0.0
  0
VERTEX
  5
176E
  8
L1
 10
309.00897076362372
 20
255.61714355439199
 30
0.0
  0
VERTEX
  5
176F
  8
L1
 10
309.11228781340122
 20
255.7505323753536
 30
0.0
  0
VERTEX
  5
1770
  8
L1
 10
309.2205555971164
 20
255.87735689322099
 30
0.0
  0
VERTEX
  5
1771
  8
L1
 10
309.33305883576247
 20
255.9971908941661
 30
0.0
  0
VERTEX
  5
1772
  8
L1
 10
309.45195160431172
 20
256.11234625707209
 30
0.0
  0
VERTEX
  5
1773
  8
L1
 10
309.57797124721742
 20
256.22329830753682
 30
0.0
  0
VERTEX
  5
1774
  8
L1
 10
309.71069638473779
 20
256.32932336262212
 30
0.0
  0
VERTEX
  5
1775
  8
L1
 10
309.8497056371304
 20
256.42969773939001
 30
0.0
  0
VERTEX
  5
1776
  8
L1
 10
309.99454254695348
 20
256.52374895230213
 30
0.0
  0
VERTEX
  5
1777
  8
L1
 10
310.14461845882579
 20
256.61099747391
 30
0.0
  0
VERTEX
  5
1778
  8
L1
 10
310.29931369609619
 20
256.6910090584098
 30
0.0
  0
VERTEX
  5
1779
  8
L1
 10
310.45800858211379
 20
256.76334945999753
 30
0.0
  0
VERTEX
  5
177A
  8
L1
 10
310.62012586796533
 20
256.82765990871729
 30
0.0
  0
VERTEX
  5
177B
  8
L1
 10
310.78500565214603
 20
256.88377586147283
 30
0.0
  0
VERTEX
  5
177C
  8
L1
 10
310.951904279117
 20
256.93155441274951
 30
0.0
  0
VERTEX
  5
177D
  8
L1
 10
311.12007809334
 20
256.97085265703259
 30
0.0
  0
VERTEX
  5
177E
  8
L1
 10
311.28877228443008
 20
257.00158141982922
 30
0.0
  0
VERTEX
  5
177F
  8
L1
 10
311.45718457985112
 20
257.02388015355558
 30
0.0
  0
VERTEX
  5
1780
  8
L1
 10
311.62450013083833
 20
257.03794889306238
 30
0.0
  0
VERTEX
  5
1781
  8
L1
 10
311.78990408862649
 20
257.04398767320049
 30
0.0
  0
SEQEND
  5
1782
  8
L1
  0
POLYLINE
  5
97F
  8
L1
 66
     1
 10
0.0
 20
0.0
 30
0.0
  0
VERTEX
  5
1783
  8
L1
 10
308.32774247090742
 20
253.54227252916351
 30
0.0
  0
VERTEX
  5
1784
  8
L1
 10
308.3277424996744
 20
253.54427252916361
 30
0.0
  0
SEQEND
  5
1785
  8
L1
  0
ARC
  5
980
  8
L1
 10
316.5879040886266
 20
248.79427252916361
 30
0.0
 40
5.0
 50
267.26858442957172
 51
2.7314155704283292
  0
LINE
  5
981
  8
L1
 10
311.59358460811751
 20
248.55600182889219
 30
0.0
 11
316.34963338835507
 21
243.7999530486546
 31
0.0
  0
CIRCLE
  5
982
  8
L1
 10
316.5879040886266
 20
248.79427252916361
 30
0.0
 40
5.9982622421189946
  0
CIRCLE
  5
983
  8
L1
 10
316.5879040886266
 20
248.79427252916361
 30
0.0
 40
5.7982698575061704
  0
LINE
  5
984
  8
L1
 10
321.58222356913558
 20
249.03254322943499
 30
0.0
 11
316.82617478889802
 21
253.78859200967261
 31
0.0
  0
ARC
  5
985
  8
L1
 10
316.5879040886266
 20
248.79427252916361
 30
0.0
 40
5.0
 50
87.268584429571703
 51
182.73141557042729
  0
POLYLINE
  5
986
  8
L1
 66
     1
 10
0.0
 20
0.0
 30
0.0
  0
VERTEX
  5
1786
  8
L1
 10
310.28139391700489
 20
253.4979715619786
 30
0.0
  0
VERTEX
  5
1787
  8
L1
 10
310.28418403235531
 20
253.61569940094819
 30
0.0
  0
VERTEX
  5
1788
  8
L1
 10
310.28940116734822
 20
253.6891600697526
 30
0.0
  0
VERTEX
  5
1789
  8
L1
 10
310.29820507811212
 20
253.76313490239741
 30
0.0
  0
VERTEX
  5
178A
  8
L1
 10
310.3105617882631
 20
253.83653409327039
 30
0.0
  0
VERTEX
  5
178B
  8
L1
 10
310.32671384825102
 20
253.9101411424455
 30
0.0
  0
VERTEX
  5
178C
  8
L1
 10
310.34672427714878
 20
253.98382217346949
 30
0.0
  0
VERTEX
  5
178D
  8
L1
 10
310.37040931431051
 20
254.05667830521139
 30
0.0
  0
VERTEX
  5
178E
  8
L1
 10
310.39748106205423
 20
254.12777934030731
 30
0.0
  0
VERTEX
  5
178F
  8
L1
 10
310.4280746177788
 20
254.1974584261861
 30
0.0
  0
VERTEX
  5
1790
  8
L1
 10
310.46232941877662
 20
254.26604635005501
 30
0.0
  0
VERTEX
  5
1791
  8
L1
 10
310.49979978097849
 20
254.33267641913591
 30
0.0
  0
VERTEX
  5
1792
  8
L1
 10
310.53994794406458
 20
254.3965140108788
 30
0.0
  0
VERTEX
  5
1793
  8
L1
 10
310.58289227385302
 20
254.45787423644799
 30
0.0
  0
VERTEX
  5
1794
  8
L1
 10
310.62876627007307
 20
254.51710045595161
 30
0.0
  0
VERTEX
  5
1795
  8
L1
 10
310.67686599792188
 20
254.57344431545121
 30
0.0
  0
VERTEX
  5
1796
  8
L1
 10
310.72599859726961
 20
254.6257784173626
 30
0.0
  0
VERTEX
  5
1797
  8
L1
 10
310.77817411298611
 20
254.6763137907117
 30
0.0
  0
VERTEX
  5
1798
  8
L1
 10
310.83421550322822
 20
254.72565456818799
 30
0.0
  0
VERTEX
  5
1799
  8
L1
 10
310.89324477519142
 20
254.77280902535011
 30
0.0
  0
VERTEX
  5
179A
  8
L1
 10
310.95452365637021
 20
254.81705665204751
 30
0.0
  0
VERTEX
  5
179B
  8
L1
 10
311.01839389989942
 20
254.8585313968502
 30
0.0
  0
VERTEX
  5
179C
  8
L1
 10
311.08516700235731
 20
254.89735078098681
 30
0.0
  0
VERTEX
  5
179D
  8
L1
 10
311.15401257206992
 20
254.93295913723409
 30
0.0
  0
VERTEX
  5
179E
  8
L1
 10
311.22406650197217
 20
254.96489292885849
 30
0.0
  0
VERTEX
  5
179F
  8
L1
 10
311.29565162299622
 20
254.99329009348239
 30
0.0
  0
VERTEX
  5
17A0
  8
L1
 10
311.36909151392939
 20
255.01828496759899
 30
0.0
  0
VERTEX
  5
17A1
  8
L1
 10
311.44345307049929
 20
255.03957266485619
 30
0.0
  0
VERTEX
  5
17A2
  8
L1
 10
311.51775987276829
 20
255.0569364077252
 30
0.0
  0
VERTEX
  5
17A3
  8
L1
 10
311.59230910658277
 20
255.07051604379771
 30
0.0
  0
VERTEX
  5
17A4
  8
L1
 10
311.6674291998591
 20
255.08046236602601
 30
0.0
  0
VERTEX
  5
17A5
  8
L1
 10
311.74208622620853
 20
255.08673990717429
 30
0.0
  0
VERTEX
  5
17A6
  8
L1
 10
311.86120302987968
 20
255.091088776438
 30
0.0
  0
SEQEND
  5
17A7
  8
L1
  0
POLYLINE
  5
987
  8
L1
 66
     1
 10
0.0
 20
0.0
 30
0.0
  0
VERTEX
  5
17A8
  8
L1
 10
313.18395101755539
 20
257.04427252916361
 30
0.0
  0
VERTEX
  5
17A9
  8
L1
 10
313.15530342026591
 20
257.04427252916361
 30
0.0
  0
SEQEND
  5
17AA
  8
L1
  0
POLYLINE
  5
988
  8
L1
 66
     1
 10
0.0
 20
0.0
 30
0.0
  0
VERTEX
  5
17AB
  8
L1
 10
311.78990408862649
 20
257.04398767320049
 30
0.0
  0
VERTEX
  5
17AC
  8
L1
 10
311.8122720830516
 20
257.04420131444817
 30
0.0
  0
VERTEX
  5
17AD
  8
L1
 10
311.83463352304568
 20
257.04427252916361
 30
0.0
  0
SEQEND
  5
17AE
  8
L1
  0
LINE
  5
989
  8
L1
 10
311.83463352304568
 20
257.04427252916361
 30
0.0
 11
313.15530342026591
 21
257.04427252916361
 31
0.0
  0
ARC
  5
98A
  8
L1
 10
326.33790408862649
 20
239.04427252916361
 30
0.0
 40
1.9999999999999989
 50
90.000000000000028
 51
180.0
  0
POLYLINE
  5
98B
  8
L1
 66
     1
 10
0.0
 20
0.0
 30
0.0
  0
VERTEX
  5
17AF
  8
L1
 10
563.3480656775788
 20
253.54427252916361
 30
0.0
  0
VERTEX
  5
17B0
  8
L1
 10
563.34418253792398
 20
253.7081201062519
 30
0.0
  0
VERTEX
  5
17B1
  8
L1
 10
563.33240502071396
 20
253.8739552422598
 30
0.0
  0
VERTEX
  5
17B2
  8
L1
 10
563.31252694707723
 20
254.04098069379029
 30
0.0
  0
VERTEX
  5
17B3
  8
L1
 10
563.28434213814251
 20
254.2083992174461
 30
0.0
  0
VERTEX
  5
17B4
  8
L1
 10
563.24757815556302
 20
254.37593749278869
 30
0.0
  0
VERTEX
  5
17B5
  8
L1
 10
563.20238841157902
 20
254.54233207360721
 30
0.0
  0
VERTEX
  5
17B6
  8
L1
 10
563.14890649301833
 20
254.7068446170276
 30
0.0
  0
VERTEX
  5
17B7
  8
L1
 10
563.08726598670864
 20
254.86873678017579
 30
0.0
  0
VERTEX
  5
17B8
  8
L1
 10
563.01762333235183
 20
255.02735307628291
 30
0.0
  0
VERTEX
  5
17B9
  8
L1
 10
562.94032938497764
 20
255.18211769973919
 30
0.0
  0
VERTEX
  5
17BA
  8
L1
 10
562.85580935440771
 20
255.332411829411
 30
0.0
  0
VERTEX
  5
17BB
  8
L1
 10
562.76448845046264
 20
255.47761664416501
 30
0.0
  0
VERTEX
  5
17BC
  8
L1
 10
562.66683741362931
 20
255.61714355439199
 30
0.0
  0
VERTEX
  5
17BD
  8
L1
 10
562.56352036385192
 20
255.7505323753536
 30
0.0
  0
VERTEX
  5
17BE
  8
L1
 10
562.45525258013686
 20
255.87735689322099
 30
0.0
  0
VERTEX
  5
17BF
  8
L1
 10
562.34274934149062
 20
255.9971908941661
 30
0.0
  0
VERTEX
  5
17C0
  8
L1
 10
562.22385657294137
 20
256.11234625707209
 30
0.0
  0
VERTEX
  5
17C1
  8
L1
 10
562.09783693003578
 20
256.22329830753682
 30
0.0
  0
VERTEX
  5
17C2
  8
L1
 10
561.96511179251547
 20
256.32932336262212
 30
0.0
  0
VERTEX
  5
17C3
  8
L1
 10
561.82610254012275
 20
256.42969773939001
 30
0.0
  0
VERTEX
  5
17C4
  8
L1
 10
561.68126563029978
 20
256.52374895230213
 30
0.0
  0
VERTEX
  5
17C5
  8
L1
 10
561.53118971842741
 20
256.61099747391
 30
0.0
  0
VERTEX
  5
17C6
  8
L1
 10
561.3764944811569
 20
256.6910090584098
 30
0.0
  0
VERTEX
  5
17C7
  8
L1
 10
561.21779959513924
 20
256.76334945999753
 30
0.0
  0
VERTEX
  5
17C8
  8
L1
 10
561.05568230928793
 20
256.82765990871729
 30
0.0
  0
VERTEX
  5
17C9
  8
L1
 10
560.89080252510712
 20
256.88377586147283
 30
0.0
  0
VERTEX
  5
17CA
  8
L1
 10
560.7239038981362
 20
256.93155441274951
 30
0.0
  0
VERTEX
  5
17CB
  8
L1
 10
560.5557300839132
 20
256.97085265703259
 30
0.0
  0
VERTEX
  5
17CC
  8
L1
 10
560.38703589282306
 20
257.00158141982922
 30
0.0
  0
VERTEX
  5
17CD
  8
L1
 10
560.21862359740203
 20
257.02388015355558
 30
0.0
  0
VERTEX
  5
17CE
  8
L1
 10
560.05130804641476
 20
257.03794889306238
 30
0.0
  0
VERTEX
  5
17CF
  8
L1
 10
559.88590408862649
 20
257.04398767320049
 30
0.0
  0
SEQEND
  5
17D0
  8
L1
  0
ARC
  5
98C
  8
L1
 10
555.0879040886266
 20
248.79427252916361
 30
0.0
 40
5.0
 50
177.2685844295716
 51
272.73141557042828
  0
LINE
  5
98D
  8
L1
 10
560.08222356913564
 20
248.55600182889219
 30
0.0
 11
555.32617478889802
 21
243.7999530486546
 31
0.0
  0
CIRCLE
  5
98E
  8
L1
 10
555.0879040886266
 20
248.79427252916361
 30
0.0
 40
5.9982622421189946
  0
CIRCLE
  5
98F
  8
L1
 10
555.0879040886266
 20
248.79427252916361
 30
0.0
 40
5.7982698575061704
  0
LINE
  5
990
  8
L1
 10
550.09358460811745
 20
249.03254322943499
 30
0.0
 11
554.84963338835519
 21
253.78859200967261
 31
0.0
  0
ARC
  5
991
  8
L1
 10
555.0879040886266
 20
248.79427252916361
 30
0.0
 40
5.0
 50
357.26858442957263
 51
92.731415570428283
  0
POLYLINE
  5
992
  8
L1
 66
     1
 10
0.0
 20
0.0
 30
0.0
  0
VERTEX
  5
17D1
  8
L1
 10
561.39441426024825
 20
253.4979715619786
 30
0.0
  0
VERTEX
  5
17D2
  8
L1
 10
561.39162414489783
 20
253.61569940094819
 30
0.0
  0
VERTEX
  5
17D3
  8
L1
 10
561.38640700990504
 20
253.6891600697526
 30
0.0
  0
VERTEX
  5
17D4
  8
L1
 10
561.37760309914097
 20
253.76313490239741
 30
0.0
  0
VERTEX
  5
17D5
  8
L1
 10
561.36524638899004
 20
253.83653409327039
 30
0.0
  0
VERTEX
  5
17D6
  8
L1
 10
561.34909432900213
 20
253.9101411424455
 30
0.0
  0
VERTEX
  5
17D7
  8
L1
 10
561.32908390010425
 20
253.98382217346949
 30
0.0
  0
VERTEX
  5
17D8
  8
L1
 10
561.30539886294264
 20
254.05667830521139
 30
0.0
  0
VERTEX
  5
17D9
  8
L1
 10
561.27832711519886
 20
254.12777934030731
 30
0.0
  0
VERTEX
  5
17DA
  8
L1
 10
561.24773355947445
 20
254.1974584261861
 30
0.0
  0
VERTEX
  5
17DB
  8
L1
 10
561.21347875847653
 20
254.26604635005501
 30
0.0
  0
VERTEX
  5
17DC
  8
L1
 10
561.17600839627471
 20
254.33267641913591
 30
0.0
  0
VERTEX
  5
17DD
  8
L1
 10
561.13586023318862
 20
254.3965140108788
 30
0.0
  0
VERTEX
  5
17DE
  8
L1
 10
561.09291590340013
 20
254.45787423644799
 30
0.0
  0
VERTEX
  5
17DF
  8
L1
 10
561.04704190717996
 20
254.51710045595161
 30
0.0
  0
VERTEX
  5
17E0
  8
L1
 10
560.99894217933115
 20
254.57344431545121
 30
0.0
  0
VERTEX
  5
17E1
  8
L1
 10
560.94980957998348
 20
254.6257784173626
 30
0.0
  0
VERTEX
  5
17E2
  8
L1
 10
560.89763406426698
 20
254.6763137907117
 30
0.0
  0
VERTEX
  5
17E3
  8
L1
 10
560.84159267402481
 20
254.72565456818799
 30
0.0
  0
VERTEX
  5
17E4
  8
L1
 10
560.78256340206178
 20
254.77280902535011
 30
0.0
  0
VERTEX
  5
17E5
  8
L1
 10
560.72128452088305
 20
254.81705665204751
 30
0.0
  0
VERTEX
  5
17E6
  8
L1
 10
560.65741427735372
 20
254.8585313968502
 30
0.0
  0
VERTEX
  5
17E7
  8
L1
 10
560.59064117489584
 20
254.89735078098681
 30
0.0
  0
VERTEX
  5
17E8
  8
L1
 10
560.52179560518334
 20
254.93295913723409
 30
0.0
  0
VERTEX
  5
17E9
  8
L1
 10
560.45174167528091
 20
254.96489292885849
 30
0.0
  0
VERTEX
  5
17EA
  8
L1
 10
560.38015655425693
 20
254.99329009348239
 30
0.0
  0
VERTEX
  5
17EB
  8
L1
 10
560.30671666332387
 20
255.01828496759899
 30
0.0
  0
VERTEX
  5
17EC
  8
L1
 10
560.23235510675374
 20
255.03957266485619
 30
0.0
  0
VERTEX
  5
17ED
  8
L1
 10
560.15804830448485
 20
255.0569364077252
 30
0.0
  0
VERTEX
  5
17EE
  8
L1
 10
560.08349907067031
 20
255.07051604379771
 30
0.0
  0
VERTEX
  5
17EF
  8
L1
 10
560.00837897739405
 20
255.08046236602601
 30
0.0
  0
VERTEX
  5
17F0
  8
L1
 10
559.93372195104462
 20
255.08673990717429
 30
0.0
  0
VERTEX
  5
17F1
  8
L1
 10
559.81460514737341
 20
255.091088776438
 30
0.0
  0
SEQEND
  5
17F2
  8
L1
  0
POLYLINE
  5
993
  8
L1
 66
     1
 10
0.0
 20
0.0
 30
0.0
  0
VERTEX
  5
17F3
  8
L1
 10
558.49185715969759
 20
257.04427252916361
 30
0.0
  0
VERTEX
  5
17F4
  8
L1
 10
558.52050475698718
 20
257.04427252916361
 30
0.0
  0
SEQEND
  5
17F5
  8
L1
  0
POLYLINE
  5
994
  8
L1
 66
     1
 10
0.0
 20
0.0
 30
0.0
  0
VERTEX
  5
17F6
  8
L1
 10
559.88590408862649
 20
257.04398767320049
 30
0.0
  0
VERTEX
  5
17F7
  8
L1
 10
559.86353609420155
 20
257.04420131444817
 30
0.0
  0
VERTEX
  5
17F8
  8
L1
 10
559.84117465420729
 20
257.04427252916361
 30
0.0
  0
SEQEND
  5
17F9
  8
L1
  0
LINE
  5
995
  8
L1
 10
559.84117465420729
 20
257.04427252916361
 30
0.0
 11
558.52050475698718
 21
257.04427252916361
 31
0.0
  0
ARC
  5
996
  8
L1
 10
545.33790408862649
 20
239.04427252916361
 30
0.0
 40
1.9999999999999989
 50
0.0
 51
90.000000000000028
  0
POLYLINE
  5
997
  8
L1
 66
     1
 10
0.0
 20
0.0
 30
0.0
  0
VERTEX
  5
17FA
  8
L1
 10
563.34806570634566
 20
253.54227252916351
 30
0.0
  0
VERTEX
  5
17FB
  8
L1
 10
563.3480656775788
 20
253.54427252916361
 30
0.0
  0
SEQEND
  5
17FC
  8
L1
  0
LINE
  5
E7E
  8
L2
 10
559.42205078459665
 20
11.946399787069311
 30
0.0
 11
435.8379040886266
 21
11.946399787069129
 31
0.0
  0
LINE
  5
E7F
  8
L2
 10
547.3379040886266
 20
9.5463997870692765
 30
0.0
 11
435.83790408862671
 21
9.5463997870692765
 31
0.0
  0
LINE
  5
E80
  8
L1
 10
561.39385715969775
 20
9.2463997870692651
 30
0.0
 11
435.83790408862649
 21
9.2463997870692651
 31
0.0
  0
LINE
  5
E81
  8
L1
 10
435.83790408862671
 20
9.8466041129914288
 30
0.0
 11
558.49185715969759
 21
9.8463997870692879
 31
0.0
  0
LINE
  5
E82
  8
L1
 10
561.24806570634576
 20
37.015730714509743
 30
0.0
 11
435.8379040886266
 21
37.015730714510028
 31
0.0
  0
LINE
  5
E83
  8
L1
 10
435.8379040886266
 20
35.846399787069281
 30
0.0
 11
562.5879040886266
 21
35.846399787069281
 31
0.0
  0
LINE
  5
E84
  8
L1
 10
563.34597786520021
 20
35.046399787069276
 30
0.0
 11
435.8379040886266
 21
35.046399787069276
 31
0.0
  0
LINE
  5
E85
  8
L2
 10
312.25375739265638
 20
11.946399787069311
 30
0.0
 11
435.8379040886266
 21
11.94639978706925
 31
0.0
  0
LINE
  5
E86
  8
L2
 10
398.33790408862649
 20
9.5463997870692765
 30
0.0
 11
435.83790408862671
 21
9.5463997870693333
 31
0.0
  0
LINE
  5
E87
  8
L1
 10
398.3379040886266
 20
9.2463997870692651
 30
0.0
 11
435.83790408862671
 21
9.2463997870692651
 31
0.0
  0
LINE
  5
E88
  8
L1
 10
435.83790408862671
 20
9.8465208193359786
 30
0.0
 11
398.33790408862649
 21
9.8464583490944051
 31
0.0
  0
LINE
  5
E89
  8
L1
 10
398.3379040886266
 20
37.01573071450985
 30
0.0
 11
435.83790408862671
 21
37.015730714509907
 31
0.0
  0
LINE
  5
E8A
  8
L1
 10
435.83790408862671
 20
35.846399787069231
 30
0.0
 11
398.3379040886266
 21
35.846399787069281
 31
0.0
  0
LINE
  5
E8B
  8
L1
 10
398.3379040886266
 20
35.046399787069276
 30
0.0
 11
435.83790408862671
 21
35.046399787069276
 31
0.0
  0
LINE
  5
E8C
  8
L1
 10
309.6487672318176
 20
9.8795841385485801
 30
0.0
 11
308.3277424996744
 21
35.086237620443399
 31
0.0
  0
LINE
  5
E8D
  8
L1
 10
308.32983031205288
 20
35.046399787069276
 30
0.0
 11
373.3379040886266
 21
35.046399787069276
 31
0.0
  0
LINE
  5
E8E
  8
L1
 10
373.3379040886266
 20
35.846399787069281
 30
0.0
 11
309.0879040886266
 21
35.846399787069281
 31
0.0
  0
LINE
  5
E8F
  8
L1
 10
310.42774247090728
 20
37.015730714509743
 30
0.0
 11
373.3379040886266
 21
37.01573071450985
 31
0.0
  0
LINE
  5
E90
  8
L1
 10
309.0879040886266
 20
35.846399787069281
 30
0.0
 11
308.32774247090742
 21
35.086238169350111
 31
0.0
  0
POLYLINE
  5
E91
  8
L1
 66
     1
 10
0.0
 20
0.0
 30
0.0
  0
VERTEX
  5
17FD
  8
L1
 10
308.3277424996744
 20
35.086237620443342
 30
0.0
  0
VERTEX
  5
17FE
  8
L1
 10
308.32774247090742
 20
35.086238169350111
 30
0.0
  0
SEQEND
  5
17FF
  8
L1
  0
POLYLINE
  5
E92
  8
L1
 66
     1
 10
0.0
 20
0.0
 30
0.0
  0
VERTEX
  5
1800
  8
L1
 10
308.32774247090742
 20
35.086238169350111
 30
0.0
  0
VERTEX
  5
1801
  8
L1
 10
308.3277424996744
 20
35.086237620443342
 30
0.0
  0
SEQEND
  5
1802
  8
L1
  0
ARC
  5
E93
  8
L1
 10
310.42774247090728
 20
36.546399787069269
 30
0.0
 40
0.4693309274404737
 50
90.000000000000028
 51
169.99999999999841
  0
ARC
  5
E94
  8
L2
 10
310.42774247090728
 20
36.546399787069269
 30
0.0
 40
0.4693309274404737
 50
9.9999999999980691
 51
90.000000000000028
  0
LINE
  5
E95
  8
L1
 10
309.96554173483548
 20
36.627898247342102
 30
0.0
 11
309.82829897925552
 21
35.849555902747049
 31
0.0
  0
LINE
  5
E96
  8
L2
 10
311.02774247090741
 20
35.846399787069281
 30
0.0
 11
310.88994320697918
 21
36.627898247342038
 31
0.0
  0
LINE
  5
E97
  8
L2
 10
325.38790408862661
 20
35.846399787069281
 30
0.0
 11
326.01409034788782
 21
12.43331131291535
 31
0.0
  0
ARC
  5
E98
  8
L2
 10
326.51391901037562
 20
12.446399787069311
 30
0.0
 40
0.5
 50
181.50000000000111
 51
270.0
  0
LINE
  5
E99
  8
L1
 10
398.3379040886266
 20
35.046399787069276
 30
0.0
 11
373.3379040886266
 21
35.046399787069276
 31
0.0
  0
LINE
  5
E9A
  8
L1
 10
373.33790408862649
 20
35.846399787069281
 30
0.0
 11
398.3379040886266
 21
35.846399787069281
 31
0.0
  0
LINE
  5
E9B
  8
L1
 10
398.3379040886266
 20
37.01573071450985
 30
0.0
 11
373.33790408862649
 21
37.01573071450985
 31
0.0
  0
LINE
  5
E9C
  8
L2
 10
324.33790408862649
 20
9.7463997870692651
 30
0.0
 11
373.3379040886266
 21
9.7463997870692651
 31
0.0
  0
LINE
  5
E9D
  8
L1
 10
373.3379040886266
 20
9.8464999959221018
 30
0.0
 11
313.18395101755539
 21
9.8463997870692879
 31
0.0
  0
LINE
  5
E9E
  8
L1
 10
310.28195101755551
 20
9.2463997870692651
 30
0.0
 11
373.3379040886266
 21
9.2463997870692651
 31
0.0
  0
LINE
  5
E9F
  8
L1
 10
310.28195101755551
 20
9.2463997870692651
 30
0.0
 11
309.64876726310661
 21
9.8795835415181141
 31
0.0
  0
POLYLINE
  5
EA0
  8
L1
 66
     1
 10
0.0
 20
0.0
 30
0.0
  0
VERTEX
  5
1803
  8
L1
 10
313.1553034202658
 20
9.8465169588427557
 30
0.0
  0
VERTEX
  5
1804
  8
L1
 10
312.9953186908013
 20
9.8478366316282973
 30
0.0
  0
VERTEX
  5
1805
  8
L1
 10
312.8335376102217
 20
9.84919318677305
 30
0.0
  0
VERTEX
  5
1806
  8
L1
 10
312.67067923221339
 20
9.8505810695730247
 30
0.0
  0
VERTEX
  5
1807
  8
L1
 10
312.50746261046288
 20
9.8519947253242321
 30
0.0
  0
VERTEX
  5
1808
  8
L1
 10
312.33726193951622
 20
9.8534935173854024
 30
0.0
  0
VERTEX
  5
1809
  8
L1
 10
312.16820946604292
 20
9.8550067144066702
 30
0.0
  0
VERTEX
  5
180A
  8
L1
 10
312.00106061269082
 20
9.8565266046327338
 30
0.0
  0
VERTEX
  5
180B
  8
L1
 10
311.83657080210781
 20
9.8580454763082344
 30
0.0
  0
VERTEX
  5
180C
  8
L1
 10
311.67541053130873
 20
9.8595560552780057
 30
0.0
  0
VERTEX
  5
180D
  8
L1
 10
311.51817018315069
 20
9.861050773775446
 30
0.0
  0
VERTEX
  5
180E
  8
L1
 10
311.36548500904502
 20
9.8625214796281284
 30
0.0
  0
VERTEX
  5
180F
  8
L1
 10
311.21799026040247
 20
9.8639600206635691
 30
0.0
  0
VERTEX
  5
1810
  8
L1
 10
311.07629056138842
 20
9.8653582676549263
 30
0.0
  0
VERTEX
  5
1811
  8
L1
 10
310.94085979384982
 20
9.866708867977934
 30
0.0
  0
VERTEX
  5
1812
  8
L1
 10
310.81213709572188
 20
9.8680048343636031
 30
0.0
  0
VERTEX
  5
1813
  8
L1
 10
310.69056160493932
 20
9.8692391795433991
 30
0.0
  0
VERTEX
  5
1814
  8
L1
 10
310.57410548585727
 20
9.8704302788383416
 30
0.0
  0
VERTEX
  5
1815
  8
L1
 10
310.46201496025049
 20
9.8715837543991256
 30
0.0
  0
VERTEX
  5
1816
  8
L1
 10
310.35503072664602
 20
9.8726898937879355
 30
0.0
  0
VERTEX
  5
1817
  8
L1
 10
310.25389348357089
 20
9.8737389845670691
 30
0.0
  0
VERTEX
  5
1818
  8
L1
 10
310.15929126282469
 20
9.8747216653326291
 30
0.0
  0
VERTEX
  5
1819
  8
L1
 10
310.07171369383559
 20
9.8756305384206922
 30
0.0
  0
VERTEX
  5
181A
  8
L1
 10
309.9916038715736
 20
9.8764588370031561
 30
0.0
  0
VERTEX
  5
181B
  8
L1
 10
309.91940489100909
 20
9.8771997942519079
 30
0.0
  0
VERTEX
  5
181C
  8
L1
 10
309.85548240552919
 20
9.8778474821905888
 30
0.0
  0
VERTEX
  5
181D
  8
L1
 10
309.80000262707148
 20
9.8783986816068232
 30
0.0
  0
VERTEX
  5
181E
  8
L1
 10
309.75310948843179
 20
9.8788506888186571
 30
0.0
  0
VERTEX
  5
181F
  8
L1
 10
309.71494692240611
 20
9.8792008001439626
 30
0.0
  0
VERTEX
  5
1820
  8
L1
 10
309.68567846329478
 20
9.8794465284306057
 30
0.0
  0
VERTEX
  5
1821
  8
L1
 10
309.66503056314798
 20
9.8795906549734696
 30
0.0
  0
VERTEX
  5
1822
  8
L1
 10
309.65279591998308
 20
9.8796356887027628
 30
0.0
  0
VERTEX
  5
1823
  8
L1
 10
309.6487672318176
 20
9.8795841385485232
 30
0.0
  0
SEQEND
  5
1824
  8
L1
  0
LINE
  5
EA1
  8
L2
 10
324.33790408862649
 20
9.2497875421121876
 30
0.0
 11
324.33790408862649
 21
9.5463997870693333
 31
0.0
  0
LINE
  5
EA2
  8
L2
 10
324.33790408862649
 20
9.2463997870692651
 30
0.0
 11
324.33790408862649
 21
9.2497875421121876
 31
0.0
  0
LINE
  5
EA3
  8
L1
 10
373.3379040886266
 20
9.8464999959221018
 30
0.0
 11
398.3379040886266
 21
9.8464583490944051
 31
0.0
  0
LINE
  5
EA4
  8
L1
 10
398.3379040886266
 20
9.2463997870692651
 30
0.0
 11
373.33790408862649
 21
9.2463997870692651
 31
0.0
  0
LINE
  5
EA5
  8
L2
 10
398.3379040886266
 20
9.5463997870692765
 30
0.0
 11
373.3379040886266
 21
9.5463997870692765
 31
0.0
  0
LINE
  5
EA6
  8
L6
 10
435.8379040886266
 20
1.2463997870692649
 30
0.0
 11
435.8379040886266
 21
45.015730714509743
 31
0.0
  0
LINE
  5
EA7
  8
L1
 10
562.0270409454356
 20
9.8795841385485801
 30
0.0
 11
563.3480656775788
 21
35.086237620443399
 31
0.0
  0
LINE
  5
EA8
  8
L2
 10
546.28790408862665
 20
35.846399787069281
 30
0.0
 11
545.66171782936522
 21
12.43331131291535
 31
0.0
  0
ARC
  5
EA9
  8
L1
 10
561.24806570634576
 20
36.546399787069269
 30
0.0
 40
0.4693309274404737
 50
10.000000000001579
 51
90.000000000000028
  0
ARC
  5
EAA
  8
L2
 10
561.24806570634576
 20
36.546399787069269
 30
0.0
 40
0.4693309274404737
 50
90.000000000000028
 51
170.0000000000019
  0
LINE
  5
EAB
  8
L1
 10
561.71026644241761
 20
36.627898247342102
 30
0.0
 11
561.84750919799762
 21
35.849555902747049
 31
0.0
  0
LINE
  5
EAC
  8
L2
 10
560.64806570634573
 20
35.846399787069281
 30
0.0
 11
560.78586497027379
 21
36.627898247342038
 31
0.0
  0
POLYLINE
  5
EAD
  8
L1
 66
     1
 10
0.0
 20
0.0
 30
0.0
  0
VERTEX
  5
1825
  8
L1
 10
563.34806567757869
 20
35.086237620443342
 30
0.0
  0
VERTEX
  5
1826
  8
L1
 10
563.34806570634566
 20
35.086238169350111
 30
0.0
  0
SEQEND
  5
1827
  8
L1
  0
POLYLINE
  5
EAE
  8
L1
 66
     1
 10
0.0
 20
0.0
 30
0.0
  0
VERTEX
  5
1828
  8
L1
 10
563.34806570634566
 20
35.086238169350111
 30
0.0
  0
VERTEX
  5
1829
  8
L1
 10
563.34806567757869
 20
35.086237620443342
 30
0.0
  0
SEQEND
  5
182A
  8
L1
  0
LINE
  5
EAF
  8
L1
 10
562.5879040886266
 20
35.846399787069281
 30
0.0
 11
563.34806570634566
 21
35.086238169350111
 31
0.0
  0
ARC
  5
EB0
  8
L2
 10
545.16188916687747
 20
12.446399787069311
 30
0.0
 40
0.5
 50
270.0
 51
358.49999999999881
  0
LINE
  5
EB1
  8
L2
 10
547.3379040886266
 20
9.2497875421121876
 30
0.0
 11
547.3379040886266
 21
9.5463997870693333
 31
0.0
  0
LINE
  5
EB2
  8
L2
 10
547.3379040886266
 20
9.2463997870692651
 30
0.0
 11
547.3379040886266
 21
9.2497875421121876
 31
0.0
  0
LINE
  5
EB3
  8
L1
 10
561.39385715969775
 20
9.2463997870692651
 30
0.0
 11
562.02704091414648
 21
9.8795835415181141
 31
0.0
  0
POLYLINE
  5
EB4
  8
L1
 66
     1
 10
0.0
 20
0.0
 30
0.0
  0
VERTEX
  5
182B
  8
L1
 10
558.52050475698718
 20
9.8465169588427557
 30
0.0
  0
VERTEX
  5
182C
  8
L1
 10
558.68048948645196
 20
9.8478366316282973
 30
0.0
  0
VERTEX
  5
182D
  8
L1
 10
558.84227056703128
 20
9.84919318677305
 30
0.0
  0
VERTEX
  5
182E
  8
L1
 10
559.00512894503959
 20
9.8505810695730247
 30
0.0
  0
VERTEX
  5
182F
  8
L1
 10
559.16834556679032
 20
9.8519947253242321
 30
0.0
  0
VERTEX
  5
1830
  8
L1
 10
559.33854623773675
 20
9.8534935173854024
 30
0.0
  0
VERTEX
  5
1831
  8
L1
 10
559.50759871121022
 20
9.8550067144066702
 30
0.0
  0
VERTEX
  5
1832
  8
L1
 10
559.67474756456227
 20
9.8565266046327338
 30
0.0
  0
VERTEX
  5
1833
  8
L1
 10
559.83923737514533
 20
9.8580454763082344
 30
0.0
  0
VERTEX
  5
1834
  8
L1
 10
560.00039764594453
 20
9.8595560552780057
 30
0.0
  0
VERTEX
  5
1835
  8
L1
 10
560.1576379941024
 20
9.861050773775446
 30
0.0
  0
VERTEX
  5
1836
  8
L1
 10
560.31032316820824
 20
9.8625214796281284
 30
0.0
  0
VERTEX
  5
1837
  8
L1
 10
560.45781791685056
 20
9.8639600206635691
 30
0.0
  0
VERTEX
  5
1838
  8
L1
 10
560.59951761586467
 20
9.8653582676549263
 30
0.0
  0
VERTEX
  5
1839
  8
L1
 10
560.73494838340332
 20
9.866708867977934
 30
0.0
  0
VERTEX
  5
183A
  8
L1
 10
560.86367108153127
 20
9.8680048343636031
 30
0.0
  0
VERTEX
  5
183B
  8
L1
 10
560.98524657231383
 20
9.8692391795433991
 30
0.0
  0
VERTEX
  5
183C
  8
L1
 10
561.10170269139564
 20
9.8704302788383416
 30
0.0
  0
VERTEX
  5
183D
  8
L1
 10
561.2137932170026
 20
9.8715837543991256
 30
0.0
  0
VERTEX
  5
183E
  8
L1
 10
561.32077745060724
 20
9.8726898937879355
 30
0.0
  0
VERTEX
  5
183F
  8
L1
 10
561.42191469368231
 20
9.8737389845670691
 30
0.0
  0
VERTEX
  5
1840
  8
L1
 10
561.51651691442828
 20
9.8747216653326291
 30
0.0
  0
VERTEX
  5
1841
  8
L1
 10
561.60409448341761
 20
9.8756305384206922
 30
0.0
  0
VERTEX
  5
1842
  8
L1
 10
561.6842043056796
 20
9.8764588370031561
 30
0.0
  0
VERTEX
  5
1843
  8
L1
 10
561.75640328624388
 20
9.8771997942519079
 30
0.0
  0
VERTEX
  5
1844
  8
L1
 10
561.82032577172379
 20
9.8778474821905888
 30
0.0
  0
VERTEX
  5
1845
  8
L1
 10
561.87580555018167
 20
9.8783986816068232
 30
0.0
  0
VERTEX
  5
1846
  8
L1
 10
561.92269868882136
 20
9.8788506888186571
 30
0.0
  0
VERTEX
  5
1847
  8
L1
 10
561.96086125484703
 20
9.8792008001439626
 30
0.0
  0
VERTEX
  5
1848
  8
L1
 10
561.99012971395825
 20
9.8794465284306057
 30
0.0
  0
VERTEX
  5
1849
  8
L1
 10
562.010777614105
 20
9.8795906549734696
 30
0.0
  0
VERTEX
  5
184A
  8
L1
 10
562.0230122572699
 20
9.8796356887027628
 30
0.0
  0
VERTEX
  5
184B
  8
L1
 10
562.0270409454356
 20
9.8795841385485232
 30
0.0
  0
SEQEND
  5
184C
  8
L1
  0
LINE
  5
EB5
  8
L2
 10
629.92209517998208
 20
82.781700075345213
 30
0.0
 11
629.92209517998208
 21
167.04427252916349
 31
0.0
  0
LINE
  5
EB6
  8
L1
 10
632.62209517998201
 20
78.99848104704445
 30
0.0
 11
632.62209517998213
 21
167.04427252916349
 31
0.0
  0
LINE
  5
EB7
  8
L1
 10
632.0220951799821
 20
167.04427252916349
 30
0.0
 11
632.0220951799821
 21
78.398481047044541
 31
0.0
  0
LINE
  5
EB8
  8
L1
 10
606.82209517998217
 20
77.046360341542041
 30
0.0
 11
606.82209517998206
 21
167.04427252916349
 31
0.0
  0
LINE
  5
EB9
  8
L1
 10
606.0220951799821
 20
167.04427252916349
 30
0.0
 11
606.0220951799821
 21
77.804434118115594
 31
0.0
  0
LINE
  5
EBA
  8
L1
 10
604.85276425254153
 20
79.144272500396326
 30
0.0
 11
604.85276425254153
 21
167.04427252916349
 31
0.0
  0
LINE
  5
EBB
  8
L1
 10
631.98891082850275
 20
78.365297261306651
 30
0.0
 11
606.78225734660793
 21
77.04427252916345
 31
0.0
  0
LINE
  5
EBC
  8
L1
 10
632.62209517998213
 20
78.998481047044507
 30
0.0
 11
631.98891142553327
 21
78.36529729259577
 31
0.0
  0
ARC
  5
EBD
  8
L1
 10
605.32209517998206
 20
79.144272500396326
 30
0.0
 40
0.4693309274404737
 50
180.0
 51
259.99999999999841
  0
LINE
  5
EBE
  8
L1
 10
606.0220951799821
 20
77.804434118115651
 30
0.0
 11
606.78225679770117
 21
77.044272500396474
 31
0.0
  0
LINE
  5
EBF
  8
L1
 10
605.24059671970929
 20
78.682071764324647
 30
0.0
 11
606.01893906430416
 21
78.544829008744614
 31
0.0
  0
LINE
  5
EC0
  8
L2
 10
606.0220951799821
 20
94.104434118115606
 30
0.0
 11
629.43518365413604
 21
94.730620377376965
 31
0.0
  0
ARC
  5
EC1
  8
L2
 10
629.42209517998208
 20
95.230449039864709
 30
0.0
 40
0.5
 50
271.50000000000108
 51
0.000000000000007
  0
LINE
  5
EC2
  8
L2
 10
629.92209517998208
 20
251.3068449829818
 30
0.0
 11
629.92209517998208
 21
167.04427252916349
 31
0.0
  0
LINE
  5
EC3
  8
L1
 10
632.62209517998201
 20
255.09006401128261
 30
0.0
 11
632.62209517998213
 21
167.04427252916349
 31
0.0
  0
LINE
  5
EC4
  8
L1
 10
632.0220951799821
 20
167.04427252916349
 30
0.0
 11
632.0220951799821
 21
255.69006401128249
 31
0.0
  0
LINE
  5
EC5
  8
L1
 10
606.82209517998217
 20
257.04218471678502
 30
0.0
 11
606.82209517998206
 21
167.04427252916349
 31
0.0
  0
LINE
  5
EC6
  8
L1
 10
606.0220951799821
 20
167.04427252916349
 30
0.0
 11
606.0220951799821
 21
256.28411094021152
 31
0.0
  0
LINE
  5
EC7
  8
L1
 10
604.85276425254153
 20
254.9442725579307
 30
0.0
 11
604.85276425254153
 21
167.04427252916349
 31
0.0
  0
LINE
  5
EC8
  8
L6
 10
640.62209517998213
 20
167.04427252916349
 30
0.0
 11
596.85276425254165
 21
167.04427252916349
 31
0.0
  0
LINE
  5
EC9
  8
L2
 10
606.0220951799821
 20
239.98411094021151
 30
0.0
 11
629.43518365413604
 21
239.35792468095011
 31
0.0
  0
ARC
  5
ECA
  8
L2
 10
629.42209517998208
 20
238.85809601846231
 30
0.0
 40
0.5
 50
0.000000000000007
 51
88.499999999998863
  0
LINE
  5
ECB
  8
L1
 10
631.98891082850275
 20
255.72324779702041
 30
0.0
 11
606.78225734660793
 21
257.04427252916361
 31
0.0
  0
LINE
  5
ECC
  8
L1
 10
632.62209517998213
 20
255.09006401128261
 30
0.0
 11
631.98891142553327
 21
255.72324776573129
 31
0.0
  0
LINE
  5
ECD
  8
L1
 10
605.24059671970929
 20
255.40647329400241
 30
0.0
 11
606.01893906430416
 21
255.54371604958251
 31
0.0
  0
LINE
  5
ECE
  8
L1
 10
606.0220951799821
 20
256.28411094021141
 30
0.0
 11
606.78225679770117
 21
257.04427255793058
 31
0.0
  0
ARC
  5
ECF
  8
L1
 10
605.32209517998206
 20
254.9442725579307
 30
0.0
 40
0.4693309274404737
 50
100.00000000000151
 51
180.0
  0
ENDSEC
  0
EOF
