999
FreeCAD v1.0 39285 (Git)
  0
SECTION
  2
HEADER
  9
$ACADVER
  1
AC1014
  9
$ACADMAINTVER
 70
     9
  9
$DWGCODEPAGE
  3
ANSI_1252
  9
$TEXTSTYLE
  7
STANDARD
  9
$DIMSTYLE
  2
STANDARD
  9
$DIMTXSTY
  7
STANDARD
  9
$CMLSTYLE
  2
STANDARD
  9
$LUNITS
 70
2
  9
$INSUNITS
 70
4
  9
$PEXTMAX
 10
50
 20
50
 30
50
  9
$PEXTMIN
 10
0
 20
0
 30
0
  9
$HANDSEED
  5
FFFF
  0
ENDSEC
  0
SECTION
  2
CLASSES
  0
CLASS
  1
ACDBDICTIONARYWDFLT
  2
AcDbDictionaryWithDefault
  3
ObjectDBX Classes
 90
        0
280
     0
281
     0
  0
CLASS
  1
XRECORD
  2
AcDbXrecord
  3
ObjectDBX Classes
 90
        0
280
     0
281
     0
  0
CLASS
  1
LWPOLYLINE
  2
AcDbPolyline
  3
ObjectDBX Classes
 90
        0
280
     0
281
     1
  0
ENDSEC
  0
SECTION
  2
TABLES
  0
TABLE
  2
VPORT
  5
20
330
0
100
AcDbSymbolTable
 70
     1
  0
VPORT
  5
21
330
20
100
AcDbSymbolTableRecord
100
AcDbViewportTableRecord
  2
*ACTIVE
 70
     0
  0
ENDTAB
  0
TABLE
  2
LTYPE
  5
22
330
0
100
AcDbSymbolTable
 70
     1
  0
LTYPE
  5
23
330
21
100
AcDbSymbolTableRecord
100
AcDbLinetypeTableRecord
  2
BYBLOCK
 70
     0
  3

 72
    65
 73
     0
 40
0.0
  0
LTYPE
  5
24
330
21
100
AcDbSymbolTableRecord
100
AcDbLinetypeTableRecord
  2
BYLAYER
 70
     0
  3

 72
    65
 73
     0
 40
0.0
  0
LTYPE
  5
25
330
21
100
AcDbSymbolTableRecord
100
AcDbLinetypeTableRecord
  2
CONTINUOUS
 70
     0
  3
Solid line
 72
    65
 73
     0
 40
0.0
  0
ENDTAB
  0
TABLE
  2
LAYER
  5
A31
330
0
100
AcDbSymbolTable
 70
2
  0
LAYER
  5
A32
330
A31
100
AcDbSymbolTableRecord
100
AcDbLayerTableRecord
  2
0
 70
   0
 62
   7
  6
CONTINUOUS
  0
LAYER
  5
A33
330
A31
100
AcDbSymbolTableRecord
100
AcDbLayerTableRecord
  2
View
 70
    0
 62
    7
  6
CONTINUOUS
  0
ENDTAB
  0
TABLE
  2
STYLE
  5
70
330
0
100
AcDbSymbolTable
 70
     2
  0
STYLE
  5
71
330
70
100
AcDbSymbolTableRecord
100
AcDbTextStyleTableRecord
  2
STANDARD
 70
     0
 40
0.0
 41
1.0
 50
0.0
 71
     0
 42
2.5
  3
arial.ttf
  4

  0
STYLE
  5
72
330
70
100
AcDbSymbolTableRecord
100
AcDbTextStyleTableRecord
  2
ANNOTATIVE
 70
     0
 40
0.0
 41
1.0
 50
0.0
 71
     0
 42
2.5
  3
arial.ttf
  4

  0
ENDTAB
  0
TABLE
  2
VIEW
  5
73
330
0
100
AcDbSymbolTable
 70
     0
  0
ENDTAB
  0
TABLE
  2
UCS
  5
74
330
0
100
AcDbSymbolTable
 70
     0
  0
ENDTAB
  0
TABLE
  2
APPID
  5
75
330
0
100
AcDbSymbolTable
 70
     2
  0
APPID
  5
76
330
75
100
AcDbSymbolTableRecord
100
AcDbRegAppTableRecord
  2
ACAD
 70
     0
  0
APPID
  5
77
330
75
100
AcDbSymbolTableRecord
100
AcDbRegAppTableRecord
  2
ACADANNOTATIVE
 70
     0
  0
ENDTAB
  0
TABLE
  2
DIMSTYLE
  5
78
330
0
100
AcDbSymbolTable
 70
     2
  0
DIMSTYLE
105
79
330
78
100
AcDbSymbolTableRecord
100
AcDbDimStyleTableRecord
  2
STANDARD
 70
     0
  3

  4

  5

  6

  7

 40
0.0
 41
2.5
 42
0.625
 43
3.75
 44
1.25
 45
0.0
 46
0.0
 47
0.0
 48
0.0
140
2.5
141
2.5
142
0.0
143
0.03937007874016
144
1.0
145
0.0
146
1.0
147
0.625
 71
     0
 72
     0
 73
     0
 74
     0
 75
     0
 76
     0
 77
     1
 78
     8
170
     0
171
     3
172
     1
173
     0
174
     0
175
     0
176
     0
177
     0
178
     0
270
     2
271
     2
272
     2
273
     2
274
     3
340
71
275
     0
280
     0
281
     0
282
     0
283
     0
284
     8
285
     0
286
     0
287
     3
288
     0
  0
ENDTAB
  0
TABLE
  2
BLOCK_RECORD
  5
A01
330
0
100
AcDbSymbolTable
  70
5
  0
BLOCK_RECORD
  5
A02
330
A01
100
AcDbSymbolTableRecord
100
AcDbBlockTableRecord
  2
*MODEL_SPACE
  0
BLOCK_RECORD
  5
A03
330
A01
100
AcDbSymbolTableRecord
100
AcDbBlockTableRecord
  2
*PAPER_SPACE
  0
ENDTAB
  0
ENDSEC
  0
SECTION
  2
BLOCKS
  0
BLOCK
  5
A04
330
A02
100
AcDbEntity
  8
0
100
AcDbBlockBegin
  2
*MODEL_SPACE
 70
   0
 10
0
 20
0
 30
0
  3
*MODEL_SPACE
  1
 
  0
ENDBLK
  5
A05
330
A02
100
AcDbEntity
  8
0
100
AcDbBlockEnd
  0
BLOCK
  5
A06
330
A03
100
AcDbEntity
 67
1
  8
0
100
AcDbBlockBegin
  2
*PAPER_SPACE
 70
   0
 10
0
 20
0
 30
0
  3
*PAPER_SPACE
  1
 
  0
ENDBLK
  5
A07
330
A03
100
AcDbEntity
 67
    1
  8
0
100
AcDbBlockEnd
  0
ENDSEC
  0
SECTION
  2
ENTITIES
  0
SPLINE
  5
A08
330
A02
100
AcDbEntity
  8
View
100
AcDbSpline
210
0
220
0
230
1
 70
8
 71
2
 72
30
 73
27
 74
0
 40
0.000000000
 40
0.000000000
 40
0.000000000
 40
0.112199738
 40
0.112199738
 40
0.224399475
 40
0.224399475
 40
0.336599213
 40
0.336599213
 40
0.448798951
 40
0.448798951
 40
0.560998688
 40
0.560998688
 40
0.673198426
 40
0.673198426
 40
0.785398163
 40
0.785398163
 40
0.897597901
 40
0.897597901
 40
1.009797639
 40
1.009797639
 40
1.121997376
 40
1.121997376
 40
1.234197114
 40
1.234197114
 40
1.346396852
 40
1.346396852
 40
1.570796327
 40
1.570796327
 40
1.570796327
 10
20.690493149
 20
129.740493149
 30
0.000000000
 10
20.701496782
 20
129.740493149
 30
0.000000000
 10
20.712500415
 20
129.740493149
 30
0.000000000
 10
20.745372936
 20
129.740493149
 30
0.000000000
 10
20.778245457
 20
129.740493149
 30
0.000000000
 10
20.832573475
 20
129.740493149
 30
0.000000000
 10
20.886901493
 20
129.740493149
 30
0.000000000
 10
20.962001803
 20
129.740493149
 30
0.000000000
 10
21.037102112
 20
129.740493149
 30
0.000000000
 10
21.132030282
 20
129.740493149
 30
0.000000000
 10
21.226958452
 20
129.740493149
 30
0.000000000
 10
21.340520707
 20
129.740493149
 30
0.000000000
 10
21.454082961
 20
129.740493149
 30
0.000000000
 10
21.584851188
 20
129.740493149
 30
0.000000000
 10
21.715619415
 20
129.740493149
 30
0.000000000
 10
21.861949129
 20
129.740493149
 30
0.000000000
 10
22.008278843
 20
129.740493149
 30
0.000000000
 10
22.168329862
 20
129.740493149
 30
0.000000000
 10
22.328380882
 20
129.740493149
 30
0.000000000
 10
22.500140472
 20
129.740493149
 30
0.000000000
 10
22.671900063
 20
129.740493149
 30
0.000000000
 10
22.853208248
 20
129.740493149
 30
0.000000000
 10
23.034516433
 20
129.740493149
 30
0.000000000
 10
23.223093157
 20
129.740493149
 30
0.000000000
 10
23.411669881
 20
129.740493149
 30
0.000000000
 10
23.797235562
 20
129.740493149
 30
0.000000000
 10
24.190493149
 20
129.740493149
 30
0.000000000
  0
LINE
  5
A09
330
A02
100
AcDbEntity
  8
View
100
AcDbLine
 10
24.190493149
 20
129.740493149
 30
0.000000000
 11
272.290493149
 21
129.740493149
 31
0.000000000
  0
SPLINE
  5
A0A
330
A02
100
AcDbEntity
  8
View
100
AcDbSpline
210
0
220
0
230
1
 70
8
 71
1
 72
17
 73
15
 74
0
 40
1.570796327
 40
1.570796327
 40
1.682996064
 40
1.795195802
 40
1.907395540
 40
2.019595277
 40
2.131795015
 40
2.243994753
 40
2.356194490
 40
2.468394228
 40
2.580593965
 40
2.692793703
 40
2.804993441
 40
2.917193178
 40
3.029392916
 40
3.141592654
 40
3.141592654
 10
272.290493149
 20
129.740493149
 30
0.000000000
 10
272.682368816
 20
129.740493149
 30
0.000000000
 10
273.069316418
 20
129.740493149
 30
0.000000000
 10
273.446469866
 20
129.740493149
 30
0.000000000
 10
273.809086236
 20
129.740493149
 30
0.000000000
 10
274.152605417
 20
129.740493149
 30
0.000000000
 10
274.472707456
 20
129.740493149
 30
0.000000000
 10
274.765366884
 20
129.740493149
 30
0.000000000
 10
275.026903338
 20
129.740493149
 30
0.000000000
 10
275.254027847
 20
129.740493149
 30
0.000000000
 10
275.443884187
 20
129.740493149
 30
0.000000000
 10
275.594084806
 20
129.740493149
 30
0.000000000
 10
275.702740842
 20
129.740493149
 30
0.000000000
 10
275.768485884
 20
129.740493149
 30
0.000000000
 10
275.790493149
 20
129.740493149
 30
0.000000000
  0
SPLINE
  5
A0B
330
A02
100
AcDbEntity
  8
View
100
AcDbSpline
210
0
220
0
230
1
 70
9
 71
1
 72
17
 73
15
 74
0
 40
3.141592654
 40
3.141592654
 40
3.590391604
 40
4.039190555
 40
4.487989505
 40
4.936788456
 40
5.385587406
 40
5.834386357
 40
6.283185307
 40
6.731984258
 40
7.180783208
 40
7.629582159
 40
8.078381109
 40
8.527180060
 40
8.975979010
 40
9.424777961
 40
9.424777961
 10
63.072768149
 20
111.234102149
 30
0.000000000
 10
61.315539006
 20
110.833026064
 30
0.000000000
 10
59.906350645
 20
109.709235847
 30
0.000000000
 10
59.124310105
 20
108.085311932
 30
0.000000000
 10
59.124310105
 20
106.282892367
 30
0.000000000
 10
59.906350645
 20
104.658968452
 30
0.000000000
 10
61.315539006
 20
103.535178234
 30
0.000000000
 10
63.072768149
 20
103.134102149
 30
0.000000000
 10
64.829997293
 20
103.535178234
 30
0.000000000
 10
66.239185653
 20
104.658968452
 30
0.000000000
 10
67.021226194
 20
106.282892367
 30
0.000000000
 10
67.021226194
 20
108.085311932
 30
0.000000000
 10
66.239185653
 20
109.709235847
 30
0.000000000
 10
64.829997293
 20
110.833026064
 30
0.000000000
 10
63.072768149
 20
111.234102149
 30
0.000000000
  0
SPLINE
  5
A0C
330
A02
100
AcDbEntity
  8
View
100
AcDbSpline
210
0
220
0
230
1
 70
9
 71
1
 72
17
 73
15
 74
0
 40
3.141592654
 40
3.141592654
 40
3.590391604
 40
4.039190555
 40
4.487989505
 40
4.936788456
 40
5.385587406
 40
5.834386357
 40
6.283185307
 40
6.731984258
 40
7.180783208
 40
7.629582159
 40
8.078381109
 40
8.527180060
 40
8.975979010
 40
9.424777961
 40
9.424777961
 10
98.046516149
 20
119.861098149
 30
0.000000000
 10
92.384333354
 20
118.568741876
 30
0.000000000
 10
87.843615303
 20
114.947640064
 30
0.000000000
 10
85.323706896
 20
109.714996338
 30
0.000000000
 10
85.323706896
 20
103.907199961
 30
0.000000000
 10
87.843615303
 20
98.674556235
 30
0.000000000
 10
92.384333354
 20
95.053454423
 30
0.000000000
 10
98.046516149
 20
93.761098149
 30
0.000000000
 10
103.708698945
 20
95.053454423
 30
0.000000000
 10
108.249416996
 20
98.674556235
 30
0.000000000
 10
110.769325403
 20
103.907199961
 30
0.000000000
 10
110.769325403
 20
109.714996338
 30
0.000000000
 10
108.249416996
 20
114.947640064
 30
0.000000000
 10
103.708698945
 20
118.568741876
 30
0.000000000
 10
98.046516149
 20
119.861098149
 30
0.000000000
  0
SPLINE
  5
A0D
330
A02
100
AcDbEntity
  8
View
100
AcDbSpline
210
0
220
0
230
1
 70
9
 71
1
 72
17
 73
15
 74
0
 40
3.141592654
 40
3.141592654
 40
3.590391604
 40
4.039190555
 40
4.487989505
 40
4.936788456
 40
5.385587406
 40
5.834386357
 40
6.283185307
 40
6.731984258
 40
7.180783208
 40
7.629582159
 40
8.078381109
 40
8.527180060
 40
8.975979010
 40
9.424777961
 40
9.424777961
 10
136.241816149
 20
117.610235149
 30
0.000000000
 10
131.729425263
 20
116.580311376
 30
0.000000000
 10
128.110768732
 20
113.694529089
 30
0.000000000
 10
126.102565863
 20
109.524452863
 30
0.000000000
 10
126.102565863
 20
104.896017436
 30
0.000000000
 10
128.110768732
 20
100.725941210
 30
0.000000000
 10
131.729425263
 20
97.840158923
 30
0.000000000
 10
136.241816149
 20
96.810235149
 30
0.000000000
 10
140.754207036
 20
97.840158923
 30
0.000000000
 10
144.372863567
 20
100.725941210
 30
0.000000000
 10
146.381066436
 20
104.896017436
 30
0.000000000
 10
146.381066436
 20
109.524452863
 30
0.000000000
 10
144.372863567
 20
113.694529089
 30
0.000000000
 10
140.754207036
 20
116.580311376
 30
0.000000000
 10
136.241816149
 20
117.610235149
 30
0.000000000
  0
SPLINE
  5
A0E
330
A02
100
AcDbEntity
  8
View
100
AcDbSpline
210
0
220
0
230
1
 70
9
 71
1
 72
17
 73
15
 74
0
 40
3.141592654
 40
3.141592654
 40
3.590391604
 40
4.039190555
 40
4.487989505
 40
4.936788456
 40
5.385587406
 40
5.834386357
 40
6.283185307
 40
6.731984258
 40
7.180783208
 40
7.629582159
 40
8.078381109
 40
8.527180060
 40
8.975979010
 40
9.424777961
 40
9.424777961
 10
171.647167149
 20
117.610235149
 30
0.000000000
 10
167.134776263
 20
116.580311376
 30
0.000000000
 10
163.516119732
 20
113.694529089
 30
0.000000000
 10
161.507916863
 20
109.524452863
 30
0.000000000
 10
161.507916863
 20
104.896017436
 30
0.000000000
 10
163.516119732
 20
100.725941210
 30
0.000000000
 10
167.134776263
 20
97.840158923
 30
0.000000000
 10
171.647167149
 20
96.810235149
 30
0.000000000
 10
176.159558036
 20
97.840158923
 30
0.000000000
 10
179.778214567
 20
100.725941210
 30
0.000000000
 10
181.786417436
 20
104.896017436
 30
0.000000000
 10
181.786417436
 20
109.524452863
 30
0.000000000
 10
179.778214567
 20
113.694529089
 30
0.000000000
 10
176.159558036
 20
116.580311376
 30
0.000000000
 10
171.647167149
 20
117.610235149
 30
0.000000000
  0
SPLINE
  5
A0F
330
A02
100
AcDbEntity
  8
View
100
AcDbSpline
210
0
220
0
230
1
 70
9
 71
1
 72
17
 73
15
 74
0
 40
3.141592654
 40
3.141592654
 40
3.590391604
 40
4.039190555
 40
4.487989505
 40
4.936788456
 40
5.385587406
 40
5.834386357
 40
6.283185307
 40
6.731984258
 40
7.180783208
 40
7.629582159
 40
8.078381109
 40
8.527180060
 40
8.975979010
 40
9.424777961
 40
9.424777961
 10
207.052518149
 20
117.610235149
 30
0.000000000
 10
202.540127263
 20
116.580311376
 30
0.000000000
 10
198.921470732
 20
113.694529089
 30
0.000000000
 10
196.913267863
 20
109.524452863
 30
0.000000000
 10
196.913267863
 20
104.896017436
 30
0.000000000
 10
198.921470732
 20
100.725941210
 30
0.000000000
 10
202.540127263
 20
97.840158923
 30
0.000000000
 10
207.052518149
 20
96.810235149
 30
0.000000000
 10
211.564909036
 20
97.840158923
 30
0.000000000
 10
215.183565567
 20
100.725941210
 30
0.000000000
 10
217.191768436
 20
104.896017436
 30
0.000000000
 10
217.191768436
 20
109.524452863
 30
0.000000000
 10
215.183565567
 20
113.694529089
 30
0.000000000
 10
211.564909036
 20
116.580311376
 30
0.000000000
 10
207.052518149
 20
117.610235149
 30
0.000000000
  0
SPLINE
  5
A10
330
A02
100
AcDbEntity
  8
View
100
AcDbSpline
210
0
220
0
230
1
 70
9
 71
1
 72
17
 73
15
 74
0
 40
3.141592654
 40
3.141592654
 40
3.590391604
 40
4.039190555
 40
4.487989505
 40
4.936788456
 40
5.385587406
 40
5.834386357
 40
6.283185307
 40
6.731984258
 40
7.180783208
 40
7.629582159
 40
8.078381109
 40
8.527180060
 40
8.975979010
 40
9.424777961
 40
9.424777961
 10
242.457869149
 20
117.610235149
 30
0.000000000
 10
237.945478263
 20
116.580311376
 30
0.000000000
 10
234.326821732
 20
113.694529089
 30
0.000000000
 10
232.318618863
 20
109.524452863
 30
0.000000000
 10
232.318618863
 20
104.896017436
 30
0.000000000
 10
234.326821732
 20
100.725941210
 30
0.000000000
 10
237.945478263
 20
97.840158923
 30
0.000000000
 10
242.457869149
 20
96.810235149
 30
0.000000000
 10
246.970260036
 20
97.840158923
 30
0.000000000
 10
250.588916567
 20
100.725941210
 30
0.000000000
 10
252.597119436
 20
104.896017436
 30
0.000000000
 10
252.597119436
 20
109.524452863
 30
0.000000000
 10
250.588916567
 20
113.694529089
 30
0.000000000
 10
246.970260036
 20
116.580311376
 30
0.000000000
 10
242.457869149
 20
117.610235149
 30
0.000000000
  0
LINE
  5
A11
330
A02
100
AcDbEntity
  8
View
100
AcDbLine
 10
20.725400621
 20
125.740493149
 30
0.000000000
 11
20.690493149
 21
129.740493149
 31
0.000000000
  0
SPLINE
  5
A12
330
A02
100
AcDbEntity
  8
View
100
AcDbSpline
210
0
220
0
230
1
 70
8
 71
2
 72
30
 73
27
 74
0
 40
0.000000000
 40
0.000000000
 40
0.000000000
 40
0.112199738
 40
0.112199738
 40
0.224399475
 40
0.224399475
 40
0.336599213
 40
0.336599213
 40
0.448798951
 40
0.448798951
 40
0.560998688
 40
0.560998688
 40
0.673198426
 40
0.673198426
 40
0.785398163
 40
0.785398163
 40
0.897597901
 40
0.897597901
 40
1.009797639
 40
1.009797639
 40
1.121997376
 40
1.121997376
 40
1.234197114
 40
1.234197114
 40
1.346396852
 40
1.346396852
 40
1.570796327
 40
1.570796327
 40
1.570796327
 10
20.725400621
 20
125.740493149
 30
0.000000000
 10
20.736294508
 20
125.740493149
 30
0.000000000
 10
20.747188395
 20
125.740493149
 30
0.000000000
 10
20.779733060
 20
125.740493149
 30
0.000000000
 10
20.812277725
 20
125.740493149
 30
0.000000000
 10
20.866063899
 20
125.740493149
 30
0.000000000
 10
20.919850074
 20
125.740493149
 30
0.000000000
 10
20.994201365
 20
125.740493149
 30
0.000000000
 10
21.068552657
 20
125.740493149
 30
0.000000000
 10
21.162534055
 20
125.740493149
 30
0.000000000
 10
21.256515453
 20
125.740493149
 30
0.000000000
 10
21.368945087
 20
125.740493149
 30
0.000000000
 10
21.481374721
 20
125.740493149
 30
0.000000000
 10
21.610838723
 20
125.740493149
 30
0.000000000
 10
21.740302725
 20
125.740493149
 30
0.000000000
 10
21.885173010
 20
125.740493149
 30
0.000000000
 10
22.030043295
 20
125.740493149
 30
0.000000000
 10
22.188498036
 20
125.740493149
 30
0.000000000
 10
22.346952776
 20
125.740493149
 30
0.000000000
 10
22.516999311
 20
125.740493149
 30
0.000000000
 10
22.687045847
 20
125.740493149
 30
0.000000000
 10
22.866545743
 20
125.740493149
 30
0.000000000
 10
23.046045639
 20
125.740493149
 30
0.000000000
 10
23.232741582
 20
125.740493149
 30
0.000000000
 10
23.419437524
 20
125.740493149
 30
0.000000000
 10
23.801157741
 20
125.740493149
 30
0.000000000
 10
24.190493149
 20
125.740493149
 30
0.000000000
  0
LINE
  5
A13
330
A02
100
AcDbEntity
  8
View
100
AcDbLine
 10
261.273191725
 20
123.757946220
 30
0.000000000
 11
260.897784099
 21
80.740493149
 31
0.000000000
  0
SPLINE
  5
A14
330
A02
100
AcDbEntity
  8
View
100
AcDbSpline
210
0
220
0
230
1
 70
8
 71
3
 72
17
 73
13
 74
0
 40
4.721115627
 40
4.721115627
 40
4.721115627
 40
4.721115627
 40
5.111633047
 40
5.111633047
 40
5.111633047
 40
5.502150467
 40
5.502150467
 40
5.502150467
 40
5.892667887
 40
5.892667887
 40
5.892667887
 40
6.283185307
 40
6.283185307
 40
6.283185307
 40
6.283185307
 10
261.273191725
 20
123.757946220
 30
0.000000000
 10
261.274957151
 20
123.992334619
 30
0.000000000
 10
261.319684054
 20
124.244959151
 30
0.000000000
 10
261.418597435
 20
124.489333910
 30
0.000000000
 10
261.516700391
 20
124.733565390
 30
0.000000000
 10
261.669720225
 20
124.967828163
 30
0.000000000
 10
261.865086122
 20
125.160863901
 30
0.000000000
 10
262.059819376
 20
125.354537826
 30
0.000000000
 10
262.295408563
 20
125.505507530
 30
0.000000000
 10
262.540486842
 20
125.601475456
 30
0.000000000
 10
262.785715467
 20
125.698252525
 30
0.000000000
 10
263.038720691
 20
125.740773189
 30
0.000000000
 10
263.273115571
 20
125.740493149
 30
0.000000000
  0
LINE
  5
A15
330
A02
100
AcDbEntity
  8
View
100
AcDbLine
 10
35.583202200
 20
80.740493149
 30
0.000000000
 11
260.897784099
 21
80.740493149
 31
0.000000000
  0
LINE
  5
A16
330
A02
100
AcDbEntity
  8
View
100
AcDbLine
 10
263.273115571
 20
125.740493149
 30
0.000000000
 11
272.290493149
 21
125.740493149
 31
0.000000000
  0
LINE
  5
A17
330
A02
100
AcDbEntity
  8
View
100
AcDbLine
 10
35.583202200
 20
80.740493149
 30
0.000000000
 11
35.207794574
 21
123.757946220
 31
0.000000000
  0
SPLINE
  5
A18
330
A02
100
AcDbEntity
  8
View
100
AcDbSpline
210
0
220
0
230
1
 70
8
 71
3
 72
17
 73
13
 74
0
 40
3.141592654
 40
3.141592654
 40
3.141592654
 40
3.141592654
 40
3.532110074
 40
3.532110074
 40
3.532110074
 40
3.922627494
 40
3.922627494
 40
3.922627494
 40
4.313144914
 40
4.313144914
 40
4.313144914
 40
4.703662334
 40
4.703662334
 40
4.703662334
 40
4.703662334
 10
33.207870728
 20
125.740493149
 30
0.000000000
 10
33.442265608
 20
125.740773189
 30
0.000000000
 10
33.695270832
 20
125.698252525
 30
0.000000000
 10
33.940499457
 20
125.601475456
 30
0.000000000
 10
34.185577736
 20
125.505507530
 30
0.000000000
 10
34.421166923
 20
125.354537826
 30
0.000000000
 10
34.615900177
 20
125.160863901
 30
0.000000000
 10
34.811266074
 20
124.967828163
 30
0.000000000
 10
34.964285908
 20
124.733565390
 30
0.000000000
 10
35.062388864
 20
124.489333910
 30
0.000000000
 10
35.161302244
 20
124.244959151
 30
0.000000000
 10
35.206029148
 20
123.992334619
 30
0.000000000
 10
35.207794574
 20
123.757946220
 30
0.000000000
  0
LINE
  5
A19
330
A02
100
AcDbEntity
  8
View
100
AcDbLine
 10
24.190493149
 20
125.740493149
 30
0.000000000
 11
33.207870728
 21
125.740493149
 31
0.000000000
  0
SPLINE
  5
A1A
330
A02
100
AcDbEntity
  8
View
100
AcDbSpline
210
0
220
0
230
1
 70
8
 71
1
 72
17
 73
15
 74
0
 40
1.570796327
 40
1.570796327
 40
1.682996064
 40
1.795195802
 40
1.907395540
 40
2.019595277
 40
2.131795015
 40
2.243994753
 40
2.356194490
 40
2.468394228
 40
2.580593965
 40
2.692793703
 40
2.804993441
 40
2.917193178
 40
3.029392916
 40
3.141592654
 40
3.141592654
 10
272.290493149
 20
125.740493149
 30
0.000000000
 10
272.678460419
 20
125.740493149
 30
0.000000000
 10
273.061548775
 20
125.740493149
 30
0.000000000
 10
273.434940660
 20
125.740493149
 30
0.000000000
 10
273.793940452
 20
125.740493149
 30
0.000000000
 10
274.134033523
 20
125.740493149
 30
0.000000000
 10
274.450943004
 20
125.740493149
 30
0.000000000
 10
274.740683574
 20
125.740493149
 30
0.000000000
 10
274.999611578
 20
125.740493149
 30
0.000000000
 10
275.224470846
 20
125.740493149
 30
0.000000000
 10
275.412433642
 20
125.740493149
 30
0.000000000
 10
275.561136225
 20
125.740493149
 30
0.000000000
 10
275.668708574
 20
125.740493149
 30
0.000000000
 10
275.733797904
 20
125.740493149
 30
0.000000000
 10
275.755585678
 20
125.740493149
 30
0.000000000
  0
LINE
  5
A1B
330
A02
100
AcDbEntity
  8
View
100
AcDbLine
 10
275.755585678
 20
125.740493149
 30
0.000000000
 11
275.790493149
 21
129.740493149
 31
0.000000000
  0
SPLINE
  5
A1C
330
A02
100
AcDbEntity
  8
View
100
AcDbSpline
210
0
220
0
230
1
 70
8
 71
3
 72
14
 73
10
 74
0
 40
3.141592654
 40
3.141592654
 40
3.141592654
 40
3.141592654
 40
3.532110074
 40
3.532110074
 40
3.532110074
 40
3.922627494
 40
3.922627494
 40
3.922627494
 40
4.703662334
 40
4.703662334
 40
4.703662334
 40
4.703662334
 10
275.755585678
 20
125.740493149
 30
0.000000000
 10
275.755604784
 20
125.742682473
 30
0.000000000
 10
275.755200388
 20
125.696343242
 30
0.000000000
 10
275.754372489
 20
125.601475456
 30
0.000000000
 10
275.753517103
 20
125.503457937
 30
0.000000000
 10
275.752235384
 20
125.356587419
 30
0.000000000
 10
275.750527331
 20
125.160863901
 30
0.000000000
 10
275.747152271
 20
124.774120417
 30
0.000000000
 10
275.742359966
 20
124.224976675
 30
0.000000000
 10
275.738284253
 20
123.757946220
 30
0.000000000
  0
LINE
  5
A1D
330
A02
100
AcDbEntity
  8
View
100
AcDbLine
 10
275.362876628
 20
80.740493149
 30
0.000000000
 11
275.738284253
 21
123.757946220
 31
0.000000000
  0
LINE
  5
A1E
330
A02
100
AcDbEntity
  8
View
100
AcDbLine
 10
20.742702046
 20
123.757946220
 30
0.000000000
 11
21.118109671
 21
80.740493149
 31
0.000000000
  0
SPLINE
  5
A1F
330
A02
100
AcDbEntity
  8
View
100
AcDbSpline
210
0
220
0
230
1
 70
8
 71
3
 72
14
 73
10
 74
0
 40
4.721115627
 40
4.721115627
 40
4.721115627
 40
4.721115627
 40
5.502150467
 40
5.502150467
 40
5.502150467
 40
5.892667887
 40
5.892667887
 40
5.892667887
 40
6.283185307
 40
6.283185307
 40
6.283185307
 40
6.283185307
 10
20.742702046
 20
123.757946220
 30
0.000000000
 10
20.738626333
 20
124.224976675
 30
0.000000000
 10
20.733834028
 20
124.774120417
 30
0.000000000
 10
20.730458968
 20
125.160863901
 30
0.000000000
 10
20.728750915
 20
125.356587419
 30
0.000000000
 10
20.727469196
 20
125.503457937
 30
0.000000000
 10
20.726613810
 20
125.601475456
 30
0.000000000
 10
20.725785911
 20
125.696343242
 30
0.000000000
 10
20.725381515
 20
125.742682473
 30
0.000000000
 10
20.725400621
 20
125.740493149
 30
0.000000000
  0
LINE
  5
A20
330
A02
100
AcDbEntity
  8
View
100
AcDbLine
 10
274.697784099
 20
80.740493149
 30
0.000000000
 11
275.362876628
 21
80.740493149
 31
0.000000000
  0
LINE
  5
A21
330
A02
100
AcDbEntity
  8
View
100
AcDbLine
 10
21.783202200
 20
80.740493149
 30
0.000000000
 11
21.118109671
 21
80.740493149
 31
0.000000000
  0
LINE
  5
A22
330
A02
100
AcDbEntity
  8
View
100
AcDbLine
 10
21.791929068
 20
79.740493149
 30
0.000000000
 11
21.390493149
 21
125.740493149
 31
0.000000000
  0
SPLINE
  5
A23
330
A02
100
AcDbEntity
  8
View
100
AcDbSpline
210
0
220
0
230
1
 70
8
 71
2
 72
30
 73
27
 74
0
 40
4.712388980
 40
4.712388980
 40
4.712388980
 40
4.824588718
 40
4.824588718
 40
5.048988193
 40
5.048988193
 40
5.161187931
 40
5.161187931
 40
5.273387669
 40
5.273387669
 40
5.385587406
 40
5.385587406
 40
5.497787144
 40
5.497787144
 40
5.609986881
 40
5.609986881
 40
5.722186619
 40
5.722186619
 40
5.834386357
 40
5.834386357
 40
5.946586094
 40
5.946586094
 40
6.058785832
 40
6.058785832
 40
6.170985570
 40
6.170985570
 40
6.283185307
 40
6.283185307
 40
6.283185307
 10
24.190493149
 20
79.740493149
 30
0.000000000
 10
24.056216164
 20
79.740493149
 30
0.000000000
 10
23.921939179
 20
79.740493149
 30
0.000000000
 10
23.654880267
 20
79.740493149
 30
0.000000000
 10
23.398297655
 20
79.740493149
 30
0.000000000
 10
23.274046426
 20
79.740493149
 30
0.000000000
 10
23.149795197
 20
79.740493149
 30
0.000000000
 10
23.032087659
 20
79.740493149
 30
0.000000000
 10
22.914380120
 20
79.740493149
 30
0.000000000
 10
22.804696513
 20
79.740493149
 30
0.000000000
 10
22.695012905
 20
79.740493149
 30
0.000000000
 10
22.594732564
 20
79.740493149
 30
0.000000000
 10
22.494452222
 20
79.740493149
 30
0.000000000
 10
22.404836230
 20
79.740493149
 30
0.000000000
 10
22.315220238
 20
79.740493149
 30
0.000000000
 10
22.237395568
 20
79.740493149
 30
0.000000000
 10
22.159570898
 20
79.740493149
 30
0.000000000
 10
22.094516241
 20
79.740493149
 30
0.000000000
 10
22.029461584
 20
79.740493149
 30
0.000000000
 10
21.977995040
 20
79.740493149
 30
0.000000000
 10
21.926528496
 20
79.740493149
 30
0.000000000
 10
21.889297287
 20
79.740493149
 30
0.000000000
 10
21.852066077
 20
79.740493149
 30
0.000000000
 10
21.829538406
 20
79.740493149
 30
0.000000000
 10
21.807010735
 20
79.740493149
 30
0.000000000
 10
21.799469902
 20
79.740493149
 30
0.000000000
 10
21.791929068
 20
79.740493149
 30
0.000000000
  0
LINE
  5
A24
330
A02
100
AcDbEntity
  8
View
100
AcDbLine
 10
35.774475332
 20
79.740493149
 30
0.000000000
 11
24.190493149
 21
79.740493149
 31
0.000000000
  0
LINE
  5
A25
330
A02
100
AcDbEntity
  8
View
100
AcDbLine
 10
35.774475332
 20
79.740493149
 30
0.000000000
 11
35.783202200
 21
80.740493149
 31
0.000000000
  0
LINE
  5
A26
330
A02
100
AcDbEntity
  8
View
100
AcDbLine
 10
260.706510967
 20
79.740493149
 30
0.000000000
 11
260.697784099
 21
80.740493149
 31
0.000000000
  0
LINE
  5
A27
330
A02
100
AcDbEntity
  8
View
100
AcDbLine
 10
272.290493149
 20
79.740493149
 30
0.000000000
 11
260.706510967
 21
79.740493149
 31
0.000000000
  0
LINE
  5
A28
330
A02
100
AcDbEntity
  8
View
100
AcDbLine
 10
274.689057231
 20
79.740493149
 30
0.000000000
 11
275.090493149
 21
125.740493149
 31
0.000000000
  0
SPLINE
  5
A29
330
A02
100
AcDbEntity
  8
View
100
AcDbSpline
210
0
220
0
230
1
 70
8
 71
2
 72
30
 73
27
 74
0
 40
0.000000000
 40
0.000000000
 40
0.000000000
 40
0.112199738
 40
0.112199738
 40
0.224399475
 40
0.224399475
 40
0.336599213
 40
0.336599213
 40
0.448798951
 40
0.448798951
 40
0.560998688
 40
0.560998688
 40
0.673198426
 40
0.673198426
 40
0.785398163
 40
0.785398163
 40
0.897597901
 40
0.897597901
 40
1.009797639
 40
1.009797639
 40
1.121997376
 40
1.121997376
 40
1.234197114
 40
1.234197114
 40
1.346396852
 40
1.346396852
 40
1.570796327
 40
1.570796327
 40
1.570796327
 10
274.689057231
 20
79.740493149
 30
0.000000000
 10
274.681516397
 20
79.740493149
 30
0.000000000
 10
274.673975564
 20
79.740493149
 30
0.000000000
 10
274.651447893
 20
79.740493149
 30
0.000000000
 10
274.628920222
 20
79.740493149
 30
0.000000000
 10
274.591689012
 20
79.740493149
 30
0.000000000
 10
274.554457803
 20
79.740493149
 30
0.000000000
 10
274.502991259
 20
79.740493149
 30
0.000000000
 10
274.451524715
 20
79.740493149
 30
0.000000000
 10
274.386470058
 20
79.740493149
 30
0.000000000
 10
274.321415401
 20
79.740493149
 30
0.000000000
 10
274.243590731
 20
79.740493149
 30
0.000000000
 10
274.165766061
 20
79.740493149
 30
0.000000000
 10
274.076150069
 20
79.740493149
 30
0.000000000
 10
273.986534077
 20
79.740493149
 30
0.000000000
 10
273.886253735
 20
79.740493149
 30
0.000000000
 10
273.785973393
 20
79.740493149
 30
0.000000000
 10
273.676289786
 20
79.740493149
 30
0.000000000
 10
273.566606178
 20
79.740493149
 30
0.000000000
 10
273.448898640
 20
79.740493149
 30
0.000000000
 10
273.331191102
 20
79.740493149
 30
0.000000000
 10
273.206939873
 20
79.740493149
 30
0.000000000
 10
273.082688644
 20
79.740493149
 30
0.000000000
 10
272.953456257
 20
79.740493149
 30
0.000000000
 10
272.824223869
 20
79.740493149
 30
0.000000000
 10
272.559994157
 20
79.740493149
 30
0.000000000
 10
272.290493149
 20
79.740493149
 30
0.000000000
  0
LINE
  5
A2A
330
A02
100
AcDbEntity
  8
View
100
AcDbLine
 10
24.190493149
 20
125.740493149
 30
0.000000000
 11
24.190493149
 21
129.740493149
 31
0.000000000
  0
LINE
  5
A2B
330
A02
100
AcDbEntity
  8
View
100
AcDbLine
 10
272.290493149
 20
125.740493149
 30
0.000000000
 11
272.290493149
 21
129.740493149
 31
0.000000000
  0
LINE
  5
A2C
330
A02
100
AcDbEntity
  8
View
100
AcDbLine
 10
275.738284253
 20
123.757946220
 30
0.000000000
 11
275.073191725
 21
123.757946220
 31
0.000000000
  0
LINE
  5
A2D
330
A02
100
AcDbEntity
  8
View
100
AcDbLine
 10
21.407794574
 20
123.757946220
 30
0.000000000
 11
20.742702046
 21
123.757946220
 31
0.000000000
  0
LINE
  5
A2E
330
A02
100
AcDbEntity
  8
View
100
AcDbLine
 10
24.190493149
 20
79.740493149
 30
0.000000000
 11
24.190493149
 21
125.740493149
 31
0.000000000
  0
LINE
  5
A2F
330
A02
100
AcDbEntity
  8
View
100
AcDbLine
 10
272.290493149
 20
79.740493149
 30
0.000000000
 11
272.290493149
 21
125.740493149
 31
0.000000000
  0
LINE
  5
A30
330
A02
100
AcDbEntity
  8
View
100
AcDbLine
 10
63.130493149
 20
102.380493149
 30
0.000000000
 11
242.350493149
 21
102.270493149
 31
0.000000000
  0
ENDSEC
  0
SECTION
  2
OBJECTS
  0
DICTIONARY
  5
F000
330
0
100
AcDbDictionary
  3
ACAD_GROUP
350
F001
  0
DICTIONARY
  5
F001
330
F000
100
AcDbDictionary
  0
ENDSEC
  0
EOF