# FreeCAD v1.0 build1 Arch module
# https://www.freecad.org
mtllib Boat_Type001_WallsDetails.mtl
o Boat_Type001_PanellingDetails
usemtl color_727980
v 882.756531 -276.679749 1250.0
v 0.0 -670.11615 1000.0
v 0.0 -670.11615 1250.0
v 882.756531 -276.679749 1000.0
v 3026.295166 150.0 1000.0
v 2978.490723 149.590576 1000.0
v 3026.295166 150.0 1250.0
v 2978.490723 149.590576 1250.0
v 2930.691406 148.781906 1000.0
v 2930.691406 148.781906 1250.0
v 2882.900391 147.574051 1000.0
v 2882.900391 147.574051 1250.0
v 2835.121094 145.967087 1000.0
v 2835.121094 145.967087 1250.0
v 2787.356934 143.961121 1000.0
v 2787.356934 143.961121 1250.0
v 2739.611328 141.556305 1000.0
v 2739.611328 141.556305 1250.0
v 2691.887451 138.752808 1000.0
v 2691.887451 138.752808 1250.0
v 2644.188477 135.550812 1000.0
v 2644.188477 135.550812 1250.0
v 2596.518066 131.950562 1000.0
v 2596.518066 131.950562 1250.0
v 2548.879395 127.952278 1000.0
v 2548.879395 127.952278 1250.0
v 2501.275635 123.556267 1000.0
v 2501.275635 123.556267 1250.0
v 2453.710449 118.762825 1000.0
v 2453.710449 118.762825 1250.0
v 2406.186768 113.572281 1250.0
v 2406.186768 113.572281 1000.0
v 2358.708252 107.985008 1000.0
v 2358.708252 107.985008 1250.0
v 2311.278076 102.001389 1000.0
v 2311.278076 102.001389 1250.0
v 2263.899414 95.621841 1250.0
v 2263.899414 95.621841 1000.0
v 2216.575684 88.846817 1000.0
v 2216.575684 88.846817 1250.0
v 2169.310059 81.676773 1000.0
v 2169.310059 81.676773 1250.0
v 2122.106201 74.112228 1000.0
v 2122.106201 74.112228 1250.0
v 2074.967041 66.153694 1000.0
v 2074.967041 66.153694 1250.0
v 2027.896118 57.801743 1250.0
v 2027.896118 57.801743 1000.0
v 1980.896484 49.056942 1000.0
v 1980.896484 49.056942 1250.0
v 1933.971558 39.919907 1000.0
v 1933.971558 39.919907 1250.0
v 1887.124634 30.391275 1000.0
v 1887.124634 30.391275 1250.0
v 1840.358887 20.471714 1250.0
v 1840.358887 20.471714 1000.0
v 1793.67749 10.161911 1000.0
v 1793.67749 10.161911 1250.0
v 1747.083984 -0.537413 1000.0
v 1747.083984 -0.537413 1250.0
v 1700.581421 -11.625511 1000.0
v 1700.581421 -11.625511 1250.0
v 1654.173096 -23.10161 1000.0
v 1654.173096 -23.10161 1250.0
v 1607.862305 -34.964909 1000.0
v 1607.862305 -34.964909 1250.0
v 1561.6521 -47.214581 1000.0
v 1561.6521 -47.214581 1250.0
v 1515.545776 -59.849773 1000.0
v 1515.545776 -59.849773 1250.0
v 1469.546753 -72.869598 1000.0
v 1469.546753 -72.869598 1250.0
v 1423.657959 -86.273155 1250.0
v 1423.657959 -86.273155 1000.0
v 1377.88269 -100.059509 1000.0
v 1377.88269 -100.059509 1250.0
v 1332.224243 -114.227692 1000.0
v 1332.224243 -114.227692 1250.0
v 1286.685669 -128.776718 1000.0
v 1286.685669 -128.776718 1250.0
v 1241.270264 -143.705566 1000.0
v 1241.270264 -143.705566 1250.0
v 1195.981079 -159.013214 1250.0
v 1195.981079 -159.013214 1000.0
v 1150.821289 -174.698578 1000.0
v 1150.821289 -174.698578 1250.0
v 1105.794189 -190.760574 1000.0
v 1105.794189 -190.760574 1250.0
v 1060.90271 -207.198059 1000.0
v 1060.90271 -207.198059 1250.0
v 1016.150085 -224.009918 1000.0
v 1016.150085 -224.009918 1250.0
v 971.539429 -241.194946 1000.0
v 971.539429 -241.194946 1250.0
v 927.073914 -258.751984 1000.0
v 927.073914 -258.751984 1250.0
v 7000.0 150.0 1000.0
v 7000.0 150.0 1250.0
v 7000.0 -50.0 1000.0
v 7000.0 -50.0 1250.0
v 3122.422852 -50.0 1000.0
v 3122.422852 -50.0 1250.0
v 3076.487061 -49.059338 1000.0
v 3076.487061 -49.059338 1250.0
v 3030.544922 -48.510059 1000.0
v 3030.544922 -48.510059 1250.0
v 2984.599854 -48.3522 1000.0
v 2984.599854 -48.3522 1250.0
v 2938.655029 -48.585777 1250.0
v 2938.655029 -48.585777 1000.0
v 2892.713867 -49.21077 1000.0
v 2892.713867 -49.21077 1250.0
v 2846.779785 -50.227135 1000.0
v 2846.779785 -50.227135 1250.0
v 2800.855957 -51.634796 1250.0
v 2800.855957 -51.634796 1000.0
v 2754.945801 -53.433655 1000.0
v 2754.945801 -53.433655 1250.0
v 2709.05249 -55.623577 1000.0
v 2709.05249 -55.623577 1250.0
v 2663.179688 -58.204407 1000.0
v 2663.179688 -58.204407 1250.0
v 2617.330322 -61.175953 1250.0
v 2617.330322 -61.175953 1000.0
v 2571.508301 -64.538002 1000.0
v 2571.508301 -64.538002 1250.0
v 2525.716309 -68.290314 1000.0
v 2525.716309 -68.290314 1250.0
v 2479.958008 -72.43261 1000.0
v 2479.958008 -72.43261 1250.0
v 2434.236572 -76.964592 1000.0
v 2434.236572 -76.964592 1250.0
v 2388.555664 -81.885925 1000.0
v 2388.555664 -81.885925 1250.0
v 2342.917969 -87.196266 1000.0
v 2342.917969 -87.196266 1250.0
v 2297.327393 -92.895218 1000.0
v 2297.327393 -92.895218 1250.0
v 2251.787109 -98.982376 1000.0
v 2251.787109 -98.982376 1250.0
v 2206.300293 -105.457283 1000.0
v 2206.300293 -105.457283 1250.0
v 2160.870117 -112.319489 1250.0
v 2160.870117 -112.319489 1000.0
v 2115.500244 -119.568481 1000.0
v 2115.500244 -119.568481 1250.0
v 2070.193604 -127.203735 1000.0
v 2070.193604 -127.203735 1250.0
v 2024.953735 -135.224701 1000.0
v 2024.953735 -135.224701 1250.0
v 1979.783936 -143.630798 1250.0
v 1979.783936 -143.630798 1000.0
v 1934.687256 -152.421417 1000.0
v 1934.687256 -152.421417 1250.0
v 1889.667114 -161.595901 1000.0
v 1889.667114 -161.595901 1250.0
v 1844.726807 -171.15361 1000.0
v 1844.726807 -171.15361 1250.0
v 1799.869629 -181.093842 1000.0
v 1799.869629 -181.093842 1250.0
v 1755.098633 -191.415863 1250.0
v 1755.098633 -191.415863 1000.0
v 1710.417358 -202.118942 1250.0
v 1710.417358 -202.118942 1000.0
v 1665.828735 -213.202301 1000.0
v 1665.828735 -213.202301 1250.0
v 1621.336182 -224.665115 1000.0
v 1621.336182 -224.665115 1250.0
v 1576.942993 -236.506577 1000.0
v 1576.942993 -236.506577 1250.0
v 1532.652222 -248.7258 1250.0
v 1532.652222 -248.7258 1000.0
v 1488.467163 -261.32193 1250.0
v 1488.467163 -261.32193 1000.0
v 1444.391113 -274.294037 1000.0
v 1444.391113 -274.294037 1250.0
v 1400.427002 -287.641144 1250.0
v 1400.427002 -287.641144 1000.0
v 1356.578369 -301.362366 1000.0
v 1356.578369 -301.362366 1250.0
v 1312.848145 -315.456635 1000.0
v 1312.848145 -315.456635 1250.0
v 1269.239624 -329.922943 1250.0
v 1269.239624 -329.922943 1000.0
v 1225.755859 -344.760254 1000.0
v 1225.755859 -344.760254 1250.0
v 1182.400146 -359.967468 1000.0
v 1182.400146 -359.967468 1250.0
v 1139.175537 -375.543518 1000.0
v 1139.175537 -375.543518 1250.0
v 1096.085083 -391.487244 1000.0
v 1096.085083 -391.487244 1250.0
v 1053.132202 -407.797516 1000.0
v 1053.132202 -407.797516 1250.0
v 1010.319763 -424.473114 1000.0
v 1010.319763 -424.473114 1250.0
v 967.65094 -441.512848 1250.0
v 967.65094 -441.512848 1000.0
v 925.128845 -458.915497 1250.0
v 925.128845 -458.915497 1000.0
v 882.756531 -476.679749 1000.0
v 882.756531 -476.679749 1250.0
v 0.0 -870.11615 1000.0
v 0.0 -870.11615 1250.0
vn -0.407089 0.913389 0.0
vn -0.407089 0.913389 0.0
vn -0.008564 0.999963 0.0
vn -0.008564 0.999963 0.0
vn -0.016916 0.999857 0.0
vn -0.016916 0.999857 0.0
vn -0.025266 0.999681 0.0
vn -0.025266 0.999681 0.0
vn -0.033614 0.999435 0.0
vn -0.033614 0.999435 0.0
vn -0.04196 0.999119 0.0
vn -0.04196 0.999119 0.0
vn -0.050304 0.998734 0.0
vn -0.050304 0.998734 0.0
vn -0.058643 0.998279 0.0
vn -0.058643 0.998279 0.0
vn -0.066978 0.997754 0.0
vn -0.066978 0.997754 0.0
vn -0.075309 0.99716 0.0
vn -0.075309 0.99716 0.0
vn -0.083635 0.996496 0.0
vn -0.083635 0.996496 0.0
vn -0.091955 0.995763 0.0
vn -0.091955 0.995763 0.0
vn -0.100268 0.99496 0.0
vn -0.108574 0.994088 0.0
vn -0.100268 0.99496 0.0
vn -0.108574 0.994088 0.0
vn -0.116874 0.993147 0.0
vn -0.116874 0.993147 0.0
vn -0.125164 0.992136 0.0
vn -0.133446 0.991056 0.0
vn -0.125164 0.992136 0.0
vn -0.133446 0.991056 0.0
vn -0.141718 0.989907 0.0
vn -0.141718 0.989907 0.0
vn -0.149981 0.988689 0.0
vn -0.149981 0.988689 0.0
vn -0.158234 0.987402 0.0
vn -0.158234 0.987402 0.0
vn -0.166475 0.986046 0.0
vn -0.174705 0.984621 0.0
vn -0.166475 0.986046 0.0
vn -0.174705 0.984621 0.0
vn -0.182922 0.983128 0.0
vn -0.182922 0.983128 0.0
vn -0.191127 0.981565 0.0
vn -0.191127 0.981565 0.0
vn -0.199318 0.979935 0.0
vn -0.207495 0.978236 0.0
vn -0.199318 0.979935 0.0
vn -0.207495 0.978236 0.0
vn -0.215658 0.976469 0.0
vn -0.215658 0.976469 0.0
vn -0.223806 0.974634 0.0
vn -0.223806 0.974634 0.0
vn -0.231938 0.97273 0.0
vn -0.231938 0.97273 0.0
vn -0.240055 0.970759 0.0
vn -0.240055 0.970759 0.0
vn -0.248154 0.96872 0.0
vn -0.248154 0.96872 0.0
vn -0.256236 0.966614 0.0
vn -0.256236 0.966614 0.0
vn -0.2643 0.964441 0.0
vn -0.2643 0.964441 0.0
vn -0.272346 0.962199 0.0
vn -0.272346 0.962199 0.0
vn -0.280373 0.959891 0.0
vn -0.280373 0.959891 0.0
vn -0.28838 0.957516 0.0
vn -0.28838 0.957516 0.0
vn -0.296367 0.955074 0.0
vn -0.296367 0.955074 0.0
vn -0.304333 0.952566 0.0
vn -0.304333 0.952566 0.0
vn -0.312279 0.949991 0.0
vn -0.320202 0.947349 0.0
vn -0.312279 0.949991 0.0
vn -0.320202 0.947349 0.0
vn -0.328103 0.944642 0.0
vn -0.328103 0.944642 0.0
vn -0.335982 0.941868 0.0
vn -0.335982 0.941868 0.0
vn -0.343836 0.93903 0.0
vn -0.343836 0.93903 0.0
vn -0.351667 0.936125 0.0
vn -0.351667 0.936125 0.0
vn -0.359473 0.933156 0.0
vn -0.359473 0.933156 0.0
vn -0.367254 0.930121 0.0
vn -0.367254 0.930121 0.0
vn -0.375009 0.927021 0.0
vn -0.375009 0.927021 0.0
vn 0.0 1.0 -0.0
vn 0.0 1.0 0.0
vn 1.0 0.0 0.0
vn 1.0 0.0 0.0
vn 0.0 -1.0 0.0
vn 0.0 -1.0 0.0
vn -0.020473 -0.99979 0.0
vn -0.020473 -0.99979 0.0
vn -0.011955 -0.999928 0.0
vn -0.011955 -0.999928 0.0
vn -0.003436 -0.999994 0.0
vn 0.005084 -0.999987 0.0
vn -0.003436 -0.999994 0.0
vn 0.005084 -0.999987 0.0
vn 0.013603 -0.999907 0.0
vn 0.013603 -0.999907 0.0
vn 0.022121 -0.999755 0.0
vn 0.030638 -0.99953 0.0
vn 0.022121 -0.999755 0.0
vn 0.030638 -0.99953 0.0
vn 0.039152 -0.999233 0.0
vn 0.039152 -0.999233 0.0
vn 0.047663 -0.998863 0.0
vn 0.047663 -0.998863 0.0
vn 0.056172 -0.998421 0.0
vn 0.064675 -0.997906 0.0
vn 0.056172 -0.998421 0.0
vn 0.064675 -0.997906 0.0
vn 0.073175 -0.997319 0.0
vn 0.073175 -0.997319 0.0
vn 0.081669 -0.99666 0.0
vn 0.081669 -0.99666 0.0
vn 0.090157 -0.995928 0.0
vn 0.090157 -0.995928 0.0
vn 0.098638 -0.995123 0.0
vn 0.098638 -0.995123 0.0
vn 0.107113 -0.994247 0.0
vn 0.107113 -0.994247 0.0
vn 0.115579 -0.993298 0.0
vn 0.115579 -0.993298 0.0
vn 0.124038 -0.992278 0.0
vn 0.124038 -0.992278 0.0
vn 0.132487 -0.991185 0.0
vn 0.132487 -0.991185 0.0
vn 0.140926 -0.99002 0.0
vn 0.149355 -0.988784 0.0
vn 0.140926 -0.99002 0.0
vn 0.149355 -0.988784 0.0
vn 0.157774 -0.987475 0.0
vn 0.157774 -0.987475 0.0
vn 0.166181 -0.986095 0.0
vn 0.166181 -0.986095 0.0
vn 0.174576 -0.984644 0.0
vn 0.182959 -0.983121 0.0
vn 0.174576 -0.984644 0.0
vn 0.182959 -0.983121 0.0
vn 0.191327 -0.981526 0.0
vn 0.191327 -0.981526 0.0
vn 0.199682 -0.979861 0.0
vn 0.199682 -0.979861 0.0
vn 0.208023 -0.978124 0.0
vn 0.208023 -0.978124 0.0
vn 0.216349 -0.976316 0.0
vn 0.216349 -0.976316 0.0
vn 0.224658 -0.974438 0.0
vn 0.224658 -0.974438 0.0
vn 0.232953 -0.972488 0.0
vn 0.232953 -0.972488 0.0
vn 0.241229 -0.970468 0.0
vn 0.241229 -0.970468 0.0
vn 0.249488 -0.968378 0.0
vn 0.249488 -0.968378 0.0
vn 0.257729 -0.966217 0.0
vn 0.265951 -0.963987 0.0
vn 0.257729 -0.966217 0.0
vn 0.274154 -0.961686 0.0
vn 0.265951 -0.963987 0.0
vn 0.274154 -0.961686 0.0
vn 0.282338 -0.959315 0.0
vn 0.290499 -0.956875 0.0
vn 0.282338 -0.959315 0.0
vn 0.290499 -0.956875 0.0
vn 0.298642 -0.954365 0.0
vn 0.298642 -0.954365 0.0
vn 0.306761 -0.951787 0.0
vn 0.314859 -0.949138 0.0
vn 0.306761 -0.951787 0.0
vn 0.314859 -0.949138 0.0
vn 0.322933 -0.946422 0.0
vn 0.322933 -0.946422 0.0
vn 0.330985 -0.943636 0.0
vn 0.330985 -0.943636 0.0
vn 0.339012 -0.940782 0.0
vn 0.339012 -0.940782 0.0
vn 0.347014 -0.93786 0.0
vn 0.347014 -0.93786 0.0
vn 0.354993 -0.934869 0.0
vn 0.354993 -0.934869 0.0
vn 0.362944 -0.931811 0.0
vn 0.370869 -0.928685 0.0
vn 0.362944 -0.931811 0.0
vn 0.378768 -0.925492 0.0
vn 0.370869 -0.928685 0.0
vn 0.378768 -0.925492 0.0
vn 0.386638 -0.922231 0.0
vn 0.386638 -0.922231 0.0
vn 0.407089 -0.913389 0.0
vn 0.407089 -0.913389 0.0
vn -1.0 0.0 0.0
vn -1.0 -0.0 0.0
vn 0.0 0.0 -1.0
vn 0.0 0.0 -1.0
vn 0.0 0.0 -1.0
vn 0.0 0.0 -1.0
vn 0.0 0.0 -1.0
vn 0.0 0.0 -1.0
vn 0.0 0.0 -1.0
vn 0.0 0.0 -1.0
vn 0.0 0.0 -1.0
vn 0.0 0.0 -1.0
vn 0.0 0.0 -1.0
vn 0.0 0.0 -1.0
vn 0.0 0.0 -1.0
vn 0.0 0.0 -1.0
vn 0.0 0.0 -1.0
vn 0.0 0.0 -1.0
vn 0.0 0.0 -1.0
vn 0.0 0.0 -1.0
vn 0.0 0.0 -1.0
vn 0.0 0.0 -1.0
vn 0.0 0.0 -1.0
vn 0.0 0.0 -1.0
vn 0.0 0.0 -1.0
vn 0.0 0.0 -1.0
vn 0.0 0.0 -1.0
vn 0.0 0.0 -1.0
vn 0.0 0.0 -1.0
vn 0.0 0.0 -1.0
vn 0.0 0.0 -1.0
vn 0.0 0.0 -1.0
vn 0.0 0.0 -1.0
vn 0.0 0.0 -1.0
vn 0.0 0.0 -1.0
vn 0.0 0.0 -1.0
vn 0.0 0.0 -1.0
vn 0.0 0.0 -1.0
vn 0.0 0.0 -1.0
vn 0.0 0.0 -1.0
vn 0.0 0.0 -1.0
vn 0.0 0.0 -1.0
vn 0.0 0.0 -1.0
vn 0.0 0.0 -1.0
vn 0.0 0.0 -1.0
vn 0.0 0.0 -1.0
vn 0.0 0.0 -1.0
vn 0.0 0.0 -1.0
vn 0.0 0.0 -1.0
vn 0.0 0.0 -1.0
vn 0.0 0.0 -1.0
vn 0.0 0.0 -1.0
vn 0.0 0.0 -1.0
vn 0.0 0.0 -1.0
vn 0.0 0.0 -1.0
vn 0.0 0.0 -1.0
vn 0.0 0.0 -1.0
vn 0.0 0.0 -1.0
vn 0.0 0.0 -1.0
vn 0.0 0.0 -1.0
vn 0.0 0.0 -1.0
vn 0.0 0.0 -1.0
vn 0.0 0.0 -1.0
vn 0.0 0.0 -1.0
vn 0.0 0.0 -1.0
vn 0.0 0.0 -1.0
vn 0.0 0.0 -1.0
vn 0.0 0.0 -1.0
vn 0.0 0.0 -1.0
vn 0.0 0.0 -1.0
vn 0.0 0.0 -1.0
vn 0.0 0.0 -1.0
vn 0.0 0.0 -1.0
vn 0.0 0.0 -1.0
vn 0.0 0.0 -1.0
vn 0.0 0.0 -1.0
vn 0.0 0.0 -1.0
vn 0.0 0.0 -1.0
vn 0.0 0.0 -1.0
vn 0.0 0.0 -1.0
vn 0.0 0.0 -1.0
vn 0.0 0.0 -1.0
vn 0.0 0.0 -1.0
vn 0.0 0.0 -1.0
vn 0.0 0.0 -1.0
vn 0.0 0.0 -1.0
vn 0.0 0.0 -1.0
vn 0.0 0.0 -1.0
vn 0.0 0.0 -1.0
vn 0.0 0.0 -1.0
vn 0.0 0.0 -1.0
vn 0.0 0.0 -1.0
vn 0.0 0.0 -1.0
vn 0.0 0.0 -1.0
vn 0.0 0.0 -1.0
vn 0.0 0.0 -1.0
vn 0.0 0.0 -1.0
vn 0.0 0.0 -1.0
vn 0.0 0.0 -1.0
vn 0.0 0.0 -1.0
vn 0.0 0.0 -1.0
vn 0.0 0.0 -1.0
vn 0.0 0.0 1.0
vn 0.0 0.0 1.0
vn 0.0 0.0 1.0
vn 0.0 0.0 1.0
vn 0.0 0.0 1.0
vn 0.0 0.0 1.0
vn 0.0 0.0 1.0
vn 0.0 0.0 1.0
vn 0.0 0.0 1.0
vn 0.0 0.0 1.0
vn 0.0 0.0 1.0
vn 0.0 0.0 1.0
vn 0.0 0.0 1.0
vn 0.0 0.0 1.0
vn 0.0 0.0 1.0
vn 0.0 0.0 1.0
vn 0.0 0.0 1.0
vn 0.0 0.0 1.0
vn 0.0 0.0 1.0
vn 0.0 0.0 1.0
vn 0.0 0.0 1.0
vn 0.0 0.0 1.0
vn 0.0 0.0 1.0
vn 0.0 0.0 1.0
vn 0.0 0.0 1.0
vn 0.0 0.0 1.0
vn 0.0 0.0 1.0
vn 0.0 0.0 1.0
vn 0.0 0.0 1.0
vn 0.0 0.0 1.0
vn 0.0 0.0 1.0
vn 0.0 0.0 1.0
vn 0.0 0.0 1.0
vn 0.0 0.0 1.0
vn 0.0 0.0 1.0
vn 0.0 0.0 1.0
vn 0.0 0.0 1.0
vn 0.0 0.0 1.0
vn 0.0 0.0 1.0
vn 0.0 0.0 1.0
vn 0.0 0.0 1.0
vn 0.0 0.0 1.0
vn 0.0 0.0 1.0
vn 0.0 0.0 1.0
vn 0.0 0.0 1.0
vn 0.0 0.0 1.0
vn 0.0 0.0 1.0
vn 0.0 0.0 1.0
vn 0.0 0.0 1.0
vn 0.0 0.0 1.0
vn 0.0 0.0 1.0
vn 0.0 0.0 1.0
vn 0.0 0.0 1.0
vn 0.0 0.0 1.0
vn 0.0 0.0 1.0
vn 0.0 0.0 1.0
vn 0.0 0.0 1.0
vn 0.0 0.0 1.0
vn 0.0 0.0 1.0
vn 0.0 0.0 1.0
vn 0.0 0.0 1.0
vn 0.0 0.0 1.0
vn 0.0 0.0 1.0
vn 0.0 0.0 1.0
vn 0.0 0.0 1.0
vn 0.0 0.0 1.0
vn 0.0 0.0 1.0
vn 0.0 0.0 1.0
vn 0.0 0.0 1.0
vn 0.0 0.0 1.0
vn 0.0 0.0 1.0
vn 0.0 0.0 1.0
vn 0.0 0.0 1.0
vn 0.0 0.0 1.0
vn 0.0 0.0 1.0
vn 0.0 0.0 1.0
vn 0.0 0.0 1.0
vn 0.0 0.0 1.0
vn 0.0 0.0 1.0
vn 0.0 0.0 1.0
vn 0.0 0.0 1.0
vn 0.0 0.0 1.0
vn 0.0 0.0 1.0
vn 0.0 0.0 1.0
vn 0.0 0.0 1.0
vn 0.0 0.0 1.0
vn 0.0 0.0 1.0
vn 0.0 0.0 1.0
vn 0.0 0.0 1.0
vn 0.0 0.0 1.0
vn 0.0 0.0 1.0
vn 0.0 0.0 1.0
vn 0.0 0.0 1.0
vn 0.0 0.0 1.0
vn 0.0 0.0 1.0
vn 0.0 0.0 1.0
vn 0.0 0.0 1.0
vn 0.0 0.0 1.0
vn 0.0 0.0 1.0
vn 0.0 0.0 1.0
f 1//1 2//1 3//1 
f 4//2 2//2 1//2 
f 5//3 6//3 7//3 
f 7//4 6//4 8//4 
f 8//5 9//5 10//5 
f 6//6 9//6 8//6 
f 10//7 11//7 12//7 
f 9//8 11//8 10//8 
f 12//9 13//9 14//9 
f 11//10 13//10 12//10 
f 14//11 15//11 16//11 
f 13//12 15//12 14//12 
f 16//13 17//13 18//13 
f 15//14 17//14 16//14 
f 18//15 19//15 20//15 
f 17//16 19//16 18//16 
f 20//17 21//17 22//17 
f 19//18 21//18 20//18 
f 22//19 23//19 24//19 
f 21//20 23//20 22//20 
f 24//21 25//21 26//21 
f 23//22 25//22 24//22 
f 26//23 27//23 28//23 
f 25//24 27//24 26//24 
f 28//25 29//25 30//25 
f 30//26 29//26 31//26 
f 27//27 29//27 28//27 
f 29//28 32//28 31//28 
f 31//29 33//29 34//29 
f 32//30 33//30 31//30 
f 34//31 35//31 36//31 
f 36//32 35//32 37//32 
f 33//33 35//33 34//33 
f 35//34 38//34 37//34 
f 37//35 39//35 40//35 
f 38//36 39//36 37//36 
f 40//37 41//37 42//37 
f 39//38 41//38 40//38 
f 42//39 43//39 44//39 
f 41//40 43//40 42//40 
f 44//41 45//41 46//41 
f 46//42 45//42 47//42 
f 43//43 45//43 44//43 
f 45//44 48//44 47//44 
f 47//45 49//45 50//45 
f 48//46 49//46 47//46 
f 50//47 51//47 52//47 
f 49//48 51//48 50//48 
f 52//49 53//49 54//49 
f 54//50 53//50 55//50 
f 51//51 53//51 52//51 
f 53//52 56//52 55//52 
f 56//53 57//53 55//53 
f 55//54 57//54 58//54 
f 57//55 59//55 58//55 
f 58//56 59//56 60//56 
f 59//57 61//57 60//57 
f 60//58 61//58 62//58 
f 61//59 63//59 62//59 
f 62//60 63//60 64//60 
f 63//61 65//61 64//61 
f 64//62 65//62 66//62 
f 65//63 67//63 66//63 
f 66//64 67//64 68//64 
f 67//65 69//65 68//65 
f 68//66 69//66 70//66 
f 69//67 71//67 70//67 
f 70//68 71//68 72//68 
f 72//69 71//69 73//69 
f 71//70 74//70 73//70 
f 73//71 75//71 76//71 
f 74//72 75//72 73//72 
f 75//73 77//73 76//73 
f 76//74 77//74 78//74 
f 78//75 79//75 80//75 
f 77//76 79//76 78//76 
f 80//77 81//77 82//77 
f 82//78 81//78 83//78 
f 79//79 81//79 80//79 
f 81//80 84//80 83//80 
f 83//81 85//81 86//81 
f 84//82 85//82 83//82 
f 86//83 87//83 88//83 
f 85//84 87//84 86//84 
f 88//85 89//85 90//85 
f 87//86 89//86 88//86 
f 90//87 91//87 92//87 
f 89//88 91//88 90//88 
f 92//89 93//89 94//89 
f 91//90 93//90 92//90 
f 94//91 95//91 96//91 
f 93//92 95//92 94//92 
f 96//93 4//93 1//93 
f 95//94 4//94 96//94 
f 97//95 5//95 98//95 
f 98//96 5//96 7//96 
f 99//97 97//97 98//97 
f 99//98 98//98 100//98 
f 101//99 99//99 100//99 
f 101//100 100//100 102//100 
f 103//101 101//101 102//101 
f 103//102 102//102 104//102 
f 105//103 104//103 106//103 
f 105//104 103//104 104//104 
f 107//105 106//105 108//105 
f 107//106 108//106 109//106 
f 107//107 105//107 106//107 
f 110//108 107//108 109//108 
f 111//109 109//109 112//109 
f 111//110 110//110 109//110 
f 113//111 112//111 114//111 
f 113//112 114//112 115//112 
f 113//113 111//113 112//113 
f 116//114 113//114 115//114 
f 117//115 115//115 118//115 
f 117//116 116//116 115//116 
f 119//117 118//117 120//117 
f 119//118 117//118 118//118 
f 121//119 120//119 122//119 
f 121//120 122//120 123//120 
f 121//121 119//121 120//121 
f 124//122 121//122 123//122 
f 125//123 123//123 126//123 
f 125//124 124//124 123//124 
f 127//125 126//125 128//125 
f 127//126 125//126 126//126 
f 129//127 128//127 130//127 
f 129//128 127//128 128//128 
f 131//129 130//129 132//129 
f 131//130 129//130 130//130 
f 133//131 132//131 134//131 
f 133//132 131//132 132//132 
f 135//133 134//133 136//133 
f 135//134 133//134 134//134 
f 137//135 136//135 138//135 
f 137//136 135//136 136//136 
f 139//137 138//137 140//137 
f 139//138 137//138 138//138 
f 141//139 140//139 142//139 
f 141//140 142//140 143//140 
f 141//141 139//141 140//141 
f 144//142 141//142 143//142 
f 145//143 143//143 146//143 
f 145//144 144//144 143//144 
f 147//145 146//145 148//145 
f 147//146 145//146 146//146 
f 149//147 148//147 150//147 
f 149//148 150//148 151//148 
f 149//149 147//149 148//149 
f 152//150 149//150 151//150 
f 153//151 152//151 151//151 
f 153//152 151//152 154//152 
f 155//153 153//153 154//153 
f 155//154 154//154 156//154 
f 157//155 155//155 156//155 
f 157//156 156//156 158//156 
f 159//157 157//157 158//157 
f 159//158 158//158 160//158 
f 159//159 160//159 161//159 
f 162//160 159//160 161//160 
f 162//161 161//161 163//161 
f 164//162 162//162 163//162 
f 165//163 163//163 166//163 
f 165//164 164//164 163//164 
f 167//165 166//165 168//165 
f 167//166 165//166 166//166 
f 169//167 168//167 170//167 
f 169//168 170//168 171//168 
f 169//169 167//169 168//169 
f 172//170 171//170 173//170 
f 172//171 169//171 171//171 
f 174//172 172//172 173//172 
f 175//173 173//173 176//173 
f 175//174 176//174 177//174 
f 175//175 174//175 173//175 
f 178//176 175//176 177//176 
f 179//177 177//177 180//177 
f 179//178 178//178 177//178 
f 181//179 180//179 182//179 
f 181//180 182//180 183//180 
f 181//181 179//181 180//181 
f 184//182 181//182 183//182 
f 185//183 183//183 186//183 
f 185//184 184//184 183//184 
f 187//185 186//185 188//185 
f 187//186 185//186 186//186 
f 189//187 188//187 190//187 
f 189//188 187//188 188//188 
f 191//189 190//189 192//189 
f 191//190 189//190 190//190 
f 193//191 192//191 194//191 
f 193//192 191//192 192//192 
f 195//193 194//193 196//193 
f 195//194 196//194 197//194 
f 195//195 193//195 194//195 
f 198//196 197//196 199//196 
f 198//197 195//197 197//197 
f 200//198 198//198 199//198 
f 201//199 199//199 202//199 
f 201//200 200//200 199//200 
f 203//201 202//201 204//201 
f 203//202 201//202 202//202 
f 2//203 203//203 3//203 
f 3//204 203//204 204//204 
f 2//205 201//205 203//205 
f 2//206 4//206 201//206 
f 200//207 4//207 198//207 
f 201//208 4//208 200//208 
f 4//209 95//209 198//209 
f 198//210 95//210 195//210 
f 95//211 93//211 195//211 
f 195//212 93//212 193//212 
f 93//213 91//213 193//213 
f 193//214 91//214 191//214 
f 91//215 89//215 191//215 
f 191//216 89//216 189//216 
f 89//217 87//217 189//217 
f 189//218 87//218 187//218 
f 87//219 85//219 187//219 
f 187//220 85//220 185//220 
f 85//221 84//221 185//221 
f 185//222 84//222 184//222 
f 184//223 81//223 181//223 
f 84//224 81//224 184//224 
f 181//225 79//225 179//225 
f 81//226 79//226 181//226 
f 179//227 77//227 178//227 
f 79//228 77//228 179//228 
f 178//229 75//229 175//229 
f 77//230 75//230 178//230 
f 175//231 74//231 174//231 
f 75//232 74//232 175//232 
f 174//233 71//233 172//233 
f 74//234 71//234 174//234 
f 172//235 69//235 169//235 
f 71//236 69//236 172//236 
f 169//237 67//237 167//237 
f 69//238 67//238 169//238 
f 167//239 65//239 165//239 
f 67//240 65//240 167//240 
f 165//241 63//241 164//241 
f 65//242 63//242 165//242 
f 164//243 61//243 162//243 
f 63//244 61//244 164//244 
f 162//245 59//245 159//245 
f 61//246 59//246 162//246 
f 159//247 57//247 157//247 
f 59//248 57//248 159//248 
f 157//249 56//249 155//249 
f 57//250 56//250 157//250 
f 56//251 53//251 155//251 
f 155//252 53//252 153//252 
f 53//253 51//253 153//253 
f 153//254 51//254 152//254 
f 51//255 49//255 152//255 
f 152//256 49//256 149//256 
f 49//257 48//257 149//257 
f 149//258 48//258 147//258 
f 48//259 45//259 147//259 
f 147//260 45//260 145//260 
f 145//261 43//261 144//261 
f 45//262 43//262 145//262 
f 144//263 41//263 141//263 
f 43//264 41//264 144//264 
f 41//265 39//265 141//265 
f 141//266 39//266 139//266 
f 139//267 38//267 137//267 
f 39//268 38//268 139//268 
f 38//269 35//269 137//269 
f 137//270 35//270 135//270 
f 135//271 33//271 133//271 
f 35//272 33//272 135//272 
f 133//273 32//273 131//273 
f 33//274 32//274 133//274 
f 131//275 29//275 129//275 
f 32//276 29//276 131//276 
f 129//277 27//277 127//277 
f 29//278 27//278 129//278 
f 127//279 25//279 125//279 
f 27//280 25//280 127//280 
f 125//281 23//281 124//281 
f 25//282 23//282 125//282 
f 124//283 21//283 121//283 
f 23//284 21//284 124//284 
f 121//285 19//285 119//285 
f 21//286 19//286 121//286 
f 119//287 17//287 117//287 
f 19//288 17//288 119//288 
f 117//289 15//289 116//289 
f 17//290 15//290 117//290 
f 116//291 13//291 113//291 
f 15//292 13//292 116//292 
f 113//293 11//293 111//293 
f 13//294 11//294 113//294 
f 111//295 9//295 110//295 
f 11//296 9//296 111//296 
f 110//297 6//297 107//297 
f 9//298 6//298 110//298 
f 103//299 5//299 101//299 
f 105//300 5//300 103//300 
f 107//301 5//301 105//301 
f 6//302 5//302 107//302 
f 101//303 97//303 99//303 
f 5//304 97//304 101//304 
f 202//305 3//305 204//305 
f 1//306 3//306 202//306 
f 1//307 199//307 197//307 
f 1//308 202//308 199//308 
f 96//309 1//309 197//309 
f 96//310 197//310 196//310 
f 94//311 96//311 196//311 
f 94//312 196//312 194//312 
f 92//313 94//313 194//313 
f 92//314 194//314 192//314 
f 90//315 92//315 192//315 
f 90//316 192//316 190//316 
f 88//317 90//317 190//317 
f 88//318 190//318 188//318 
f 86//319 88//319 188//319 
f 86//320 188//320 186//320 
f 83//321 86//321 186//321 
f 83//322 186//322 183//322 
f 82//323 183//323 182//323 
f 82//324 83//324 183//324 
f 80//325 182//325 180//325 
f 80//326 82//326 182//326 
f 78//327 180//327 177//327 
f 78//328 80//328 180//328 
f 76//329 177//329 176//329 
f 76//330 78//330 177//330 
f 73//331 176//331 173//331 
f 73//332 76//332 176//332 
f 72//333 173//333 171//333 
f 72//334 73//334 173//334 
f 70//335 171//335 170//335 
f 70//336 72//336 171//336 
f 68//337 170//337 168//337 
f 68//338 70//338 170//338 
f 66//339 168//339 166//339 
f 66//340 68//340 168//340 
f 64//341 166//341 163//341 
f 64//342 66//342 166//342 
f 62//343 163//343 161//343 
f 62//344 64//344 163//344 
f 60//345 161//345 160//345 
f 60//346 62//346 161//346 
f 58//347 160//347 158//347 
f 58//348 60//348 160//348 
f 55//349 158//349 156//349 
f 55//350 58//350 158//350 
f 54//351 55//351 156//351 
f 54//352 156//352 154//352 
f 52//353 54//353 154//353 
f 52//354 154//354 151//354 
f 50//355 52//355 151//355 
f 50//356 151//356 150//356 
f 47//357 50//357 150//357 
f 47//358 150//358 148//358 
f 46//359 47//359 148//359 
f 46//360 148//360 146//360 
f 44//361 146//361 143//361 
f 44//362 46//362 146//362 
f 42//363 143//363 142//363 
f 42//364 44//364 143//364 
f 40//365 42//365 142//365 
f 40//366 142//366 140//366 
f 37//367 140//367 138//367 
f 37//368 40//368 140//368 
f 36//369 37//369 138//369 
f 36//370 138//370 136//370 
f 34//371 136//371 134//371 
f 34//372 36//372 136//372 
f 31//373 134//373 132//373 
f 31//374 34//374 134//374 
f 30//375 132//375 130//375 
f 30//376 31//376 132//376 
f 28//377 130//377 128//377 
f 28//378 30//378 130//378 
f 26//379 128//379 126//379 
f 26//380 28//380 128//380 
f 24//381 126//381 123//381 
f 24//382 26//382 126//382 
f 22//383 123//383 122//383 
f 22//384 24//384 123//384 
f 20//385 122//385 120//385 
f 20//386 22//386 122//386 
f 18//387 120//387 118//387 
f 18//388 20//388 120//388 
f 16//389 118//389 115//389 
f 16//390 18//390 118//390 
f 14//391 115//391 114//391 
f 14//392 16//392 115//392 
f 12//393 114//393 112//393 
f 12//394 14//394 114//394 
f 10//395 112//395 109//395 
f 10//396 12//396 112//396 
f 8//397 109//397 108//397 
f 8//398 10//398 109//398 
f 7//399 104//399 102//399 
f 7//400 106//400 104//400 
f 7//401 108//401 106//401 
f 7//402 8//402 108//402 
f 98//403 102//403 100//403 
f 98//404 7//404 102//404 
