# FreeCAD v1.0 build1 Arch module
# https://www.freecad.org
mtllib Boat_Type001_PedalWire.mtl
o Type001_PedalWire
usemtl color_1f2123
v 3455.0 -79.0 353.0
v 3454.987549 -78.501541 353.0
v 3455.0 -79.0 1643.0
v 3454.987549 -78.501541 1643.0
v 3454.950195 -78.004318 1643.0
v 3454.950195 -78.004318 353.0
v 3454.888428 -77.509575 1643.0
v 3454.888428 -77.509575 353.0
v 3454.801758 -77.018539 353.0
v 3454.801758 -77.018539 1643.0
v 3454.690674 -76.532425 353.0
v 3454.690674 -76.532425 1643.0
v 3454.555664 -76.052444 353.0
v 3454.555664 -76.052444 1643.0
v 3454.396973 -75.579796 353.0
v 3454.396973 -75.579796 1643.0
v 3454.214844 -75.115654 1643.0
v 3454.214844 -75.115654 353.0
v 3454.009766 -74.661163 353.0
v 3454.009766 -74.661163 1643.0
v 3453.782227 -74.217461 1643.0
v 3453.782227 -74.217461 353.0
v 3453.532959 -73.785645 353.0
v 3453.532959 -73.785645 1643.0
v 3453.262451 -73.366798 353.0
v 3453.262451 -73.366798 1643.0
v 3452.971436 -72.961952 353.0
v 3452.971436 -72.961952 1643.0
v 3452.6604 -72.572121 1643.0
v 3452.6604 -72.572121 353.0
v 3452.330566 -72.198273 1643.0
v 3452.330566 -72.198273 353.0
v 3451.982422 -71.841331 1643.0
v 3451.982422 -71.841331 353.0
v 3451.616943 -71.50219 353.0
v 3451.616943 -71.50219 1643.0
v 3451.234863 -71.181686 1643.0
v 3451.234863 -71.181686 353.0
v 3450.837402 -70.880623 353.0
v 3450.837402 -70.880623 1643.0
v 3450.425537 -70.599739 353.0
v 3450.425537 -70.599739 1643.0
v 3450.0 -70.339745 353.0
v 3450.0 -70.339745 1643.0
v 3449.562012 -70.10128 1643.0
v 3449.562012 -70.10128 353.0
v 3449.112793 -69.884941 1643.0
v 3449.112793 -69.884941 353.0
v 3448.65332 -69.691261 353.0
v 3448.65332 -69.691261 1643.0
v 3448.184814 -69.520729 353.0
v 3448.184814 -69.520729 1643.0
v 3447.708496 -69.373756 353.0
v 3447.708496 -69.373756 1643.0
v 3447.225098 -69.250717 353.0
v 3447.225098 -69.250717 1643.0
v 3446.736572 -69.151924 353.0
v 3446.736572 -69.151924 1643.0
v 3446.243408 -69.077606 353.0
v 3446.243408 -69.077606 1643.0
v 3445.747314 -69.027962 1643.0
v 3445.747314 -69.027962 353.0
v 3445.249268 -69.003105 353.0
v 3445.249268 -69.003105 1643.0
v 3444.750732 -69.003105 353.0
v 3444.750732 -69.003105 1643.0
v 3444.252686 -69.027962 1643.0
v 3444.252686 -69.027962 353.0
v 3443.756592 -69.077606 1643.0
v 3443.756592 -69.077606 353.0
v 3443.263428 -69.151924 353.0
v 3443.263428 -69.151924 1643.0
v 3442.774902 -69.250717 1643.0
v 3442.774902 -69.250717 353.0
v 3442.291504 -69.373756 353.0
v 3442.291504 -69.373756 1643.0
v 3441.815186 -69.520729 353.0
v 3441.815186 -69.520729 1643.0
v 3441.34668 -69.691261 1643.0
v 3441.34668 -69.691261 353.0
v 3440.887207 -69.884941 353.0
v 3440.887207 -69.884941 1643.0
v 3440.437988 -70.10128 353.0
v 3440.437988 -70.10128 1643.0
v 3440.0 -70.339745 353.0
v 3440.0 -70.339745 1643.0
v 3439.574463 -70.599739 353.0
v 3439.574463 -70.599739 1643.0
v 3439.162598 -70.880623 1643.0
v 3439.162598 -70.880623 353.0
v 3438.765137 -71.181686 1643.0
v 3438.765137 -71.181686 353.0
v 3438.383057 -71.50219 1643.0
v 3438.383057 -71.50219 353.0
v 3438.017578 -71.841331 353.0
v 3438.017578 -71.841331 1643.0
v 3437.669434 -72.198273 1643.0
v 3437.669434 -72.198273 353.0
v 3437.3396 -72.572121 353.0
v 3437.3396 -72.572121 1643.0
v 3437.028564 -72.961952 1643.0
v 3437.028564 -72.961952 353.0
v 3436.737549 -73.366798 353.0
v 3436.737549 -73.366798 1643.0
v 3436.467041 -73.785645 353.0
v 3436.467041 -73.785645 1643.0
v 3436.217773 -74.217461 1643.0
v 3436.217773 -74.217461 353.0
v 3435.990234 -74.661163 353.0
v 3435.990234 -74.661163 1643.0
v 3435.785156 -75.115654 353.0
v 3435.785156 -75.115654 1643.0
v 3435.603027 -75.579796 353.0
v 3435.603027 -75.579796 1643.0
v 3435.444336 -76.052444 1643.0
v 3435.444336 -76.052444 353.0
v 3435.309326 -76.532425 353.0
v 3435.309326 -76.532425 1643.0
v 3435.198242 -77.018539 1643.0
v 3435.198242 -77.018539 353.0
v 3435.111572 -77.509575 353.0
v 3435.111572 -77.509575 1643.0
v 3435.049805 -78.004318 1643.0
v 3435.049805 -78.004318 353.0
v 3435.012451 -78.501541 353.0
v 3435.012451 -78.501541 1643.0
v 3435.0 -79.0 353.0
v 3435.0 -79.0 1643.0
v 3435.012451 -79.498459 1643.0
v 3435.012451 -79.498459 353.0
v 3435.049805 -79.995682 353.0
v 3435.049805 -79.995682 1643.0
v 3435.111572 -80.490425 1643.0
v 3435.111572 -80.490425 353.0
v 3435.198242 -80.981461 353.0
v 3435.198242 -80.981461 1643.0
v 3435.309326 -81.467575 1643.0
v 3435.309326 -81.467575 353.0
v 3435.444336 -81.947556 353.0
v 3435.444336 -81.947556 1643.0
v 3435.603027 -82.420204 1643.0
v 3435.603027 -82.420204 353.0
v 3435.785156 -82.884346 1643.0
v 3435.785156 -82.884346 353.0
v 3435.990234 -83.338837 353.0
v 3435.990234 -83.338837 1643.0
v 3436.217773 -83.782539 1643.0
v 3436.217773 -83.782539 353.0
v 3436.467041 -84.214355 353.0
v 3436.467041 -84.214355 1643.0
v 3436.737549 -84.633202 353.0
v 3436.737549 -84.633202 1643.0
v 3437.028564 -85.038048 1643.0
v 3437.028564 -85.038048 353.0
v 3437.3396 -85.427879 353.0
v 3437.3396 -85.427879 1643.0
v 3437.669434 -85.801727 353.0
v 3437.669434 -85.801727 1643.0
v 3438.017578 -86.158669 1643.0
v 3438.017578 -86.158669 353.0
v 3438.383057 -86.49781 1643.0
v 3438.383057 -86.49781 353.0
v 3438.765137 -86.818314 353.0
v 3438.765137 -86.818314 1643.0
v 3439.162598 -87.119377 1643.0
v 3439.162598 -87.119377 353.0
v 3439.574463 -87.400261 353.0
v 3439.574463 -87.400261 1643.0
v 3440.0 -87.660255 353.0
v 3440.0 -87.660255 1643.0
v 3440.437988 -87.89872 353.0
v 3440.437988 -87.89872 1643.0
v 3440.887207 -88.115059 353.0
v 3440.887207 -88.115059 1643.0
v 3441.34668 -88.308739 1643.0
v 3441.34668 -88.308739 353.0
v 3441.815186 -88.479271 353.0
v 3441.815186 -88.479271 1643.0
v 3442.291504 -88.626244 1643.0
v 3442.291504 -88.626244 353.0
v 3442.774902 -88.749283 353.0
v 3442.774902 -88.749283 1643.0
v 3443.263428 -88.848076 353.0
v 3443.263428 -88.848076 1643.0
v 3443.756592 -88.922394 1643.0
v 3443.756592 -88.922394 353.0
v 3444.252686 -88.972038 353.0
v 3444.252686 -88.972038 1643.0
v 3444.750732 -88.996895 353.0
v 3444.750732 -88.996895 1643.0
v 3445.249268 -88.996895 353.0
v 3445.249268 -88.996895 1643.0
v 3445.747314 -88.972038 1643.0
v 3445.747314 -88.972038 353.0
v 3446.243408 -88.922394 1643.0
v 3446.243408 -88.922394 353.0
v 3446.736572 -88.848076 353.0
v 3446.736572 -88.848076 1643.0
v 3447.225098 -88.749283 353.0
v 3447.225098 -88.749283 1643.0
v 3447.708496 -88.626244 353.0
v 3447.708496 -88.626244 1643.0
v 3448.184814 -88.479271 1643.0
v 3448.184814 -88.479271 353.0
v 3448.65332 -88.308739 353.0
v 3448.65332 -88.308739 1643.0
v 3449.112793 -88.115059 353.0
v 3449.112793 -88.115059 1643.0
v 3449.562012 -87.89872 353.0
v 3449.562012 -87.89872 1643.0
v 3450.0 -87.660255 353.0
v 3450.0 -87.660255 1643.0
v 3450.425537 -87.400261 353.0
v 3450.425537 -87.400261 1643.0
v 3450.837402 -87.119377 353.0
v 3450.837402 -87.119377 1643.0
v 3451.234863 -86.818314 353.0
v 3451.234863 -86.818314 1643.0
v 3451.616943 -86.49781 353.0
v 3451.616943 -86.49781 1643.0
v 3451.982422 -86.158669 353.0
v 3451.982422 -86.158669 1643.0
v 3452.330566 -85.801727 353.0
v 3452.330566 -85.801727 1643.0
v 3452.6604 -85.427879 353.0
v 3452.6604 -85.427879 1643.0
v 3452.971436 -85.038048 1643.0
v 3452.971436 -85.038048 353.0
v 3453.262451 -84.633202 353.0
v 3453.262451 -84.633202 1643.0
v 3453.532959 -84.214355 353.0
v 3453.532959 -84.214355 1643.0
v 3453.782227 -83.782539 1643.0
v 3453.782227 -83.782539 353.0
v 3454.009766 -83.338837 1643.0
v 3454.009766 -83.338837 353.0
v 3454.214844 -82.884346 353.0
v 3454.214844 -82.884346 1643.0
v 3454.396973 -82.420204 1643.0
v 3454.396973 -82.420204 353.0
v 3454.555664 -81.947556 353.0
v 3454.555664 -81.947556 1643.0
v 3454.690674 -81.467575 353.0
v 3454.690674 -81.467575 1643.0
v 3454.801758 -80.981461 1643.0
v 3454.801758 -80.981461 353.0
v 3454.888428 -80.490425 353.0
v 3454.888428 -80.490425 1643.0
v 3454.950195 -79.995682 353.0
v 3454.950195 -79.995682 1643.0
v 3454.987549 -79.498459 353.0
v 3454.987549 -79.498459 1643.0
vn 0.999688 0.024972 -0.0
vn 0.999688 0.024972 0.0
vn 0.99719 0.074913 0.0
vn 0.992296 0.123886 0.0
vn 0.99719 0.074913 0.0
vn 0.992296 0.123886 0.0
vn 0.984778 0.173818 0.0
vn 0.984778 0.173818 -0.0
vn 0.974871 0.222772 0.0
vn 0.974871 0.222772 -0.0
vn 0.962643 0.270774 0.0
vn 0.962643 0.270774 -0.0
vn 0.947994 0.318288 0.0
vn 0.930897 0.365283 0.0
vn 0.947994 0.318288 -0.0
vn 0.930897 0.365283 0.0
vn 0.911503 0.411294 0.0
vn 0.889818 0.456315 0.0
vn 0.911503 0.411294 -0.0
vn 0.889818 0.456315 0.0
vn 0.866062 0.499937 -0.0
vn 0.866062 0.499937 0.0
vn 0.840037 0.54253 -0.0
vn 0.840037 0.54253 0.0
vn 0.811985 0.583679 -0.0
vn 0.811985 0.583679 0.0
vn 0.78168 0.62368 0.0
vn 0.78168 0.62368 0.0
vn 0.74987 0.661586 0.0
vn 0.715873 0.698231 0.0
vn 0.74987 0.661586 0.0
vn 0.715873 0.698231 0.0
vn 0.680202 0.733025 0.0
vn 0.64267 0.766143 0.0
vn 0.680202 0.733025 -0.0
vn 0.64267 0.766143 0.0
vn 0.603803 0.797134 0.0
vn 0.603803 0.797134 -0.0
vn 0.563428 0.826165 0.0
vn 0.563428 0.826165 -0.0
vn 0.521368 0.853332 0.0
vn 0.478175 0.878265 0.0
vn 0.521368 0.853332 -0.0
vn 0.433895 0.900964 0.0
vn 0.478175 0.878265 0.0
vn 0.433895 0.900964 0.0
vn 0.388428 0.921479 0.0
vn 0.388428 0.921479 -0.0
vn 0.342038 0.939686 0.0
vn 0.342038 0.939686 -0.0
vn 0.294843 0.955546 0.0
vn 0.294843 0.955546 -0.0
vn 0.246665 0.969101 0.0
vn 0.246665 0.969101 -0.0
vn 0.198215 0.980159 0.0
vn 0.198215 0.980159 -0.0
vn 0.149014 0.988835 0.0
vn 0.099573 0.99503 0.0
vn 0.149014 0.988835 -0.0
vn 0.099573 0.99503 0.0
vn 0.049846 0.998757 0.0
vn 0.049846 0.998757 -0.0
vn 0.0 1.0 0.0
vn -0.049846 0.998757 0.0
vn 0.0 1.0 -0.0
vn -0.099573 0.99503 0.0
vn -0.049846 0.998757 0.0
vn -0.099573 0.99503 0.0
vn -0.149014 0.988835 0.0
vn -0.198215 0.980159 0.0
vn -0.149014 0.988835 0.0
vn -0.198215 0.980159 0.0
vn -0.246665 0.969101 0.0
vn -0.246665 0.969101 0.0
vn -0.294843 0.955546 0.0
vn -0.294843 0.955546 0.0
vn -0.342038 0.939686 0.0
vn -0.342038 0.939686 0.0
vn -0.388428 0.921479 0.0
vn -0.388428 0.921479 0.0
vn -0.433895 0.900964 0.0
vn -0.433895 0.900964 0.0
vn -0.478175 0.878265 0.0
vn -0.478175 0.878265 0.0
vn -0.521368 0.853332 0.0
vn -0.521368 0.853332 0.0
vn -0.563428 0.826165 0.0
vn -0.563428 0.826165 0.0
vn -0.603803 0.797134 0.0
vn -0.603803 0.797134 0.0
vn -0.64267 0.766143 0.0
vn -0.64267 0.766143 0.0
vn -0.680202 0.733025 0.0
vn -0.680202 0.733025 0.0
vn -0.715873 0.698231 0.0
vn -0.715873 0.698231 0.0
vn -0.74987 0.661586 0.0
vn -0.78168 0.62368 0.0
vn -0.74987 0.661586 0.0
vn -0.78168 0.62368 0.0
vn -0.811985 0.583679 0.0
vn -0.811985 0.583679 0.0
vn -0.840037 0.54253 0.0
vn -0.866062 0.499937 0.0
vn -0.840037 0.54253 0.0
vn -0.866062 0.499937 0.0
vn -0.889818 0.456315 0.0
vn -0.889818 0.456315 0.0
vn -0.911503 0.411294 0.0
vn -0.911503 0.411294 0.0
vn -0.930897 0.365283 0.0
vn -0.947994 0.318288 0.0
vn -0.930897 0.365283 0.0
vn -0.947994 0.318288 0.0
vn -0.962643 0.270774 0.0
vn -0.974871 0.222772 0.0
vn -0.962643 0.270774 0.0
vn -0.974871 0.222772 0.0
vn -0.984778 0.173818 0.0
vn -0.992296 0.123886 0.0
vn -0.984778 0.173818 0.0
vn -0.992296 0.123886 0.0
vn -0.99719 0.074913 0.0
vn -0.99719 0.074913 0.0
vn -0.999688 0.024972 0.0
vn -0.999688 0.024972 0.0
vn -0.999688 -0.024972 -0.0
vn -0.999688 -0.024972 0.0
vn -0.99719 -0.074913 0.0
vn -0.99719 -0.074913 0.0
vn -0.992296 -0.123886 -0.0
vn -0.992296 -0.123886 0.0
vn -0.984778 -0.173818 0.0
vn -0.984778 -0.173818 0.0
vn -0.974871 -0.222772 -0.0
vn -0.974871 -0.222772 0.0
vn -0.962643 -0.270774 0.0
vn -0.962643 -0.270774 0.0
vn -0.947994 -0.318288 -0.0
vn -0.947994 -0.318288 0.0
vn -0.930897 -0.365283 -0.0
vn -0.930897 -0.365283 0.0
vn -0.911503 -0.411294 0.0
vn -0.911503 -0.411294 0.0
vn -0.889818 -0.456315 -0.0
vn -0.889818 -0.456315 0.0
vn -0.866062 -0.499937 0.0
vn -0.866062 -0.499937 0.0
vn -0.840037 -0.54253 0.0
vn -0.840037 -0.54253 0.0
vn -0.811985 -0.583679 -0.0
vn -0.811985 -0.583679 0.0
vn -0.78168 -0.62368 0.0
vn -0.78168 -0.62368 0.0
vn -0.74987 -0.661586 0.0
vn -0.74987 -0.661586 0.0
vn -0.715873 -0.698231 -0.0
vn -0.715873 -0.698231 0.0
vn -0.680202 -0.733025 -0.0
vn -0.680202 -0.733025 0.0
vn -0.64267 -0.766143 0.0
vn -0.64267 -0.766143 0.0
vn -0.603803 -0.797134 -0.0
vn -0.603803 -0.797134 0.0
vn -0.563428 -0.826165 0.0
vn -0.563428 -0.826165 0.0
vn -0.521368 -0.853332 0.0
vn -0.521368 -0.853332 0.0
vn -0.478175 -0.878265 0.0
vn -0.478175 -0.878265 0.0
vn -0.433895 -0.900964 0.0
vn -0.388428 -0.921479 -0.0
vn -0.433895 -0.900964 0.0
vn -0.388428 -0.921479 0.0
vn -0.342038 -0.939686 0.0
vn -0.342038 -0.939686 0.0
vn -0.294843 -0.955546 -0.0
vn -0.294843 -0.955546 0.0
vn -0.246665 -0.969101 0.0
vn -0.246665 -0.969101 0.0
vn -0.198215 -0.980159 0.0
vn -0.198215 -0.980159 0.0
vn -0.149014 -0.988835 -0.0
vn -0.149014 -0.988835 0.0
vn -0.099573 -0.99503 0.0
vn -0.099573 -0.99503 0.0
vn -0.049846 -0.998757 0.0
vn -0.049846 -0.998757 0.0
vn 0.0 -1.0 0.0
vn 0.0 -1.0 0.0
vn 0.049846 -0.998757 0.0
vn 0.049846 -0.998757 0.0
vn 0.099573 -0.99503 0.0
vn 0.099573 -0.99503 0.0
vn 0.149014 -0.988835 0.0
vn 0.149014 -0.988835 0.0
vn 0.198215 -0.980159 0.0
vn 0.198215 -0.980159 0.0
vn 0.246665 -0.969101 0.0
vn 0.294843 -0.955546 0.0
vn 0.246665 -0.969101 0.0
vn 0.294843 -0.955546 0.0
vn 0.342038 -0.939686 0.0
vn 0.342038 -0.939686 0.0
vn 0.388428 -0.921479 0.0
vn 0.388428 -0.921479 0.0
vn 0.433895 -0.900964 0.0
vn 0.433895 -0.900964 0.0
vn 0.478175 -0.878265 0.0
vn 0.478175 -0.878265 0.0
vn 0.521368 -0.853332 0.0
vn 0.521368 -0.853332 0.0
vn 0.563428 -0.826165 0.0
vn 0.563428 -0.826165 0.0
vn 0.603803 -0.797134 0.0
vn 0.603803 -0.797134 0.0
vn 0.64267 -0.766143 0.0
vn 0.64267 -0.766143 0.0
vn 0.680202 -0.733025 0.0
vn 0.680202 -0.733025 0.0
vn 0.715873 -0.698231 0.0
vn 0.715873 -0.698231 0.0
vn 0.74987 -0.661586 0.0
vn 0.74987 -0.661586 0.0
vn 0.78168 -0.62368 0.0
vn 0.78168 -0.62368 0.0
vn 0.811985 -0.583679 0.0
vn 0.811985 -0.583679 0.0
vn 0.840037 -0.54253 0.0
vn 0.840037 -0.54253 0.0
vn 0.866062 -0.499937 0.0
vn 0.866062 -0.499937 0.0
vn 0.889818 -0.456315 0.0
vn 0.889818 -0.456315 0.0
vn 0.911503 -0.411294 0.0
vn 0.930897 -0.365283 0.0
vn 0.911503 -0.411294 0.0
vn 0.930897 -0.365283 0.0
vn 0.947994 -0.318288 0.0
vn 0.947994 -0.318288 0.0
vn 0.962643 -0.270774 0.0
vn 0.974871 -0.222772 0.0
vn 0.962643 -0.270774 0.0
vn 0.974871 -0.222772 0.0
vn 0.984778 -0.173818 0.0
vn 0.984778 -0.173818 0.0
vn 0.992296 -0.123886 0.0
vn 0.992296 -0.123886 0.0
vn 0.99719 -0.074913 0.0
vn 0.99719 -0.074913 0.0
vn 0.999688 -0.024972 0.0
vn 0.999688 -0.024972 0.0
vn 0.0 0.0 -1.0
vn 0.0 0.0 -1.0
vn 0.0 0.0 -1.0
vn 0.0 0.0 -1.0
vn 0.0 0.0 -1.0
vn 0.0 0.0 -1.0
vn 0.0 0.0 -1.0
vn 0.0 0.0 -1.0
vn 0.0 0.0 -1.0
vn 0.0 0.0 -1.0
vn 0.0 0.0 -1.0
vn 0.0 0.0 -1.0
vn 0.0 0.0 -1.0
vn 0.0 0.0 -1.0
vn 0.0 0.0 -1.0
vn 0.0 0.0 -1.0
vn 0.0 0.0 -1.0
vn 0.0 0.0 -1.0
vn 0.0 0.0 -1.0
vn 0.0 0.0 -1.0
vn 0.0 0.0 -1.0
vn 0.0 0.0 -1.0
vn 0.0 0.0 -1.0
vn 0.0 0.0 -1.0
vn 0.0 0.0 -1.0
vn 0.0 0.0 -1.0
vn 0.0 0.0 -1.0
vn 0.0 0.0 -1.0
vn 0.0 -0.0 -1.0
vn 0.0 0.0 -1.0
vn 0.0 0.0 -1.0
vn 0.0 0.0 -1.0
vn 0.0 0.0 -1.0
vn 0.0 -0.0 -1.0
vn 0.0 -0.0 -1.0
vn 0.0 -0.0 -1.0
vn 0.0 -0.0 -1.0
vn 0.0 0.0 -1.0
vn 0.0 0.0 -1.0
vn 0.0 -0.0 -1.0
vn 0.0 -0.0 -1.0
vn 0.0 0.0 -1.0
vn 0.0 0.0 -1.0
vn 0.0 0.0 -1.0
vn 0.0 0.0 -1.0
vn 0.0 0.0 -1.0
vn 0.0 -0.0 -1.0
vn 0.0 0.0 -1.0
vn 0.0 0.0 -1.0
vn 0.0 -0.0 -1.0
vn 0.0 -0.0 -1.0
vn 0.0 0.0 -1.0
vn 0.0 0.0 -1.0
vn 0.0 0.0 -1.0
vn 0.0 0.0 -1.0
vn 0.0 0.0 -1.0
vn 0.0 -0.0 -1.0
vn 0.0 -0.0 -1.0
vn 0.0 -0.0 -1.0
vn 0.0 0.0 -1.0
vn 0.0 -0.0 -1.0
vn 0.0 -0.0 -1.0
vn 0.0 0.0 -1.0
vn 0.0 0.0 -1.0
vn 0.0 -0.0 -1.0
vn 0.0 -0.0 -1.0
vn 0.0 0.0 -1.0
vn 0.0 0.0 -1.0
vn 0.0 0.0 -1.0
vn 0.0 -0.0 -1.0
vn 0.0 -0.0 -1.0
vn 0.0 0.0 -1.0
vn 0.0 -0.0 -1.0
vn 0.0 0.0 -1.0
vn 0.0 0.0 -1.0
vn 0.0 0.0 -1.0
vn 0.0 0.0 -1.0
vn 0.0 -0.0 -1.0
vn 0.0 -0.0 -1.0
vn 0.0 0.0 -1.0
vn 0.0 0.0 -1.0
vn 0.0 0.0 -1.0
vn 0.0 -0.0 -1.0
vn 0.0 0.0 -1.0
vn 0.0 0.0 -1.0
vn 0.0 0.0 -1.0
vn 0.0 -0.0 -1.0
vn 0.0 -0.0 -1.0
vn 0.0 -0.0 -1.0
vn 0.0 0.0 -1.0
vn 0.0 0.0 -1.0
vn 0.0 0.0 -1.0
vn 0.0 0.0 -1.0
vn 0.0 -0.0 -1.0
vn -0.0 -0.0 -1.0
vn -0.0 -0.0 -1.0
vn -0.0 -0.0 -1.0
vn 0.0 0.0 -1.0
vn 0.0 0.0 -1.0
vn -0.0 -0.0 -1.0
vn 0.0 -0.0 -1.0
vn -0.0 -0.0 -1.0
vn 0.0 0.0 -1.0
vn 0.0 0.0 -1.0
vn 0.0 0.0 -1.0
vn -0.0 -0.0 -1.0
vn -0.0 -0.0 -1.0
vn 0.0 0.0 -1.0
vn -0.0 -0.0 -1.0
vn 0.0 0.0 -1.0
vn 0.0 0.0 -1.0
vn 0.0 0.0 -1.0
vn 0.0 0.0 -1.0
vn 0.0 0.0 -1.0
vn -0.0 -0.0 -1.0
vn -0.0 -0.0 -1.0
vn -0.0 -0.0 -1.0
vn -0.0 -0.0 -1.0
vn 0.0 0.0 -1.0
vn 0.0 0.0 -1.0
vn 0.0 0.0 -1.0
vn 0.0 0.0 -1.0
vn -0.0 -0.0 -1.0
vn 0.0 0.0 -1.0
vn 0.0 0.0 1.0
vn 0.0 0.0 1.0
vn 0.0 0.0 1.0
vn 0.0 0.0 1.0
vn 0.0 0.0 1.0
vn 0.0 0.0 1.0
vn 0.0 0.0 1.0
vn 0.0 0.0 1.0
vn 0.0 0.0 1.0
vn 0.0 0.0 1.0
vn 0.0 0.0 1.0
vn 0.0 0.0 1.0
vn 0.0 0.0 1.0
vn 0.0 0.0 1.0
vn 0.0 0.0 1.0
vn 0.0 0.0 1.0
vn 0.0 0.0 1.0
vn 0.0 0.0 1.0
vn 0.0 0.0 1.0
vn 0.0 0.0 1.0
vn 0.0 0.0 1.0
vn 0.0 0.0 1.0
vn 0.0 0.0 1.0
vn 0.0 0.0 1.0
vn 0.0 0.0 1.0
vn 0.0 0.0 1.0
vn 0.0 0.0 1.0
vn 0.0 0.0 1.0
vn 0.0 0.0 1.0
vn 0.0 0.0 1.0
vn 0.0 0.0 1.0
vn 0.0 0.0 1.0
vn 0.0 0.0 1.0
vn 0.0 0.0 1.0
vn 0.0 0.0 1.0
vn 0.0 0.0 1.0
vn 0.0 0.0 1.0
vn 0.0 0.0 1.0
vn 0.0 0.0 1.0
vn 0.0 0.0 1.0
vn 0.0 0.0 1.0
vn 0.0 0.0 1.0
vn 0.0 0.0 1.0
vn 0.0 0.0 1.0
vn 0.0 0.0 1.0
vn 0.0 0.0 1.0
vn 0.0 0.0 1.0
vn 0.0 0.0 1.0
vn 0.0 0.0 1.0
vn 0.0 0.0 1.0
vn 0.0 0.0 1.0
vn 0.0 0.0 1.0
vn 0.0 0.0 1.0
vn 0.0 0.0 1.0
vn 0.0 0.0 1.0
vn 0.0 0.0 1.0
vn 0.0 0.0 1.0
vn 0.0 0.0 1.0
vn 0.0 0.0 1.0
vn 0.0 0.0 1.0
vn 0.0 0.0 1.0
vn 0.0 0.0 1.0
vn 0.0 0.0 1.0
vn 0.0 0.0 1.0
vn 0.0 0.0 1.0
vn 0.0 0.0 1.0
vn 0.0 0.0 1.0
vn 0.0 0.0 1.0
vn 0.0 0.0 1.0
vn 0.0 0.0 1.0
vn 0.0 0.0 1.0
vn 0.0 0.0 1.0
vn 0.0 0.0 1.0
vn 0.0 0.0 1.0
vn 0.0 0.0 1.0
vn 0.0 0.0 1.0
vn 0.0 0.0 1.0
vn 0.0 0.0 1.0
vn 0.0 0.0 1.0
vn 0.0 0.0 1.0
vn 0.0 0.0 1.0
vn 0.0 0.0 1.0
vn 0.0 0.0 1.0
vn 0.0 0.0 1.0
vn 0.0 0.0 1.0
vn 0.0 0.0 1.0
vn 0.0 0.0 1.0
vn 0.0 0.0 1.0
vn 0.0 0.0 1.0
vn 0.0 0.0 1.0
vn 0.0 0.0 1.0
vn 0.0 0.0 1.0
vn 0.0 0.0 1.0
vn 0.0 0.0 1.0
vn 0.0 0.0 1.0
vn 0.0 0.0 1.0
vn 0.0 0.0 1.0
vn 0.0 0.0 1.0
vn 0.0 0.0 1.0
vn 0.0 0.0 1.0
vn 0.0 0.0 1.0
vn 0.0 0.0 1.0
vn 0.0 0.0 1.0
vn 0.0 0.0 1.0
vn 0.0 0.0 1.0
vn 0.0 0.0 1.0
vn 0.0 0.0 1.0
vn 0.0 0.0 1.0
vn 0.0 0.0 1.0
vn 0.0 0.0 1.0
vn 0.0 0.0 1.0
vn 0.0 0.0 1.0
vn 0.0 0.0 1.0
vn 0.0 0.0 1.0
vn 0.0 0.0 1.0
vn 0.0 0.0 1.0
vn 0.0 0.0 1.0
vn 0.0 0.0 1.0
vn 0.0 0.0 1.0
vn 0.0 0.0 1.0
vn 0.0 0.0 1.0
vn 0.0 0.0 1.0
vn 0.0 0.0 1.0
vn 0.0 0.0 1.0
f 1//1 2//1 3//1 
f 3//2 2//2 4//2 
f 4//3 2//3 5//3 
f 5//4 6//4 7//4 
f 2//5 6//5 5//5 
f 6//6 8//6 7//6 
f 7//7 9//7 10//7 
f 8//8 9//8 7//8 
f 10//9 11//9 12//9 
f 9//10 11//10 10//10 
f 12//11 13//11 14//11 
f 11//12 13//12 12//12 
f 14//13 15//13 16//13 
f 16//14 15//14 17//14 
f 13//15 15//15 14//15 
f 15//16 18//16 17//16 
f 17//17 19//17 20//17 
f 20//18 19//18 21//18 
f 18//19 19//19 17//19 
f 19//20 22//20 21//20 
f 22//21 23//21 21//21 
f 21//22 23//22 24//22 
f 23//23 25//23 24//23 
f 24//24 25//24 26//24 
f 25//25 27//25 26//25 
f 26//26 27//26 28//26 
f 28//27 27//27 29//27 
f 27//28 30//28 29//28 
f 29//29 30//29 31//29 
f 31//30 32//30 33//30 
f 30//31 32//31 31//31 
f 32//32 34//32 33//32 
f 33//33 35//33 36//33 
f 36//34 35//34 37//34 
f 34//35 35//35 33//35 
f 35//36 38//36 37//36 
f 37//37 39//37 40//37 
f 38//38 39//38 37//38 
f 40//39 41//39 42//39 
f 39//40 41//40 40//40 
f 42//41 43//41 44//41 
f 44//42 43//42 45//42 
f 41//43 43//43 42//43 
f 45//44 46//44 47//44 
f 43//45 46//45 45//45 
f 46//46 48//46 47//46 
f 47//47 49//47 50//47 
f 48//48 49//48 47//48 
f 50//49 51//49 52//49 
f 49//50 51//50 50//50 
f 52//51 53//51 54//51 
f 51//52 53//52 52//52 
f 54//53 55//53 56//53 
f 53//54 55//54 54//54 
f 56//55 57//55 58//55 
f 55//56 57//56 56//56 
f 58//57 59//57 60//57 
f 60//58 59//58 61//58 
f 57//59 59//59 58//59 
f 59//60 62//60 61//60 
f 61//61 63//61 64//61 
f 62//62 63//62 61//62 
f 64//63 65//63 66//63 
f 66//64 65//64 67//64 
f 63//65 65//65 64//65 
f 67//66 68//66 69//66 
f 65//67 68//67 67//67 
f 68//68 70//68 69//68 
f 69//69 71//69 72//69 
f 72//70 71//70 73//70 
f 70//71 71//71 69//71 
f 71//72 74//72 73//72 
f 74//73 75//73 73//73 
f 73//74 75//74 76//74 
f 75//75 77//75 76//75 
f 76//76 77//76 78//76 
f 78//77 77//77 79//77 
f 77//78 80//78 79//78 
f 80//79 81//79 79//79 
f 79//80 81//80 82//80 
f 81//81 83//81 82//81 
f 82//82 83//82 84//82 
f 83//83 85//83 84//83 
f 84//84 85//84 86//84 
f 85//85 87//85 86//85 
f 86//86 87//86 88//86 
f 88//87 87//87 89//87 
f 87//88 90//88 89//88 
f 89//89 90//89 91//89 
f 90//90 92//90 91//90 
f 91//91 92//91 93//91 
f 92//92 94//92 93//92 
f 94//93 95//93 93//93 
f 93//94 95//94 96//94 
f 96//95 95//95 97//95 
f 95//96 98//96 97//96 
f 97//97 99//97 100//97 
f 100//98 99//98 101//98 
f 98//99 99//99 97//99 
f 99//100 102//100 101//100 
f 101//101 103//101 104//101 
f 102//102 103//102 101//102 
f 104//103 105//103 106//103 
f 106//104 105//104 107//104 
f 103//105 105//105 104//105 
f 105//106 108//106 107//106 
f 107//107 109//107 110//107 
f 108//108 109//108 107//108 
f 110//109 111//109 112//109 
f 109//110 111//110 110//110 
f 112//111 113//111 114//111 
f 114//112 113//112 115//112 
f 111//113 113//113 112//113 
f 113//114 116//114 115//114 
f 115//115 117//115 118//115 
f 118//116 117//116 119//116 
f 116//117 117//117 115//117 
f 117//118 120//118 119//118 
f 119//119 121//119 122//119 
f 122//120 121//120 123//120 
f 120//121 121//121 119//121 
f 121//122 124//122 123//122 
f 124//123 125//123 123//123 
f 123//124 125//124 126//124 
f 125//125 127//125 126//125 
f 126//126 127//126 128//126 
f 128//127 127//127 129//127 
f 127//128 130//128 129//128 
f 130//129 131//129 129//129 
f 129//130 131//130 132//130 
f 132//131 131//131 133//131 
f 131//132 134//132 133//132 
f 134//133 135//133 133//133 
f 133//134 135//134 136//134 
f 136//135 135//135 137//135 
f 135//136 138//136 137//136 
f 138//137 139//137 137//137 
f 137//138 139//138 140//138 
f 140//139 139//139 141//139 
f 139//140 142//140 141//140 
f 141//141 142//141 143//141 
f 142//142 144//142 143//142 
f 144//143 145//143 143//143 
f 143//144 145//144 146//144 
f 146//145 145//145 147//145 
f 145//146 148//146 147//146 
f 148//147 149//147 147//147 
f 147//148 149//148 150//148 
f 149//149 151//149 150//149 
f 150//150 151//150 152//150 
f 152//151 151//151 153//151 
f 151//152 154//152 153//152 
f 154//153 155//153 153//153 
f 153//154 155//154 156//154 
f 155//155 157//155 156//155 
f 156//156 157//156 158//156 
f 158//157 157//157 159//157 
f 157//158 160//158 159//158 
f 159//159 160//159 161//159 
f 160//160 162//160 161//160 
f 162//161 163//161 161//161 
f 161//162 163//162 164//162 
f 164//163 163//163 165//163 
f 163//164 166//164 165//164 
f 165//165 167//165 168//165 
f 166//166 167//166 165//166 
f 168//167 169//167 170//167 
f 167//168 169//168 168//168 
f 170//169 171//169 172//169 
f 169//170 171//170 170//170 
f 172//171 173//171 174//171 
f 174//172 173//172 175//172 
f 171//173 173//173 172//173 
f 173//174 176//174 175//174 
f 176//175 177//175 175//175 
f 175//176 177//176 178//176 
f 178//177 177//177 179//177 
f 177//178 180//178 179//178 
f 180//179 181//179 179//179 
f 179//180 181//180 182//180 
f 181//181 183//181 182//181 
f 182//182 183//182 184//182 
f 184//183 183//183 185//183 
f 183//184 186//184 185//184 
f 186//185 187//185 185//185 
f 185//186 187//186 188//186 
f 187//187 189//187 188//187 
f 188//188 189//188 190//188 
f 189//189 191//189 190//189 
f 190//190 191//190 192//190 
f 192//191 191//191 193//191 
f 191//192 194//192 193//192 
f 193//193 194//193 195//193 
f 194//194 196//194 195//194 
f 196//195 197//195 195//195 
f 195//196 197//196 198//196 
f 197//197 199//197 198//197 
f 198//198 199//198 200//198 
f 200//199 201//199 202//199 
f 202//200 201//200 203//200 
f 199//201 201//201 200//201 
f 201//202 204//202 203//202 
f 203//203 205//203 206//203 
f 204//204 205//204 203//204 
f 206//205 207//205 208//205 
f 205//206 207//206 206//206 
f 208//207 209//207 210//207 
f 207//208 209//208 208//208 
f 210//209 211//209 212//209 
f 209//210 211//210 210//210 
f 212//211 213//211 214//211 
f 211//212 213//212 212//212 
f 214//213 215//213 216//213 
f 213//214 215//214 214//214 
f 216//215 217//215 218//215 
f 215//216 217//216 216//216 
f 218//217 219//217 220//217 
f 217//218 219//218 218//218 
f 220//219 221//219 222//219 
f 219//220 221//220 220//220 
f 222//221 223//221 224//221 
f 221//222 223//222 222//222 
f 223//223 225//223 224//223 
f 224//224 225//224 226//224 
f 226//225 225//225 227//225 
f 225//226 228//226 227//226 
f 228//227 229//227 227//227 
f 227//228 229//228 230//228 
f 229//229 231//229 230//229 
f 230//230 231//230 232//230 
f 232//231 231//231 233//231 
f 231//232 234//232 233//232 
f 233//233 234//233 235//233 
f 234//234 236//234 235//234 
f 235//235 237//235 238//235 
f 238//236 237//236 239//236 
f 236//237 237//237 235//237 
f 237//238 240//238 239//238 
f 239//239 241//239 242//239 
f 240//240 241//240 239//240 
f 242//241 243//241 244//241 
f 244//242 243//242 245//242 
f 241//243 243//243 242//243 
f 243//244 246//244 245//244 
f 245//245 247//245 248//245 
f 246//246 247//246 245//246 
f 248//247 249//247 250//247 
f 247//248 249//248 248//248 
f 250//249 251//249 252//249 
f 249//250 251//250 250//250 
f 251//251 1//251 252//251 
f 252//252 1//252 3//252 
f 155//253 154//253 157//253 
f 157//254 154//254 160//254 
f 163//255 167//255 166//255 
f 154//256 149//256 160//256 
f 151//257 149//257 154//257 
f 160//258 149//258 162//258 
f 162//259 149//259 163//259 
f 167//260 171//260 169//260 
f 148//261 145//261 149//261 
f 145//262 144//262 149//262 
f 167//263 176//263 171//263 
f 171//264 176//264 173//264 
f 176//265 180//265 177//265 
f 163//266 138//266 167//266 
f 149//267 138//267 163//267 
f 144//268 138//268 149//268 
f 139//269 138//269 142//269 
f 142//270 138//270 144//270 
f 176//271 181//271 180//271 
f 176//272 183//272 181//272 
f 135//273 134//273 138//273 
f 183//274 187//274 186//274 
f 131//275 130//275 134//275 
f 167//276 189//276 176//276 
f 176//277 189//277 183//277 
f 183//278 189//278 187//278 
f 127//279 125//279 130//279 
f 189//280 194//280 191//280 
f 124//281 121//281 125//281 
f 125//282 121//282 130//282 
f 194//283 197//283 196//283 
f 189//284 197//284 194//284 
f 189//285 199//285 197//285 
f 117//286 116//286 120//286 
f 121//287 113//287 130//287 
f 116//288 113//288 120//288 
f 120//289 113//289 121//289 
f 130//290 113//290 134//290 
f 189//291 109//291 199//291 
f 113//292 109//292 134//292 
f 111//293 109//293 113//293 
f 138//294 109//294 167//294 
f 134//295 109//295 138//295 
f 167//296 109//296 189//296 
f 207//297 211//297 209//297 
f 207//298 213//298 211//298 
f 105//299 103//299 108//299 
f 205//300 215//300 207//300 
f 207//301 215//301 213//301 
f 103//302 99//302 108//302 
f 102//303 99//303 103//303 
f 201//304 219//304 204//304 
f 204//305 219//305 205//305 
f 215//306 219//306 217//306 
f 205//307 219//307 215//307 
f 199//308 219//308 201//308 
f 99//309 95//309 108//309 
f 98//310 95//310 99//310 
f 108//311 95//311 109//311 
f 219//312 223//312 221//312 
f 95//313 92//313 109//313 
f 94//314 92//314 95//314 
f 223//315 229//315 225//315 
f 225//316 229//316 228//316 
f 87//317 85//317 90//317 
f 90//318 85//318 92//318 
f 231//319 236//319 234//319 
f 109//320 81//320 199//320 
f 219//321 81//321 223//321 
f 83//322 81//322 85//322 
f 92//323 81//323 109//323 
f 199//324 81//324 219//324 
f 85//325 81//325 92//325 
f 229//326 237//326 231//326 
f 231//327 237//327 236//327 
f 223//328 240//328 229//328 
f 229//329 240//329 237//329 
f 80//330 77//330 81//330 
f 77//331 75//331 81//331 
f 240//332 243//332 241//332 
f 223//333 243//333 240//333 
f 81//334 74//334 223//334 
f 75//335 74//335 81//335 
f 74//336 246//336 223//336 
f 223//337 246//337 243//337 
f 247//338 251//338 249//338 
f 68//339 65//339 70//339 
f 70//340 65//340 71//340 
f 71//341 65//341 74//341 
f 247//342 1//342 251//342 
f 246//343 1//343 247//343 
f 1//344 8//344 2//344 
f 2//345 8//345 6//345 
f 65//346 57//346 74//346 
f 59//347 57//347 62//347 
f 62//348 57//348 63//348 
f 63//349 57//349 65//349 
f 1//350 9//350 8//350 
f 246//351 9//351 1//351 
f 55//352 53//352 57//352 
f 57//353 51//353 74//353 
f 53//354 51//354 57//354 
f 9//355 15//355 11//355 
f 11//356 15//356 13//356 
f 246//357 15//357 9//357 
f 49//358 48//358 51//358 
f 48//359 46//359 51//359 
f 18//360 22//360 19//360 
f 46//361 43//361 51//361 
f 15//362 23//362 18//362 
f 18//363 23//363 22//363 
f 246//364 25//364 15//364 
f 15//365 25//365 23//365 
f 74//366 39//366 246//366 
f 41//367 39//367 43//367 
f 51//368 39//368 74//368 
f 43//369 39//369 51//369 
f 38//370 35//370 39//370 
f 25//371 32//371 27//371 
f 27//372 32//372 30//372 
f 246//373 32//373 25//373 
f 39//374 34//374 246//374 
f 35//375 34//375 39//375 
f 246//376 34//376 32//376 
f 153//377 156//377 158//377 
f 153//378 158//378 159//378 
f 168//379 164//379 165//379 
f 150//380 153//380 159//380 
f 150//381 152//381 153//381 
f 150//382 159//382 161//382 
f 150//383 161//383 164//383 
f 172//384 168//384 170//384 
f 146//385 147//385 150//385 
f 143//386 146//386 150//386 
f 175//387 168//387 172//387 
f 175//388 172//388 174//388 
f 179//389 175//389 178//389 
f 137//390 164//390 168//390 
f 137//391 150//391 164//391 
f 137//392 143//392 150//392 
f 137//393 140//393 141//393 
f 137//394 141//394 143//394 
f 182//395 175//395 179//395 
f 184//396 175//396 182//396 
f 133//397 136//397 137//397 
f 188//398 184//398 185//398 
f 129//399 132//399 133//399 
f 190//400 168//400 175//400 
f 190//401 175//401 184//401 
f 190//402 184//402 188//402 
f 126//403 128//403 129//403 
f 193//404 190//404 192//404 
f 122//405 123//405 126//405 
f 122//406 126//406 129//406 
f 198//407 193//407 195//407 
f 198//408 190//408 193//408 
f 200//409 190//409 198//409 
f 115//410 118//410 119//410 
f 114//411 122//411 129//411 
f 114//412 115//412 119//412 
f 114//413 119//413 122//413 
f 114//414 129//414 133//414 
f 110//415 190//415 200//415 
f 110//416 114//416 133//416 
f 110//417 112//417 114//417 
f 110//418 137//418 168//418 
f 110//419 133//419 137//419 
f 110//420 168//420 190//420 
f 212//421 208//421 210//421 
f 214//422 208//422 212//422 
f 104//423 106//423 107//423 
f 216//424 206//424 208//424 
f 216//425 208//425 214//425 
f 100//426 104//426 107//426 
f 100//427 101//427 104//427 
f 220//428 202//428 203//428 
f 220//429 203//429 206//429 
f 220//430 216//430 218//430 
f 220//431 206//431 216//431 
f 220//432 200//432 202//432 
f 96//433 100//433 107//433 
f 96//434 97//434 100//434 
f 96//435 107//435 110//435 
f 224//436 220//436 222//436 
f 91//437 96//437 110//437 
f 91//438 93//438 96//438 
f 230//439 224//439 226//439 
f 230//440 226//440 227//440 
f 86//441 88//441 89//441 
f 86//442 89//442 91//442 
f 235//443 232//443 233//443 
f 82//444 110//444 200//444 
f 82//445 220//445 224//445 
f 82//446 84//446 86//446 
f 82//447 91//447 110//447 
f 82//448 200//448 220//448 
f 82//449 86//449 91//449 
f 238//450 230//450 232//450 
f 238//451 232//451 235//451 
f 239//452 224//452 230//452 
f 239//453 230//453 238//453 
f 78//454 79//454 82//454 
f 76//455 78//455 82//455 
f 244//456 239//456 242//456 
f 244//457 224//457 239//457 
f 73//458 82//458 224//458 
f 73//459 76//459 82//459 
f 245//460 73//460 224//460 
f 245//461 224//461 244//461 
f 252//462 248//462 250//462 
f 66//463 67//463 69//463 
f 66//464 69//464 72//464 
f 66//465 72//465 73//465 
f 3//466 248//466 252//466 
f 3//467 245//467 248//467 
f 7//468 3//468 4//468 
f 7//469 4//469 5//469 
f 58//470 66//470 73//470 
f 58//471 60//471 61//471 
f 58//472 61//472 64//472 
f 58//473 64//473 66//473 
f 10//474 3//474 7//474 
f 10//475 245//475 3//475 
f 54//476 56//476 58//476 
f 52//477 58//477 73//477 
f 52//478 54//478 58//478 
f 16//479 10//479 12//479 
f 16//480 12//480 14//480 
f 16//481 245//481 10//481 
f 47//482 50//482 52//482 
f 45//483 47//483 52//483 
f 21//484 17//484 20//484 
f 44//485 45//485 52//485 
f 24//486 16//486 17//486 
f 24//487 17//487 21//487 
f 26//488 245//488 16//488 
f 26//489 16//489 24//489 
f 40//490 73//490 245//490 
f 40//491 42//491 44//491 
f 40//492 52//492 73//492 
f 40//493 44//493 52//493 
f 36//494 37//494 40//494 
f 31//495 26//495 28//495 
f 31//496 28//496 29//496 
f 31//497 245//497 26//497 
f 33//498 40//498 245//498 
f 33//499 36//499 40//499 
f 33//500 245//500 31//500 
