# FreeCAD v1.0 build1 Arch module
# https://www.freecad.org
mtllib Boat_Type001_Decking.mtl
o Boat_Decking_Multi
usemtl color_8a8c82
v 7000.0 0.0 0.0
v 3025.730713 0.0 0.0
v 3025.730713 0.0 100.0
v 7000.0 0.0 100.0
v 7000.0 -2000.0 0.0
v 7000.0 -2000.0 100.0
v 0.0 -2000.0 0.0
v 0.0 -2000.0 100.0
v 0.0 -820.11615 0.0
v 0.0 -820.11615 100.0
v 888.395142 -426.679749 0.0
v 888.395142 -426.679749 100.0
v 2980.921143 0.43725 0.0
v 2980.921143 0.43725 100.0
v 2936.109375 0.488382 100.0
v 2936.109375 0.488382 0.0
v 2891.299072 0.153391 0.0
v 2891.299072 0.153391 100.0
v 2846.493164 -0.567699 0.0
v 2846.493164 -0.567699 100.0
v 2801.695068 -1.674832 0.0
v 2801.695068 -1.674832 100.0
v 2756.908203 -3.167928 0.0
v 2756.908203 -3.167928 100.0
v 2712.135742 -5.046875 0.0
v 2712.135742 -5.046875 100.0
v 2667.381348 -7.311534 0.0
v 2667.381348 -7.311534 100.0
v 2622.647949 -9.961738 0.0
v 2622.647949 -9.961738 100.0
v 2577.939209 -12.997287 0.0
v 2577.939209 -12.997287 100.0
v 2533.258057 -16.417957 0.0
v 2533.258057 -16.417957 100.0
v 2488.608398 -20.223497 100.0
v 2488.608398 -20.223497 0.0
v 2443.99292 -24.41362 0.0
v 2443.99292 -24.41362 100.0
v 2399.415283 -28.988018 0.0
v 2399.415283 -28.988018 100.0
v 2354.878662 -33.94635 0.0
v 2354.878662 -33.94635 100.0
v 2310.386475 -39.28825 100.0
v 2310.386475 -39.28825 0.0
v 2265.941895 -45.013317 0.0
v 2265.941895 -45.013317 100.0
v 2221.54834 -51.121128 0.0
v 2221.54834 -51.121128 100.0
v 2177.208984 -57.611233 0.0
v 2177.208984 -57.611233 100.0
v 2132.92749 -64.483147 100.0
v 2132.92749 -64.483147 0.0
v 2088.706543 -71.736359 0.0
v 2088.706543 -71.736359 100.0
v 2044.549805 -79.370331 0.0
v 2044.549805 -79.370331 100.0
v 2000.460571 -87.384491 100.0
v 2000.460571 -87.384491 0.0
v 1956.441895 -95.778259 100.0
v 1956.441895 -95.778259 0.0
v 1912.497314 -104.551003 0.0
v 1912.497314 -104.551003 100.0
v 1868.629883 -113.702065 0.0
v 1868.629883 -113.702065 100.0
v 1824.842896 -123.230774 100.0
v 1824.842896 -123.230774 0.0
v 1781.139648 -133.136414 0.0
v 1781.139648 -133.136414 100.0
v 1737.523438 -143.418259 100.0
v 1737.523438 -143.418259 0.0
v 1693.997437 -154.075546 0.0
v 1693.997437 -154.075546 100.0
v 1650.564819 -165.107483 100.0
v 1650.564819 -165.107483 0.0
v 1607.229004 -176.513245 0.0
v 1607.229004 -176.513245 100.0
v 1563.99292 -188.291992 0.0
v 1563.99292 -188.291992 100.0
v 1520.859985 -200.442841 100.0
v 1520.859985 -200.442841 0.0
v 1477.833374 -212.96489 100.0
v 1477.833374 -212.96489 0.0
v 1434.91626 -225.857208 0.0
v 1434.91626 -225.857208 100.0
v 1392.111816 -239.118866 100.0
v 1392.111816 -239.118866 0.0
v 1349.423218 -252.74884 0.0
v 1349.423218 -252.74884 100.0
v 1306.853638 -266.746124 100.0
v 1306.853638 -266.746124 0.0
v 1264.40625 -281.109711 0.0
v 1264.40625 -281.109711 100.0
v 1222.084229 -295.838531 100.0
v 1222.084229 -295.838531 0.0
v 1179.890625 -310.931427 0.0
v 1179.890625 -310.931427 100.0
v 1137.828735 -326.38736 100.0
v 1137.828735 -326.38736 0.0
v 1095.901489 -342.205139 0.0
v 1095.901489 -342.205139 100.0
v 1054.112183 -358.383575 100.0
v 1054.112183 -358.383575 0.0
v 1012.463745 -374.921509 0.0
v 1012.463745 -374.921509 100.0
v 970.959351 -391.817688 100.0
v 970.959351 -391.817688 0.0
v 929.602173 -409.070862 0.0
v 929.602173 -409.070862 100.0
vn 0.0 1.0 0.0
vn 0.0 1.0 -0.0
vn 1.0 0.0 0.0
vn 1.0 0.0 0.0
vn 0.0 -1.0 0.0
vn 0.0 -1.0 0.0
vn -1.0 0.0 0.0
vn -1.0 -0.0 0.0
vn -0.40493 0.914348 0.0
vn -0.40493 0.914348 0.0
vn 0.009758 0.999952 -0.0
vn 0.009758 0.999952 0.0
vn 0.001141 0.999999 0.0
vn 0.001141 0.999999 0.0
vn -0.007476 0.999972 0.0
vn -0.007476 0.999972 0.0
vn -0.016092 0.999871 0.0
vn -0.016092 0.999871 0.0
vn -0.024706 0.999695 0.0
vn -0.024706 0.999695 0.0
vn -0.033319 0.999445 0.0
vn -0.033319 0.999445 0.0
vn -0.04193 0.999121 0.0
vn -0.04193 0.999121 0.0
vn -0.050537 0.998722 0.0
vn -0.050537 0.998722 0.0
vn -0.059141 0.99825 0.0
vn -0.059141 0.99825 0.0
vn -0.06774 0.997703 0.0
vn -0.06774 0.997703 0.0
vn -0.076334 0.997082 0.0
vn -0.084923 0.996387 0.0
vn -0.076334 0.997082 0.0
vn -0.084923 0.996387 0.0
vn -0.093505 0.995619 0.0
vn -0.093505 0.995619 0.0
vn -0.10208 0.994776 0.0
vn -0.10208 0.994776 0.0
vn -0.110648 0.99386 0.0
vn -0.119208 0.992869 0.0
vn -0.110648 0.99386 0.0
vn -0.119208 0.992869 0.0
vn -0.127758 0.991805 0.0
vn -0.127758 0.991805 0.0
vn -0.136299 0.990668 0.0
vn -0.136299 0.990668 0.0
vn -0.14483 0.989457 0.0
vn -0.153351 0.988172 0.0
vn -0.14483 0.989457 0.0
vn -0.153351 0.988172 0.0
vn -0.161859 0.986814 0.0
vn -0.161859 0.986814 0.0
vn -0.170356 0.985382 0.0
vn -0.178841 0.983878 0.0
vn -0.170356 0.985382 0.0
vn -0.187311 0.982301 0.0
vn -0.178841 0.983878 0.0
vn -0.187311 0.982301 0.0
vn -0.195769 0.98065 0.0
vn -0.195769 0.98065 0.0
vn -0.204211 0.978927 0.0
vn -0.204211 0.978927 0.0
vn -0.212638 0.977131 0.0
vn -0.212638 0.977131 0.0
vn -0.22105 0.975263 0.0
vn -0.22105 0.975263 0.0
vn -0.229445 0.973322 0.0
vn -0.229445 0.973322 0.0
vn -0.237824 0.971308 0.0
vn -0.237824 0.971308 0.0
vn -0.246184 0.969223 0.0
vn -0.246184 0.969223 0.0
vn -0.254527 0.967066 0.0
vn -0.254527 0.967066 0.0
vn -0.262849 0.964837 0.0
vn -0.271153 0.962536 0.0
vn -0.262849 0.964837 0.0
vn -0.279437 0.960164 0.0
vn -0.271153 0.962536 0.0
vn -0.279437 0.960164 0.0
vn -0.2877 0.957721 0.0
vn -0.295942 0.955206 0.0
vn -0.2877 0.957721 0.0
vn -0.295942 0.955206 0.0
vn -0.304161 0.952621 0.0
vn -0.312357 0.949965 0.0
vn -0.304161 0.952621 0.0
vn -0.312357 0.949965 0.0
vn -0.320532 0.947238 0.0
vn -0.328682 0.944441 0.0
vn -0.320532 0.947238 0.0
vn -0.328682 0.944441 0.0
vn -0.336806 0.941574 0.0
vn -0.344908 0.938636 0.0
vn -0.336806 0.941574 0.0
vn -0.344908 0.938636 0.0
vn -0.352983 0.93563 0.0
vn -0.361032 0.932554 0.0
vn -0.352983 0.93563 0.0
vn -0.361032 0.932554 0.0
vn -0.369053 0.929408 0.0
vn -0.377048 0.926194 0.0
vn -0.369053 0.929408 0.0
vn -0.377048 0.926194 0.0
vn -0.385015 0.92291 0.0
vn -0.385015 0.92291 0.0
vn -0.392953 0.919559 0.0
vn -0.392953 0.919559 0.0
vn 0.0 0.0 -1.0
vn 0.0 -0.0 -1.0
vn 0.0 -0.0 -1.0
vn 0.0 -0.0 -1.0
vn 0.0 -0.0 -1.0
vn 0.0 -0.0 -1.0
vn 0.0 -0.0 -1.0
vn 0.0 -0.0 -1.0
vn 0.0 -0.0 -1.0
vn 0.0 -0.0 -1.0
vn 0.0 -0.0 -1.0
vn 0.0 -0.0 -1.0
vn 0.0 -0.0 -1.0
vn 0.0 -0.0 -1.0
vn 0.0 -0.0 -1.0
vn 0.0 -0.0 -1.0
vn 0.0 -0.0 -1.0
vn 0.0 -0.0 -1.0
vn 0.0 -0.0 -1.0
vn 0.0 -0.0 -1.0
vn 0.0 -0.0 -1.0
vn 0.0 -0.0 -1.0
vn 0.0 -0.0 -1.0
vn 0.0 -0.0 -1.0
vn 0.0 -0.0 -1.0
vn 0.0 -0.0 -1.0
vn 0.0 -0.0 -1.0
vn 0.0 -0.0 -1.0
vn 0.0 -0.0 -1.0
vn 0.0 -0.0 -1.0
vn 0.0 -0.0 -1.0
vn 0.0 -0.0 -1.0
vn 0.0 -0.0 -1.0
vn 0.0 -0.0 -1.0
vn 0.0 -0.0 -1.0
vn 0.0 -0.0 -1.0
vn 0.0 -0.0 -1.0
vn 0.0 -0.0 -1.0
vn 0.0 -0.0 -1.0
vn 0.0 -0.0 -1.0
vn 0.0 -0.0 -1.0
vn 0.0 -0.0 -1.0
vn 0.0 -0.0 -1.0
vn 0.0 -0.0 -1.0
vn 0.0 -0.0 -1.0
vn 0.0 -0.0 -1.0
vn 0.0 -0.0 -1.0
vn 0.0 -0.0 -1.0
vn 0.0 -0.0 -1.0
vn 0.0 -0.0 -1.0
vn 0.0 -0.0 -1.0
vn 0.0 0.0 -1.0
vn 0.0 0.0 1.0
vn 0.0 0.0 1.0
vn 0.0 0.0 1.0
vn 0.0 0.0 1.0
vn 0.0 0.0 1.0
vn 0.0 0.0 1.0
vn 0.0 0.0 1.0
vn 0.0 0.0 1.0
vn 0.0 0.0 1.0
vn 0.0 0.0 1.0
vn 0.0 0.0 1.0
vn 0.0 0.0 1.0
vn 0.0 0.0 1.0
vn 0.0 0.0 1.0
vn 0.0 0.0 1.0
vn 0.0 0.0 1.0
vn 0.0 0.0 1.0
vn 0.0 0.0 1.0
vn 0.0 0.0 1.0
vn 0.0 0.0 1.0
vn 0.0 0.0 1.0
vn 0.0 0.0 1.0
vn 0.0 0.0 1.0
vn 0.0 0.0 1.0
vn 0.0 0.0 1.0
vn 0.0 0.0 1.0
vn 0.0 0.0 1.0
vn 0.0 0.0 1.0
vn 0.0 0.0 1.0
vn 0.0 0.0 1.0
vn 0.0 0.0 1.0
vn 0.0 0.0 1.0
vn 0.0 0.0 1.0
vn 0.0 0.0 1.0
vn 0.0 0.0 1.0
vn 0.0 0.0 1.0
vn 0.0 0.0 1.0
vn 0.0 0.0 1.0
vn 0.0 0.0 1.0
vn 0.0 0.0 1.0
vn 0.0 0.0 1.0
vn 0.0 0.0 1.0
vn 0.0 0.0 1.0
vn 0.0 0.0 1.0
vn 0.0 0.0 1.0
vn 0.0 0.0 1.0
vn 0.0 0.0 1.0
vn 0.0 0.0 1.0
vn 0.0 0.0 1.0
vn 0.0 0.0 1.0
vn 0.0 0.0 1.0
vn 0.0 0.0 1.0
f 1//1 2//1 3//1 
f 1//2 3//2 4//2 
f 5//3 1//3 4//3 
f 5//4 4//4 6//4 
f 7//5 5//5 8//5 
f 8//6 5//6 6//6 
f 9//7 7//7 10//7 
f 10//8 7//8 8//8 
f 11//9 9//9 12//9 
f 12//10 9//10 10//10 
f 2//11 13//11 3//11 
f 3//12 13//12 14//12 
f 14//13 13//13 15//13 
f 13//14 16//14 15//14 
f 15//15 17//15 18//15 
f 16//16 17//16 15//16 
f 18//17 19//17 20//17 
f 17//18 19//18 18//18 
f 20//19 21//19 22//19 
f 19//20 21//20 20//20 
f 22//21 23//21 24//21 
f 21//22 23//22 22//22 
f 24//23 25//23 26//23 
f 23//24 25//24 24//24 
f 26//25 27//25 28//25 
f 25//26 27//26 26//26 
f 28//27 29//27 30//27 
f 27//28 29//28 28//28 
f 30//29 31//29 32//29 
f 29//30 31//30 30//30 
f 32//31 33//31 34//31 
f 34//32 33//32 35//32 
f 31//33 33//33 32//33 
f 33//34 36//34 35//34 
f 35//35 37//35 38//35 
f 36//36 37//36 35//36 
f 38//37 39//37 40//37 
f 37//38 39//38 38//38 
f 40//39 41//39 42//39 
f 42//40 41//40 43//40 
f 39//41 41//41 40//41 
f 41//42 44//42 43//42 
f 43//43 45//43 46//43 
f 44//44 45//44 43//44 
f 46//45 47//45 48//45 
f 45//46 47//46 46//46 
f 48//47 49//47 50//47 
f 50//48 49//48 51//48 
f 47//49 49//49 48//49 
f 49//50 52//50 51//50 
f 51//51 53//51 54//51 
f 52//52 53//52 51//52 
f 54//53 55//53 56//53 
f 56//54 55//54 57//54 
f 53//55 55//55 54//55 
f 57//56 58//56 59//56 
f 55//57 58//57 57//57 
f 58//58 60//58 59//58 
f 60//59 61//59 59//59 
f 59//60 61//60 62//60 
f 61//61 63//61 62//61 
f 62//62 63//62 64//62 
f 64//63 63//63 65//63 
f 63//64 66//64 65//64 
f 66//65 67//65 65//65 
f 65//66 67//66 68//66 
f 68//67 67//67 69//67 
f 67//68 70//68 69//68 
f 70//69 71//69 69//69 
f 69//70 71//70 72//70 
f 72//71 71//71 73//71 
f 71//72 74//72 73//72 
f 74//73 75//73 73//73 
f 73//74 75//74 76//74 
f 76//75 77//75 78//75 
f 78//76 77//76 79//76 
f 75//77 77//77 76//77 
f 79//78 80//78 81//78 
f 77//79 80//79 79//79 
f 80//80 82//80 81//80 
f 81//81 83//81 84//81 
f 84//82 83//82 85//82 
f 82//83 83//83 81//83 
f 83//84 86//84 85//84 
f 85//85 87//85 88//85 
f 88//86 87//86 89//86 
f 86//87 87//87 85//87 
f 87//88 90//88 89//88 
f 89//89 91//89 92//89 
f 92//90 91//90 93//90 
f 90//91 91//91 89//91 
f 91//92 94//92 93//92 
f 93//93 95//93 96//93 
f 96//94 95//94 97//94 
f 94//95 95//95 93//95 
f 95//96 98//96 97//96 
f 97//97 99//97 100//97 
f 100//98 99//98 101//98 
f 98//99 99//99 97//99 
f 99//100 102//100 101//100 
f 101//101 103//101 104//101 
f 104//102 103//102 105//102 
f 102//103 103//103 101//103 
f 103//104 106//104 105//104 
f 105//105 107//105 108//105 
f 106//106 107//106 105//106 
f 108//107 11//107 12//107 
f 107//108 11//108 108//108 
f 9//109 11//109 7//109 
f 11//110 107//110 7//110 
f 107//111 106//111 7//111 
f 106//112 103//112 7//112 
f 103//113 102//113 7//113 
f 102//114 99//114 7//114 
f 99//115 98//115 7//115 
f 98//116 95//116 7//116 
f 95//117 94//117 7//117 
f 94//118 91//118 7//118 
f 91//119 90//119 7//119 
f 90//120 87//120 7//120 
f 87//121 86//121 7//121 
f 86//122 83//122 7//122 
f 83//123 82//123 7//123 
f 82//124 80//124 7//124 
f 80//125 77//125 7//125 
f 77//126 75//126 7//126 
f 75//127 74//127 7//127 
f 74//128 71//128 7//128 
f 71//129 70//129 7//129 
f 70//130 67//130 7//130 
f 67//131 66//131 7//131 
f 66//132 63//132 7//132 
f 63//133 61//133 7//133 
f 61//134 60//134 7//134 
f 60//135 58//135 7//135 
f 58//136 55//136 7//136 
f 55//137 53//137 7//137 
f 53//138 52//138 7//138 
f 52//139 49//139 7//139 
f 49//140 47//140 7//140 
f 47//141 45//141 7//141 
f 45//142 44//142 7//142 
f 44//143 41//143 7//143 
f 41//144 39//144 7//144 
f 39//145 37//145 7//145 
f 37//146 36//146 7//146 
f 36//147 33//147 7//147 
f 33//148 31//148 7//148 
f 31//149 29//149 7//149 
f 29//150 27//150 7//150 
f 27//151 25//151 7//151 
f 25//152 23//152 7//152 
f 23//153 21//153 7//153 
f 21//154 19//154 7//154 
f 19//155 17//155 7//155 
f 17//156 16//156 7//156 
f 16//157 13//157 7//157 
f 13//158 2//158 7//158 
f 2//159 5//159 7//159 
f 2//160 1//160 5//160 
f 12//161 10//161 8//161 
f 108//162 12//162 8//162 
f 105//163 108//163 8//163 
f 104//164 105//164 8//164 
f 101//165 104//165 8//165 
f 100//166 101//166 8//166 
f 97//167 100//167 8//167 
f 96//168 97//168 8//168 
f 93//169 96//169 8//169 
f 92//170 93//170 8//170 
f 89//171 92//171 8//171 
f 88//172 89//172 8//172 
f 85//173 88//173 8//173 
f 84//174 85//174 8//174 
f 81//175 84//175 8//175 
f 79//176 81//176 8//176 
f 78//177 79//177 8//177 
f 76//178 78//178 8//178 
f 73//179 76//179 8//179 
f 72//180 73//180 8//180 
f 69//181 72//181 8//181 
f 68//182 69//182 8//182 
f 65//183 68//183 8//183 
f 64//184 65//184 8//184 
f 62//185 64//185 8//185 
f 59//186 62//186 8//186 
f 57//187 59//187 8//187 
f 56//188 57//188 8//188 
f 54//189 56//189 8//189 
f 51//190 54//190 8//190 
f 50//191 51//191 8//191 
f 48//192 50//192 8//192 
f 46//193 48//193 8//193 
f 43//194 46//194 8//194 
f 42//195 43//195 8//195 
f 40//196 42//196 8//196 
f 38//197 40//197 8//197 
f 35//198 38//198 8//198 
f 34//199 35//199 8//199 
f 32//200 34//200 8//200 
f 30//201 32//201 8//201 
f 28//202 30//202 8//202 
f 26//203 28//203 8//203 
f 24//204 26//204 8//204 
f 22//205 24//205 8//205 
f 20//206 22//206 8//206 
f 18//207 20//207 8//207 
f 15//208 18//208 8//208 
f 14//209 15//209 8//209 
f 3//210 14//210 8//210 
f 6//211 3//211 8//211 
f 4//212 3//212 6//212 
