# FreeCAD v1.0 build1 Arch module
# https://www.freecad.org
mtllib Boat_Type001_MountingBoard.mtl
o Type001_MountingBoard
usemtl color_727980
v 3546.0 -50.0 100.0
v 3546.0 -50.0 1850.0
v 3546.0 -70.0 100.0
v 3545.759277 -50.0 1854.900879
v 3545.939697 -50.0 1852.453369
v 3545.45874 -50.0 1857.336548
v 3544.501465 -50.0 1862.149048
v 3545.039307 -50.0 1859.754517
v 3543.077148 -50.0 1866.844482
v 3543.846924 -50.0 1864.514282
v 3542.194092 -50.0 1869.134155
v 3540.095947 -50.0 1873.569824
v 3541.199463 -50.0 1871.377808
v 3538.886475 -50.0 1875.705078
v 3537.573486 -50.0 1877.778564
v 3534.650635 -50.0 1881.719604
v 3536.1604 -50.0 1879.784912
v 3533.047607 -50.0 1883.578003
v 3531.355225 -50.0 1885.355347
v 3529.577881 -50.0 1887.047607
v 3525.784912 -50.0 1890.1604
v 3527.719727 -50.0 1888.650513
v 3519.569824 -50.0 1894.096069
v 3523.778564 -50.0 1891.573486
v 3521.705078 -50.0 1892.886475
v 3517.377686 -50.0 1895.199463
v 3515.134277 -50.0 1896.19397
v 3510.51416 -50.0 1897.847046
v 3508.148926 -50.0 1898.501587
v 3503.336426 -50.0 1899.458862
v 3505.754395 -50.0 1899.039307
v 3498.453369 -50.0 1899.939819
v 3500.900879 -50.0 1899.759277
v 3496.0 -50.0 1900.0
v 3346.0 -50.0 100.0
v 3346.0 -50.0 1850.0
v 3393.546631 -50.0 1899.939819
v 3388.663574 -50.0 1899.458862
v 3391.099121 -50.0 1899.759277
v 3346.54126 -50.0 1857.336548
v 3346.960693 -50.0 1859.754517
v 3346.240723 -50.0 1854.900879
v 3386.245605 -50.0 1899.039307
v 3348.153076 -50.0 1864.514282
v 3346.060303 -50.0 1852.453369
v 3347.498535 -50.0 1862.149048
v 3381.48584 -50.0 1897.847046
v 3383.851074 -50.0 1898.501587
v 3348.922852 -50.0 1866.844482
v 3349.805908 -50.0 1869.134155
v 3376.865723 -50.0 1896.19397
v 3379.155518 -50.0 1897.077148
v 3350.800537 -50.0 1871.377808
v 3351.904053 -50.0 1873.569824
v 3372.430176 -50.0 1894.096069
v 3374.622314 -50.0 1895.199463
v 3353.113525 -50.0 1875.705078
v 3354.426514 -50.0 1877.778564
v 3355.8396 -50.0 1879.784912
v 3357.349365 -50.0 1881.719604
v 3368.221436 -50.0 1891.573486
v 3364.280273 -50.0 1888.650513
v 3366.215088 -50.0 1890.1604
v 3370.294922 -50.0 1892.886475
v 3362.422119 -50.0 1887.047607
v 3360.644775 -50.0 1885.355347
v 3358.952393 -50.0 1883.578003
v 3545.939697 -70.0 1852.453369
v 3546.0 -70.0 1850.0
v 3545.759277 -70.0 1854.900879
v 3545.45874 -70.0 1857.336548
v 3545.039307 -70.0 1859.754517
v 3544.501465 -70.0 1862.149048
v 3543.846924 -70.0 1864.514282
v 3543.077148 -70.0 1866.844482
v 3542.194092 -70.0 1869.134155
v 3541.199463 -70.0 1871.377808
v 3540.095947 -70.0 1873.569824
v 3538.886475 -70.0 1875.705078
v 3537.573486 -70.0 1877.778564
v 3536.1604 -70.0 1879.784912
v 3534.650635 -70.0 1881.719604
v 3533.047607 -70.0 1883.578003
v 3531.355225 -70.0 1885.355347
v 3529.577881 -70.0 1887.047607
v 3527.719727 -70.0 1888.650513
v 3525.784912 -70.0 1890.1604
v 3523.778564 -70.0 1891.573486
v 3521.705078 -70.0 1892.886475
v 3519.569824 -70.0 1894.096069
v 3517.377686 -70.0 1895.199463
v 3515.134277 -70.0 1896.19397
v 3512.844482 -50.0 1897.077148
v 3512.844482 -70.0 1897.077148
v 3510.51416 -70.0 1897.847046
v 3508.148926 -70.0 1898.501587
v 3505.754395 -70.0 1899.039307
v 3503.336426 -70.0 1899.458862
v 3500.900879 -70.0 1899.759277
v 3498.453369 -70.0 1899.939819
v 3496.0 -70.0 1900.0
v 3346.0 -70.0 100.0
v 3346.0 -70.0 1850.0
v 3396.0 -70.0 1900.0
v 3388.663574 -70.0 1899.458862
v 3393.546631 -70.0 1899.939819
v 3391.099121 -70.0 1899.759277
v 3346.960693 -70.0 1859.754517
v 3346.54126 -70.0 1857.336548
v 3346.240723 -70.0 1854.900879
v 3386.245605 -70.0 1899.039307
v 3348.153076 -70.0 1864.514282
v 3346.060303 -70.0 1852.453369
v 3347.498535 -70.0 1862.149048
v 3381.48584 -70.0 1897.847046
v 3383.851074 -70.0 1898.501587
v 3349.805908 -70.0 1869.134155
v 3348.922852 -70.0 1866.844482
v 3376.865723 -70.0 1896.19397
v 3379.155518 -70.0 1897.077148
v 3351.904053 -70.0 1873.569824
v 3350.800537 -70.0 1871.377808
v 3372.430176 -70.0 1894.096069
v 3374.622314 -70.0 1895.199463
v 3354.426514 -70.0 1877.778564
v 3353.113525 -70.0 1875.705078
v 3357.349365 -70.0 1881.719604
v 3355.8396 -70.0 1879.784912
v 3364.280273 -70.0 1888.650513
v 3368.221436 -70.0 1891.573486
v 3366.215088 -70.0 1890.1604
v 3370.294922 -70.0 1892.886475
v 3362.422119 -70.0 1887.047607
v 3360.644775 -70.0 1885.355347
v 3358.952393 -70.0 1883.578003
v 3396.0 -50.0 1900.0
vn 1.0 0.0 -0.0
vn 1.0 0.0 0.0
vn 0.0 1.0 0.0
vn 0.0 1.0 0.0
vn 0.0 1.0 0.0
vn 0.0 1.0 0.0
vn 0.0 1.0 0.0
vn 0.0 1.0 0.0
vn 0.0 1.0 0.0
vn 0.0 1.0 0.0
vn 0.0 1.0 0.0
vn 0.0 1.0 0.0
vn 0.0 1.0 0.0
vn 0.0 1.0 0.0
vn 0.0 1.0 0.0
vn 0.0 1.0 0.0
vn 0.0 1.0 0.0
vn 0.0 1.0 0.0
vn 0.0 1.0 0.0
vn 0.0 1.0 0.0
vn 0.0 1.0 0.0
vn 0.0 1.0 0.0
vn 0.0 1.0 0.0
vn 0.0 1.0 0.0
vn 0.0 1.0 0.0
vn 0.0 1.0 0.0
vn 0.0 1.0 0.0
vn 0.0 1.0 0.0
vn 0.0 1.0 0.0
vn 0.0 1.0 0.0
vn 0.0 1.0 0.0
vn 0.0 1.0 0.0
vn 0.0 1.0 0.0
vn 0.0 1.0 0.0
vn 0.0 1.0 -0.0
vn 0.0 1.0 0.0
vn 0.0 1.0 0.0
vn 0.0 1.0 0.0
vn -0.0 1.0 0.0
vn 0.0 1.0 0.0
vn 0.0 1.0 0.0
vn -0.0 1.0 0.0
vn -0.0 1.0 0.0
vn -0.0 1.0 0.0
vn 0.0 1.0 0.0
vn 0.0 1.0 0.0
vn -0.0 1.0 0.0
vn -0.0 1.0 0.0
vn -0.0 1.0 0.0
vn 0.0 1.0 0.0
vn 0.0 1.0 0.0
vn 0.0 1.0 0.0
vn -0.0 1.0 0.0
vn -0.0 1.0 0.0
vn 0.0 1.0 0.0
vn -0.0 1.0 0.0
vn -0.0 1.0 0.0
vn -0.0 1.0 0.0
vn -0.0 1.0 0.0
vn 0.0 1.0 0.0
vn 0.0 1.0 0.0
vn 0.0 1.0 0.0
vn 0.0 1.0 0.0
vn 0.0 1.0 0.0
vn 0.0 1.0 0.0
vn -0.0 1.0 0.0
vn 0.0 1.0 0.0
vn -0.0 1.0 0.0
vn 0.999698 -0.0 0.024572
vn 0.999698 0.0 0.024572
vn 0.997294 -0.0 0.073516
vn 0.997294 0.0 0.073516
vn 0.992473 -0.0 0.122461
vn 0.992473 0.0 0.122461
vn 0.985286 -0.0 0.170913
vn 0.985286 0.0 0.170913
vn 0.975691 -0.0 0.219152
vn 0.975691 0.0 0.219152
vn 0.963777 -0.0 0.26671
vn 0.94953 -0.0 0.313675
vn 0.963777 0.0 0.26671
vn 0.94953 -0.0 0.313675
vn 0.933016 0.0 0.359836
vn 0.933016 -0.0 0.359836
vn 0.914197 0.0 0.405271
vn 0.914197 -0.0 0.405271
vn 0.8932 -0.0 0.449659
vn 0.8932 0.0 0.449659
vn 0.87011 -0.0 0.492857
vn 0.87011 0.0 0.492857
vn 0.84486 -0.0 0.534988
vn 0.817574 -0.0 0.575824
vn 0.84486 0.0 0.534988
vn 0.788363 -0.0 0.615211
vn 0.817574 -0.0 0.575824
vn 0.788363 -0.0 0.615211
vn 0.757217 -0.0 0.653164
vn 0.724204 -0.0 0.689586
vn 0.757217 0.0 0.653164
vn 0.724204 -0.0 0.689586
vn 0.68956 -0.0 0.724229
vn 0.653185 -0.0 0.757199
vn 0.68956 0.0 0.724229
vn 0.653185 -0.0 0.757199
vn 0.615217 -0.0 0.788358
vn 0.615217 0.0 0.788358
vn 0.575824 -0.0 0.817574
vn 0.575824 0.0 0.817574
vn 0.534988 -0.0 0.84486
vn 0.534988 0.0 0.84486
vn 0.492895 -0.0 0.870089
vn 0.492895 0.0 0.870089
vn 0.4496 -0.0 0.89323
vn 0.4496 0.0 0.89323
vn 0.405266 -0.0 0.914199
vn 0.359862 -0.0 0.933005
vn 0.405266 0.0 0.914199
vn 0.359862 -0.0 0.933005
vn 0.313705 -0.0 0.949521
vn 0.313705 0.0 0.949521
vn 0.26671 -0.0 0.963777
vn 0.26671 0.0 0.963777
vn 0.219105 -0.0 0.975701
vn 0.170961 -0.0 0.985278
vn 0.219105 0.0 0.975701
vn 0.170961 -0.0 0.985278
vn 0.122418 -0.0 0.992479
vn 0.073566 -0.0 0.99729
vn 0.122418 0.0 0.992479
vn 0.073566 -0.0 0.99729
vn 0.024522 -0.0 0.999699
vn 0.024522 0.0 0.999699
vn 0.0 0.0 -1.0
vn -0.0 0.0 -1.0
vn 0.0 -1.0 0.0
vn 0.0 -1.0 0.0
vn 0.0 -1.0 0.0
vn 0.0 -1.0 0.0
vn 0.0 -1.0 0.0
vn 0.0 -1.0 0.0
vn 0.0 -1.0 0.0
vn 0.0 -1.0 0.0
vn 0.0 -1.0 0.0
vn 0.0 -1.0 0.0
vn 0.0 -1.0 0.0
vn 0.0 -1.0 0.0
vn 0.0 -1.0 0.0
vn 0.0 -1.0 0.0
vn 0.0 -1.0 0.0
vn 0.0 -1.0 0.0
vn 0.0 -1.0 0.0
vn 0.0 -1.0 0.0
vn 0.0 -1.0 0.0
vn 0.0 -1.0 0.0
vn 0.0 -1.0 0.0
vn 0.0 -1.0 0.0
vn 0.0 -1.0 0.0
vn 0.0 -1.0 0.0
vn 0.0 -1.0 0.0
vn 0.0 -1.0 0.0
vn 0.0 -1.0 0.0
vn 0.0 -1.0 0.0
vn 0.0 -1.0 0.0
vn 0.0 -1.0 0.0
vn 0.0 -1.0 0.0
vn 0.0 -1.0 0.0
vn 0.0 -1.0 0.0
vn 0.0 -1.0 0.0
vn 0.0 -1.0 0.0
vn 0.0 -1.0 0.0
vn 0.0 -1.0 0.0
vn 0.0 -1.0 0.0
vn 0.0 -1.0 0.0
vn 0.0 -1.0 0.0
vn 0.0 -1.0 0.0
vn 0.0 -1.0 0.0
vn 0.0 -1.0 0.0
vn 0.0 -1.0 0.0
vn 0.0 -1.0 0.0
vn 0.0 -1.0 0.0
vn 0.0 -1.0 0.0
vn 0.0 -1.0 0.0
vn 0.0 -1.0 0.0
vn 0.0 -1.0 -0.0
vn 0.0 -1.0 0.0
vn 0.0 -1.0 0.0
vn 0.0 -1.0 0.0
vn 0.0 -1.0 0.0
vn 0.0 -1.0 0.0
vn 0.0 -1.0 0.0
vn 0.0 -1.0 0.0
vn 0.0 -1.0 0.0
vn 0.0 -1.0 0.0
vn 0.0 -1.0 0.0
vn 0.0 -1.0 0.0
vn 0.0 -1.0 0.0
vn 0.0 -1.0 0.0
vn 0.0 -1.0 0.0
vn 0.0 -1.0 -0.0
vn 0.0 -1.0 0.0
vn -1.0 0.0 -0.0
vn -1.0 -0.0 0.0
vn -0.999698 0.0 0.024572
vn -0.999698 0.0 0.024572
vn -0.997294 0.0 0.073516
vn -0.997294 0.0 0.073516
vn -0.992473 0.0 0.122461
vn -0.992473 0.0 0.122461
vn -0.985286 0.0 0.170913
vn -0.985286 0.0 0.170913
vn -0.975691 0.0 0.219152
vn -0.975691 0.0 0.219152
vn -0.963777 0.0 0.26671
vn -0.963777 0.0 0.26671
vn -0.94953 0.0 0.313675
vn -0.94953 0.0 0.313675
vn -0.933016 0.0 0.359836
vn -0.914197 0.0 0.405271
vn -0.933016 0.0 0.359836
vn -0.914197 0.0 0.405271
vn -0.8932 0.0 0.449659
vn -0.8932 0.0 0.449659
vn -0.87011 0.0 0.492857
vn -0.87011 0.0 0.492857
vn -0.84486 0.0 0.534988
vn -0.84486 0.0 0.534988
vn -0.817574 0.0 0.575824
vn -0.788363 0.0 0.615211
vn -0.817574 0.0 0.575824
vn -0.757217 0.0 0.653164
vn -0.788363 0.0 0.615211
vn -0.757217 0.0 0.653164
vn -0.724204 0.0 0.689586
vn -0.724204 0.0 0.689586
vn -0.68956 0.0 0.724229
vn -0.653185 0.0 0.757199
vn -0.68956 0.0 0.724229
vn -0.653185 0.0 0.757199
vn -0.615217 0.0 0.788358
vn -0.615217 0.0 0.788358
vn -0.575824 0.0 0.817574
vn -0.575824 0.0 0.817574
vn -0.534988 0.0 0.84486
vn -0.492895 0.0 0.870089
vn -0.534988 0.0 0.84486
vn -0.492895 0.0 0.870089
vn -0.4496 0.0 0.89323
vn -0.4496 0.0 0.89323
vn -0.405266 0.0 0.914199
vn -0.359862 0.0 0.933005
vn -0.405266 0.0 0.914199
vn -0.359862 0.0 0.933005
vn -0.313705 0.0 0.949521
vn -0.26671 0.0 0.963777
vn -0.313705 0.0 0.949521
vn -0.26671 0.0 0.963777
vn -0.219105 0.0 0.975701
vn -0.170961 0.0 0.985278
vn -0.219105 0.0 0.975701
vn -0.170961 0.0 0.985278
vn -0.122418 0.0 0.992479
vn -0.122418 0.0 0.992479
vn -0.073566 0.0 0.99729
vn -0.073566 0.0 0.99729
vn -0.024522 0.0 0.999699
vn -0.024522 0.0 0.999699
vn 0.0 0.0 1.0
vn 0.0 0.0 1.0
f 1//1 2//1 3//1 
f 3//2 2//2 69//2 
f 2//3 4//3 5//3 
f 2//4 6//4 4//4 
f 6//5 7//5 8//5 
f 2//6 7//6 6//6 
f 7//7 9//7 10//7 
f 7//8 11//8 9//8 
f 11//9 12//9 13//9 
f 2//10 12//10 7//10 
f 7//11 12//11 11//11 
f 2//12 14//12 12//12 
f 2//13 15//13 14//13 
f 2//14 16//14 15//14 
f 15//15 16//15 17//15 
f 2//16 18//16 16//16 
f 2//17 19//17 18//17 
f 2//18 20//18 19//18 
f 20//19 21//19 22//19 
f 21//20 23//20 24//20 
f 24//21 23//21 25//21 
f 2//22 26//22 20//22 
f 20//23 26//23 21//23 
f 21//24 26//24 23//24 
f 2//25 27//25 26//25 
f 2//26 93//26 27//26 
f 2//27 28//27 93//27 
f 2//28 29//28 28//28 
f 2//29 30//29 29//29 
f 29//30 30//30 31//30 
f 30//31 32//31 33//31 
f 2//32 34//32 30//32 
f 30//33 34//33 32//33 
f 35//34 36//34 1//34 
f 1//35 36//35 2//35 
f 34//36 36//36 136//36 
f 2//37 36//37 34//37 
f 37//38 38//38 39//38 
f 40//39 41//39 42//39 
f 37//40 43//40 38//40 
f 136//41 43//41 37//41 
f 42//42 44//42 45//42 
f 46//43 44//43 41//43 
f 41//44 44//44 42//44 
f 136//45 47//45 43//45 
f 43//46 47//46 48//46 
f 49//47 50//47 44//47 
f 44//48 50//48 45//48 
f 45//49 51//49 36//49 
f 136//50 51//50 47//50 
f 47//51 51//51 52//51 
f 36//52 51//52 136//52 
f 53//53 54//53 50//53 
f 50//54 54//54 45//54 
f 51//55 55//55 56//55 
f 57//56 58//56 54//56 
f 54//57 58//57 45//57 
f 59//58 60//58 58//58 
f 58//59 60//59 45//59 
f 61//60 62//60 63//60 
f 64//61 62//61 61//61 
f 55//62 62//62 64//62 
f 51//63 65//63 55//63 
f 55//64 65//64 62//64 
f 51//65 66//65 65//65 
f 67//66 66//66 60//66 
f 45//67 66//67 51//67 
f 60//68 66//68 45//68 
f 68//69 2//69 5//69 
f 68//70 69//70 2//70 
f 70//71 5//71 4//71 
f 70//72 68//72 5//72 
f 71//73 4//73 6//73 
f 71//74 70//74 4//74 
f 72//75 6//75 8//75 
f 72//76 71//76 6//76 
f 73//77 8//77 7//77 
f 73//78 72//78 8//78 
f 74//79 7//79 10//79 
f 74//80 10//80 9//80 
f 74//81 73//81 7//81 
f 75//82 74//82 9//82 
f 76//83 75//83 9//83 
f 76//84 9//84 11//84 
f 77//85 76//85 11//85 
f 77//86 11//86 13//86 
f 78//87 13//87 12//87 
f 78//88 77//88 13//88 
f 79//89 12//89 14//89 
f 79//90 78//90 12//90 
f 80//91 14//91 15//91 
f 80//92 15//92 17//92 
f 80//93 79//93 14//93 
f 81//94 17//94 16//94 
f 81//95 80//95 17//95 
f 82//96 81//96 16//96 
f 83//97 16//97 18//97 
f 83//98 18//98 19//98 
f 83//99 82//99 16//99 
f 84//100 83//100 19//100 
f 85//101 19//101 20//101 
f 85//102 20//102 22//102 
f 85//103 84//103 19//103 
f 86//104 85//104 22//104 
f 87//105 22//105 21//105 
f 87//106 86//106 22//106 
f 88//107 21//107 24//107 
f 88//108 87//108 21//108 
f 89//109 24//109 25//109 
f 89//110 88//110 24//110 
f 90//111 25//111 23//111 
f 90//112 89//112 25//112 
f 91//113 23//113 26//113 
f 91//114 90//114 23//114 
f 92//115 26//115 27//115 
f 92//116 27//116 93//116 
f 92//117 91//117 26//117 
f 94//118 92//118 93//118 
f 95//119 93//119 28//119 
f 95//120 94//120 93//120 
f 96//121 28//121 29//121 
f 96//122 95//122 28//122 
f 97//123 29//123 31//123 
f 97//124 31//124 30//124 
f 97//125 96//125 29//125 
f 98//126 97//126 30//126 
f 99//127 30//127 33//127 
f 99//128 33//128 32//128 
f 99//129 98//129 30//129 
f 100//130 99//130 32//130 
f 101//131 32//131 34//131 
f 101//132 100//132 32//132 
f 3//133 102//133 1//133 
f 1//134 102//134 35//134 
f 70//135 69//135 68//135 
f 71//136 69//136 70//136 
f 73//137 71//137 72//137 
f 73//138 69//138 71//138 
f 75//139 73//139 74//139 
f 76//140 73//140 75//140 
f 78//141 76//141 77//141 
f 78//142 69//142 73//142 
f 78//143 73//143 76//143 
f 79//144 69//144 78//144 
f 80//145 69//145 79//145 
f 82//146 69//146 80//146 
f 82//147 80//147 81//147 
f 83//148 69//148 82//148 
f 84//149 69//149 83//149 
f 85//150 69//150 84//150 
f 87//151 85//151 86//151 
f 90//152 87//152 88//152 
f 90//153 88//153 89//153 
f 91//154 69//154 85//154 
f 91//155 85//155 87//155 
f 91//156 87//156 90//156 
f 92//157 69//157 91//157 
f 94//158 69//158 92//158 
f 95//159 69//159 94//159 
f 96//160 69//160 95//160 
f 98//161 69//161 96//161 
f 98//162 96//162 97//162 
f 100//163 98//163 99//163 
f 101//164 69//164 98//164 
f 101//165 98//165 100//165 
f 103//166 102//166 3//166 
f 103//167 3//167 69//167 
f 103//168 101//168 104//168 
f 103//169 69//169 101//169 
f 105//170 106//170 107//170 
f 108//171 109//171 110//171 
f 111//172 106//172 105//172 
f 111//173 104//173 106//173 
f 112//174 110//174 113//174 
f 112//175 114//175 108//175 
f 112//176 108//176 110//176 
f 115//177 104//177 111//177 
f 115//178 111//178 116//178 
f 117//179 118//179 112//179 
f 117//180 112//180 113//180 
f 119//181 113//181 103//181 
f 119//182 104//182 115//182 
f 119//183 115//183 120//183 
f 119//184 103//184 104//184 
f 121//185 122//185 117//185 
f 121//186 117//186 113//186 
f 123//187 119//187 124//187 
f 125//188 126//188 121//188 
f 125//189 121//189 113//189 
f 127//190 128//190 125//190 
f 127//191 125//191 113//191 
f 129//192 130//192 131//192 
f 129//193 132//193 130//193 
f 129//194 123//194 132//194 
f 133//195 119//195 123//195 
f 133//196 123//196 129//196 
f 134//197 119//197 133//197 
f 134//198 135//198 127//198 
f 134//199 113//199 119//199 
f 134//200 127//200 113//200 
f 36//201 35//201 102//201 
f 36//202 102//202 103//202 
f 36//203 113//203 45//203 
f 103//204 113//204 36//204 
f 45//205 110//205 42//205 
f 113//206 110//206 45//206 
f 42//207 109//207 40//207 
f 110//208 109//208 42//208 
f 40//209 108//209 41//209 
f 109//210 108//210 40//210 
f 41//211 114//211 46//211 
f 108//212 114//212 41//212 
f 46//213 112//213 44//213 
f 114//214 112//214 46//214 
f 44//215 118//215 49//215 
f 112//216 118//216 44//216 
f 49//217 117//217 50//217 
f 50//218 117//218 53//218 
f 118//219 117//219 49//219 
f 117//220 122//220 53//220 
f 53//221 121//221 54//221 
f 122//222 121//222 53//222 
f 54//223 126//223 57//223 
f 121//224 126//224 54//224 
f 57//225 125//225 58//225 
f 126//226 125//226 57//226 
f 58//227 128//227 59//227 
f 59//228 128//228 60//228 
f 125//229 128//229 58//229 
f 60//230 127//230 67//230 
f 128//231 127//231 60//231 
f 127//232 135//232 67//232 
f 67//233 134//233 66//233 
f 135//234 134//234 67//234 
f 66//235 133//235 65//235 
f 65//236 133//236 62//236 
f 134//237 133//237 66//237 
f 133//238 129//238 62//238 
f 62//239 131//239 63//239 
f 129//240 131//240 62//240 
f 63//241 130//241 61//241 
f 131//242 130//242 63//242 
f 61//243 132//243 64//243 
f 64//244 132//244 55//244 
f 130//245 132//245 61//245 
f 132//246 123//246 55//246 
f 55//247 124//247 56//247 
f 123//248 124//248 55//248 
f 56//249 119//249 51//249 
f 51//250 119//250 52//250 
f 124//251 119//251 56//251 
f 119//252 120//252 52//252 
f 52//253 115//253 47//253 
f 47//254 115//254 48//254 
f 120//255 115//255 52//255 
f 115//256 116//256 48//256 
f 48//257 111//257 43//257 
f 43//258 111//258 38//258 
f 116//259 111//259 48//259 
f 111//260 105//260 38//260 
f 38//261 107//261 39//261 
f 105//262 107//262 38//262 
f 39//263 106//263 37//263 
f 107//264 106//264 39//264 
f 37//265 104//265 136//265 
f 106//266 104//266 37//266 
f 104//267 101//267 34//267 
f 104//268 34//268 136//268 
