# FreeCAD v1.0 build1 Arch module
# https://www.freecad.org
mtllib Boat_Type001_MountingPlate.mtl
o Type001_MountingBoard_PlateBottom
usemtl color_727980
v 3527.0 -55.0 616.0
v 3527.0 -55.0 416.0
v 3527.0 -75.0 616.0
v 3527.0 -75.0 416.0
v 3367.0 -55.0 616.0
v 3367.0 -55.0 416.0
v 3367.0 -75.0 616.0
v 3367.0 -75.0 416.0
f 2 4 3 1
f 6 8 7 5
f 2 1 5 6
f 4 3 7 8
f 2 6 8 4
f 1 5 7 3
o Type001_MountingBoard_PlateTop
usemtl color_727980
v 3527.0 -55.0 1436.0
v 3527.0 -55.0 1026.0
v 3527.0 -75.0 1436.0
v 3527.0 -75.0 1026.0
v 3367.0 -55.0 1436.0
v 3367.0 -55.0 1026.0
v 3367.0 -75.0 1436.0
v 3367.0 -75.0 1026.0
f 10 12 11 9
f 14 16 15 13
f 10 9 13 14
f 12 11 15 16
f 10 14 16 12
f 9 13 15 11
