# FreeCAD v1.0 build1 Arch module
# https://www.freecad.org
mtllib Boat_Type001_PlatesBrackets.mtl
o Type001_MountingBoard_PlateBottom
usemtl color_727980
v 3527.0 -55.0 616.0
v 3527.0 -55.0 416.0
v 3527.0 -75.0 616.0
v 3527.0 -75.0 416.0
v 3367.0 -55.0 616.0
v 3367.0 -55.0 416.0
v 3367.0 -75.0 616.0
v 3367.0 -75.0 416.0
f 2 4 3 1
f 6 8 7 5
f 2 1 5 6
f 4 3 7 8
f 2 6 8 4
f 1 5 7 3
o Type001_MountingBoard_PlateTop
usemtl color_727980
v 3527.0 -55.0 1436.0
v 3527.0 -55.0 1026.0
v 3527.0 -75.0 1436.0
v 3527.0 -75.0 1026.0
v 3367.0 -55.0 1436.0
v 3367.0 -55.0 1026.0
v 3367.0 -75.0 1436.0
v 3367.0 -75.0 1026.0
f 10 12 11 9
f 14 16 15 13
f 10 9 13 14
f 12 11 15 16
f 10 14 16 12
f 9 13 15 11
o Type001_MountingBracket
usemtl color_727980
v 3546.0 150.0 1260.0
v 3546.0 150.0 1250.0
v 3346.0 150.0 1260.0
v 3346.0 150.0 1250.0
v 3546.0 -40.0 1260.0
v 3346.0 -40.0 1260.0
v 3346.0 -40.0 1450.0
v 3546.0 -40.0 1450.0
v 3546.0 -50.0 1450.0
v 3346.0 -50.0 1450.0
v 3546.0 -50.0 1250.0
v 3346.0 -50.0 1250.0
f 18 20 19 17
f 22 21 19 19
f 24 24 22 21
f 24 23 26 25
f 27 17 17 21 25 25
f 28 27 26 26
f 18 27 28 18
f 28 23 23 22 20 20
